%TF.GenerationSoftware,KiCad,Pcbnew,9.0.4*%
%TF.CreationDate,2025-11-08T13:29:43-07:00*%
%TF.ProjectId,egr304-subsystem schematic design-sb,65677233-3034-42d7-9375-627379737465,rev?*%
%TF.SameCoordinates,Original*%
%TF.FileFunction,Drillmap*%
%TF.FilePolarity,Positive*%
%FSLAX45Y45*%
G04 Gerber Fmt 4.5, Leading zero omitted, Abs format (unit mm)*
G04 Created by KiCad (PCBNEW 9.0.4) date 2025-11-08 13:29:43*
%MOMM*%
%LPD*%
G01*
G04 APERTURE LIST*
%ADD10C,0.050000*%
%ADD11C,0.200000*%
%ADD12C,0.100000*%
%ADD13C,0.101000*%
%ADD14C,0.160000*%
G04 APERTURE END LIST*
D10*
X9906000Y-5080000D02*
X19812000Y-5080000D01*
X19812000Y-14478000D01*
X9906000Y-14478000D01*
X9906000Y-5080000D01*
D11*
D12*
X12660000Y-11898000D02*
X12740000Y-11978000D01*
X12740000Y-11898000D02*
X12660000Y-11978000D01*
X12660000Y-13168000D02*
X12740000Y-13248000D01*
X12740000Y-13168000D02*
X12660000Y-13248000D01*
X12668000Y-7072000D02*
X12748000Y-7152000D01*
X12748000Y-7072000D02*
X12668000Y-7152000D01*
X13168000Y-7072000D02*
X13248000Y-7152000D01*
X13248000Y-7072000D02*
X13168000Y-7152000D01*
X13422000Y-11898000D02*
X13502000Y-11978000D01*
X13502000Y-11898000D02*
X13422000Y-11978000D01*
X13422000Y-13168000D02*
X13502000Y-13248000D01*
X13502000Y-13168000D02*
X13422000Y-13248000D01*
X13676000Y-7080000D02*
X13756000Y-7160000D01*
X13756000Y-7080000D02*
X13676000Y-7160000D01*
X13676000Y-7580000D02*
X13756000Y-7660000D01*
X13756000Y-7580000D02*
X13676000Y-7660000D01*
X13930000Y-11898000D02*
X14010000Y-11978000D01*
X14010000Y-11898000D02*
X13930000Y-11978000D01*
X13930000Y-13168000D02*
X14010000Y-13248000D01*
X14010000Y-13168000D02*
X13930000Y-13248000D01*
X14438000Y-6818000D02*
X14518000Y-6898000D01*
X14518000Y-6818000D02*
X14438000Y-6898000D01*
X14438000Y-8088000D02*
X14518000Y-8168000D01*
X14518000Y-8088000D02*
X14438000Y-8168000D01*
X15200000Y-7072000D02*
X15280000Y-7152000D01*
X15280000Y-7072000D02*
X15200000Y-7152000D01*
X15200000Y-7572000D02*
X15280000Y-7652000D01*
X15280000Y-7572000D02*
X15200000Y-7652000D01*
X16478000Y-13168000D02*
X16558000Y-13248000D01*
X16558000Y-13168000D02*
X16478000Y-13248000D01*
X16478000Y-13930000D02*
X16558000Y-14010000D01*
X16558000Y-13930000D02*
X16478000Y-14010000D01*
X16978000Y-13168000D02*
X17058000Y-13248000D01*
X17058000Y-13168000D02*
X16978000Y-13248000D01*
X16978000Y-13930000D02*
X17058000Y-14010000D01*
X17058000Y-13930000D02*
X16978000Y-14010000D01*
X17486000Y-11009000D02*
X17566000Y-11089000D01*
X17566000Y-11009000D02*
X17486000Y-11089000D01*
X17486000Y-12279000D02*
X17566000Y-12359000D01*
X17566000Y-12279000D02*
X17486000Y-12359000D01*
X19010000Y-9866000D02*
X19090000Y-9946000D01*
X19090000Y-9866000D02*
X19010000Y-9946000D01*
X19010000Y-11136000D02*
X19090000Y-11216000D01*
X19090000Y-11136000D02*
X19010000Y-11216000D01*
X18333000Y-11176000D02*
G75*
G02*
X18243000Y-11176000I-45000J0D01*
G01*
X18243000Y-11176000D02*
G75*
G02*
X18333000Y-11176000I45000J0D01*
G01*
X18587000Y-11176000D02*
G75*
G02*
X18497000Y-11176000I-45000J0D01*
G01*
X18497000Y-11176000D02*
G75*
G02*
X18587000Y-11176000I45000J0D01*
G01*
X11684000Y-9094000D02*
X11684000Y-9194000D01*
X11634000Y-9144000D02*
X11734000Y-9144000D01*
X11684000Y-10587000D02*
X11684000Y-10687000D01*
X11634000Y-10637000D02*
X11734000Y-10637000D01*
X11938000Y-9094000D02*
X11938000Y-9194000D01*
X11888000Y-9144000D02*
X11988000Y-9144000D01*
X11938000Y-10587000D02*
X11938000Y-10687000D01*
X11888000Y-10637000D02*
X11988000Y-10637000D01*
X12192000Y-9094000D02*
X12192000Y-9194000D01*
X12142000Y-9144000D02*
X12242000Y-9144000D01*
X12192000Y-10587000D02*
X12192000Y-10687000D01*
X12142000Y-10637000D02*
X12242000Y-10637000D01*
X12446000Y-9094000D02*
X12446000Y-9194000D01*
X12396000Y-9144000D02*
X12496000Y-9144000D01*
X12446000Y-10587000D02*
X12446000Y-10687000D01*
X12396000Y-10637000D02*
X12496000Y-10637000D01*
X12700000Y-5792000D02*
X12700000Y-5892000D01*
X12650000Y-5842000D02*
X12750000Y-5842000D01*
X12700000Y-7824000D02*
X12700000Y-7924000D01*
X12650000Y-7874000D02*
X12750000Y-7874000D01*
X12700000Y-9094000D02*
X12700000Y-9194000D01*
X12650000Y-9144000D02*
X12750000Y-9144000D01*
X12700000Y-10587000D02*
X12700000Y-10687000D01*
X12650000Y-10637000D02*
X12750000Y-10637000D01*
X12954000Y-9094000D02*
X12954000Y-9194000D01*
X12904000Y-9144000D02*
X13004000Y-9144000D01*
X12954000Y-10587000D02*
X12954000Y-10687000D01*
X12904000Y-10637000D02*
X13004000Y-10637000D01*
X13208000Y-8586000D02*
X13208000Y-8686000D01*
X13158000Y-8636000D02*
X13258000Y-8636000D01*
X13208000Y-9094000D02*
X13208000Y-9194000D01*
X13158000Y-9144000D02*
X13258000Y-9144000D01*
X13208000Y-10587000D02*
X13208000Y-10687000D01*
X13158000Y-10637000D02*
X13258000Y-10637000D01*
X13208000Y-11126000D02*
X13208000Y-11226000D01*
X13158000Y-11176000D02*
X13258000Y-11176000D01*
X13462000Y-9094000D02*
X13462000Y-9194000D01*
X13412000Y-9144000D02*
X13512000Y-9144000D01*
X13462000Y-10587000D02*
X13462000Y-10687000D01*
X13412000Y-10637000D02*
X13512000Y-10637000D01*
X13716000Y-6046000D02*
X13716000Y-6146000D01*
X13666000Y-6096000D02*
X13766000Y-6096000D01*
X13716000Y-6300000D02*
X13716000Y-6400000D01*
X13666000Y-6350000D02*
X13766000Y-6350000D01*
X13716000Y-6554000D02*
X13716000Y-6654000D01*
X13666000Y-6604000D02*
X13766000Y-6604000D01*
X13716000Y-8586000D02*
X13716000Y-8686000D01*
X13666000Y-8636000D02*
X13766000Y-8636000D01*
X13716000Y-9094000D02*
X13716000Y-9194000D01*
X13666000Y-9144000D02*
X13766000Y-9144000D01*
X13716000Y-10587000D02*
X13716000Y-10687000D01*
X13666000Y-10637000D02*
X13766000Y-10637000D01*
X13716000Y-11126000D02*
X13716000Y-11226000D01*
X13666000Y-11176000D02*
X13766000Y-11176000D01*
X13950000Y-8078000D02*
X13950000Y-8178000D01*
X13900000Y-8128000D02*
X14000000Y-8128000D01*
X13970000Y-9094000D02*
X13970000Y-9194000D01*
X13920000Y-9144000D02*
X14020000Y-9144000D01*
X13970000Y-10587000D02*
X13970000Y-10687000D01*
X13920000Y-10637000D02*
X14020000Y-10637000D01*
X14224000Y-8586000D02*
X14224000Y-8686000D01*
X14174000Y-8636000D02*
X14274000Y-8636000D01*
X14224000Y-9094000D02*
X14224000Y-9194000D01*
X14174000Y-9144000D02*
X14274000Y-9144000D01*
X14224000Y-10587000D02*
X14224000Y-10687000D01*
X14174000Y-10637000D02*
X14274000Y-10637000D01*
X14224000Y-11126000D02*
X14224000Y-11226000D01*
X14174000Y-11176000D02*
X14274000Y-11176000D01*
X14306000Y-11917000D02*
X14306000Y-12017000D01*
X14256000Y-11967000D02*
X14356000Y-11967000D01*
X14306000Y-12367000D02*
X14306000Y-12467000D01*
X14256000Y-12417000D02*
X14356000Y-12417000D01*
X14478000Y-6300000D02*
X14478000Y-6400000D01*
X14428000Y-6350000D02*
X14528000Y-6350000D01*
X14478000Y-9094000D02*
X14478000Y-9194000D01*
X14428000Y-9144000D02*
X14528000Y-9144000D01*
X14478000Y-10587000D02*
X14478000Y-10687000D01*
X14428000Y-10637000D02*
X14528000Y-10637000D01*
X14732000Y-9094000D02*
X14732000Y-9194000D01*
X14682000Y-9144000D02*
X14782000Y-9144000D01*
X14732000Y-10587000D02*
X14732000Y-10687000D01*
X14682000Y-10637000D02*
X14782000Y-10637000D01*
X14986000Y-9094000D02*
X14986000Y-9194000D01*
X14936000Y-9144000D02*
X15036000Y-9144000D01*
X14986000Y-10587000D02*
X14986000Y-10687000D01*
X14936000Y-10637000D02*
X15036000Y-10637000D01*
X14986000Y-11917000D02*
X14986000Y-12017000D01*
X14936000Y-11967000D02*
X15036000Y-11967000D01*
X14986000Y-12367000D02*
X14986000Y-12467000D01*
X14936000Y-12417000D02*
X15036000Y-12417000D01*
X15240000Y-9094000D02*
X15240000Y-9194000D01*
X15190000Y-9144000D02*
X15290000Y-9144000D01*
X15240000Y-10587000D02*
X15240000Y-10687000D01*
X15190000Y-10637000D02*
X15290000Y-10637000D01*
X15240000Y-11126000D02*
X15240000Y-11226000D01*
X15190000Y-11176000D02*
X15290000Y-11176000D01*
X15322000Y-11917000D02*
X15322000Y-12017000D01*
X15272000Y-11967000D02*
X15372000Y-11967000D01*
X15322000Y-12367000D02*
X15322000Y-12467000D01*
X15272000Y-12417000D02*
X15372000Y-12417000D01*
X15494000Y-9094000D02*
X15494000Y-9194000D01*
X15444000Y-9144000D02*
X15544000Y-9144000D01*
X15494000Y-10587000D02*
X15494000Y-10687000D01*
X15444000Y-10637000D02*
X15544000Y-10637000D01*
X15748000Y-9094000D02*
X15748000Y-9194000D01*
X15698000Y-9144000D02*
X15798000Y-9144000D01*
X15748000Y-10587000D02*
X15748000Y-10687000D01*
X15698000Y-10637000D02*
X15798000Y-10637000D01*
X16002000Y-9094000D02*
X16002000Y-9194000D01*
X15952000Y-9144000D02*
X16052000Y-9144000D01*
X16002000Y-10587000D02*
X16002000Y-10687000D01*
X15952000Y-10637000D02*
X16052000Y-10637000D01*
X16002000Y-11917000D02*
X16002000Y-12017000D01*
X15952000Y-11967000D02*
X16052000Y-11967000D01*
X16002000Y-12367000D02*
X16002000Y-12467000D01*
X15952000Y-12417000D02*
X16052000Y-12417000D01*
X16002000Y-13168000D02*
X16002000Y-13268000D01*
X15952000Y-13218000D02*
X16052000Y-13218000D01*
X16002000Y-13920000D02*
X16002000Y-14020000D01*
X15952000Y-13970000D02*
X16052000Y-13970000D01*
X16256000Y-6046000D02*
X16256000Y-6146000D01*
X16206000Y-6096000D02*
X16306000Y-6096000D01*
X16256000Y-6300000D02*
X16256000Y-6400000D01*
X16206000Y-6350000D02*
X16306000Y-6350000D01*
X16256000Y-6554000D02*
X16256000Y-6654000D01*
X16206000Y-6604000D02*
X16306000Y-6604000D01*
X16256000Y-6808000D02*
X16256000Y-6908000D01*
X16206000Y-6858000D02*
X16306000Y-6858000D01*
X16256000Y-7062000D02*
X16256000Y-7162000D01*
X16206000Y-7112000D02*
X16306000Y-7112000D01*
X16256000Y-7316000D02*
X16256000Y-7416000D01*
X16206000Y-7366000D02*
X16306000Y-7366000D01*
X16256000Y-7570000D02*
X16256000Y-7670000D01*
X16206000Y-7620000D02*
X16306000Y-7620000D01*
X16256000Y-7824000D02*
X16256000Y-7924000D01*
X16206000Y-7874000D02*
X16306000Y-7874000D01*
X16256000Y-9094000D02*
X16256000Y-9194000D01*
X16206000Y-9144000D02*
X16306000Y-9144000D01*
X16256000Y-10587000D02*
X16256000Y-10687000D01*
X16206000Y-10637000D02*
X16306000Y-10637000D01*
X16424000Y-12142000D02*
X16424000Y-12242000D01*
X16374000Y-12192000D02*
X16474000Y-12192000D01*
X16424000Y-12592000D02*
X16424000Y-12692000D01*
X16374000Y-12642000D02*
X16474000Y-12642000D01*
X16510000Y-9094000D02*
X16510000Y-9194000D01*
X16460000Y-9144000D02*
X16560000Y-9144000D01*
X16510000Y-10587000D02*
X16510000Y-10687000D01*
X16460000Y-10637000D02*
X16560000Y-10637000D01*
X16510000Y-11634000D02*
X16510000Y-11734000D01*
X16460000Y-11684000D02*
X16560000Y-11684000D01*
X16764000Y-9094000D02*
X16764000Y-9194000D01*
X16714000Y-9144000D02*
X16814000Y-9144000D01*
X16764000Y-10587000D02*
X16764000Y-10687000D01*
X16714000Y-10637000D02*
X16814000Y-10637000D01*
X16764000Y-11126000D02*
X16764000Y-11226000D01*
X16714000Y-11176000D02*
X16814000Y-11176000D01*
X17018000Y-6046000D02*
X17018000Y-6146000D01*
X16968000Y-6096000D02*
X17068000Y-6096000D01*
X17018000Y-6300000D02*
X17018000Y-6400000D01*
X16968000Y-6350000D02*
X17068000Y-6350000D01*
X17018000Y-6554000D02*
X17018000Y-6654000D01*
X16968000Y-6604000D02*
X17068000Y-6604000D01*
X17018000Y-6808000D02*
X17018000Y-6908000D01*
X16968000Y-6858000D02*
X17068000Y-6858000D01*
X17018000Y-7062000D02*
X17018000Y-7162000D01*
X16968000Y-7112000D02*
X17068000Y-7112000D01*
X17018000Y-7316000D02*
X17018000Y-7416000D01*
X16968000Y-7366000D02*
X17068000Y-7366000D01*
X17018000Y-7570000D02*
X17018000Y-7670000D01*
X16968000Y-7620000D02*
X17068000Y-7620000D01*
X17018000Y-7824000D02*
X17018000Y-7924000D01*
X16968000Y-7874000D02*
X17068000Y-7874000D01*
X17018000Y-9094000D02*
X17018000Y-9194000D01*
X16968000Y-9144000D02*
X17068000Y-9144000D01*
X17018000Y-10587000D02*
X17018000Y-10687000D01*
X16968000Y-10637000D02*
X17068000Y-10637000D01*
X17104000Y-12142000D02*
X17104000Y-12242000D01*
X17054000Y-12192000D02*
X17154000Y-12192000D01*
X17104000Y-12592000D02*
X17104000Y-12692000D01*
X17054000Y-12642000D02*
X17154000Y-12642000D01*
X17272000Y-9094000D02*
X17272000Y-9194000D01*
X17222000Y-9144000D02*
X17322000Y-9144000D01*
X17272000Y-10587000D02*
X17272000Y-10687000D01*
X17222000Y-10637000D02*
X17322000Y-10637000D01*
X17484000Y-13168000D02*
X17484000Y-13268000D01*
X17434000Y-13218000D02*
X17534000Y-13218000D01*
X17484000Y-13920000D02*
X17484000Y-14020000D01*
X17434000Y-13970000D02*
X17534000Y-13970000D01*
X17526000Y-9094000D02*
X17526000Y-9194000D01*
X17476000Y-9144000D02*
X17576000Y-9144000D01*
X17526000Y-10587000D02*
X17526000Y-10687000D01*
X17476000Y-10637000D02*
X17576000Y-10637000D01*
X17738000Y-13168000D02*
X17738000Y-13268000D01*
X17688000Y-13218000D02*
X17788000Y-13218000D01*
X17738000Y-13920000D02*
X17738000Y-14020000D01*
X17688000Y-13970000D02*
X17788000Y-13970000D01*
X17780000Y-6046000D02*
X17780000Y-6146000D01*
X17730000Y-6096000D02*
X17830000Y-6096000D01*
X17780000Y-6300000D02*
X17780000Y-6400000D01*
X17730000Y-6350000D02*
X17830000Y-6350000D01*
X17780000Y-6554000D02*
X17780000Y-6654000D01*
X17730000Y-6604000D02*
X17830000Y-6604000D01*
X17780000Y-6808000D02*
X17780000Y-6908000D01*
X17730000Y-6858000D02*
X17830000Y-6858000D01*
X17780000Y-7062000D02*
X17780000Y-7162000D01*
X17730000Y-7112000D02*
X17830000Y-7112000D01*
X17780000Y-7316000D02*
X17780000Y-7416000D01*
X17730000Y-7366000D02*
X17830000Y-7366000D01*
X17780000Y-7570000D02*
X17780000Y-7670000D01*
X17730000Y-7620000D02*
X17830000Y-7620000D01*
X17780000Y-7824000D02*
X17780000Y-7924000D01*
X17730000Y-7874000D02*
X17830000Y-7874000D01*
X17780000Y-9094000D02*
X17780000Y-9194000D01*
X17730000Y-9144000D02*
X17830000Y-9144000D01*
X17780000Y-10587000D02*
X17780000Y-10687000D01*
X17730000Y-10637000D02*
X17830000Y-10637000D01*
X17992000Y-13168000D02*
X17992000Y-13268000D01*
X17942000Y-13218000D02*
X18042000Y-13218000D01*
X17992000Y-13920000D02*
X17992000Y-14020000D01*
X17942000Y-13970000D02*
X18042000Y-13970000D01*
X18034000Y-9094000D02*
X18034000Y-9194000D01*
X17984000Y-9144000D02*
X18084000Y-9144000D01*
X18034000Y-10587000D02*
X18034000Y-10687000D01*
X17984000Y-10637000D02*
X18084000Y-10637000D01*
X18288000Y-9094000D02*
X18288000Y-9194000D01*
X18238000Y-9144000D02*
X18338000Y-9144000D01*
X18288000Y-10587000D02*
X18288000Y-10687000D01*
X18238000Y-10637000D02*
X18338000Y-10637000D01*
X18317000Y-11548000D02*
X18317000Y-11648000D01*
X18267000Y-11598000D02*
X18367000Y-11598000D01*
X18317000Y-12228000D02*
X18317000Y-12328000D01*
X18267000Y-12278000D02*
X18367000Y-12278000D01*
X18392000Y-13168000D02*
X18392000Y-13268000D01*
X18342000Y-13218000D02*
X18442000Y-13218000D01*
X18532000Y-13168000D02*
X18252000Y-13168000D01*
X18252000Y-13268000D02*
G75*
G02*
X18252000Y-13168000I0J50000D01*
G01*
X18252000Y-13268000D02*
X18532000Y-13268000D01*
X18532000Y-13268000D02*
G75*
G03*
X18532000Y-13168000I0J50000D01*
G01*
X18392000Y-13920000D02*
X18392000Y-14020000D01*
X18342000Y-13970000D02*
X18442000Y-13970000D01*
X18532000Y-13920000D02*
X18252000Y-13920000D01*
X18252000Y-14020000D02*
G75*
G02*
X18252000Y-13920000I0J50000D01*
G01*
X18252000Y-14020000D02*
X18532000Y-14020000D01*
X18532000Y-14020000D02*
G75*
G03*
X18532000Y-13920000I0J50000D01*
G01*
X18542000Y-9094000D02*
X18542000Y-9194000D01*
X18492000Y-9144000D02*
X18592000Y-9144000D01*
X18542000Y-10587000D02*
X18542000Y-10687000D01*
X18492000Y-10637000D02*
X18592000Y-10637000D01*
X18767000Y-11548000D02*
X18767000Y-11648000D01*
X18717000Y-11598000D02*
X18817000Y-11598000D01*
X18767000Y-12228000D02*
X18767000Y-12328000D01*
X18717000Y-12278000D02*
X18817000Y-12278000D01*
X18796000Y-13168000D02*
X18796000Y-13268000D01*
X18746000Y-13218000D02*
X18846000Y-13218000D01*
X18796000Y-13920000D02*
X18796000Y-14020000D01*
X18746000Y-13970000D02*
X18846000Y-13970000D01*
X19050000Y-13168000D02*
X19050000Y-13268000D01*
X19000000Y-13218000D02*
X19100000Y-13218000D01*
X19050000Y-13920000D02*
X19050000Y-14020000D01*
X19000000Y-13970000D02*
X19100000Y-13970000D01*
X19304000Y-13168000D02*
X19304000Y-13268000D01*
X19254000Y-13218000D02*
X19354000Y-13218000D01*
X19304000Y-13920000D02*
X19304000Y-14020000D01*
X19254000Y-13970000D02*
X19354000Y-13970000D01*
D13*
X12733709Y-6427709D02*
X12733709Y-6356291D01*
X12662291Y-6356291D01*
X12662291Y-6427709D01*
X12733709Y-6427709D01*
X13243709Y-6547709D02*
X13243709Y-6476291D01*
X13172291Y-6476291D01*
X13172291Y-6547709D01*
X13243709Y-6547709D01*
D14*
X11684000Y-6938000D02*
X11764000Y-6858000D01*
X11684000Y-6778000D01*
X11604000Y-6858000D01*
X11684000Y-6938000D01*
X11984000Y-7408000D02*
X12064000Y-7328000D01*
X11984000Y-7248000D01*
X11904000Y-7328000D01*
X11984000Y-7408000D01*
X12284000Y-6938000D02*
X12364000Y-6858000D01*
X12284000Y-6778000D01*
X12204000Y-6858000D01*
X12284000Y-6938000D01*
D11*
X10164277Y-14791984D02*
X10164277Y-14591984D01*
X10164277Y-14591984D02*
X10211896Y-14591984D01*
X10211896Y-14591984D02*
X10240467Y-14601508D01*
X10240467Y-14601508D02*
X10259515Y-14620555D01*
X10259515Y-14620555D02*
X10269039Y-14639603D01*
X10269039Y-14639603D02*
X10278563Y-14677698D01*
X10278563Y-14677698D02*
X10278563Y-14706269D01*
X10278563Y-14706269D02*
X10269039Y-14744365D01*
X10269039Y-14744365D02*
X10259515Y-14763412D01*
X10259515Y-14763412D02*
X10240467Y-14782460D01*
X10240467Y-14782460D02*
X10211896Y-14791984D01*
X10211896Y-14791984D02*
X10164277Y-14791984D01*
X10364277Y-14791984D02*
X10364277Y-14658650D01*
X10364277Y-14696746D02*
X10373801Y-14677698D01*
X10373801Y-14677698D02*
X10383324Y-14668174D01*
X10383324Y-14668174D02*
X10402372Y-14658650D01*
X10402372Y-14658650D02*
X10421420Y-14658650D01*
X10488086Y-14791984D02*
X10488086Y-14658650D01*
X10488086Y-14591984D02*
X10478563Y-14601508D01*
X10478563Y-14601508D02*
X10488086Y-14611031D01*
X10488086Y-14611031D02*
X10497610Y-14601508D01*
X10497610Y-14601508D02*
X10488086Y-14591984D01*
X10488086Y-14591984D02*
X10488086Y-14611031D01*
X10611896Y-14791984D02*
X10592848Y-14782460D01*
X10592848Y-14782460D02*
X10583324Y-14763412D01*
X10583324Y-14763412D02*
X10583324Y-14591984D01*
X10716658Y-14791984D02*
X10697610Y-14782460D01*
X10697610Y-14782460D02*
X10688086Y-14763412D01*
X10688086Y-14763412D02*
X10688086Y-14591984D01*
X10945229Y-14791984D02*
X10945229Y-14591984D01*
X10945229Y-14591984D02*
X11011896Y-14734841D01*
X11011896Y-14734841D02*
X11078563Y-14591984D01*
X11078563Y-14591984D02*
X11078563Y-14791984D01*
X11259515Y-14791984D02*
X11259515Y-14687222D01*
X11259515Y-14687222D02*
X11249991Y-14668174D01*
X11249991Y-14668174D02*
X11230943Y-14658650D01*
X11230943Y-14658650D02*
X11192848Y-14658650D01*
X11192848Y-14658650D02*
X11173801Y-14668174D01*
X11259515Y-14782460D02*
X11240467Y-14791984D01*
X11240467Y-14791984D02*
X11192848Y-14791984D01*
X11192848Y-14791984D02*
X11173801Y-14782460D01*
X11173801Y-14782460D02*
X11164277Y-14763412D01*
X11164277Y-14763412D02*
X11164277Y-14744365D01*
X11164277Y-14744365D02*
X11173801Y-14725317D01*
X11173801Y-14725317D02*
X11192848Y-14715793D01*
X11192848Y-14715793D02*
X11240467Y-14715793D01*
X11240467Y-14715793D02*
X11259515Y-14706269D01*
X11354753Y-14658650D02*
X11354753Y-14858650D01*
X11354753Y-14668174D02*
X11373801Y-14658650D01*
X11373801Y-14658650D02*
X11411896Y-14658650D01*
X11411896Y-14658650D02*
X11430943Y-14668174D01*
X11430943Y-14668174D02*
X11440467Y-14677698D01*
X11440467Y-14677698D02*
X11449991Y-14696746D01*
X11449991Y-14696746D02*
X11449991Y-14753888D01*
X11449991Y-14753888D02*
X11440467Y-14772936D01*
X11440467Y-14772936D02*
X11430943Y-14782460D01*
X11430943Y-14782460D02*
X11411896Y-14791984D01*
X11411896Y-14791984D02*
X11373801Y-14791984D01*
X11373801Y-14791984D02*
X11354753Y-14782460D01*
X11535705Y-14772936D02*
X11545229Y-14782460D01*
X11545229Y-14782460D02*
X11535705Y-14791984D01*
X11535705Y-14791984D02*
X11526182Y-14782460D01*
X11526182Y-14782460D02*
X11535705Y-14772936D01*
X11535705Y-14772936D02*
X11535705Y-14791984D01*
X11535705Y-14668174D02*
X11545229Y-14677698D01*
X11545229Y-14677698D02*
X11535705Y-14687222D01*
X11535705Y-14687222D02*
X11526182Y-14677698D01*
X11526182Y-14677698D02*
X11535705Y-14668174D01*
X11535705Y-14668174D02*
X11535705Y-14687222D01*
D12*
X9823500Y-15080500D02*
X9903500Y-15160500D01*
X9903500Y-15080500D02*
X9823500Y-15160500D01*
D11*
X10202372Y-15011984D02*
X10221420Y-15011984D01*
X10221420Y-15011984D02*
X10240467Y-15021508D01*
X10240467Y-15021508D02*
X10249991Y-15031031D01*
X10249991Y-15031031D02*
X10259515Y-15050079D01*
X10259515Y-15050079D02*
X10269039Y-15088174D01*
X10269039Y-15088174D02*
X10269039Y-15135793D01*
X10269039Y-15135793D02*
X10259515Y-15173888D01*
X10259515Y-15173888D02*
X10249991Y-15192936D01*
X10249991Y-15192936D02*
X10240467Y-15202460D01*
X10240467Y-15202460D02*
X10221420Y-15211984D01*
X10221420Y-15211984D02*
X10202372Y-15211984D01*
X10202372Y-15211984D02*
X10183324Y-15202460D01*
X10183324Y-15202460D02*
X10173801Y-15192936D01*
X10173801Y-15192936D02*
X10164277Y-15173888D01*
X10164277Y-15173888D02*
X10154753Y-15135793D01*
X10154753Y-15135793D02*
X10154753Y-15088174D01*
X10154753Y-15088174D02*
X10164277Y-15050079D01*
X10164277Y-15050079D02*
X10173801Y-15031031D01*
X10173801Y-15031031D02*
X10183324Y-15021508D01*
X10183324Y-15021508D02*
X10202372Y-15011984D01*
X10354753Y-15192936D02*
X10364277Y-15202460D01*
X10364277Y-15202460D02*
X10354753Y-15211984D01*
X10354753Y-15211984D02*
X10345229Y-15202460D01*
X10345229Y-15202460D02*
X10354753Y-15192936D01*
X10354753Y-15192936D02*
X10354753Y-15211984D01*
X10478563Y-15097698D02*
X10459515Y-15088174D01*
X10459515Y-15088174D02*
X10449991Y-15078650D01*
X10449991Y-15078650D02*
X10440467Y-15059603D01*
X10440467Y-15059603D02*
X10440467Y-15050079D01*
X10440467Y-15050079D02*
X10449991Y-15031031D01*
X10449991Y-15031031D02*
X10459515Y-15021508D01*
X10459515Y-15021508D02*
X10478563Y-15011984D01*
X10478563Y-15011984D02*
X10516658Y-15011984D01*
X10516658Y-15011984D02*
X10535705Y-15021508D01*
X10535705Y-15021508D02*
X10545229Y-15031031D01*
X10545229Y-15031031D02*
X10554753Y-15050079D01*
X10554753Y-15050079D02*
X10554753Y-15059603D01*
X10554753Y-15059603D02*
X10545229Y-15078650D01*
X10545229Y-15078650D02*
X10535705Y-15088174D01*
X10535705Y-15088174D02*
X10516658Y-15097698D01*
X10516658Y-15097698D02*
X10478563Y-15097698D01*
X10478563Y-15097698D02*
X10459515Y-15107222D01*
X10459515Y-15107222D02*
X10449991Y-15116746D01*
X10449991Y-15116746D02*
X10440467Y-15135793D01*
X10440467Y-15135793D02*
X10440467Y-15173888D01*
X10440467Y-15173888D02*
X10449991Y-15192936D01*
X10449991Y-15192936D02*
X10459515Y-15202460D01*
X10459515Y-15202460D02*
X10478563Y-15211984D01*
X10478563Y-15211984D02*
X10516658Y-15211984D01*
X10516658Y-15211984D02*
X10535705Y-15202460D01*
X10535705Y-15202460D02*
X10545229Y-15192936D01*
X10545229Y-15192936D02*
X10554753Y-15173888D01*
X10554753Y-15173888D02*
X10554753Y-15135793D01*
X10554753Y-15135793D02*
X10545229Y-15116746D01*
X10545229Y-15116746D02*
X10535705Y-15107222D01*
X10535705Y-15107222D02*
X10516658Y-15097698D01*
X10678563Y-15011984D02*
X10697610Y-15011984D01*
X10697610Y-15011984D02*
X10716658Y-15021508D01*
X10716658Y-15021508D02*
X10726182Y-15031031D01*
X10726182Y-15031031D02*
X10735705Y-15050079D01*
X10735705Y-15050079D02*
X10745229Y-15088174D01*
X10745229Y-15088174D02*
X10745229Y-15135793D01*
X10745229Y-15135793D02*
X10735705Y-15173888D01*
X10735705Y-15173888D02*
X10726182Y-15192936D01*
X10726182Y-15192936D02*
X10716658Y-15202460D01*
X10716658Y-15202460D02*
X10697610Y-15211984D01*
X10697610Y-15211984D02*
X10678563Y-15211984D01*
X10678563Y-15211984D02*
X10659515Y-15202460D01*
X10659515Y-15202460D02*
X10649991Y-15192936D01*
X10649991Y-15192936D02*
X10640467Y-15173888D01*
X10640467Y-15173888D02*
X10630944Y-15135793D01*
X10630944Y-15135793D02*
X10630944Y-15088174D01*
X10630944Y-15088174D02*
X10640467Y-15050079D01*
X10640467Y-15050079D02*
X10649991Y-15031031D01*
X10649991Y-15031031D02*
X10659515Y-15021508D01*
X10659515Y-15021508D02*
X10678563Y-15011984D01*
X10869039Y-15011984D02*
X10888086Y-15011984D01*
X10888086Y-15011984D02*
X10907134Y-15021508D01*
X10907134Y-15021508D02*
X10916658Y-15031031D01*
X10916658Y-15031031D02*
X10926182Y-15050079D01*
X10926182Y-15050079D02*
X10935705Y-15088174D01*
X10935705Y-15088174D02*
X10935705Y-15135793D01*
X10935705Y-15135793D02*
X10926182Y-15173888D01*
X10926182Y-15173888D02*
X10916658Y-15192936D01*
X10916658Y-15192936D02*
X10907134Y-15202460D01*
X10907134Y-15202460D02*
X10888086Y-15211984D01*
X10888086Y-15211984D02*
X10869039Y-15211984D01*
X10869039Y-15211984D02*
X10849991Y-15202460D01*
X10849991Y-15202460D02*
X10840467Y-15192936D01*
X10840467Y-15192936D02*
X10830944Y-15173888D01*
X10830944Y-15173888D02*
X10821420Y-15135793D01*
X10821420Y-15135793D02*
X10821420Y-15088174D01*
X10821420Y-15088174D02*
X10830944Y-15050079D01*
X10830944Y-15050079D02*
X10840467Y-15031031D01*
X10840467Y-15031031D02*
X10849991Y-15021508D01*
X10849991Y-15021508D02*
X10869039Y-15011984D01*
X11021420Y-15211984D02*
X11021420Y-15078650D01*
X11021420Y-15097698D02*
X11030944Y-15088174D01*
X11030944Y-15088174D02*
X11049991Y-15078650D01*
X11049991Y-15078650D02*
X11078563Y-15078650D01*
X11078563Y-15078650D02*
X11097610Y-15088174D01*
X11097610Y-15088174D02*
X11107134Y-15107222D01*
X11107134Y-15107222D02*
X11107134Y-15211984D01*
X11107134Y-15107222D02*
X11116658Y-15088174D01*
X11116658Y-15088174D02*
X11135705Y-15078650D01*
X11135705Y-15078650D02*
X11164277Y-15078650D01*
X11164277Y-15078650D02*
X11183325Y-15088174D01*
X11183325Y-15088174D02*
X11192848Y-15107222D01*
X11192848Y-15107222D02*
X11192848Y-15211984D01*
X11288086Y-15211984D02*
X11288086Y-15078650D01*
X11288086Y-15097698D02*
X11297610Y-15088174D01*
X11297610Y-15088174D02*
X11316658Y-15078650D01*
X11316658Y-15078650D02*
X11345229Y-15078650D01*
X11345229Y-15078650D02*
X11364277Y-15088174D01*
X11364277Y-15088174D02*
X11373801Y-15107222D01*
X11373801Y-15107222D02*
X11373801Y-15211984D01*
X11373801Y-15107222D02*
X11383324Y-15088174D01*
X11383324Y-15088174D02*
X11402372Y-15078650D01*
X11402372Y-15078650D02*
X11430943Y-15078650D01*
X11430943Y-15078650D02*
X11449991Y-15088174D01*
X11449991Y-15088174D02*
X11459515Y-15107222D01*
X11459515Y-15107222D02*
X11459515Y-15211984D01*
X11849991Y-15002460D02*
X11678563Y-15259603D01*
X12107134Y-15011984D02*
X12126182Y-15011984D01*
X12126182Y-15011984D02*
X12145229Y-15021508D01*
X12145229Y-15021508D02*
X12154753Y-15031031D01*
X12154753Y-15031031D02*
X12164277Y-15050079D01*
X12164277Y-15050079D02*
X12173801Y-15088174D01*
X12173801Y-15088174D02*
X12173801Y-15135793D01*
X12173801Y-15135793D02*
X12164277Y-15173888D01*
X12164277Y-15173888D02*
X12154753Y-15192936D01*
X12154753Y-15192936D02*
X12145229Y-15202460D01*
X12145229Y-15202460D02*
X12126182Y-15211984D01*
X12126182Y-15211984D02*
X12107134Y-15211984D01*
X12107134Y-15211984D02*
X12088086Y-15202460D01*
X12088086Y-15202460D02*
X12078563Y-15192936D01*
X12078563Y-15192936D02*
X12069039Y-15173888D01*
X12069039Y-15173888D02*
X12059515Y-15135793D01*
X12059515Y-15135793D02*
X12059515Y-15088174D01*
X12059515Y-15088174D02*
X12069039Y-15050079D01*
X12069039Y-15050079D02*
X12078563Y-15031031D01*
X12078563Y-15031031D02*
X12088086Y-15021508D01*
X12088086Y-15021508D02*
X12107134Y-15011984D01*
X12259515Y-15192936D02*
X12269039Y-15202460D01*
X12269039Y-15202460D02*
X12259515Y-15211984D01*
X12259515Y-15211984D02*
X12249991Y-15202460D01*
X12249991Y-15202460D02*
X12259515Y-15192936D01*
X12259515Y-15192936D02*
X12259515Y-15211984D01*
X12392848Y-15011984D02*
X12411896Y-15011984D01*
X12411896Y-15011984D02*
X12430944Y-15021508D01*
X12430944Y-15021508D02*
X12440467Y-15031031D01*
X12440467Y-15031031D02*
X12449991Y-15050079D01*
X12449991Y-15050079D02*
X12459515Y-15088174D01*
X12459515Y-15088174D02*
X12459515Y-15135793D01*
X12459515Y-15135793D02*
X12449991Y-15173888D01*
X12449991Y-15173888D02*
X12440467Y-15192936D01*
X12440467Y-15192936D02*
X12430944Y-15202460D01*
X12430944Y-15202460D02*
X12411896Y-15211984D01*
X12411896Y-15211984D02*
X12392848Y-15211984D01*
X12392848Y-15211984D02*
X12373801Y-15202460D01*
X12373801Y-15202460D02*
X12364277Y-15192936D01*
X12364277Y-15192936D02*
X12354753Y-15173888D01*
X12354753Y-15173888D02*
X12345229Y-15135793D01*
X12345229Y-15135793D02*
X12345229Y-15088174D01*
X12345229Y-15088174D02*
X12354753Y-15050079D01*
X12354753Y-15050079D02*
X12364277Y-15031031D01*
X12364277Y-15031031D02*
X12373801Y-15021508D01*
X12373801Y-15021508D02*
X12392848Y-15011984D01*
X12526182Y-15011984D02*
X12649991Y-15011984D01*
X12649991Y-15011984D02*
X12583325Y-15088174D01*
X12583325Y-15088174D02*
X12611896Y-15088174D01*
X12611896Y-15088174D02*
X12630944Y-15097698D01*
X12630944Y-15097698D02*
X12640467Y-15107222D01*
X12640467Y-15107222D02*
X12649991Y-15126269D01*
X12649991Y-15126269D02*
X12649991Y-15173888D01*
X12649991Y-15173888D02*
X12640467Y-15192936D01*
X12640467Y-15192936D02*
X12630944Y-15202460D01*
X12630944Y-15202460D02*
X12611896Y-15211984D01*
X12611896Y-15211984D02*
X12554753Y-15211984D01*
X12554753Y-15211984D02*
X12535706Y-15202460D01*
X12535706Y-15202460D02*
X12526182Y-15192936D01*
X12840467Y-15211984D02*
X12726182Y-15211984D01*
X12783325Y-15211984D02*
X12783325Y-15011984D01*
X12783325Y-15011984D02*
X12764277Y-15040555D01*
X12764277Y-15040555D02*
X12745229Y-15059603D01*
X12745229Y-15059603D02*
X12726182Y-15069127D01*
X13021420Y-15011984D02*
X12926182Y-15011984D01*
X12926182Y-15011984D02*
X12916658Y-15107222D01*
X12916658Y-15107222D02*
X12926182Y-15097698D01*
X12926182Y-15097698D02*
X12945229Y-15088174D01*
X12945229Y-15088174D02*
X12992848Y-15088174D01*
X12992848Y-15088174D02*
X13011896Y-15097698D01*
X13011896Y-15097698D02*
X13021420Y-15107222D01*
X13021420Y-15107222D02*
X13030944Y-15126269D01*
X13030944Y-15126269D02*
X13030944Y-15173888D01*
X13030944Y-15173888D02*
X13021420Y-15192936D01*
X13021420Y-15192936D02*
X13011896Y-15202460D01*
X13011896Y-15202460D02*
X12992848Y-15211984D01*
X12992848Y-15211984D02*
X12945229Y-15211984D01*
X12945229Y-15211984D02*
X12926182Y-15202460D01*
X12926182Y-15202460D02*
X12916658Y-15192936D01*
X13107134Y-15011984D02*
X13107134Y-15050079D01*
X13183325Y-15011984D02*
X13183325Y-15050079D01*
X13478563Y-15288174D02*
X13469039Y-15278650D01*
X13469039Y-15278650D02*
X13449991Y-15250079D01*
X13449991Y-15250079D02*
X13440468Y-15231031D01*
X13440468Y-15231031D02*
X13430944Y-15202460D01*
X13430944Y-15202460D02*
X13421420Y-15154841D01*
X13421420Y-15154841D02*
X13421420Y-15116746D01*
X13421420Y-15116746D02*
X13430944Y-15069127D01*
X13430944Y-15069127D02*
X13440468Y-15040555D01*
X13440468Y-15040555D02*
X13449991Y-15021508D01*
X13449991Y-15021508D02*
X13469039Y-14992936D01*
X13469039Y-14992936D02*
X13478563Y-14983412D01*
X13545229Y-15031031D02*
X13554753Y-15021508D01*
X13554753Y-15021508D02*
X13573801Y-15011984D01*
X13573801Y-15011984D02*
X13621420Y-15011984D01*
X13621420Y-15011984D02*
X13640468Y-15021508D01*
X13640468Y-15021508D02*
X13649991Y-15031031D01*
X13649991Y-15031031D02*
X13659515Y-15050079D01*
X13659515Y-15050079D02*
X13659515Y-15069127D01*
X13659515Y-15069127D02*
X13649991Y-15097698D01*
X13649991Y-15097698D02*
X13535706Y-15211984D01*
X13535706Y-15211984D02*
X13659515Y-15211984D01*
X13735706Y-15031031D02*
X13745229Y-15021508D01*
X13745229Y-15021508D02*
X13764277Y-15011984D01*
X13764277Y-15011984D02*
X13811896Y-15011984D01*
X13811896Y-15011984D02*
X13830944Y-15021508D01*
X13830944Y-15021508D02*
X13840468Y-15031031D01*
X13840468Y-15031031D02*
X13849991Y-15050079D01*
X13849991Y-15050079D02*
X13849991Y-15069127D01*
X13849991Y-15069127D02*
X13840468Y-15097698D01*
X13840468Y-15097698D02*
X13726182Y-15211984D01*
X13726182Y-15211984D02*
X13849991Y-15211984D01*
X14088087Y-15211984D02*
X14088087Y-15011984D01*
X14173801Y-15211984D02*
X14173801Y-15107222D01*
X14173801Y-15107222D02*
X14164277Y-15088174D01*
X14164277Y-15088174D02*
X14145230Y-15078650D01*
X14145230Y-15078650D02*
X14116658Y-15078650D01*
X14116658Y-15078650D02*
X14097610Y-15088174D01*
X14097610Y-15088174D02*
X14088087Y-15097698D01*
X14297610Y-15211984D02*
X14278563Y-15202460D01*
X14278563Y-15202460D02*
X14269039Y-15192936D01*
X14269039Y-15192936D02*
X14259515Y-15173888D01*
X14259515Y-15173888D02*
X14259515Y-15116746D01*
X14259515Y-15116746D02*
X14269039Y-15097698D01*
X14269039Y-15097698D02*
X14278563Y-15088174D01*
X14278563Y-15088174D02*
X14297610Y-15078650D01*
X14297610Y-15078650D02*
X14326182Y-15078650D01*
X14326182Y-15078650D02*
X14345230Y-15088174D01*
X14345230Y-15088174D02*
X14354753Y-15097698D01*
X14354753Y-15097698D02*
X14364277Y-15116746D01*
X14364277Y-15116746D02*
X14364277Y-15173888D01*
X14364277Y-15173888D02*
X14354753Y-15192936D01*
X14354753Y-15192936D02*
X14345230Y-15202460D01*
X14345230Y-15202460D02*
X14326182Y-15211984D01*
X14326182Y-15211984D02*
X14297610Y-15211984D01*
X14478563Y-15211984D02*
X14459515Y-15202460D01*
X14459515Y-15202460D02*
X14449991Y-15183412D01*
X14449991Y-15183412D02*
X14449991Y-15011984D01*
X14630944Y-15202460D02*
X14611896Y-15211984D01*
X14611896Y-15211984D02*
X14573801Y-15211984D01*
X14573801Y-15211984D02*
X14554753Y-15202460D01*
X14554753Y-15202460D02*
X14545230Y-15183412D01*
X14545230Y-15183412D02*
X14545230Y-15107222D01*
X14545230Y-15107222D02*
X14554753Y-15088174D01*
X14554753Y-15088174D02*
X14573801Y-15078650D01*
X14573801Y-15078650D02*
X14611896Y-15078650D01*
X14611896Y-15078650D02*
X14630944Y-15088174D01*
X14630944Y-15088174D02*
X14640468Y-15107222D01*
X14640468Y-15107222D02*
X14640468Y-15126269D01*
X14640468Y-15126269D02*
X14545230Y-15145317D01*
X14716658Y-15202460D02*
X14735706Y-15211984D01*
X14735706Y-15211984D02*
X14773801Y-15211984D01*
X14773801Y-15211984D02*
X14792849Y-15202460D01*
X14792849Y-15202460D02*
X14802372Y-15183412D01*
X14802372Y-15183412D02*
X14802372Y-15173888D01*
X14802372Y-15173888D02*
X14792849Y-15154841D01*
X14792849Y-15154841D02*
X14773801Y-15145317D01*
X14773801Y-15145317D02*
X14745230Y-15145317D01*
X14745230Y-15145317D02*
X14726182Y-15135793D01*
X14726182Y-15135793D02*
X14716658Y-15116746D01*
X14716658Y-15116746D02*
X14716658Y-15107222D01*
X14716658Y-15107222D02*
X14726182Y-15088174D01*
X14726182Y-15088174D02*
X14745230Y-15078650D01*
X14745230Y-15078650D02*
X14773801Y-15078650D01*
X14773801Y-15078650D02*
X14792849Y-15088174D01*
X14869039Y-15288174D02*
X14878563Y-15278650D01*
X14878563Y-15278650D02*
X14897611Y-15250079D01*
X14897611Y-15250079D02*
X14907134Y-15231031D01*
X14907134Y-15231031D02*
X14916658Y-15202460D01*
X14916658Y-15202460D02*
X14926182Y-15154841D01*
X14926182Y-15154841D02*
X14926182Y-15116746D01*
X14926182Y-15116746D02*
X14916658Y-15069127D01*
X14916658Y-15069127D02*
X14907134Y-15040555D01*
X14907134Y-15040555D02*
X14897611Y-15021508D01*
X14897611Y-15021508D02*
X14878563Y-14992936D01*
X14878563Y-14992936D02*
X14869039Y-14983412D01*
D12*
X9903500Y-15384500D02*
G75*
G02*
X9813500Y-15384500I-45000J0D01*
G01*
X9813500Y-15384500D02*
G75*
G02*
X9903500Y-15384500I45000J0D01*
G01*
D11*
X10202372Y-15275984D02*
X10221420Y-15275984D01*
X10221420Y-15275984D02*
X10240467Y-15285508D01*
X10240467Y-15285508D02*
X10249991Y-15295031D01*
X10249991Y-15295031D02*
X10259515Y-15314079D01*
X10259515Y-15314079D02*
X10269039Y-15352174D01*
X10269039Y-15352174D02*
X10269039Y-15399793D01*
X10269039Y-15399793D02*
X10259515Y-15437888D01*
X10259515Y-15437888D02*
X10249991Y-15456936D01*
X10249991Y-15456936D02*
X10240467Y-15466460D01*
X10240467Y-15466460D02*
X10221420Y-15475984D01*
X10221420Y-15475984D02*
X10202372Y-15475984D01*
X10202372Y-15475984D02*
X10183324Y-15466460D01*
X10183324Y-15466460D02*
X10173801Y-15456936D01*
X10173801Y-15456936D02*
X10164277Y-15437888D01*
X10164277Y-15437888D02*
X10154753Y-15399793D01*
X10154753Y-15399793D02*
X10154753Y-15352174D01*
X10154753Y-15352174D02*
X10164277Y-15314079D01*
X10164277Y-15314079D02*
X10173801Y-15295031D01*
X10173801Y-15295031D02*
X10183324Y-15285508D01*
X10183324Y-15285508D02*
X10202372Y-15275984D01*
X10354753Y-15456936D02*
X10364277Y-15466460D01*
X10364277Y-15466460D02*
X10354753Y-15475984D01*
X10354753Y-15475984D02*
X10345229Y-15466460D01*
X10345229Y-15466460D02*
X10354753Y-15456936D01*
X10354753Y-15456936D02*
X10354753Y-15475984D01*
X10459515Y-15475984D02*
X10497610Y-15475984D01*
X10497610Y-15475984D02*
X10516658Y-15466460D01*
X10516658Y-15466460D02*
X10526182Y-15456936D01*
X10526182Y-15456936D02*
X10545229Y-15428365D01*
X10545229Y-15428365D02*
X10554753Y-15390269D01*
X10554753Y-15390269D02*
X10554753Y-15314079D01*
X10554753Y-15314079D02*
X10545229Y-15295031D01*
X10545229Y-15295031D02*
X10535705Y-15285508D01*
X10535705Y-15285508D02*
X10516658Y-15275984D01*
X10516658Y-15275984D02*
X10478563Y-15275984D01*
X10478563Y-15275984D02*
X10459515Y-15285508D01*
X10459515Y-15285508D02*
X10449991Y-15295031D01*
X10449991Y-15295031D02*
X10440467Y-15314079D01*
X10440467Y-15314079D02*
X10440467Y-15361698D01*
X10440467Y-15361698D02*
X10449991Y-15380746D01*
X10449991Y-15380746D02*
X10459515Y-15390269D01*
X10459515Y-15390269D02*
X10478563Y-15399793D01*
X10478563Y-15399793D02*
X10516658Y-15399793D01*
X10516658Y-15399793D02*
X10535705Y-15390269D01*
X10535705Y-15390269D02*
X10545229Y-15380746D01*
X10545229Y-15380746D02*
X10554753Y-15361698D01*
X10678563Y-15275984D02*
X10697610Y-15275984D01*
X10697610Y-15275984D02*
X10716658Y-15285508D01*
X10716658Y-15285508D02*
X10726182Y-15295031D01*
X10726182Y-15295031D02*
X10735705Y-15314079D01*
X10735705Y-15314079D02*
X10745229Y-15352174D01*
X10745229Y-15352174D02*
X10745229Y-15399793D01*
X10745229Y-15399793D02*
X10735705Y-15437888D01*
X10735705Y-15437888D02*
X10726182Y-15456936D01*
X10726182Y-15456936D02*
X10716658Y-15466460D01*
X10716658Y-15466460D02*
X10697610Y-15475984D01*
X10697610Y-15475984D02*
X10678563Y-15475984D01*
X10678563Y-15475984D02*
X10659515Y-15466460D01*
X10659515Y-15466460D02*
X10649991Y-15456936D01*
X10649991Y-15456936D02*
X10640467Y-15437888D01*
X10640467Y-15437888D02*
X10630944Y-15399793D01*
X10630944Y-15399793D02*
X10630944Y-15352174D01*
X10630944Y-15352174D02*
X10640467Y-15314079D01*
X10640467Y-15314079D02*
X10649991Y-15295031D01*
X10649991Y-15295031D02*
X10659515Y-15285508D01*
X10659515Y-15285508D02*
X10678563Y-15275984D01*
X10869039Y-15275984D02*
X10888086Y-15275984D01*
X10888086Y-15275984D02*
X10907134Y-15285508D01*
X10907134Y-15285508D02*
X10916658Y-15295031D01*
X10916658Y-15295031D02*
X10926182Y-15314079D01*
X10926182Y-15314079D02*
X10935705Y-15352174D01*
X10935705Y-15352174D02*
X10935705Y-15399793D01*
X10935705Y-15399793D02*
X10926182Y-15437888D01*
X10926182Y-15437888D02*
X10916658Y-15456936D01*
X10916658Y-15456936D02*
X10907134Y-15466460D01*
X10907134Y-15466460D02*
X10888086Y-15475984D01*
X10888086Y-15475984D02*
X10869039Y-15475984D01*
X10869039Y-15475984D02*
X10849991Y-15466460D01*
X10849991Y-15466460D02*
X10840467Y-15456936D01*
X10840467Y-15456936D02*
X10830944Y-15437888D01*
X10830944Y-15437888D02*
X10821420Y-15399793D01*
X10821420Y-15399793D02*
X10821420Y-15352174D01*
X10821420Y-15352174D02*
X10830944Y-15314079D01*
X10830944Y-15314079D02*
X10840467Y-15295031D01*
X10840467Y-15295031D02*
X10849991Y-15285508D01*
X10849991Y-15285508D02*
X10869039Y-15275984D01*
X11021420Y-15475984D02*
X11021420Y-15342650D01*
X11021420Y-15361698D02*
X11030944Y-15352174D01*
X11030944Y-15352174D02*
X11049991Y-15342650D01*
X11049991Y-15342650D02*
X11078563Y-15342650D01*
X11078563Y-15342650D02*
X11097610Y-15352174D01*
X11097610Y-15352174D02*
X11107134Y-15371222D01*
X11107134Y-15371222D02*
X11107134Y-15475984D01*
X11107134Y-15371222D02*
X11116658Y-15352174D01*
X11116658Y-15352174D02*
X11135705Y-15342650D01*
X11135705Y-15342650D02*
X11164277Y-15342650D01*
X11164277Y-15342650D02*
X11183325Y-15352174D01*
X11183325Y-15352174D02*
X11192848Y-15371222D01*
X11192848Y-15371222D02*
X11192848Y-15475984D01*
X11288086Y-15475984D02*
X11288086Y-15342650D01*
X11288086Y-15361698D02*
X11297610Y-15352174D01*
X11297610Y-15352174D02*
X11316658Y-15342650D01*
X11316658Y-15342650D02*
X11345229Y-15342650D01*
X11345229Y-15342650D02*
X11364277Y-15352174D01*
X11364277Y-15352174D02*
X11373801Y-15371222D01*
X11373801Y-15371222D02*
X11373801Y-15475984D01*
X11373801Y-15371222D02*
X11383324Y-15352174D01*
X11383324Y-15352174D02*
X11402372Y-15342650D01*
X11402372Y-15342650D02*
X11430943Y-15342650D01*
X11430943Y-15342650D02*
X11449991Y-15352174D01*
X11449991Y-15352174D02*
X11459515Y-15371222D01*
X11459515Y-15371222D02*
X11459515Y-15475984D01*
X11849991Y-15266460D02*
X11678563Y-15523603D01*
X12107134Y-15275984D02*
X12126182Y-15275984D01*
X12126182Y-15275984D02*
X12145229Y-15285508D01*
X12145229Y-15285508D02*
X12154753Y-15295031D01*
X12154753Y-15295031D02*
X12164277Y-15314079D01*
X12164277Y-15314079D02*
X12173801Y-15352174D01*
X12173801Y-15352174D02*
X12173801Y-15399793D01*
X12173801Y-15399793D02*
X12164277Y-15437888D01*
X12164277Y-15437888D02*
X12154753Y-15456936D01*
X12154753Y-15456936D02*
X12145229Y-15466460D01*
X12145229Y-15466460D02*
X12126182Y-15475984D01*
X12126182Y-15475984D02*
X12107134Y-15475984D01*
X12107134Y-15475984D02*
X12088086Y-15466460D01*
X12088086Y-15466460D02*
X12078563Y-15456936D01*
X12078563Y-15456936D02*
X12069039Y-15437888D01*
X12069039Y-15437888D02*
X12059515Y-15399793D01*
X12059515Y-15399793D02*
X12059515Y-15352174D01*
X12059515Y-15352174D02*
X12069039Y-15314079D01*
X12069039Y-15314079D02*
X12078563Y-15295031D01*
X12078563Y-15295031D02*
X12088086Y-15285508D01*
X12088086Y-15285508D02*
X12107134Y-15275984D01*
X12259515Y-15456936D02*
X12269039Y-15466460D01*
X12269039Y-15466460D02*
X12259515Y-15475984D01*
X12259515Y-15475984D02*
X12249991Y-15466460D01*
X12249991Y-15466460D02*
X12259515Y-15456936D01*
X12259515Y-15456936D02*
X12259515Y-15475984D01*
X12392848Y-15275984D02*
X12411896Y-15275984D01*
X12411896Y-15275984D02*
X12430944Y-15285508D01*
X12430944Y-15285508D02*
X12440467Y-15295031D01*
X12440467Y-15295031D02*
X12449991Y-15314079D01*
X12449991Y-15314079D02*
X12459515Y-15352174D01*
X12459515Y-15352174D02*
X12459515Y-15399793D01*
X12459515Y-15399793D02*
X12449991Y-15437888D01*
X12449991Y-15437888D02*
X12440467Y-15456936D01*
X12440467Y-15456936D02*
X12430944Y-15466460D01*
X12430944Y-15466460D02*
X12411896Y-15475984D01*
X12411896Y-15475984D02*
X12392848Y-15475984D01*
X12392848Y-15475984D02*
X12373801Y-15466460D01*
X12373801Y-15466460D02*
X12364277Y-15456936D01*
X12364277Y-15456936D02*
X12354753Y-15437888D01*
X12354753Y-15437888D02*
X12345229Y-15399793D01*
X12345229Y-15399793D02*
X12345229Y-15352174D01*
X12345229Y-15352174D02*
X12354753Y-15314079D01*
X12354753Y-15314079D02*
X12364277Y-15295031D01*
X12364277Y-15295031D02*
X12373801Y-15285508D01*
X12373801Y-15285508D02*
X12392848Y-15275984D01*
X12526182Y-15275984D02*
X12649991Y-15275984D01*
X12649991Y-15275984D02*
X12583325Y-15352174D01*
X12583325Y-15352174D02*
X12611896Y-15352174D01*
X12611896Y-15352174D02*
X12630944Y-15361698D01*
X12630944Y-15361698D02*
X12640467Y-15371222D01*
X12640467Y-15371222D02*
X12649991Y-15390269D01*
X12649991Y-15390269D02*
X12649991Y-15437888D01*
X12649991Y-15437888D02*
X12640467Y-15456936D01*
X12640467Y-15456936D02*
X12630944Y-15466460D01*
X12630944Y-15466460D02*
X12611896Y-15475984D01*
X12611896Y-15475984D02*
X12554753Y-15475984D01*
X12554753Y-15475984D02*
X12535706Y-15466460D01*
X12535706Y-15466460D02*
X12526182Y-15456936D01*
X12830944Y-15275984D02*
X12735706Y-15275984D01*
X12735706Y-15275984D02*
X12726182Y-15371222D01*
X12726182Y-15371222D02*
X12735706Y-15361698D01*
X12735706Y-15361698D02*
X12754753Y-15352174D01*
X12754753Y-15352174D02*
X12802372Y-15352174D01*
X12802372Y-15352174D02*
X12821420Y-15361698D01*
X12821420Y-15361698D02*
X12830944Y-15371222D01*
X12830944Y-15371222D02*
X12840467Y-15390269D01*
X12840467Y-15390269D02*
X12840467Y-15437888D01*
X12840467Y-15437888D02*
X12830944Y-15456936D01*
X12830944Y-15456936D02*
X12821420Y-15466460D01*
X12821420Y-15466460D02*
X12802372Y-15475984D01*
X12802372Y-15475984D02*
X12754753Y-15475984D01*
X12754753Y-15475984D02*
X12735706Y-15466460D01*
X12735706Y-15466460D02*
X12726182Y-15456936D01*
X13011896Y-15342650D02*
X13011896Y-15475984D01*
X12964277Y-15266460D02*
X12916658Y-15409317D01*
X12916658Y-15409317D02*
X13040467Y-15409317D01*
X13107134Y-15275984D02*
X13107134Y-15314079D01*
X13183325Y-15275984D02*
X13183325Y-15314079D01*
X13478563Y-15552174D02*
X13469039Y-15542650D01*
X13469039Y-15542650D02*
X13449991Y-15514079D01*
X13449991Y-15514079D02*
X13440468Y-15495031D01*
X13440468Y-15495031D02*
X13430944Y-15466460D01*
X13430944Y-15466460D02*
X13421420Y-15418841D01*
X13421420Y-15418841D02*
X13421420Y-15380746D01*
X13421420Y-15380746D02*
X13430944Y-15333127D01*
X13430944Y-15333127D02*
X13440468Y-15304555D01*
X13440468Y-15304555D02*
X13449991Y-15285508D01*
X13449991Y-15285508D02*
X13469039Y-15256936D01*
X13469039Y-15256936D02*
X13478563Y-15247412D01*
X13545229Y-15295031D02*
X13554753Y-15285508D01*
X13554753Y-15285508D02*
X13573801Y-15275984D01*
X13573801Y-15275984D02*
X13621420Y-15275984D01*
X13621420Y-15275984D02*
X13640468Y-15285508D01*
X13640468Y-15285508D02*
X13649991Y-15295031D01*
X13649991Y-15295031D02*
X13659515Y-15314079D01*
X13659515Y-15314079D02*
X13659515Y-15333127D01*
X13659515Y-15333127D02*
X13649991Y-15361698D01*
X13649991Y-15361698D02*
X13535706Y-15475984D01*
X13535706Y-15475984D02*
X13659515Y-15475984D01*
X13897610Y-15475984D02*
X13897610Y-15275984D01*
X13983325Y-15475984D02*
X13983325Y-15371222D01*
X13983325Y-15371222D02*
X13973801Y-15352174D01*
X13973801Y-15352174D02*
X13954753Y-15342650D01*
X13954753Y-15342650D02*
X13926182Y-15342650D01*
X13926182Y-15342650D02*
X13907134Y-15352174D01*
X13907134Y-15352174D02*
X13897610Y-15361698D01*
X14107134Y-15475984D02*
X14088087Y-15466460D01*
X14088087Y-15466460D02*
X14078563Y-15456936D01*
X14078563Y-15456936D02*
X14069039Y-15437888D01*
X14069039Y-15437888D02*
X14069039Y-15380746D01*
X14069039Y-15380746D02*
X14078563Y-15361698D01*
X14078563Y-15361698D02*
X14088087Y-15352174D01*
X14088087Y-15352174D02*
X14107134Y-15342650D01*
X14107134Y-15342650D02*
X14135706Y-15342650D01*
X14135706Y-15342650D02*
X14154753Y-15352174D01*
X14154753Y-15352174D02*
X14164277Y-15361698D01*
X14164277Y-15361698D02*
X14173801Y-15380746D01*
X14173801Y-15380746D02*
X14173801Y-15437888D01*
X14173801Y-15437888D02*
X14164277Y-15456936D01*
X14164277Y-15456936D02*
X14154753Y-15466460D01*
X14154753Y-15466460D02*
X14135706Y-15475984D01*
X14135706Y-15475984D02*
X14107134Y-15475984D01*
X14288087Y-15475984D02*
X14269039Y-15466460D01*
X14269039Y-15466460D02*
X14259515Y-15447412D01*
X14259515Y-15447412D02*
X14259515Y-15275984D01*
X14440468Y-15466460D02*
X14421420Y-15475984D01*
X14421420Y-15475984D02*
X14383325Y-15475984D01*
X14383325Y-15475984D02*
X14364277Y-15466460D01*
X14364277Y-15466460D02*
X14354753Y-15447412D01*
X14354753Y-15447412D02*
X14354753Y-15371222D01*
X14354753Y-15371222D02*
X14364277Y-15352174D01*
X14364277Y-15352174D02*
X14383325Y-15342650D01*
X14383325Y-15342650D02*
X14421420Y-15342650D01*
X14421420Y-15342650D02*
X14440468Y-15352174D01*
X14440468Y-15352174D02*
X14449991Y-15371222D01*
X14449991Y-15371222D02*
X14449991Y-15390269D01*
X14449991Y-15390269D02*
X14354753Y-15409317D01*
X14526182Y-15466460D02*
X14545230Y-15475984D01*
X14545230Y-15475984D02*
X14583325Y-15475984D01*
X14583325Y-15475984D02*
X14602372Y-15466460D01*
X14602372Y-15466460D02*
X14611896Y-15447412D01*
X14611896Y-15447412D02*
X14611896Y-15437888D01*
X14611896Y-15437888D02*
X14602372Y-15418841D01*
X14602372Y-15418841D02*
X14583325Y-15409317D01*
X14583325Y-15409317D02*
X14554753Y-15409317D01*
X14554753Y-15409317D02*
X14535706Y-15399793D01*
X14535706Y-15399793D02*
X14526182Y-15380746D01*
X14526182Y-15380746D02*
X14526182Y-15371222D01*
X14526182Y-15371222D02*
X14535706Y-15352174D01*
X14535706Y-15352174D02*
X14554753Y-15342650D01*
X14554753Y-15342650D02*
X14583325Y-15342650D01*
X14583325Y-15342650D02*
X14602372Y-15352174D01*
X14678563Y-15552174D02*
X14688087Y-15542650D01*
X14688087Y-15542650D02*
X14707134Y-15514079D01*
X14707134Y-15514079D02*
X14716658Y-15495031D01*
X14716658Y-15495031D02*
X14726182Y-15466460D01*
X14726182Y-15466460D02*
X14735706Y-15418841D01*
X14735706Y-15418841D02*
X14735706Y-15380746D01*
X14735706Y-15380746D02*
X14726182Y-15333127D01*
X14726182Y-15333127D02*
X14716658Y-15304555D01*
X14716658Y-15304555D02*
X14707134Y-15285508D01*
X14707134Y-15285508D02*
X14688087Y-15256936D01*
X14688087Y-15256936D02*
X14678563Y-15247412D01*
D12*
X9853500Y-15598500D02*
X9853500Y-15698500D01*
X9803500Y-15648500D02*
X9903500Y-15648500D01*
D11*
X10269039Y-15739984D02*
X10154753Y-15739984D01*
X10211896Y-15739984D02*
X10211896Y-15539984D01*
X10211896Y-15539984D02*
X10192848Y-15568555D01*
X10192848Y-15568555D02*
X10173801Y-15587603D01*
X10173801Y-15587603D02*
X10154753Y-15597127D01*
X10354753Y-15720936D02*
X10364277Y-15730460D01*
X10364277Y-15730460D02*
X10354753Y-15739984D01*
X10354753Y-15739984D02*
X10345229Y-15730460D01*
X10345229Y-15730460D02*
X10354753Y-15720936D01*
X10354753Y-15720936D02*
X10354753Y-15739984D01*
X10488086Y-15539984D02*
X10507134Y-15539984D01*
X10507134Y-15539984D02*
X10526182Y-15549508D01*
X10526182Y-15549508D02*
X10535705Y-15559031D01*
X10535705Y-15559031D02*
X10545229Y-15578079D01*
X10545229Y-15578079D02*
X10554753Y-15616174D01*
X10554753Y-15616174D02*
X10554753Y-15663793D01*
X10554753Y-15663793D02*
X10545229Y-15701888D01*
X10545229Y-15701888D02*
X10535705Y-15720936D01*
X10535705Y-15720936D02*
X10526182Y-15730460D01*
X10526182Y-15730460D02*
X10507134Y-15739984D01*
X10507134Y-15739984D02*
X10488086Y-15739984D01*
X10488086Y-15739984D02*
X10469039Y-15730460D01*
X10469039Y-15730460D02*
X10459515Y-15720936D01*
X10459515Y-15720936D02*
X10449991Y-15701888D01*
X10449991Y-15701888D02*
X10440467Y-15663793D01*
X10440467Y-15663793D02*
X10440467Y-15616174D01*
X10440467Y-15616174D02*
X10449991Y-15578079D01*
X10449991Y-15578079D02*
X10459515Y-15559031D01*
X10459515Y-15559031D02*
X10469039Y-15549508D01*
X10469039Y-15549508D02*
X10488086Y-15539984D01*
X10678563Y-15539984D02*
X10697610Y-15539984D01*
X10697610Y-15539984D02*
X10716658Y-15549508D01*
X10716658Y-15549508D02*
X10726182Y-15559031D01*
X10726182Y-15559031D02*
X10735705Y-15578079D01*
X10735705Y-15578079D02*
X10745229Y-15616174D01*
X10745229Y-15616174D02*
X10745229Y-15663793D01*
X10745229Y-15663793D02*
X10735705Y-15701888D01*
X10735705Y-15701888D02*
X10726182Y-15720936D01*
X10726182Y-15720936D02*
X10716658Y-15730460D01*
X10716658Y-15730460D02*
X10697610Y-15739984D01*
X10697610Y-15739984D02*
X10678563Y-15739984D01*
X10678563Y-15739984D02*
X10659515Y-15730460D01*
X10659515Y-15730460D02*
X10649991Y-15720936D01*
X10649991Y-15720936D02*
X10640467Y-15701888D01*
X10640467Y-15701888D02*
X10630944Y-15663793D01*
X10630944Y-15663793D02*
X10630944Y-15616174D01*
X10630944Y-15616174D02*
X10640467Y-15578079D01*
X10640467Y-15578079D02*
X10649991Y-15559031D01*
X10649991Y-15559031D02*
X10659515Y-15549508D01*
X10659515Y-15549508D02*
X10678563Y-15539984D01*
X10869039Y-15539984D02*
X10888086Y-15539984D01*
X10888086Y-15539984D02*
X10907134Y-15549508D01*
X10907134Y-15549508D02*
X10916658Y-15559031D01*
X10916658Y-15559031D02*
X10926182Y-15578079D01*
X10926182Y-15578079D02*
X10935705Y-15616174D01*
X10935705Y-15616174D02*
X10935705Y-15663793D01*
X10935705Y-15663793D02*
X10926182Y-15701888D01*
X10926182Y-15701888D02*
X10916658Y-15720936D01*
X10916658Y-15720936D02*
X10907134Y-15730460D01*
X10907134Y-15730460D02*
X10888086Y-15739984D01*
X10888086Y-15739984D02*
X10869039Y-15739984D01*
X10869039Y-15739984D02*
X10849991Y-15730460D01*
X10849991Y-15730460D02*
X10840467Y-15720936D01*
X10840467Y-15720936D02*
X10830944Y-15701888D01*
X10830944Y-15701888D02*
X10821420Y-15663793D01*
X10821420Y-15663793D02*
X10821420Y-15616174D01*
X10821420Y-15616174D02*
X10830944Y-15578079D01*
X10830944Y-15578079D02*
X10840467Y-15559031D01*
X10840467Y-15559031D02*
X10849991Y-15549508D01*
X10849991Y-15549508D02*
X10869039Y-15539984D01*
X11021420Y-15739984D02*
X11021420Y-15606650D01*
X11021420Y-15625698D02*
X11030944Y-15616174D01*
X11030944Y-15616174D02*
X11049991Y-15606650D01*
X11049991Y-15606650D02*
X11078563Y-15606650D01*
X11078563Y-15606650D02*
X11097610Y-15616174D01*
X11097610Y-15616174D02*
X11107134Y-15635222D01*
X11107134Y-15635222D02*
X11107134Y-15739984D01*
X11107134Y-15635222D02*
X11116658Y-15616174D01*
X11116658Y-15616174D02*
X11135705Y-15606650D01*
X11135705Y-15606650D02*
X11164277Y-15606650D01*
X11164277Y-15606650D02*
X11183325Y-15616174D01*
X11183325Y-15616174D02*
X11192848Y-15635222D01*
X11192848Y-15635222D02*
X11192848Y-15739984D01*
X11288086Y-15739984D02*
X11288086Y-15606650D01*
X11288086Y-15625698D02*
X11297610Y-15616174D01*
X11297610Y-15616174D02*
X11316658Y-15606650D01*
X11316658Y-15606650D02*
X11345229Y-15606650D01*
X11345229Y-15606650D02*
X11364277Y-15616174D01*
X11364277Y-15616174D02*
X11373801Y-15635222D01*
X11373801Y-15635222D02*
X11373801Y-15739984D01*
X11373801Y-15635222D02*
X11383324Y-15616174D01*
X11383324Y-15616174D02*
X11402372Y-15606650D01*
X11402372Y-15606650D02*
X11430943Y-15606650D01*
X11430943Y-15606650D02*
X11449991Y-15616174D01*
X11449991Y-15616174D02*
X11459515Y-15635222D01*
X11459515Y-15635222D02*
X11459515Y-15739984D01*
X11849991Y-15530460D02*
X11678563Y-15787603D01*
X12107134Y-15539984D02*
X12126182Y-15539984D01*
X12126182Y-15539984D02*
X12145229Y-15549508D01*
X12145229Y-15549508D02*
X12154753Y-15559031D01*
X12154753Y-15559031D02*
X12164277Y-15578079D01*
X12164277Y-15578079D02*
X12173801Y-15616174D01*
X12173801Y-15616174D02*
X12173801Y-15663793D01*
X12173801Y-15663793D02*
X12164277Y-15701888D01*
X12164277Y-15701888D02*
X12154753Y-15720936D01*
X12154753Y-15720936D02*
X12145229Y-15730460D01*
X12145229Y-15730460D02*
X12126182Y-15739984D01*
X12126182Y-15739984D02*
X12107134Y-15739984D01*
X12107134Y-15739984D02*
X12088086Y-15730460D01*
X12088086Y-15730460D02*
X12078563Y-15720936D01*
X12078563Y-15720936D02*
X12069039Y-15701888D01*
X12069039Y-15701888D02*
X12059515Y-15663793D01*
X12059515Y-15663793D02*
X12059515Y-15616174D01*
X12059515Y-15616174D02*
X12069039Y-15578079D01*
X12069039Y-15578079D02*
X12078563Y-15559031D01*
X12078563Y-15559031D02*
X12088086Y-15549508D01*
X12088086Y-15549508D02*
X12107134Y-15539984D01*
X12259515Y-15720936D02*
X12269039Y-15730460D01*
X12269039Y-15730460D02*
X12259515Y-15739984D01*
X12259515Y-15739984D02*
X12249991Y-15730460D01*
X12249991Y-15730460D02*
X12259515Y-15720936D01*
X12259515Y-15720936D02*
X12259515Y-15739984D01*
X12392848Y-15539984D02*
X12411896Y-15539984D01*
X12411896Y-15539984D02*
X12430944Y-15549508D01*
X12430944Y-15549508D02*
X12440467Y-15559031D01*
X12440467Y-15559031D02*
X12449991Y-15578079D01*
X12449991Y-15578079D02*
X12459515Y-15616174D01*
X12459515Y-15616174D02*
X12459515Y-15663793D01*
X12459515Y-15663793D02*
X12449991Y-15701888D01*
X12449991Y-15701888D02*
X12440467Y-15720936D01*
X12440467Y-15720936D02*
X12430944Y-15730460D01*
X12430944Y-15730460D02*
X12411896Y-15739984D01*
X12411896Y-15739984D02*
X12392848Y-15739984D01*
X12392848Y-15739984D02*
X12373801Y-15730460D01*
X12373801Y-15730460D02*
X12364277Y-15720936D01*
X12364277Y-15720936D02*
X12354753Y-15701888D01*
X12354753Y-15701888D02*
X12345229Y-15663793D01*
X12345229Y-15663793D02*
X12345229Y-15616174D01*
X12345229Y-15616174D02*
X12354753Y-15578079D01*
X12354753Y-15578079D02*
X12364277Y-15559031D01*
X12364277Y-15559031D02*
X12373801Y-15549508D01*
X12373801Y-15549508D02*
X12392848Y-15539984D01*
X12526182Y-15539984D02*
X12649991Y-15539984D01*
X12649991Y-15539984D02*
X12583325Y-15616174D01*
X12583325Y-15616174D02*
X12611896Y-15616174D01*
X12611896Y-15616174D02*
X12630944Y-15625698D01*
X12630944Y-15625698D02*
X12640467Y-15635222D01*
X12640467Y-15635222D02*
X12649991Y-15654269D01*
X12649991Y-15654269D02*
X12649991Y-15701888D01*
X12649991Y-15701888D02*
X12640467Y-15720936D01*
X12640467Y-15720936D02*
X12630944Y-15730460D01*
X12630944Y-15730460D02*
X12611896Y-15739984D01*
X12611896Y-15739984D02*
X12554753Y-15739984D01*
X12554753Y-15739984D02*
X12535706Y-15730460D01*
X12535706Y-15730460D02*
X12526182Y-15720936D01*
X12745229Y-15739984D02*
X12783325Y-15739984D01*
X12783325Y-15739984D02*
X12802372Y-15730460D01*
X12802372Y-15730460D02*
X12811896Y-15720936D01*
X12811896Y-15720936D02*
X12830944Y-15692365D01*
X12830944Y-15692365D02*
X12840467Y-15654269D01*
X12840467Y-15654269D02*
X12840467Y-15578079D01*
X12840467Y-15578079D02*
X12830944Y-15559031D01*
X12830944Y-15559031D02*
X12821420Y-15549508D01*
X12821420Y-15549508D02*
X12802372Y-15539984D01*
X12802372Y-15539984D02*
X12764277Y-15539984D01*
X12764277Y-15539984D02*
X12745229Y-15549508D01*
X12745229Y-15549508D02*
X12735706Y-15559031D01*
X12735706Y-15559031D02*
X12726182Y-15578079D01*
X12726182Y-15578079D02*
X12726182Y-15625698D01*
X12726182Y-15625698D02*
X12735706Y-15644746D01*
X12735706Y-15644746D02*
X12745229Y-15654269D01*
X12745229Y-15654269D02*
X12764277Y-15663793D01*
X12764277Y-15663793D02*
X12802372Y-15663793D01*
X12802372Y-15663793D02*
X12821420Y-15654269D01*
X12821420Y-15654269D02*
X12830944Y-15644746D01*
X12830944Y-15644746D02*
X12840467Y-15625698D01*
X13011896Y-15606650D02*
X13011896Y-15739984D01*
X12964277Y-15530460D02*
X12916658Y-15673317D01*
X12916658Y-15673317D02*
X13040467Y-15673317D01*
X13107134Y-15539984D02*
X13107134Y-15578079D01*
X13183325Y-15539984D02*
X13183325Y-15578079D01*
X13478563Y-15816174D02*
X13469039Y-15806650D01*
X13469039Y-15806650D02*
X13449991Y-15778079D01*
X13449991Y-15778079D02*
X13440468Y-15759031D01*
X13440468Y-15759031D02*
X13430944Y-15730460D01*
X13430944Y-15730460D02*
X13421420Y-15682841D01*
X13421420Y-15682841D02*
X13421420Y-15644746D01*
X13421420Y-15644746D02*
X13430944Y-15597127D01*
X13430944Y-15597127D02*
X13440468Y-15568555D01*
X13440468Y-15568555D02*
X13449991Y-15549508D01*
X13449991Y-15549508D02*
X13469039Y-15520936D01*
X13469039Y-15520936D02*
X13478563Y-15511412D01*
X13659515Y-15739984D02*
X13545229Y-15739984D01*
X13602372Y-15739984D02*
X13602372Y-15539984D01*
X13602372Y-15539984D02*
X13583325Y-15568555D01*
X13583325Y-15568555D02*
X13564277Y-15587603D01*
X13564277Y-15587603D02*
X13545229Y-15597127D01*
X13735706Y-15559031D02*
X13745229Y-15549508D01*
X13745229Y-15549508D02*
X13764277Y-15539984D01*
X13764277Y-15539984D02*
X13811896Y-15539984D01*
X13811896Y-15539984D02*
X13830944Y-15549508D01*
X13830944Y-15549508D02*
X13840468Y-15559031D01*
X13840468Y-15559031D02*
X13849991Y-15578079D01*
X13849991Y-15578079D02*
X13849991Y-15597127D01*
X13849991Y-15597127D02*
X13840468Y-15625698D01*
X13840468Y-15625698D02*
X13726182Y-15739984D01*
X13726182Y-15739984D02*
X13849991Y-15739984D01*
X14021420Y-15539984D02*
X13983325Y-15539984D01*
X13983325Y-15539984D02*
X13964277Y-15549508D01*
X13964277Y-15549508D02*
X13954753Y-15559031D01*
X13954753Y-15559031D02*
X13935706Y-15587603D01*
X13935706Y-15587603D02*
X13926182Y-15625698D01*
X13926182Y-15625698D02*
X13926182Y-15701888D01*
X13926182Y-15701888D02*
X13935706Y-15720936D01*
X13935706Y-15720936D02*
X13945229Y-15730460D01*
X13945229Y-15730460D02*
X13964277Y-15739984D01*
X13964277Y-15739984D02*
X14002372Y-15739984D01*
X14002372Y-15739984D02*
X14021420Y-15730460D01*
X14021420Y-15730460D02*
X14030944Y-15720936D01*
X14030944Y-15720936D02*
X14040468Y-15701888D01*
X14040468Y-15701888D02*
X14040468Y-15654269D01*
X14040468Y-15654269D02*
X14030944Y-15635222D01*
X14030944Y-15635222D02*
X14021420Y-15625698D01*
X14021420Y-15625698D02*
X14002372Y-15616174D01*
X14002372Y-15616174D02*
X13964277Y-15616174D01*
X13964277Y-15616174D02*
X13945229Y-15625698D01*
X13945229Y-15625698D02*
X13935706Y-15635222D01*
X13935706Y-15635222D02*
X13926182Y-15654269D01*
X14278563Y-15739984D02*
X14278563Y-15539984D01*
X14364277Y-15739984D02*
X14364277Y-15635222D01*
X14364277Y-15635222D02*
X14354753Y-15616174D01*
X14354753Y-15616174D02*
X14335706Y-15606650D01*
X14335706Y-15606650D02*
X14307134Y-15606650D01*
X14307134Y-15606650D02*
X14288087Y-15616174D01*
X14288087Y-15616174D02*
X14278563Y-15625698D01*
X14488087Y-15739984D02*
X14469039Y-15730460D01*
X14469039Y-15730460D02*
X14459515Y-15720936D01*
X14459515Y-15720936D02*
X14449991Y-15701888D01*
X14449991Y-15701888D02*
X14449991Y-15644746D01*
X14449991Y-15644746D02*
X14459515Y-15625698D01*
X14459515Y-15625698D02*
X14469039Y-15616174D01*
X14469039Y-15616174D02*
X14488087Y-15606650D01*
X14488087Y-15606650D02*
X14516658Y-15606650D01*
X14516658Y-15606650D02*
X14535706Y-15616174D01*
X14535706Y-15616174D02*
X14545230Y-15625698D01*
X14545230Y-15625698D02*
X14554753Y-15644746D01*
X14554753Y-15644746D02*
X14554753Y-15701888D01*
X14554753Y-15701888D02*
X14545230Y-15720936D01*
X14545230Y-15720936D02*
X14535706Y-15730460D01*
X14535706Y-15730460D02*
X14516658Y-15739984D01*
X14516658Y-15739984D02*
X14488087Y-15739984D01*
X14669039Y-15739984D02*
X14649991Y-15730460D01*
X14649991Y-15730460D02*
X14640468Y-15711412D01*
X14640468Y-15711412D02*
X14640468Y-15539984D01*
X14821420Y-15730460D02*
X14802372Y-15739984D01*
X14802372Y-15739984D02*
X14764277Y-15739984D01*
X14764277Y-15739984D02*
X14745230Y-15730460D01*
X14745230Y-15730460D02*
X14735706Y-15711412D01*
X14735706Y-15711412D02*
X14735706Y-15635222D01*
X14735706Y-15635222D02*
X14745230Y-15616174D01*
X14745230Y-15616174D02*
X14764277Y-15606650D01*
X14764277Y-15606650D02*
X14802372Y-15606650D01*
X14802372Y-15606650D02*
X14821420Y-15616174D01*
X14821420Y-15616174D02*
X14830944Y-15635222D01*
X14830944Y-15635222D02*
X14830944Y-15654269D01*
X14830944Y-15654269D02*
X14735706Y-15673317D01*
X14907134Y-15730460D02*
X14926182Y-15739984D01*
X14926182Y-15739984D02*
X14964277Y-15739984D01*
X14964277Y-15739984D02*
X14983325Y-15730460D01*
X14983325Y-15730460D02*
X14992849Y-15711412D01*
X14992849Y-15711412D02*
X14992849Y-15701888D01*
X14992849Y-15701888D02*
X14983325Y-15682841D01*
X14983325Y-15682841D02*
X14964277Y-15673317D01*
X14964277Y-15673317D02*
X14935706Y-15673317D01*
X14935706Y-15673317D02*
X14916658Y-15663793D01*
X14916658Y-15663793D02*
X14907134Y-15644746D01*
X14907134Y-15644746D02*
X14907134Y-15635222D01*
X14907134Y-15635222D02*
X14916658Y-15616174D01*
X14916658Y-15616174D02*
X14935706Y-15606650D01*
X14935706Y-15606650D02*
X14964277Y-15606650D01*
X14964277Y-15606650D02*
X14983325Y-15616174D01*
X15230944Y-15663793D02*
X15383325Y-15663793D01*
X15307134Y-15739984D02*
X15307134Y-15587603D01*
X15621420Y-15559031D02*
X15630944Y-15549508D01*
X15630944Y-15549508D02*
X15649992Y-15539984D01*
X15649992Y-15539984D02*
X15697611Y-15539984D01*
X15697611Y-15539984D02*
X15716658Y-15549508D01*
X15716658Y-15549508D02*
X15726182Y-15559031D01*
X15726182Y-15559031D02*
X15735706Y-15578079D01*
X15735706Y-15578079D02*
X15735706Y-15597127D01*
X15735706Y-15597127D02*
X15726182Y-15625698D01*
X15726182Y-15625698D02*
X15611896Y-15739984D01*
X15611896Y-15739984D02*
X15735706Y-15739984D01*
X15964277Y-15730460D02*
X15983325Y-15739984D01*
X15983325Y-15739984D02*
X16021420Y-15739984D01*
X16021420Y-15739984D02*
X16040468Y-15730460D01*
X16040468Y-15730460D02*
X16049992Y-15711412D01*
X16049992Y-15711412D02*
X16049992Y-15701888D01*
X16049992Y-15701888D02*
X16040468Y-15682841D01*
X16040468Y-15682841D02*
X16021420Y-15673317D01*
X16021420Y-15673317D02*
X15992849Y-15673317D01*
X15992849Y-15673317D02*
X15973801Y-15663793D01*
X15973801Y-15663793D02*
X15964277Y-15644746D01*
X15964277Y-15644746D02*
X15964277Y-15635222D01*
X15964277Y-15635222D02*
X15973801Y-15616174D01*
X15973801Y-15616174D02*
X15992849Y-15606650D01*
X15992849Y-15606650D02*
X16021420Y-15606650D01*
X16021420Y-15606650D02*
X16040468Y-15616174D01*
X16164277Y-15739984D02*
X16145230Y-15730460D01*
X16145230Y-15730460D02*
X16135706Y-15711412D01*
X16135706Y-15711412D02*
X16135706Y-15539984D01*
X16269039Y-15739984D02*
X16249992Y-15730460D01*
X16249992Y-15730460D02*
X16240468Y-15720936D01*
X16240468Y-15720936D02*
X16230944Y-15701888D01*
X16230944Y-15701888D02*
X16230944Y-15644746D01*
X16230944Y-15644746D02*
X16240468Y-15625698D01*
X16240468Y-15625698D02*
X16249992Y-15616174D01*
X16249992Y-15616174D02*
X16269039Y-15606650D01*
X16269039Y-15606650D02*
X16297611Y-15606650D01*
X16297611Y-15606650D02*
X16316658Y-15616174D01*
X16316658Y-15616174D02*
X16326182Y-15625698D01*
X16326182Y-15625698D02*
X16335706Y-15644746D01*
X16335706Y-15644746D02*
X16335706Y-15701888D01*
X16335706Y-15701888D02*
X16326182Y-15720936D01*
X16326182Y-15720936D02*
X16316658Y-15730460D01*
X16316658Y-15730460D02*
X16297611Y-15739984D01*
X16297611Y-15739984D02*
X16269039Y-15739984D01*
X16392849Y-15606650D02*
X16469039Y-15606650D01*
X16421420Y-15539984D02*
X16421420Y-15711412D01*
X16421420Y-15711412D02*
X16430944Y-15730460D01*
X16430944Y-15730460D02*
X16449992Y-15739984D01*
X16449992Y-15739984D02*
X16469039Y-15739984D01*
X16526182Y-15730460D02*
X16545230Y-15739984D01*
X16545230Y-15739984D02*
X16583325Y-15739984D01*
X16583325Y-15739984D02*
X16602373Y-15730460D01*
X16602373Y-15730460D02*
X16611896Y-15711412D01*
X16611896Y-15711412D02*
X16611896Y-15701888D01*
X16611896Y-15701888D02*
X16602373Y-15682841D01*
X16602373Y-15682841D02*
X16583325Y-15673317D01*
X16583325Y-15673317D02*
X16554754Y-15673317D01*
X16554754Y-15673317D02*
X16535706Y-15663793D01*
X16535706Y-15663793D02*
X16526182Y-15644746D01*
X16526182Y-15644746D02*
X16526182Y-15635222D01*
X16526182Y-15635222D02*
X16535706Y-15616174D01*
X16535706Y-15616174D02*
X16554754Y-15606650D01*
X16554754Y-15606650D02*
X16583325Y-15606650D01*
X16583325Y-15606650D02*
X16602373Y-15616174D01*
X16678563Y-15816174D02*
X16688087Y-15806650D01*
X16688087Y-15806650D02*
X16707135Y-15778079D01*
X16707135Y-15778079D02*
X16716658Y-15759031D01*
X16716658Y-15759031D02*
X16726182Y-15730460D01*
X16726182Y-15730460D02*
X16735706Y-15682841D01*
X16735706Y-15682841D02*
X16735706Y-15644746D01*
X16735706Y-15644746D02*
X16726182Y-15597127D01*
X16726182Y-15597127D02*
X16716658Y-15568555D01*
X16716658Y-15568555D02*
X16707135Y-15549508D01*
X16707135Y-15549508D02*
X16688087Y-15520936D01*
X16688087Y-15520936D02*
X16678563Y-15511412D01*
D13*
X9888709Y-15948209D02*
X9888709Y-15876791D01*
X9817291Y-15876791D01*
X9817291Y-15948209D01*
X9888709Y-15948209D01*
D11*
X10269039Y-16003984D02*
X10154753Y-16003984D01*
X10211896Y-16003984D02*
X10211896Y-15803984D01*
X10211896Y-15803984D02*
X10192848Y-15832555D01*
X10192848Y-15832555D02*
X10173801Y-15851603D01*
X10173801Y-15851603D02*
X10154753Y-15861127D01*
X10354753Y-15984936D02*
X10364277Y-15994460D01*
X10364277Y-15994460D02*
X10354753Y-16003984D01*
X10354753Y-16003984D02*
X10345229Y-15994460D01*
X10345229Y-15994460D02*
X10354753Y-15984936D01*
X10354753Y-15984936D02*
X10354753Y-16003984D01*
X10488086Y-15803984D02*
X10507134Y-15803984D01*
X10507134Y-15803984D02*
X10526182Y-15813508D01*
X10526182Y-15813508D02*
X10535705Y-15823031D01*
X10535705Y-15823031D02*
X10545229Y-15842079D01*
X10545229Y-15842079D02*
X10554753Y-15880174D01*
X10554753Y-15880174D02*
X10554753Y-15927793D01*
X10554753Y-15927793D02*
X10545229Y-15965888D01*
X10545229Y-15965888D02*
X10535705Y-15984936D01*
X10535705Y-15984936D02*
X10526182Y-15994460D01*
X10526182Y-15994460D02*
X10507134Y-16003984D01*
X10507134Y-16003984D02*
X10488086Y-16003984D01*
X10488086Y-16003984D02*
X10469039Y-15994460D01*
X10469039Y-15994460D02*
X10459515Y-15984936D01*
X10459515Y-15984936D02*
X10449991Y-15965888D01*
X10449991Y-15965888D02*
X10440467Y-15927793D01*
X10440467Y-15927793D02*
X10440467Y-15880174D01*
X10440467Y-15880174D02*
X10449991Y-15842079D01*
X10449991Y-15842079D02*
X10459515Y-15823031D01*
X10459515Y-15823031D02*
X10469039Y-15813508D01*
X10469039Y-15813508D02*
X10488086Y-15803984D01*
X10745229Y-16003984D02*
X10630944Y-16003984D01*
X10688086Y-16003984D02*
X10688086Y-15803984D01*
X10688086Y-15803984D02*
X10669039Y-15832555D01*
X10669039Y-15832555D02*
X10649991Y-15851603D01*
X10649991Y-15851603D02*
X10630944Y-15861127D01*
X10869039Y-15803984D02*
X10888086Y-15803984D01*
X10888086Y-15803984D02*
X10907134Y-15813508D01*
X10907134Y-15813508D02*
X10916658Y-15823031D01*
X10916658Y-15823031D02*
X10926182Y-15842079D01*
X10926182Y-15842079D02*
X10935705Y-15880174D01*
X10935705Y-15880174D02*
X10935705Y-15927793D01*
X10935705Y-15927793D02*
X10926182Y-15965888D01*
X10926182Y-15965888D02*
X10916658Y-15984936D01*
X10916658Y-15984936D02*
X10907134Y-15994460D01*
X10907134Y-15994460D02*
X10888086Y-16003984D01*
X10888086Y-16003984D02*
X10869039Y-16003984D01*
X10869039Y-16003984D02*
X10849991Y-15994460D01*
X10849991Y-15994460D02*
X10840467Y-15984936D01*
X10840467Y-15984936D02*
X10830944Y-15965888D01*
X10830944Y-15965888D02*
X10821420Y-15927793D01*
X10821420Y-15927793D02*
X10821420Y-15880174D01*
X10821420Y-15880174D02*
X10830944Y-15842079D01*
X10830944Y-15842079D02*
X10840467Y-15823031D01*
X10840467Y-15823031D02*
X10849991Y-15813508D01*
X10849991Y-15813508D02*
X10869039Y-15803984D01*
X11021420Y-16003984D02*
X11021420Y-15870650D01*
X11021420Y-15889698D02*
X11030944Y-15880174D01*
X11030944Y-15880174D02*
X11049991Y-15870650D01*
X11049991Y-15870650D02*
X11078563Y-15870650D01*
X11078563Y-15870650D02*
X11097610Y-15880174D01*
X11097610Y-15880174D02*
X11107134Y-15899222D01*
X11107134Y-15899222D02*
X11107134Y-16003984D01*
X11107134Y-15899222D02*
X11116658Y-15880174D01*
X11116658Y-15880174D02*
X11135705Y-15870650D01*
X11135705Y-15870650D02*
X11164277Y-15870650D01*
X11164277Y-15870650D02*
X11183325Y-15880174D01*
X11183325Y-15880174D02*
X11192848Y-15899222D01*
X11192848Y-15899222D02*
X11192848Y-16003984D01*
X11288086Y-16003984D02*
X11288086Y-15870650D01*
X11288086Y-15889698D02*
X11297610Y-15880174D01*
X11297610Y-15880174D02*
X11316658Y-15870650D01*
X11316658Y-15870650D02*
X11345229Y-15870650D01*
X11345229Y-15870650D02*
X11364277Y-15880174D01*
X11364277Y-15880174D02*
X11373801Y-15899222D01*
X11373801Y-15899222D02*
X11373801Y-16003984D01*
X11373801Y-15899222D02*
X11383324Y-15880174D01*
X11383324Y-15880174D02*
X11402372Y-15870650D01*
X11402372Y-15870650D02*
X11430943Y-15870650D01*
X11430943Y-15870650D02*
X11449991Y-15880174D01*
X11449991Y-15880174D02*
X11459515Y-15899222D01*
X11459515Y-15899222D02*
X11459515Y-16003984D01*
X11849991Y-15794460D02*
X11678563Y-16051603D01*
X12107134Y-15803984D02*
X12126182Y-15803984D01*
X12126182Y-15803984D02*
X12145229Y-15813508D01*
X12145229Y-15813508D02*
X12154753Y-15823031D01*
X12154753Y-15823031D02*
X12164277Y-15842079D01*
X12164277Y-15842079D02*
X12173801Y-15880174D01*
X12173801Y-15880174D02*
X12173801Y-15927793D01*
X12173801Y-15927793D02*
X12164277Y-15965888D01*
X12164277Y-15965888D02*
X12154753Y-15984936D01*
X12154753Y-15984936D02*
X12145229Y-15994460D01*
X12145229Y-15994460D02*
X12126182Y-16003984D01*
X12126182Y-16003984D02*
X12107134Y-16003984D01*
X12107134Y-16003984D02*
X12088086Y-15994460D01*
X12088086Y-15994460D02*
X12078563Y-15984936D01*
X12078563Y-15984936D02*
X12069039Y-15965888D01*
X12069039Y-15965888D02*
X12059515Y-15927793D01*
X12059515Y-15927793D02*
X12059515Y-15880174D01*
X12059515Y-15880174D02*
X12069039Y-15842079D01*
X12069039Y-15842079D02*
X12078563Y-15823031D01*
X12078563Y-15823031D02*
X12088086Y-15813508D01*
X12088086Y-15813508D02*
X12107134Y-15803984D01*
X12259515Y-15984936D02*
X12269039Y-15994460D01*
X12269039Y-15994460D02*
X12259515Y-16003984D01*
X12259515Y-16003984D02*
X12249991Y-15994460D01*
X12249991Y-15994460D02*
X12259515Y-15984936D01*
X12259515Y-15984936D02*
X12259515Y-16003984D01*
X12392848Y-15803984D02*
X12411896Y-15803984D01*
X12411896Y-15803984D02*
X12430944Y-15813508D01*
X12430944Y-15813508D02*
X12440467Y-15823031D01*
X12440467Y-15823031D02*
X12449991Y-15842079D01*
X12449991Y-15842079D02*
X12459515Y-15880174D01*
X12459515Y-15880174D02*
X12459515Y-15927793D01*
X12459515Y-15927793D02*
X12449991Y-15965888D01*
X12449991Y-15965888D02*
X12440467Y-15984936D01*
X12440467Y-15984936D02*
X12430944Y-15994460D01*
X12430944Y-15994460D02*
X12411896Y-16003984D01*
X12411896Y-16003984D02*
X12392848Y-16003984D01*
X12392848Y-16003984D02*
X12373801Y-15994460D01*
X12373801Y-15994460D02*
X12364277Y-15984936D01*
X12364277Y-15984936D02*
X12354753Y-15965888D01*
X12354753Y-15965888D02*
X12345229Y-15927793D01*
X12345229Y-15927793D02*
X12345229Y-15880174D01*
X12345229Y-15880174D02*
X12354753Y-15842079D01*
X12354753Y-15842079D02*
X12364277Y-15823031D01*
X12364277Y-15823031D02*
X12373801Y-15813508D01*
X12373801Y-15813508D02*
X12392848Y-15803984D01*
X12526182Y-15803984D02*
X12649991Y-15803984D01*
X12649991Y-15803984D02*
X12583325Y-15880174D01*
X12583325Y-15880174D02*
X12611896Y-15880174D01*
X12611896Y-15880174D02*
X12630944Y-15889698D01*
X12630944Y-15889698D02*
X12640467Y-15899222D01*
X12640467Y-15899222D02*
X12649991Y-15918269D01*
X12649991Y-15918269D02*
X12649991Y-15965888D01*
X12649991Y-15965888D02*
X12640467Y-15984936D01*
X12640467Y-15984936D02*
X12630944Y-15994460D01*
X12630944Y-15994460D02*
X12611896Y-16003984D01*
X12611896Y-16003984D02*
X12554753Y-16003984D01*
X12554753Y-16003984D02*
X12535706Y-15994460D01*
X12535706Y-15994460D02*
X12526182Y-15984936D01*
X12745229Y-16003984D02*
X12783325Y-16003984D01*
X12783325Y-16003984D02*
X12802372Y-15994460D01*
X12802372Y-15994460D02*
X12811896Y-15984936D01*
X12811896Y-15984936D02*
X12830944Y-15956365D01*
X12830944Y-15956365D02*
X12840467Y-15918269D01*
X12840467Y-15918269D02*
X12840467Y-15842079D01*
X12840467Y-15842079D02*
X12830944Y-15823031D01*
X12830944Y-15823031D02*
X12821420Y-15813508D01*
X12821420Y-15813508D02*
X12802372Y-15803984D01*
X12802372Y-15803984D02*
X12764277Y-15803984D01*
X12764277Y-15803984D02*
X12745229Y-15813508D01*
X12745229Y-15813508D02*
X12735706Y-15823031D01*
X12735706Y-15823031D02*
X12726182Y-15842079D01*
X12726182Y-15842079D02*
X12726182Y-15889698D01*
X12726182Y-15889698D02*
X12735706Y-15908746D01*
X12735706Y-15908746D02*
X12745229Y-15918269D01*
X12745229Y-15918269D02*
X12764277Y-15927793D01*
X12764277Y-15927793D02*
X12802372Y-15927793D01*
X12802372Y-15927793D02*
X12821420Y-15918269D01*
X12821420Y-15918269D02*
X12830944Y-15908746D01*
X12830944Y-15908746D02*
X12840467Y-15889698D01*
X12954753Y-15889698D02*
X12935706Y-15880174D01*
X12935706Y-15880174D02*
X12926182Y-15870650D01*
X12926182Y-15870650D02*
X12916658Y-15851603D01*
X12916658Y-15851603D02*
X12916658Y-15842079D01*
X12916658Y-15842079D02*
X12926182Y-15823031D01*
X12926182Y-15823031D02*
X12935706Y-15813508D01*
X12935706Y-15813508D02*
X12954753Y-15803984D01*
X12954753Y-15803984D02*
X12992848Y-15803984D01*
X12992848Y-15803984D02*
X13011896Y-15813508D01*
X13011896Y-15813508D02*
X13021420Y-15823031D01*
X13021420Y-15823031D02*
X13030944Y-15842079D01*
X13030944Y-15842079D02*
X13030944Y-15851603D01*
X13030944Y-15851603D02*
X13021420Y-15870650D01*
X13021420Y-15870650D02*
X13011896Y-15880174D01*
X13011896Y-15880174D02*
X12992848Y-15889698D01*
X12992848Y-15889698D02*
X12954753Y-15889698D01*
X12954753Y-15889698D02*
X12935706Y-15899222D01*
X12935706Y-15899222D02*
X12926182Y-15908746D01*
X12926182Y-15908746D02*
X12916658Y-15927793D01*
X12916658Y-15927793D02*
X12916658Y-15965888D01*
X12916658Y-15965888D02*
X12926182Y-15984936D01*
X12926182Y-15984936D02*
X12935706Y-15994460D01*
X12935706Y-15994460D02*
X12954753Y-16003984D01*
X12954753Y-16003984D02*
X12992848Y-16003984D01*
X12992848Y-16003984D02*
X13011896Y-15994460D01*
X13011896Y-15994460D02*
X13021420Y-15984936D01*
X13021420Y-15984936D02*
X13030944Y-15965888D01*
X13030944Y-15965888D02*
X13030944Y-15927793D01*
X13030944Y-15927793D02*
X13021420Y-15908746D01*
X13021420Y-15908746D02*
X13011896Y-15899222D01*
X13011896Y-15899222D02*
X12992848Y-15889698D01*
X13107134Y-15803984D02*
X13107134Y-15842079D01*
X13183325Y-15803984D02*
X13183325Y-15842079D01*
X13478563Y-16080174D02*
X13469039Y-16070650D01*
X13469039Y-16070650D02*
X13449991Y-16042079D01*
X13449991Y-16042079D02*
X13440468Y-16023031D01*
X13440468Y-16023031D02*
X13430944Y-15994460D01*
X13430944Y-15994460D02*
X13421420Y-15946841D01*
X13421420Y-15946841D02*
X13421420Y-15908746D01*
X13421420Y-15908746D02*
X13430944Y-15861127D01*
X13430944Y-15861127D02*
X13440468Y-15832555D01*
X13440468Y-15832555D02*
X13449991Y-15813508D01*
X13449991Y-15813508D02*
X13469039Y-15784936D01*
X13469039Y-15784936D02*
X13478563Y-15775412D01*
X13545229Y-15823031D02*
X13554753Y-15813508D01*
X13554753Y-15813508D02*
X13573801Y-15803984D01*
X13573801Y-15803984D02*
X13621420Y-15803984D01*
X13621420Y-15803984D02*
X13640468Y-15813508D01*
X13640468Y-15813508D02*
X13649991Y-15823031D01*
X13649991Y-15823031D02*
X13659515Y-15842079D01*
X13659515Y-15842079D02*
X13659515Y-15861127D01*
X13659515Y-15861127D02*
X13649991Y-15889698D01*
X13649991Y-15889698D02*
X13535706Y-16003984D01*
X13535706Y-16003984D02*
X13659515Y-16003984D01*
X13897610Y-16003984D02*
X13897610Y-15803984D01*
X13983325Y-16003984D02*
X13983325Y-15899222D01*
X13983325Y-15899222D02*
X13973801Y-15880174D01*
X13973801Y-15880174D02*
X13954753Y-15870650D01*
X13954753Y-15870650D02*
X13926182Y-15870650D01*
X13926182Y-15870650D02*
X13907134Y-15880174D01*
X13907134Y-15880174D02*
X13897610Y-15889698D01*
X14107134Y-16003984D02*
X14088087Y-15994460D01*
X14088087Y-15994460D02*
X14078563Y-15984936D01*
X14078563Y-15984936D02*
X14069039Y-15965888D01*
X14069039Y-15965888D02*
X14069039Y-15908746D01*
X14069039Y-15908746D02*
X14078563Y-15889698D01*
X14078563Y-15889698D02*
X14088087Y-15880174D01*
X14088087Y-15880174D02*
X14107134Y-15870650D01*
X14107134Y-15870650D02*
X14135706Y-15870650D01*
X14135706Y-15870650D02*
X14154753Y-15880174D01*
X14154753Y-15880174D02*
X14164277Y-15889698D01*
X14164277Y-15889698D02*
X14173801Y-15908746D01*
X14173801Y-15908746D02*
X14173801Y-15965888D01*
X14173801Y-15965888D02*
X14164277Y-15984936D01*
X14164277Y-15984936D02*
X14154753Y-15994460D01*
X14154753Y-15994460D02*
X14135706Y-16003984D01*
X14135706Y-16003984D02*
X14107134Y-16003984D01*
X14288087Y-16003984D02*
X14269039Y-15994460D01*
X14269039Y-15994460D02*
X14259515Y-15975412D01*
X14259515Y-15975412D02*
X14259515Y-15803984D01*
X14440468Y-15994460D02*
X14421420Y-16003984D01*
X14421420Y-16003984D02*
X14383325Y-16003984D01*
X14383325Y-16003984D02*
X14364277Y-15994460D01*
X14364277Y-15994460D02*
X14354753Y-15975412D01*
X14354753Y-15975412D02*
X14354753Y-15899222D01*
X14354753Y-15899222D02*
X14364277Y-15880174D01*
X14364277Y-15880174D02*
X14383325Y-15870650D01*
X14383325Y-15870650D02*
X14421420Y-15870650D01*
X14421420Y-15870650D02*
X14440468Y-15880174D01*
X14440468Y-15880174D02*
X14449991Y-15899222D01*
X14449991Y-15899222D02*
X14449991Y-15918269D01*
X14449991Y-15918269D02*
X14354753Y-15937317D01*
X14526182Y-15994460D02*
X14545230Y-16003984D01*
X14545230Y-16003984D02*
X14583325Y-16003984D01*
X14583325Y-16003984D02*
X14602372Y-15994460D01*
X14602372Y-15994460D02*
X14611896Y-15975412D01*
X14611896Y-15975412D02*
X14611896Y-15965888D01*
X14611896Y-15965888D02*
X14602372Y-15946841D01*
X14602372Y-15946841D02*
X14583325Y-15937317D01*
X14583325Y-15937317D02*
X14554753Y-15937317D01*
X14554753Y-15937317D02*
X14535706Y-15927793D01*
X14535706Y-15927793D02*
X14526182Y-15908746D01*
X14526182Y-15908746D02*
X14526182Y-15899222D01*
X14526182Y-15899222D02*
X14535706Y-15880174D01*
X14535706Y-15880174D02*
X14554753Y-15870650D01*
X14554753Y-15870650D02*
X14583325Y-15870650D01*
X14583325Y-15870650D02*
X14602372Y-15880174D01*
X14678563Y-16080174D02*
X14688087Y-16070650D01*
X14688087Y-16070650D02*
X14707134Y-16042079D01*
X14707134Y-16042079D02*
X14716658Y-16023031D01*
X14716658Y-16023031D02*
X14726182Y-15994460D01*
X14726182Y-15994460D02*
X14735706Y-15946841D01*
X14735706Y-15946841D02*
X14735706Y-15908746D01*
X14735706Y-15908746D02*
X14726182Y-15861127D01*
X14726182Y-15861127D02*
X14716658Y-15832555D01*
X14716658Y-15832555D02*
X14707134Y-15813508D01*
X14707134Y-15813508D02*
X14688087Y-15784936D01*
X14688087Y-15784936D02*
X14678563Y-15775412D01*
D14*
X9823500Y-16256500D02*
X9903500Y-16176500D01*
X9823500Y-16096500D01*
X9743500Y-16176500D01*
X9823500Y-16256500D01*
D11*
X10269039Y-16267984D02*
X10154753Y-16267984D01*
X10211896Y-16267984D02*
X10211896Y-16067984D01*
X10211896Y-16067984D02*
X10192848Y-16096555D01*
X10192848Y-16096555D02*
X10173801Y-16115603D01*
X10173801Y-16115603D02*
X10154753Y-16125127D01*
X10354753Y-16248936D02*
X10364277Y-16258460D01*
X10364277Y-16258460D02*
X10354753Y-16267984D01*
X10354753Y-16267984D02*
X10345229Y-16258460D01*
X10345229Y-16258460D02*
X10354753Y-16248936D01*
X10354753Y-16248936D02*
X10354753Y-16267984D01*
X10535705Y-16067984D02*
X10497610Y-16067984D01*
X10497610Y-16067984D02*
X10478563Y-16077508D01*
X10478563Y-16077508D02*
X10469039Y-16087031D01*
X10469039Y-16087031D02*
X10449991Y-16115603D01*
X10449991Y-16115603D02*
X10440467Y-16153698D01*
X10440467Y-16153698D02*
X10440467Y-16229888D01*
X10440467Y-16229888D02*
X10449991Y-16248936D01*
X10449991Y-16248936D02*
X10459515Y-16258460D01*
X10459515Y-16258460D02*
X10478563Y-16267984D01*
X10478563Y-16267984D02*
X10516658Y-16267984D01*
X10516658Y-16267984D02*
X10535705Y-16258460D01*
X10535705Y-16258460D02*
X10545229Y-16248936D01*
X10545229Y-16248936D02*
X10554753Y-16229888D01*
X10554753Y-16229888D02*
X10554753Y-16182269D01*
X10554753Y-16182269D02*
X10545229Y-16163222D01*
X10545229Y-16163222D02*
X10535705Y-16153698D01*
X10535705Y-16153698D02*
X10516658Y-16144174D01*
X10516658Y-16144174D02*
X10478563Y-16144174D01*
X10478563Y-16144174D02*
X10459515Y-16153698D01*
X10459515Y-16153698D02*
X10449991Y-16163222D01*
X10449991Y-16163222D02*
X10440467Y-16182269D01*
X10678563Y-16067984D02*
X10697610Y-16067984D01*
X10697610Y-16067984D02*
X10716658Y-16077508D01*
X10716658Y-16077508D02*
X10726182Y-16087031D01*
X10726182Y-16087031D02*
X10735705Y-16106079D01*
X10735705Y-16106079D02*
X10745229Y-16144174D01*
X10745229Y-16144174D02*
X10745229Y-16191793D01*
X10745229Y-16191793D02*
X10735705Y-16229888D01*
X10735705Y-16229888D02*
X10726182Y-16248936D01*
X10726182Y-16248936D02*
X10716658Y-16258460D01*
X10716658Y-16258460D02*
X10697610Y-16267984D01*
X10697610Y-16267984D02*
X10678563Y-16267984D01*
X10678563Y-16267984D02*
X10659515Y-16258460D01*
X10659515Y-16258460D02*
X10649991Y-16248936D01*
X10649991Y-16248936D02*
X10640467Y-16229888D01*
X10640467Y-16229888D02*
X10630944Y-16191793D01*
X10630944Y-16191793D02*
X10630944Y-16144174D01*
X10630944Y-16144174D02*
X10640467Y-16106079D01*
X10640467Y-16106079D02*
X10649991Y-16087031D01*
X10649991Y-16087031D02*
X10659515Y-16077508D01*
X10659515Y-16077508D02*
X10678563Y-16067984D01*
X10869039Y-16067984D02*
X10888086Y-16067984D01*
X10888086Y-16067984D02*
X10907134Y-16077508D01*
X10907134Y-16077508D02*
X10916658Y-16087031D01*
X10916658Y-16087031D02*
X10926182Y-16106079D01*
X10926182Y-16106079D02*
X10935705Y-16144174D01*
X10935705Y-16144174D02*
X10935705Y-16191793D01*
X10935705Y-16191793D02*
X10926182Y-16229888D01*
X10926182Y-16229888D02*
X10916658Y-16248936D01*
X10916658Y-16248936D02*
X10907134Y-16258460D01*
X10907134Y-16258460D02*
X10888086Y-16267984D01*
X10888086Y-16267984D02*
X10869039Y-16267984D01*
X10869039Y-16267984D02*
X10849991Y-16258460D01*
X10849991Y-16258460D02*
X10840467Y-16248936D01*
X10840467Y-16248936D02*
X10830944Y-16229888D01*
X10830944Y-16229888D02*
X10821420Y-16191793D01*
X10821420Y-16191793D02*
X10821420Y-16144174D01*
X10821420Y-16144174D02*
X10830944Y-16106079D01*
X10830944Y-16106079D02*
X10840467Y-16087031D01*
X10840467Y-16087031D02*
X10849991Y-16077508D01*
X10849991Y-16077508D02*
X10869039Y-16067984D01*
X11021420Y-16267984D02*
X11021420Y-16134650D01*
X11021420Y-16153698D02*
X11030944Y-16144174D01*
X11030944Y-16144174D02*
X11049991Y-16134650D01*
X11049991Y-16134650D02*
X11078563Y-16134650D01*
X11078563Y-16134650D02*
X11097610Y-16144174D01*
X11097610Y-16144174D02*
X11107134Y-16163222D01*
X11107134Y-16163222D02*
X11107134Y-16267984D01*
X11107134Y-16163222D02*
X11116658Y-16144174D01*
X11116658Y-16144174D02*
X11135705Y-16134650D01*
X11135705Y-16134650D02*
X11164277Y-16134650D01*
X11164277Y-16134650D02*
X11183325Y-16144174D01*
X11183325Y-16144174D02*
X11192848Y-16163222D01*
X11192848Y-16163222D02*
X11192848Y-16267984D01*
X11288086Y-16267984D02*
X11288086Y-16134650D01*
X11288086Y-16153698D02*
X11297610Y-16144174D01*
X11297610Y-16144174D02*
X11316658Y-16134650D01*
X11316658Y-16134650D02*
X11345229Y-16134650D01*
X11345229Y-16134650D02*
X11364277Y-16144174D01*
X11364277Y-16144174D02*
X11373801Y-16163222D01*
X11373801Y-16163222D02*
X11373801Y-16267984D01*
X11373801Y-16163222D02*
X11383324Y-16144174D01*
X11383324Y-16144174D02*
X11402372Y-16134650D01*
X11402372Y-16134650D02*
X11430943Y-16134650D01*
X11430943Y-16134650D02*
X11449991Y-16144174D01*
X11449991Y-16144174D02*
X11459515Y-16163222D01*
X11459515Y-16163222D02*
X11459515Y-16267984D01*
X11849991Y-16058460D02*
X11678563Y-16315603D01*
X12107134Y-16067984D02*
X12126182Y-16067984D01*
X12126182Y-16067984D02*
X12145229Y-16077508D01*
X12145229Y-16077508D02*
X12154753Y-16087031D01*
X12154753Y-16087031D02*
X12164277Y-16106079D01*
X12164277Y-16106079D02*
X12173801Y-16144174D01*
X12173801Y-16144174D02*
X12173801Y-16191793D01*
X12173801Y-16191793D02*
X12164277Y-16229888D01*
X12164277Y-16229888D02*
X12154753Y-16248936D01*
X12154753Y-16248936D02*
X12145229Y-16258460D01*
X12145229Y-16258460D02*
X12126182Y-16267984D01*
X12126182Y-16267984D02*
X12107134Y-16267984D01*
X12107134Y-16267984D02*
X12088086Y-16258460D01*
X12088086Y-16258460D02*
X12078563Y-16248936D01*
X12078563Y-16248936D02*
X12069039Y-16229888D01*
X12069039Y-16229888D02*
X12059515Y-16191793D01*
X12059515Y-16191793D02*
X12059515Y-16144174D01*
X12059515Y-16144174D02*
X12069039Y-16106079D01*
X12069039Y-16106079D02*
X12078563Y-16087031D01*
X12078563Y-16087031D02*
X12088086Y-16077508D01*
X12088086Y-16077508D02*
X12107134Y-16067984D01*
X12259515Y-16248936D02*
X12269039Y-16258460D01*
X12269039Y-16258460D02*
X12259515Y-16267984D01*
X12259515Y-16267984D02*
X12249991Y-16258460D01*
X12249991Y-16258460D02*
X12259515Y-16248936D01*
X12259515Y-16248936D02*
X12259515Y-16267984D01*
X12392848Y-16067984D02*
X12411896Y-16067984D01*
X12411896Y-16067984D02*
X12430944Y-16077508D01*
X12430944Y-16077508D02*
X12440467Y-16087031D01*
X12440467Y-16087031D02*
X12449991Y-16106079D01*
X12449991Y-16106079D02*
X12459515Y-16144174D01*
X12459515Y-16144174D02*
X12459515Y-16191793D01*
X12459515Y-16191793D02*
X12449991Y-16229888D01*
X12449991Y-16229888D02*
X12440467Y-16248936D01*
X12440467Y-16248936D02*
X12430944Y-16258460D01*
X12430944Y-16258460D02*
X12411896Y-16267984D01*
X12411896Y-16267984D02*
X12392848Y-16267984D01*
X12392848Y-16267984D02*
X12373801Y-16258460D01*
X12373801Y-16258460D02*
X12364277Y-16248936D01*
X12364277Y-16248936D02*
X12354753Y-16229888D01*
X12354753Y-16229888D02*
X12345229Y-16191793D01*
X12345229Y-16191793D02*
X12345229Y-16144174D01*
X12345229Y-16144174D02*
X12354753Y-16106079D01*
X12354753Y-16106079D02*
X12364277Y-16087031D01*
X12364277Y-16087031D02*
X12373801Y-16077508D01*
X12373801Y-16077508D02*
X12392848Y-16067984D01*
X12630944Y-16067984D02*
X12592848Y-16067984D01*
X12592848Y-16067984D02*
X12573801Y-16077508D01*
X12573801Y-16077508D02*
X12564277Y-16087031D01*
X12564277Y-16087031D02*
X12545229Y-16115603D01*
X12545229Y-16115603D02*
X12535706Y-16153698D01*
X12535706Y-16153698D02*
X12535706Y-16229888D01*
X12535706Y-16229888D02*
X12545229Y-16248936D01*
X12545229Y-16248936D02*
X12554753Y-16258460D01*
X12554753Y-16258460D02*
X12573801Y-16267984D01*
X12573801Y-16267984D02*
X12611896Y-16267984D01*
X12611896Y-16267984D02*
X12630944Y-16258460D01*
X12630944Y-16258460D02*
X12640467Y-16248936D01*
X12640467Y-16248936D02*
X12649991Y-16229888D01*
X12649991Y-16229888D02*
X12649991Y-16182269D01*
X12649991Y-16182269D02*
X12640467Y-16163222D01*
X12640467Y-16163222D02*
X12630944Y-16153698D01*
X12630944Y-16153698D02*
X12611896Y-16144174D01*
X12611896Y-16144174D02*
X12573801Y-16144174D01*
X12573801Y-16144174D02*
X12554753Y-16153698D01*
X12554753Y-16153698D02*
X12545229Y-16163222D01*
X12545229Y-16163222D02*
X12535706Y-16182269D01*
X12716658Y-16067984D02*
X12840467Y-16067984D01*
X12840467Y-16067984D02*
X12773801Y-16144174D01*
X12773801Y-16144174D02*
X12802372Y-16144174D01*
X12802372Y-16144174D02*
X12821420Y-16153698D01*
X12821420Y-16153698D02*
X12830944Y-16163222D01*
X12830944Y-16163222D02*
X12840467Y-16182269D01*
X12840467Y-16182269D02*
X12840467Y-16229888D01*
X12840467Y-16229888D02*
X12830944Y-16248936D01*
X12830944Y-16248936D02*
X12821420Y-16258460D01*
X12821420Y-16258460D02*
X12802372Y-16267984D01*
X12802372Y-16267984D02*
X12745229Y-16267984D01*
X12745229Y-16267984D02*
X12726182Y-16258460D01*
X12726182Y-16258460D02*
X12716658Y-16248936D01*
X12964277Y-16067984D02*
X12983325Y-16067984D01*
X12983325Y-16067984D02*
X13002372Y-16077508D01*
X13002372Y-16077508D02*
X13011896Y-16087031D01*
X13011896Y-16087031D02*
X13021420Y-16106079D01*
X13021420Y-16106079D02*
X13030944Y-16144174D01*
X13030944Y-16144174D02*
X13030944Y-16191793D01*
X13030944Y-16191793D02*
X13021420Y-16229888D01*
X13021420Y-16229888D02*
X13011896Y-16248936D01*
X13011896Y-16248936D02*
X13002372Y-16258460D01*
X13002372Y-16258460D02*
X12983325Y-16267984D01*
X12983325Y-16267984D02*
X12964277Y-16267984D01*
X12964277Y-16267984D02*
X12945229Y-16258460D01*
X12945229Y-16258460D02*
X12935706Y-16248936D01*
X12935706Y-16248936D02*
X12926182Y-16229888D01*
X12926182Y-16229888D02*
X12916658Y-16191793D01*
X12916658Y-16191793D02*
X12916658Y-16144174D01*
X12916658Y-16144174D02*
X12926182Y-16106079D01*
X12926182Y-16106079D02*
X12935706Y-16087031D01*
X12935706Y-16087031D02*
X12945229Y-16077508D01*
X12945229Y-16077508D02*
X12964277Y-16067984D01*
X13107134Y-16067984D02*
X13107134Y-16106079D01*
X13183325Y-16067984D02*
X13183325Y-16106079D01*
X13478563Y-16344174D02*
X13469039Y-16334650D01*
X13469039Y-16334650D02*
X13449991Y-16306079D01*
X13449991Y-16306079D02*
X13440468Y-16287031D01*
X13440468Y-16287031D02*
X13430944Y-16258460D01*
X13430944Y-16258460D02*
X13421420Y-16210841D01*
X13421420Y-16210841D02*
X13421420Y-16172746D01*
X13421420Y-16172746D02*
X13430944Y-16125127D01*
X13430944Y-16125127D02*
X13440468Y-16096555D01*
X13440468Y-16096555D02*
X13449991Y-16077508D01*
X13449991Y-16077508D02*
X13469039Y-16048936D01*
X13469039Y-16048936D02*
X13478563Y-16039412D01*
X13535706Y-16067984D02*
X13659515Y-16067984D01*
X13659515Y-16067984D02*
X13592848Y-16144174D01*
X13592848Y-16144174D02*
X13621420Y-16144174D01*
X13621420Y-16144174D02*
X13640468Y-16153698D01*
X13640468Y-16153698D02*
X13649991Y-16163222D01*
X13649991Y-16163222D02*
X13659515Y-16182269D01*
X13659515Y-16182269D02*
X13659515Y-16229888D01*
X13659515Y-16229888D02*
X13649991Y-16248936D01*
X13649991Y-16248936D02*
X13640468Y-16258460D01*
X13640468Y-16258460D02*
X13621420Y-16267984D01*
X13621420Y-16267984D02*
X13564277Y-16267984D01*
X13564277Y-16267984D02*
X13545229Y-16258460D01*
X13545229Y-16258460D02*
X13535706Y-16248936D01*
X13897610Y-16267984D02*
X13897610Y-16067984D01*
X13983325Y-16267984D02*
X13983325Y-16163222D01*
X13983325Y-16163222D02*
X13973801Y-16144174D01*
X13973801Y-16144174D02*
X13954753Y-16134650D01*
X13954753Y-16134650D02*
X13926182Y-16134650D01*
X13926182Y-16134650D02*
X13907134Y-16144174D01*
X13907134Y-16144174D02*
X13897610Y-16153698D01*
X14107134Y-16267984D02*
X14088087Y-16258460D01*
X14088087Y-16258460D02*
X14078563Y-16248936D01*
X14078563Y-16248936D02*
X14069039Y-16229888D01*
X14069039Y-16229888D02*
X14069039Y-16172746D01*
X14069039Y-16172746D02*
X14078563Y-16153698D01*
X14078563Y-16153698D02*
X14088087Y-16144174D01*
X14088087Y-16144174D02*
X14107134Y-16134650D01*
X14107134Y-16134650D02*
X14135706Y-16134650D01*
X14135706Y-16134650D02*
X14154753Y-16144174D01*
X14154753Y-16144174D02*
X14164277Y-16153698D01*
X14164277Y-16153698D02*
X14173801Y-16172746D01*
X14173801Y-16172746D02*
X14173801Y-16229888D01*
X14173801Y-16229888D02*
X14164277Y-16248936D01*
X14164277Y-16248936D02*
X14154753Y-16258460D01*
X14154753Y-16258460D02*
X14135706Y-16267984D01*
X14135706Y-16267984D02*
X14107134Y-16267984D01*
X14288087Y-16267984D02*
X14269039Y-16258460D01*
X14269039Y-16258460D02*
X14259515Y-16239412D01*
X14259515Y-16239412D02*
X14259515Y-16067984D01*
X14440468Y-16258460D02*
X14421420Y-16267984D01*
X14421420Y-16267984D02*
X14383325Y-16267984D01*
X14383325Y-16267984D02*
X14364277Y-16258460D01*
X14364277Y-16258460D02*
X14354753Y-16239412D01*
X14354753Y-16239412D02*
X14354753Y-16163222D01*
X14354753Y-16163222D02*
X14364277Y-16144174D01*
X14364277Y-16144174D02*
X14383325Y-16134650D01*
X14383325Y-16134650D02*
X14421420Y-16134650D01*
X14421420Y-16134650D02*
X14440468Y-16144174D01*
X14440468Y-16144174D02*
X14449991Y-16163222D01*
X14449991Y-16163222D02*
X14449991Y-16182269D01*
X14449991Y-16182269D02*
X14354753Y-16201317D01*
X14526182Y-16258460D02*
X14545230Y-16267984D01*
X14545230Y-16267984D02*
X14583325Y-16267984D01*
X14583325Y-16267984D02*
X14602372Y-16258460D01*
X14602372Y-16258460D02*
X14611896Y-16239412D01*
X14611896Y-16239412D02*
X14611896Y-16229888D01*
X14611896Y-16229888D02*
X14602372Y-16210841D01*
X14602372Y-16210841D02*
X14583325Y-16201317D01*
X14583325Y-16201317D02*
X14554753Y-16201317D01*
X14554753Y-16201317D02*
X14535706Y-16191793D01*
X14535706Y-16191793D02*
X14526182Y-16172746D01*
X14526182Y-16172746D02*
X14526182Y-16163222D01*
X14526182Y-16163222D02*
X14535706Y-16144174D01*
X14535706Y-16144174D02*
X14554753Y-16134650D01*
X14554753Y-16134650D02*
X14583325Y-16134650D01*
X14583325Y-16134650D02*
X14602372Y-16144174D01*
X14678563Y-16344174D02*
X14688087Y-16334650D01*
X14688087Y-16334650D02*
X14707134Y-16306079D01*
X14707134Y-16306079D02*
X14716658Y-16287031D01*
X14716658Y-16287031D02*
X14726182Y-16258460D01*
X14726182Y-16258460D02*
X14735706Y-16210841D01*
X14735706Y-16210841D02*
X14735706Y-16172746D01*
X14735706Y-16172746D02*
X14726182Y-16125127D01*
X14726182Y-16125127D02*
X14716658Y-16096555D01*
X14716658Y-16096555D02*
X14707134Y-16077508D01*
X14707134Y-16077508D02*
X14688087Y-16048936D01*
X14688087Y-16048936D02*
X14678563Y-16039412D01*
M02*
