%TF.GenerationSoftware,KiCad,Pcbnew,9.0.4*%
%TF.CreationDate,2025-11-08T13:29:43-07:00*%
%TF.ProjectId,egr304-subsystem schematic design-sb,65677233-3034-42d7-9375-627379737465,rev?*%
%TF.SameCoordinates,Original*%
%TF.FileFunction,Drillmap*%
%TF.FilePolarity,Positive*%
%FSLAX45Y45*%
G04 Gerber Fmt 4.5, Leading zero omitted, Abs format (unit mm)*
G04 Created by KiCad (PCBNEW 9.0.4) date 2025-11-08 13:29:43*
%MOMM*%
%LPD*%
G01*
G04 APERTURE LIST*
%ADD10C,0.050000*%
%ADD11C,0.200000*%
G04 APERTURE END LIST*
D10*
X9906000Y-5080000D02*
X19812000Y-5080000D01*
X19812000Y-14478000D01*
X9906000Y-14478000D01*
X9906000Y-5080000D01*
D11*
X10164277Y-14791984D02*
X10164277Y-14591984D01*
X10164277Y-14591984D02*
X10211896Y-14591984D01*
X10211896Y-14591984D02*
X10240467Y-14601508D01*
X10240467Y-14601508D02*
X10259515Y-14620555D01*
X10259515Y-14620555D02*
X10269039Y-14639603D01*
X10269039Y-14639603D02*
X10278563Y-14677698D01*
X10278563Y-14677698D02*
X10278563Y-14706269D01*
X10278563Y-14706269D02*
X10269039Y-14744365D01*
X10269039Y-14744365D02*
X10259515Y-14763412D01*
X10259515Y-14763412D02*
X10240467Y-14782460D01*
X10240467Y-14782460D02*
X10211896Y-14791984D01*
X10211896Y-14791984D02*
X10164277Y-14791984D01*
X10364277Y-14791984D02*
X10364277Y-14658650D01*
X10364277Y-14696746D02*
X10373801Y-14677698D01*
X10373801Y-14677698D02*
X10383324Y-14668174D01*
X10383324Y-14668174D02*
X10402372Y-14658650D01*
X10402372Y-14658650D02*
X10421420Y-14658650D01*
X10488086Y-14791984D02*
X10488086Y-14658650D01*
X10488086Y-14591984D02*
X10478563Y-14601508D01*
X10478563Y-14601508D02*
X10488086Y-14611031D01*
X10488086Y-14611031D02*
X10497610Y-14601508D01*
X10497610Y-14601508D02*
X10488086Y-14591984D01*
X10488086Y-14591984D02*
X10488086Y-14611031D01*
X10611896Y-14791984D02*
X10592848Y-14782460D01*
X10592848Y-14782460D02*
X10583324Y-14763412D01*
X10583324Y-14763412D02*
X10583324Y-14591984D01*
X10716658Y-14791984D02*
X10697610Y-14782460D01*
X10697610Y-14782460D02*
X10688086Y-14763412D01*
X10688086Y-14763412D02*
X10688086Y-14591984D01*
X10945229Y-14791984D02*
X10945229Y-14591984D01*
X10945229Y-14591984D02*
X11011896Y-14734841D01*
X11011896Y-14734841D02*
X11078563Y-14591984D01*
X11078563Y-14591984D02*
X11078563Y-14791984D01*
X11259515Y-14791984D02*
X11259515Y-14687222D01*
X11259515Y-14687222D02*
X11249991Y-14668174D01*
X11249991Y-14668174D02*
X11230943Y-14658650D01*
X11230943Y-14658650D02*
X11192848Y-14658650D01*
X11192848Y-14658650D02*
X11173801Y-14668174D01*
X11259515Y-14782460D02*
X11240467Y-14791984D01*
X11240467Y-14791984D02*
X11192848Y-14791984D01*
X11192848Y-14791984D02*
X11173801Y-14782460D01*
X11173801Y-14782460D02*
X11164277Y-14763412D01*
X11164277Y-14763412D02*
X11164277Y-14744365D01*
X11164277Y-14744365D02*
X11173801Y-14725317D01*
X11173801Y-14725317D02*
X11192848Y-14715793D01*
X11192848Y-14715793D02*
X11240467Y-14715793D01*
X11240467Y-14715793D02*
X11259515Y-14706269D01*
X11354753Y-14658650D02*
X11354753Y-14858650D01*
X11354753Y-14668174D02*
X11373801Y-14658650D01*
X11373801Y-14658650D02*
X11411896Y-14658650D01*
X11411896Y-14658650D02*
X11430943Y-14668174D01*
X11430943Y-14668174D02*
X11440467Y-14677698D01*
X11440467Y-14677698D02*
X11449991Y-14696746D01*
X11449991Y-14696746D02*
X11449991Y-14753888D01*
X11449991Y-14753888D02*
X11440467Y-14772936D01*
X11440467Y-14772936D02*
X11430943Y-14782460D01*
X11430943Y-14782460D02*
X11411896Y-14791984D01*
X11411896Y-14791984D02*
X11373801Y-14791984D01*
X11373801Y-14791984D02*
X11354753Y-14782460D01*
X11535705Y-14772936D02*
X11545229Y-14782460D01*
X11545229Y-14782460D02*
X11535705Y-14791984D01*
X11535705Y-14791984D02*
X11526182Y-14782460D01*
X11526182Y-14782460D02*
X11535705Y-14772936D01*
X11535705Y-14772936D02*
X11535705Y-14791984D01*
X11535705Y-14668174D02*
X11545229Y-14677698D01*
X11545229Y-14677698D02*
X11535705Y-14687222D01*
X11535705Y-14687222D02*
X11526182Y-14677698D01*
X11526182Y-14677698D02*
X11535705Y-14668174D01*
X11535705Y-14668174D02*
X11535705Y-14687222D01*
M02*
