M48
; DRILL file {KiCad 9.0.4} date 2025-11-08T13:29:40-0700
; FORMAT={-:-/ absolute / metric / decimal}
; #@! TF.CreationDate,2025-11-08T13:29:40-07:00
; #@! TF.GenerationSoftware,Kicad,Pcbnew,9.0.4
; #@! TF.FileFunction,Plated,1,2,PTH
FMAT,2
METRIC
; #@! TA.AperFunction,Plated,PTH,ComponentDrill
T1C0.800
; #@! TA.AperFunction,Plated,PTH,ComponentDrill
T2C0.900
; #@! TA.AperFunction,Plated,PTH,ComponentDrill
T3C1.000
; #@! TA.AperFunction,Plated,PTH,ComponentDrill
T4C1.010
; #@! TA.AperFunction,Plated,PTH,ComponentDrill
T5C1.600
%
G90
G05
T1
X127.0Y-119.38
X127.0Y-132.08
X127.08Y-71.12
X132.08Y-71.12
X134.62Y-119.38
X134.62Y-132.08
X137.16Y-71.2
X137.16Y-76.2
X139.7Y-119.38
X139.7Y-132.08
X144.78Y-68.58
X144.78Y-81.28
X152.4Y-71.12
X152.4Y-76.12
X165.18Y-132.08
X165.18Y-139.7
X170.18Y-132.08
X170.18Y-139.7
X175.26Y-110.49
X175.26Y-123.19
X190.5Y-99.06
X190.5Y-111.76
T2
X182.88Y-111.76
X185.42Y-111.76
T3
X116.84Y-91.44
X116.84Y-106.37
X119.38Y-91.44
X119.38Y-106.37
X121.92Y-91.44
X121.92Y-106.37
X124.46Y-91.44
X124.46Y-106.37
X127.0Y-58.42
X127.0Y-78.74
X127.0Y-91.44
X127.0Y-106.37
X129.54Y-91.44
X129.54Y-106.37
X132.08Y-86.36
X132.08Y-91.44
X132.08Y-106.37
X132.08Y-111.76
X134.62Y-91.44
X134.62Y-106.37
X137.16Y-60.96
X137.16Y-63.5
X137.16Y-66.04
X137.16Y-86.36
X137.16Y-91.44
X137.16Y-106.37
X137.16Y-111.76
X139.5Y-81.28
X139.7Y-91.44
X139.7Y-106.37
X142.24Y-86.36
X142.24Y-91.44
X142.24Y-106.37
X142.24Y-111.76
X143.06Y-119.67
X143.06Y-124.17
X144.78Y-63.5
X144.78Y-91.44
X144.78Y-106.37
X147.32Y-91.44
X147.32Y-106.37
X149.86Y-91.44
X149.86Y-106.37
X149.86Y-119.67
X149.86Y-124.17
X152.4Y-91.44
X152.4Y-106.37
X152.4Y-111.76
X153.22Y-119.67
X153.22Y-124.17
X154.94Y-91.44
X154.94Y-106.37
X157.48Y-91.44
X157.48Y-106.37
X160.02Y-91.44
X160.02Y-106.37
X160.02Y-119.67
X160.02Y-124.17
X160.02Y-132.18
X160.02Y-139.7
X162.56Y-60.96
X162.56Y-63.5
X162.56Y-66.04
X162.56Y-68.58
X162.56Y-71.12
X162.56Y-73.66
X162.56Y-76.2
X162.56Y-78.74
X162.56Y-91.44
X162.56Y-106.37
X164.24Y-121.92
X164.24Y-126.42
X165.1Y-91.44
X165.1Y-106.37
X165.1Y-116.84
X167.64Y-91.44
X167.64Y-106.37
X167.64Y-111.76
X170.18Y-60.96
X170.18Y-63.5
X170.18Y-66.04
X170.18Y-68.58
X170.18Y-71.12
X170.18Y-73.66
X170.18Y-76.2
X170.18Y-78.74
X170.18Y-91.44
X170.18Y-106.37
X171.04Y-121.92
X171.04Y-126.42
X172.72Y-91.44
X172.72Y-106.37
X174.84Y-132.18
X174.84Y-139.7
X175.26Y-91.44
X175.26Y-106.37
X177.38Y-132.18
X177.38Y-139.7
X177.8Y-60.96
X177.8Y-63.5
X177.8Y-66.04
X177.8Y-68.58
X177.8Y-71.12
X177.8Y-73.66
X177.8Y-76.2
X177.8Y-78.74
X177.8Y-91.44
X177.8Y-106.37
X179.92Y-132.18
X179.92Y-139.7
X180.34Y-91.44
X180.34Y-106.37
X182.88Y-91.44
X182.88Y-106.37
X183.17Y-115.98
X183.17Y-122.78
X185.42Y-91.44
X185.42Y-106.37
X187.67Y-115.98
X187.67Y-122.78
X187.96Y-132.18
X187.96Y-139.7
X190.5Y-132.18
X190.5Y-139.7
X193.04Y-132.18
X193.04Y-139.7
T4
X126.98Y-63.92
X132.08Y-65.12
T5
X116.84Y-68.58
X119.84Y-73.28
X122.84Y-68.58
T3
G00X185.32Y-132.18
M15
G01X182.52Y-132.18
M16
G05
G00X185.32Y-139.7
M15
G01X182.52Y-139.7
M16
G05
M30
