<?xml version="1.0" standalone="no"?>
 <!DOCTYPE svg PUBLIC "-//W3C//DTD SVG 1.1//EN" 
 "http://www.w3.org/Graphics/SVG/1.1/DTD/svg11.dtd"> 
<svg
  xmlns:svg="http://www.w3.org/2000/svg"
  xmlns="http://www.w3.org/2000/svg"
  xmlns:xlink="http://www.w3.org/1999/xlink"
  version="1.1"
  width="297.0022mm" height="210.0072mm" viewBox="0.0000 0.0000 297.0022 210.0072">
<title>SVG Image created as egr304-subsystem schematic design-sb-F_Mask.svg date 2025/11/12 17:59:15 </title>
  <desc>Image generated by PCBNEW </desc>
<g style="fill:#000000; fill-opacity:1.0000;stroke:#000000; stroke-opacity:1.0000;
stroke-linecap:round; stroke-linejoin:round;"
 transform="translate(0 0) scale(1 1)">
</g>
<g style="fill:#000000; fill-opacity:1.0000; stroke:none;">
<circle cx="179.0700" cy="62.2300" r="1.1270" /> 
</g>
<g style="fill:#000000; fill-opacity:1.0000; stroke:none;">
<circle cx="181.6100" cy="62.2300" r="1.1270" /> 
</g>
<g style="fill:#000000; fill-opacity:1.0000; stroke:none;">
<circle cx="179.0700" cy="64.7700" r="1.1270" /> 
</g>
<g style="fill:#000000; fill-opacity:1.0000; stroke:none;">
<circle cx="181.6100" cy="64.7700" r="1.1270" /> 
</g>
<g style="fill:#000000; fill-opacity:1.0000; stroke:none;">
<circle cx="179.0700" cy="67.3100" r="1.1270" /> 
</g>
<g style="fill:#000000; fill-opacity:1.0000; stroke:none;">
<circle cx="181.6100" cy="67.3100" r="1.1270" /> 
</g>
<g style="fill:#000000; fill-opacity:1.0000; stroke:none;">
<circle cx="179.0700" cy="69.8500" r="1.1270" /> 
</g>
<g style="fill:#000000; fill-opacity:1.0000; stroke:none;">
<circle cx="181.6100" cy="69.8500" r="1.1270" /> 
</g>
<g style="fill:#000000; fill-opacity:1.0000; stroke:none;">
<circle cx="166.3700" cy="62.2300" r="1.1270" /> 
</g>
<g style="fill:#000000; fill-opacity:1.0000; stroke:none;">
<circle cx="168.9100" cy="62.2300" r="1.1270" /> 
</g>
<g style="fill:#000000; fill-opacity:1.0000; stroke:none;">
<circle cx="166.3700" cy="64.7700" r="1.1270" /> 
</g>
<g style="fill:#000000; fill-opacity:1.0000; stroke:none;">
<circle cx="168.9100" cy="64.7700" r="1.1270" /> 
</g>
<g style="fill:#000000; fill-opacity:1.0000; stroke:none;">
<circle cx="166.3700" cy="67.3100" r="1.1270" /> 
</g>
<g style="fill:#000000; fill-opacity:1.0000; stroke:none;">
<circle cx="168.9100" cy="67.3100" r="1.1270" /> 
</g>
<g style="fill:#000000; fill-opacity:1.0000; stroke:none;">
<circle cx="166.3700" cy="69.8500" r="1.1270" /> 
</g>
<g style="fill:#000000; fill-opacity:1.0000; stroke:none;">
<circle cx="168.9100" cy="69.8500" r="1.1270" /> 
<path style="fill:#000000; fill-opacity:1.0000; stroke:none;fill-rule:evenodd;"
d="M 145.7570,64.3500
145.7473,64.3986
145.7198,64.4398
145.6786,64.4673
145.6300,64.4770
143.9300,64.4770
143.8814,64.4673
143.8402,64.4398
143.8127,64.3986
143.8030,64.3500
143.8030,62.6500
143.8127,62.6014
143.8402,62.5602
143.8814,62.5327
143.9300,62.5230
145.6300,62.5230
145.6786,62.5327
145.7198,62.5602
145.7473,62.6014
145.7570,62.6500
Z" /> 
</g>
<g style="fill:#000000; fill-opacity:1.0000; stroke:none;">
<circle cx="137.1600" cy="60.9600" r="1.0270" /> 
</g>
<g style="fill:#000000; fill-opacity:1.0000; stroke:none;">
<circle cx="137.1600" cy="63.5000" r="1.0270" /> 
</g>
<g style="fill:#000000; fill-opacity:1.0000; stroke:none;">
<circle cx="137.1600" cy="66.0400" r="1.0270" /> 
<path style="fill:#000000; fill-opacity:1.0000; stroke:none;fill-rule:evenodd;"
d="M 141.2630,85.5100
141.2727,85.4614
141.3002,85.4202
141.3414,85.3927
141.3900,85.3830
143.0900,85.3830
143.1386,85.3927
143.1798,85.4202
143.2073,85.4614
143.2170,85.5100
143.2170,87.2100
143.2073,87.2586
143.1798,87.2998
143.1386,87.3273
143.0900,87.3370
141.3900,87.3370
141.3414,87.3273
141.3002,87.2998
141.2727,87.2586
141.2630,87.2100
Z" /> 
</g>
<g style="fill:#000000; fill-opacity:1.0000; stroke:none;">
<circle cx="160.0200" cy="124.1700" r="1.0270" /> 
</g>
<g style="fill:#000000; fill-opacity:1.0000; stroke:none;">
<circle cx="160.0200" cy="119.6700" r="1.0270" /> 
</g>
<g style="fill:#000000; fill-opacity:1.0000; stroke:none;">
<circle cx="153.2200" cy="119.6700" r="1.0270" /> 
</g>
<g style="fill:#000000; fill-opacity:1.0000; stroke:none;">
<circle cx="153.2200" cy="124.1700" r="1.0270" /> 
</g>
<g style="fill:#000000; fill-opacity:1.0000; stroke:none;">
<circle cx="127.0000" cy="132.0800" r="0.9270" /> 
</g>
<g style="fill:#000000; fill-opacity:1.0000; stroke:none;">
<circle cx="127.0000" cy="119.3800" r="0.9270" /> 
</g>
<g style="fill:#000000; fill-opacity:1.0000; stroke:none;">
<circle cx="139.7000" cy="132.0800" r="0.9270" /> 
</g>
<g style="fill:#000000; fill-opacity:1.0000; stroke:none;">
<circle cx="139.7000" cy="119.3800" r="0.9270" /> 
</g>
<g style="fill:#000000; fill-opacity:1.0000; stroke:none;">
<circle cx="126.9800" cy="63.9200" r="1.1320" /> 
</g>
<g style="fill:#000000; fill-opacity:1.0000; stroke:none;">
<circle cx="132.0800" cy="65.1200" r="1.1320" /> 
</g>
<g style="fill:#000000; fill-opacity:1.0000; stroke:none;">
<circle cx="152.4000" cy="71.1200" r="0.9270" /> 
</g>
<g style="fill:#000000; fill-opacity:1.0000; stroke:none;">
<circle cx="152.4000" cy="76.1200" r="0.9270" /> 
<path style="fill:#000000; fill-opacity:1.0000; stroke:none;fill-rule:evenodd;"
d="M 141.2630,110.9100
141.2727,110.8614
141.3002,110.8202
141.3414,110.7927
141.3900,110.7830
143.0900,110.7830
143.1386,110.7927
143.1798,110.8202
143.2073,110.8614
143.2170,110.9100
143.2170,112.6100
143.2073,112.6586
143.1798,112.6998
143.1386,112.7273
143.0900,112.7370
141.3900,112.7370
141.3414,112.7273
141.3002,112.6998
141.2727,112.6586
141.2630,112.6100
Z" /> 
</g>
<g style="fill:#000000; fill-opacity:1.0000; stroke:none;">
<circle cx="170.1800" cy="132.0800" r="0.9270" /> 
</g>
<g style="fill:#000000; fill-opacity:1.0000; stroke:none;">
<circle cx="165.1800" cy="132.0800" r="0.9270" /> 
</g>
<g style="fill:#000000; fill-opacity:1.0000; stroke:none;">
<circle cx="137.1600" cy="71.2000" r="0.9270" /> 
</g>
<g style="fill:#000000; fill-opacity:1.0000; stroke:none;">
<circle cx="137.1600" cy="76.2000" r="0.9270" /> 
<path style="fill:#000000; fill-opacity:1.0000; stroke:none;fill-rule:evenodd;"
d="M 181.8530,110.8600
181.8627,110.8114
181.8902,110.7702
181.9314,110.7427
181.9800,110.7330
183.7800,110.7330
183.8286,110.7427
183.8698,110.7702
183.8973,110.8114
183.9070,110.8600
183.9070,112.6600
183.8973,112.7086
183.8698,112.7498
183.8286,112.7773
183.7800,112.7870
181.9800,112.7870
181.9314,112.7773
181.8902,112.7498
181.8627,112.7086
181.8530,112.6600
Z" /> 
</g>
<g style="fill:#000000; fill-opacity:1.0000; stroke:none;">
<circle cx="185.4200" cy="111.7600" r="1.0270" /> 
<path style="fill:#000000; fill-opacity:1.0000; stroke:none;fill-rule:evenodd;"
d="M 131.1030,110.9100
131.1127,110.8614
131.1402,110.8202
131.1814,110.7927
131.2300,110.7830
132.9300,110.7830
132.9786,110.7927
133.0198,110.8202
133.0473,110.8614
133.0570,110.9100
133.0570,112.6100
133.0473,112.6586
133.0198,112.6998
132.9786,112.7273
132.9300,112.7370
131.2300,112.7370
131.1814,112.7273
131.1402,112.6998
131.1127,112.6586
131.1030,112.6100
Z" /> 
<path style="fill:#000000; fill-opacity:1.0000; stroke:none;fill-rule:evenodd;"
d="M 138.5230,80.4300
138.5327,80.3814
138.5602,80.3402
138.6014,80.3127
138.6500,80.3030
140.3500,80.3030
140.3986,80.3127
140.4398,80.3402
140.4673,80.3814
140.4770,80.4300
140.4770,82.1300
140.4673,82.1786
140.4398,82.2198
140.3986,82.2473
140.3500,82.2570
138.6500,82.2570
138.6014,82.2473
138.5602,82.2198
138.5327,82.1786
138.5230,82.1300
Z" /> 
</g>
<g style="fill:#000000; fill-opacity:1.0000; stroke:none;">
<circle cx="144.7800" cy="68.5800" r="0.9270" /> 
</g>
<g style="fill:#000000; fill-opacity:1.0000; stroke:none;">
<circle cx="144.7800" cy="81.2800" r="0.9270" /> 
<path style="fill:#000000; fill-opacity:1.0000; stroke:none;fill-rule:evenodd;"
d="M 126.0230,77.8900
126.0327,77.8414
126.0602,77.8002
126.1014,77.7727
126.1500,77.7630
127.8500,77.7630
127.8986,77.7727
127.9398,77.8002
127.9673,77.8414
127.9770,77.8900
127.9770,79.5900
127.9673,79.6386
127.9398,79.6798
127.8986,79.7073
127.8500,79.7170
126.1500,79.7170
126.1014,79.7073
126.0602,79.6798
126.0327,79.6386
126.0230,79.5900
Z" /> 
</g>
<g style="fill:#000000; fill-opacity:1.0000; stroke:none;">
<circle cx="172.7200" cy="76.2000" r="0.9770" /> 
</g>
<g style="fill:#000000; fill-opacity:1.0000; stroke:none;">
<circle cx="175.2600" cy="76.2000" r="0.9770" /> 
</g>
<g style="fill:#000000; fill-opacity:1.0000; stroke:none;">
<circle cx="187.6700" cy="115.9800" r="1.0270" /> 
</g>
<g style="fill:#000000; fill-opacity:1.0000; stroke:none;">
<circle cx="183.1700" cy="115.9800" r="1.0270" /> 
</g>
<g style="fill:#000000; fill-opacity:1.0000; stroke:none;">
<circle cx="183.1700" cy="122.7800" r="1.0270" /> 
</g>
<g style="fill:#000000; fill-opacity:1.0000; stroke:none;">
<circle cx="187.6700" cy="122.7800" r="1.0270" /> 
<path style="fill:#000000; fill-opacity:1.0000; stroke:none;fill-rule:evenodd;"
d="M 166.6630,110.9100
166.6727,110.8614
166.7002,110.8202
166.7414,110.7927
166.7900,110.7830
168.4900,110.7830
168.5386,110.7927
168.5798,110.8202
168.6073,110.8614
168.6170,110.9100
168.6170,112.6100
168.6073,112.6586
168.5798,112.6998
168.5386,112.7273
168.4900,112.7370
166.7900,112.7370
166.7414,112.7273
166.7002,112.6998
166.6727,112.6586
166.6630,112.6100
Z" /> 
</g>
<g style="fill:#000000; fill-opacity:1.0000; stroke:none;">
<circle cx="170.1800" cy="139.7000" r="0.9270" /> 
</g>
<g style="fill:#000000; fill-opacity:1.0000; stroke:none;">
<circle cx="165.1800" cy="139.7000" r="0.9270" /> 
<path style="fill:#000000; fill-opacity:1.0000; stroke:none;fill-rule:evenodd;"
d="M 126.0230,57.5700
126.0327,57.5214
126.0602,57.4802
126.1014,57.4527
126.1500,57.4430
127.8500,57.4430
127.8986,57.4527
127.9398,57.4802
127.9673,57.5214
127.9770,57.5700
127.9770,59.2700
127.9673,59.3186
127.9398,59.3598
127.8986,59.3873
127.8500,59.3970
126.1500,59.3970
126.1014,59.3873
126.0602,59.3598
126.0327,59.3186
126.0230,59.2700
Z" /> 
</g>
<g style="fill:#000000; fill-opacity:1.0000; stroke:none;">
<circle cx="162.5600" cy="73.6600" r="0.9770" /> 
</g>
<g style="fill:#000000; fill-opacity:1.0000; stroke:none;">
<circle cx="165.1000" cy="73.6600" r="0.9770" /> 
</g>
<g style="fill:#000000; fill-opacity:1.0000; stroke:none;">
<circle cx="175.2600" cy="110.4900" r="0.9270" /> 
</g>
<g style="fill:#000000; fill-opacity:1.0000; stroke:none;">
<circle cx="175.2600" cy="123.1900" r="0.9270" /> 
</g>
<g style="fill:#000000; fill-opacity:1.0000; stroke:none;">
<circle cx="171.0400" cy="126.4200" r="1.0270" /> 
</g>
<g style="fill:#000000; fill-opacity:1.0000; stroke:none;">
<circle cx="171.0400" cy="121.9200" r="1.0270" /> 
</g>
<g style="fill:#000000; fill-opacity:1.0000; stroke:none;">
<circle cx="164.2400" cy="121.9200" r="1.0270" /> 
</g>
<g style="fill:#000000; fill-opacity:1.0000; stroke:none;">
<circle cx="164.2400" cy="126.4200" r="1.0270" /> 
<path style="fill:#000000; fill-opacity:1.0000; stroke:none;fill-rule:evenodd;"
d="M 136.1830,110.9100
136.1927,110.8614
136.2202,110.8202
136.2614,110.7927
136.3100,110.7830
138.0100,110.7830
138.0586,110.7927
138.0998,110.8202
138.1273,110.8614
138.1370,110.9100
138.1370,112.6100
138.1273,112.6586
138.0998,112.6998
138.0586,112.7273
138.0100,112.7370
136.3100,112.7370
136.2614,112.7273
136.2202,112.6998
136.1927,112.6586
136.1830,112.6100
Z" /> 
<path style="fill:#000000; fill-opacity:1.0000; stroke:none;fill-rule:evenodd;"
d="M 131.1030,85.5100
131.1127,85.4614
131.1402,85.4202
131.1814,85.3927
131.2300,85.3830
132.9300,85.3830
132.9786,85.3927
133.0198,85.4202
133.0473,85.4614
133.0570,85.5100
133.0570,87.2100
133.0473,87.2586
133.0198,87.2998
132.9786,87.3273
132.9300,87.3370
131.2300,87.3370
131.1814,87.3273
131.1402,87.2998
131.1127,87.2586
131.1030,87.2100
Z" /> 
</g>
<g style="fill:#000000; fill-opacity:1.0000; stroke:none;">
<circle cx="190.5000" cy="111.7600" r="0.9270" /> 
</g>
<g style="fill:#000000; fill-opacity:1.0000; stroke:none;">
<circle cx="190.5000" cy="99.0600" r="0.9270" /> 
</g>
<g style="fill:none; 
stroke:#000000; stroke-width:2.0540; stroke-opacity:1; 
stroke-linecap:round; stroke-linejoin:round;">
<path d="M116.8400 105.7700
L116.8400 106.9700
" />
<path d="M119.3800 105.7700
L119.3800 106.9700
" />
<path d="M121.9200 105.7700
L121.9200 106.9700
" />
<path d="M124.4600 105.7700
L124.4600 106.9700
" />
<path d="M127.0000 105.7700
L127.0000 106.9700
" />
<path d="M129.5400 105.7700
L129.5400 106.9700
" />
<path d="M132.0800 105.7700
L132.0800 106.9700
" />
<path d="M134.6200 105.7700
L134.6200 106.9700
" />
<path d="M137.1600 105.7700
L137.1600 106.9700
" />
<path d="M139.7000 105.7700
L139.7000 106.9700
" />
<path d="M142.2400 105.7700
L142.2400 106.9700
" />
<path d="M144.7800 105.7700
L144.7800 106.9700
" />
<path d="M147.3200 105.7700
L147.3200 106.9700
" />
<path d="M149.8600 105.7700
L149.8600 106.9700
" />
<path d="M152.4000 105.7700
L152.4000 106.9700
" />
<path d="M154.9400 105.7700
L154.9400 106.9700
" />
<path d="M157.4800 105.7700
L157.4800 106.9700
" />
<path d="M160.0200 105.7700
L160.0200 106.9700
" />
<path d="M162.5600 105.7700
L162.5600 106.9700
" />
<path d="M165.1000 105.7700
L165.1000 106.9700
" />
<path d="M167.6400 105.7700
L167.6400 106.9700
" />
<path d="M170.1800 105.7700
L170.1800 106.9700
" />
<path d="M172.7200 105.7700
L172.7200 106.9700
" />
<path d="M175.2600 105.7700
L175.2600 106.9700
" />
<path d="M177.8000 105.7700
L177.8000 106.9700
" />
<path d="M180.3400 105.7700
L180.3400 106.9700
" />
<path d="M182.8800 105.7700
L182.8800 106.9700
" />
<path d="M185.4200 105.7700
L185.4200 106.9700
" />
<path d="M185.4200 90.8400
L185.4200 92.0400
" />
<path d="M182.8800 90.8400
L182.8800 92.0400
" />
<path d="M180.3400 90.8400
L180.3400 92.0400
" />
<path d="M177.8000 90.8400
L177.8000 92.0400
" />
<path d="M175.2600 90.8400
L175.2600 92.0400
" />
<path d="M172.7200 90.8400
L172.7200 92.0400
" />
<path d="M170.1800 90.8400
L170.1800 92.0400
" />
<path d="M167.6400 90.8400
L167.6400 92.0400
" />
<path d="M165.1000 90.8400
L165.1000 92.0400
" />
<path d="M162.5600 90.8400
L162.5600 92.0400
" />
<path d="M160.0200 90.8400
L160.0200 92.0400
" />
<path d="M157.4800 90.8400
L157.4800 92.0400
" />
<path d="M154.9400 90.8400
L154.9400 92.0400
" />
<path d="M152.4000 90.8400
L152.4000 92.0400
" />
<path d="M149.8600 90.8400
L149.8600 92.0400
" />
<path d="M147.3200 90.8400
L147.3200 92.0400
" />
<path d="M144.7800 90.8400
L144.7800 92.0400
" />
<path d="M142.2400 90.8400
L142.2400 92.0400
" />
<path d="M139.7000 90.8400
L139.7000 92.0400
" />
<path d="M137.1600 90.8400
L137.1600 92.0400
" />
<path d="M134.6200 90.8400
L134.6200 92.0400
" />
<path d="M132.0800 90.8400
L132.0800 92.0400
" />
<path d="M129.5400 90.8400
L129.5400 92.0400
" />
<path d="M127.0000 90.8400
L127.0000 92.0400
" />
<path d="M124.4600 90.8400
L124.4600 92.0400
" />
<path d="M121.9200 90.8400
L121.9200 92.0400
" />
<path d="M119.3800 90.8400
L119.3800 92.0400
" />
<path d="M116.8400 90.8400
L116.8400 92.0400
" />
<path style="fill:#000000; fill-opacity:1.0000; stroke:none;fill-rule:evenodd;"
d="M 136.1830,85.5100
136.1927,85.4614
136.2202,85.4202
136.2614,85.3927
136.3100,85.3830
138.0100,85.3830
138.0586,85.3927
138.0998,85.4202
138.1273,85.4614
138.1370,85.5100
138.1370,87.2100
138.1273,87.2586
138.0998,87.2998
138.0586,87.3273
138.0100,87.3370
136.3100,87.3370
136.2614,87.3273
136.2202,87.2998
136.1927,87.2586
136.1830,87.2100
Z" /> 
<path style="fill:#000000; fill-opacity:1.0000; stroke:none;fill-rule:evenodd;"
d="M 124.1400,67.1530
124.1886,67.1627
124.2298,67.1902
124.2573,67.2314
124.2670,67.2800
124.2670,69.8800
124.2573,69.9286
124.2298,69.9698
124.1886,69.9973
124.1400,70.0070
121.5400,70.0070
121.4914,69.9973
121.4502,69.9698
121.4227,69.9286
121.4130,69.8800
121.4130,67.2800
121.4227,67.2314
121.4502,67.1902
121.4914,67.1627
121.5400,67.1530
Z" /> 
</g>
<g style="fill:#000000; fill-opacity:1.0000; stroke:none;">
<circle cx="116.8400" cy="68.5800" r="1.4270" /> 
</g>
<g style="fill:#000000; fill-opacity:1.0000; stroke:none;">
<circle cx="119.8400" cy="73.2800" r="1.4270" /> 
</g>
<g style="fill:#000000; fill-opacity:1.0000; stroke:none;">
<circle cx="149.8600" cy="124.1700" r="1.0270" /> 
</g>
<g style="fill:#000000; fill-opacity:1.0000; stroke:none;">
<circle cx="149.8600" cy="119.6700" r="1.0270" /> 
</g>
<g style="fill:#000000; fill-opacity:1.0000; stroke:none;">
<circle cx="143.0600" cy="119.6700" r="1.0270" /> 
</g>
<g style="fill:#000000; fill-opacity:1.0000; stroke:none;">
<circle cx="143.0600" cy="124.1700" r="1.0270" /> 
</g>
<g style="fill:#000000; fill-opacity:1.0000; stroke:none;">
<circle cx="132.0800" cy="71.1200" r="0.9270" /> 
</g>
<g style="fill:#000000; fill-opacity:1.0000; stroke:none;">
<circle cx="127.0800" cy="71.1200" r="0.9270" /> 
<path style="fill:#000000; fill-opacity:1.0000; stroke:none;fill-rule:evenodd;"
d="M 164.1230,115.9900
164.1327,115.9414
164.1602,115.9002
164.2014,115.8727
164.2500,115.8630
165.9500,115.8630
165.9986,115.8727
166.0398,115.9002
166.0673,115.9414
166.0770,115.9900
166.0770,117.6900
166.0673,117.7386
166.0398,117.7798
165.9986,117.8073
165.9500,117.8170
164.2500,117.8170
164.2014,117.8073
164.1602,117.7798
164.1327,117.7386
164.1230,117.6900
Z" /> 
<path style="fill:#000000; fill-opacity:1.0000; stroke:none;fill-rule:evenodd;"
d="M 151.4230,110.9100
151.4327,110.8614
151.4602,110.8202
151.5014,110.7927
151.5500,110.7830
153.2500,110.7830
153.2986,110.7927
153.3398,110.8202
153.3673,110.8614
153.3770,110.9100
153.3770,112.6100
153.3673,112.6586
153.3398,112.6998
153.2986,112.7273
153.2500,112.7370
151.5500,112.7370
151.5014,112.7273
151.4602,112.6998
151.4327,112.6586
151.4230,112.6100
Z" /> 
</g>
<g style="fill:#000000; fill-opacity:1.0000; stroke:none;">
<circle cx="134.6200" cy="132.0800" r="0.9270" /> 
</g>
<g style="fill:#000000; fill-opacity:1.0000; stroke:none;">
<circle cx="134.6200" cy="119.3800" r="0.9270" /> 
</g>
<g style="fill:#000000; fill-opacity:1.0000; stroke:none;">
<circle cx="160.0200" cy="132.1800" r="1.0270" /> 
</g>
<g style="fill:#000000; fill-opacity:1.0000; stroke:none;">
<circle cx="160.0200" cy="139.7000" r="1.0270" /> 
</g>
<g style="fill:#000000; fill-opacity:1.0000; stroke:none;">
<circle cx="193.0400" cy="139.7000" r="1.0270" /> 
</g>
<g style="fill:#000000; fill-opacity:1.0000; stroke:none;">
<circle cx="190.5000" cy="139.7000" r="1.0270" /> 
</g>
<g style="fill:#000000; fill-opacity:1.0000; stroke:none;">
<circle cx="187.9600" cy="139.7000" r="1.0270" /> 
</g>
<g style="fill:#000000; fill-opacity:1.0000; stroke:none;">
<circle cx="179.9200" cy="139.7000" r="1.0270" /> 
</g>
<g style="fill:#000000; fill-opacity:1.0000; stroke:none;">
<circle cx="177.3800" cy="139.7000" r="1.0270" /> 
</g>
<g style="fill:#000000; fill-opacity:1.0000; stroke:none;">
<circle cx="174.8400" cy="139.7000" r="1.0270" /> 
</g>
<g style="fill:#000000; fill-opacity:1.0000; stroke:none;">
<circle cx="174.8400" cy="132.1800" r="1.0270" /> 
</g>
<g style="fill:#000000; fill-opacity:1.0000; stroke:none;">
<circle cx="177.3800" cy="132.1800" r="1.0270" /> 
</g>
<g style="fill:#000000; fill-opacity:1.0000; stroke:none;">
<circle cx="179.9200" cy="132.1800" r="1.0270" /> 
</g>
<g style="fill:#000000; fill-opacity:1.0000; stroke:none;">
<circle cx="187.9600" cy="132.1800" r="1.0270" /> 
</g>
<g style="fill:#000000; fill-opacity:1.0000; stroke:none;">
<circle cx="190.5000" cy="132.1800" r="1.0270" /> 
</g>
<g style="fill:#000000; fill-opacity:1.0000; stroke:none;">
<circle cx="193.0400" cy="132.1800" r="1.0270" /> 
</g>
<g style="fill:none; 
stroke:#000000; stroke-width:2.0540; stroke-opacity:1; 
stroke-linecap:round; stroke-linejoin:round;">
<path d="M185.3200 139.7000
L182.5200 139.7000
" />
<path d="M185.3200 132.1800
L182.5200 132.1800
" />
<path style="fill:none; 
stroke:#000000; stroke-width:0.0500; stroke-opacity:1; 
stroke-linecap:round; stroke-linejoin:round;fill:none"
d="M 99.0600,53.3400
198.1200,53.3400
198.1200,144.7800
99.0600,144.7800
Z" /> 
</g> 
</svg>
