%TF.GenerationSoftware,KiCad,Pcbnew,9.0.4*%
%TF.CreationDate,2025-11-12T17:59:11-07:00*%
%TF.ProjectId,egr304-subsystem schematic design-sb,65677233-3034-42d7-9375-627379737465,rev?*%
%TF.SameCoordinates,Original*%
%TF.FileFunction,Drillmap*%
%TF.FilePolarity,Positive*%
%FSLAX45Y45*%
G04 Gerber Fmt 4.5, Leading zero omitted, Abs format (unit mm)*
G04 Created by KiCad (PCBNEW 9.0.4) date 2025-11-12 17:59:11*
%MOMM*%
%LPD*%
G01*
G04 APERTURE LIST*
%ADD10C,0.050000*%
%ADD11C,0.200000*%
%ADD12C,0.100000*%
%ADD13C,0.101000*%
%ADD14C,0.160000*%
G04 APERTURE END LIST*
D10*
X9906000Y-5334000D02*
X19812000Y-5334000D01*
X19812000Y-14478000D01*
X9906000Y-14478000D01*
X9906000Y-5334000D01*
D11*
D12*
X12660000Y-11898000D02*
X12740000Y-11978000D01*
X12740000Y-11898000D02*
X12660000Y-11978000D01*
X12660000Y-13168000D02*
X12740000Y-13248000D01*
X12740000Y-13168000D02*
X12660000Y-13248000D01*
X12668000Y-7072000D02*
X12748000Y-7152000D01*
X12748000Y-7072000D02*
X12668000Y-7152000D01*
X13168000Y-7072000D02*
X13248000Y-7152000D01*
X13248000Y-7072000D02*
X13168000Y-7152000D01*
X13422000Y-11898000D02*
X13502000Y-11978000D01*
X13502000Y-11898000D02*
X13422000Y-11978000D01*
X13422000Y-13168000D02*
X13502000Y-13248000D01*
X13502000Y-13168000D02*
X13422000Y-13248000D01*
X13676000Y-7080000D02*
X13756000Y-7160000D01*
X13756000Y-7080000D02*
X13676000Y-7160000D01*
X13676000Y-7580000D02*
X13756000Y-7660000D01*
X13756000Y-7580000D02*
X13676000Y-7660000D01*
X13930000Y-11898000D02*
X14010000Y-11978000D01*
X14010000Y-11898000D02*
X13930000Y-11978000D01*
X13930000Y-13168000D02*
X14010000Y-13248000D01*
X14010000Y-13168000D02*
X13930000Y-13248000D01*
X14438000Y-6818000D02*
X14518000Y-6898000D01*
X14518000Y-6818000D02*
X14438000Y-6898000D01*
X14438000Y-8088000D02*
X14518000Y-8168000D01*
X14518000Y-8088000D02*
X14438000Y-8168000D01*
X15200000Y-7072000D02*
X15280000Y-7152000D01*
X15280000Y-7072000D02*
X15200000Y-7152000D01*
X15200000Y-7572000D02*
X15280000Y-7652000D01*
X15280000Y-7572000D02*
X15200000Y-7652000D01*
X16478000Y-13168000D02*
X16558000Y-13248000D01*
X16558000Y-13168000D02*
X16478000Y-13248000D01*
X16478000Y-13930000D02*
X16558000Y-14010000D01*
X16558000Y-13930000D02*
X16478000Y-14010000D01*
X16597000Y-6183000D02*
X16677000Y-6263000D01*
X16677000Y-6183000D02*
X16597000Y-6263000D01*
X16597000Y-6437000D02*
X16677000Y-6517000D01*
X16677000Y-6437000D02*
X16597000Y-6517000D01*
X16597000Y-6691000D02*
X16677000Y-6771000D01*
X16677000Y-6691000D02*
X16597000Y-6771000D01*
X16597000Y-6945000D02*
X16677000Y-7025000D01*
X16677000Y-6945000D02*
X16597000Y-7025000D01*
X16851000Y-6183000D02*
X16931000Y-6263000D01*
X16931000Y-6183000D02*
X16851000Y-6263000D01*
X16851000Y-6437000D02*
X16931000Y-6517000D01*
X16931000Y-6437000D02*
X16851000Y-6517000D01*
X16851000Y-6691000D02*
X16931000Y-6771000D01*
X16931000Y-6691000D02*
X16851000Y-6771000D01*
X16851000Y-6945000D02*
X16931000Y-7025000D01*
X16931000Y-6945000D02*
X16851000Y-7025000D01*
X16978000Y-13168000D02*
X17058000Y-13248000D01*
X17058000Y-13168000D02*
X16978000Y-13248000D01*
X16978000Y-13930000D02*
X17058000Y-14010000D01*
X17058000Y-13930000D02*
X16978000Y-14010000D01*
X17486000Y-11009000D02*
X17566000Y-11089000D01*
X17566000Y-11009000D02*
X17486000Y-11089000D01*
X17486000Y-12279000D02*
X17566000Y-12359000D01*
X17566000Y-12279000D02*
X17486000Y-12359000D01*
X17867000Y-6183000D02*
X17947000Y-6263000D01*
X17947000Y-6183000D02*
X17867000Y-6263000D01*
X17867000Y-6437000D02*
X17947000Y-6517000D01*
X17947000Y-6437000D02*
X17867000Y-6517000D01*
X17867000Y-6691000D02*
X17947000Y-6771000D01*
X17947000Y-6691000D02*
X17867000Y-6771000D01*
X17867000Y-6945000D02*
X17947000Y-7025000D01*
X17947000Y-6945000D02*
X17867000Y-7025000D01*
X18121000Y-6183000D02*
X18201000Y-6263000D01*
X18201000Y-6183000D02*
X18121000Y-6263000D01*
X18121000Y-6437000D02*
X18201000Y-6517000D01*
X18201000Y-6437000D02*
X18121000Y-6517000D01*
X18121000Y-6691000D02*
X18201000Y-6771000D01*
X18201000Y-6691000D02*
X18121000Y-6771000D01*
X18121000Y-6945000D02*
X18201000Y-7025000D01*
X18201000Y-6945000D02*
X18121000Y-7025000D01*
X19010000Y-9866000D02*
X19090000Y-9946000D01*
X19090000Y-9866000D02*
X19010000Y-9946000D01*
X19010000Y-11136000D02*
X19090000Y-11216000D01*
X19090000Y-11136000D02*
X19010000Y-11216000D01*
X18333000Y-11176000D02*
G75*
G02*
X18243000Y-11176000I-45000J0D01*
G01*
X18243000Y-11176000D02*
G75*
G02*
X18333000Y-11176000I45000J0D01*
G01*
X18587000Y-11176000D02*
G75*
G02*
X18497000Y-11176000I-45000J0D01*
G01*
X18497000Y-11176000D02*
G75*
G02*
X18587000Y-11176000I45000J0D01*
G01*
X16256000Y-7316470D02*
X16256000Y-7415530D01*
X16206470Y-7366000D02*
X16305530Y-7366000D01*
X16510000Y-7316470D02*
X16510000Y-7415530D01*
X16460470Y-7366000D02*
X16559530Y-7366000D01*
X17272000Y-7570470D02*
X17272000Y-7669530D01*
X17222470Y-7620000D02*
X17321530Y-7620000D01*
X17526000Y-7570470D02*
X17526000Y-7669530D01*
X17476470Y-7620000D02*
X17575530Y-7620000D01*
X11719356Y-9179356D02*
X11719356Y-9108644D01*
X11648644Y-9108644D01*
X11648644Y-9179356D01*
X11719356Y-9179356D01*
X11719356Y-10672356D02*
X11719356Y-10601644D01*
X11648644Y-10601644D01*
X11648644Y-10672356D01*
X11719356Y-10672356D01*
X11973356Y-9179356D02*
X11973356Y-9108644D01*
X11902644Y-9108644D01*
X11902644Y-9179356D01*
X11973356Y-9179356D01*
X11973356Y-10672356D02*
X11973356Y-10601644D01*
X11902644Y-10601644D01*
X11902644Y-10672356D01*
X11973356Y-10672356D01*
X12227356Y-9179356D02*
X12227356Y-9108644D01*
X12156644Y-9108644D01*
X12156644Y-9179356D01*
X12227356Y-9179356D01*
X12227356Y-10672356D02*
X12227356Y-10601644D01*
X12156644Y-10601644D01*
X12156644Y-10672356D01*
X12227356Y-10672356D01*
X12481356Y-9179356D02*
X12481356Y-9108644D01*
X12410644Y-9108644D01*
X12410644Y-9179356D01*
X12481356Y-9179356D01*
X12481356Y-10672356D02*
X12481356Y-10601644D01*
X12410644Y-10601644D01*
X12410644Y-10672356D01*
X12481356Y-10672356D01*
X12735356Y-5877356D02*
X12735356Y-5806644D01*
X12664644Y-5806644D01*
X12664644Y-5877356D01*
X12735356Y-5877356D01*
X12735356Y-7909356D02*
X12735356Y-7838644D01*
X12664644Y-7838644D01*
X12664644Y-7909356D01*
X12735356Y-7909356D01*
X12735356Y-9179356D02*
X12735356Y-9108644D01*
X12664644Y-9108644D01*
X12664644Y-9179356D01*
X12735356Y-9179356D01*
X12735356Y-10672356D02*
X12735356Y-10601644D01*
X12664644Y-10601644D01*
X12664644Y-10672356D01*
X12735356Y-10672356D01*
X12989356Y-9179356D02*
X12989356Y-9108644D01*
X12918644Y-9108644D01*
X12918644Y-9179356D01*
X12989356Y-9179356D01*
X12989356Y-10672356D02*
X12989356Y-10601644D01*
X12918644Y-10601644D01*
X12918644Y-10672356D01*
X12989356Y-10672356D01*
X13243356Y-8671356D02*
X13243356Y-8600644D01*
X13172644Y-8600644D01*
X13172644Y-8671356D01*
X13243356Y-8671356D01*
X13243356Y-9179356D02*
X13243356Y-9108644D01*
X13172644Y-9108644D01*
X13172644Y-9179356D01*
X13243356Y-9179356D01*
X13243356Y-10672356D02*
X13243356Y-10601644D01*
X13172644Y-10601644D01*
X13172644Y-10672356D01*
X13243356Y-10672356D01*
X13243356Y-11211356D02*
X13243356Y-11140644D01*
X13172644Y-11140644D01*
X13172644Y-11211356D01*
X13243356Y-11211356D01*
X13497356Y-9179356D02*
X13497356Y-9108644D01*
X13426644Y-9108644D01*
X13426644Y-9179356D01*
X13497356Y-9179356D01*
X13497356Y-10672356D02*
X13497356Y-10601644D01*
X13426644Y-10601644D01*
X13426644Y-10672356D01*
X13497356Y-10672356D01*
X13751356Y-6131356D02*
X13751356Y-6060644D01*
X13680644Y-6060644D01*
X13680644Y-6131356D01*
X13751356Y-6131356D01*
X13751356Y-6385356D02*
X13751356Y-6314644D01*
X13680644Y-6314644D01*
X13680644Y-6385356D01*
X13751356Y-6385356D01*
X13751356Y-6639356D02*
X13751356Y-6568644D01*
X13680644Y-6568644D01*
X13680644Y-6639356D01*
X13751356Y-6639356D01*
X13751356Y-8671356D02*
X13751356Y-8600644D01*
X13680644Y-8600644D01*
X13680644Y-8671356D01*
X13751356Y-8671356D01*
X13751356Y-9179356D02*
X13751356Y-9108644D01*
X13680644Y-9108644D01*
X13680644Y-9179356D01*
X13751356Y-9179356D01*
X13751356Y-10672356D02*
X13751356Y-10601644D01*
X13680644Y-10601644D01*
X13680644Y-10672356D01*
X13751356Y-10672356D01*
X13751356Y-11211356D02*
X13751356Y-11140644D01*
X13680644Y-11140644D01*
X13680644Y-11211356D01*
X13751356Y-11211356D01*
X13985356Y-8163356D02*
X13985356Y-8092644D01*
X13914644Y-8092644D01*
X13914644Y-8163356D01*
X13985356Y-8163356D01*
X14005356Y-9179356D02*
X14005356Y-9108644D01*
X13934644Y-9108644D01*
X13934644Y-9179356D01*
X14005356Y-9179356D01*
X14005356Y-10672356D02*
X14005356Y-10601644D01*
X13934644Y-10601644D01*
X13934644Y-10672356D01*
X14005356Y-10672356D01*
X14259356Y-8671356D02*
X14259356Y-8600644D01*
X14188644Y-8600644D01*
X14188644Y-8671356D01*
X14259356Y-8671356D01*
X14259356Y-9179356D02*
X14259356Y-9108644D01*
X14188644Y-9108644D01*
X14188644Y-9179356D01*
X14259356Y-9179356D01*
X14259356Y-10672356D02*
X14259356Y-10601644D01*
X14188644Y-10601644D01*
X14188644Y-10672356D01*
X14259356Y-10672356D01*
X14259356Y-11211356D02*
X14259356Y-11140644D01*
X14188644Y-11140644D01*
X14188644Y-11211356D01*
X14259356Y-11211356D01*
X14341356Y-12002356D02*
X14341356Y-11931644D01*
X14270644Y-11931644D01*
X14270644Y-12002356D01*
X14341356Y-12002356D01*
X14341356Y-12452356D02*
X14341356Y-12381644D01*
X14270644Y-12381644D01*
X14270644Y-12452356D01*
X14341356Y-12452356D01*
X14513356Y-6385356D02*
X14513356Y-6314644D01*
X14442644Y-6314644D01*
X14442644Y-6385356D01*
X14513356Y-6385356D01*
X14513356Y-9179356D02*
X14513356Y-9108644D01*
X14442644Y-9108644D01*
X14442644Y-9179356D01*
X14513356Y-9179356D01*
X14513356Y-10672356D02*
X14513356Y-10601644D01*
X14442644Y-10601644D01*
X14442644Y-10672356D01*
X14513356Y-10672356D01*
X14767356Y-9179356D02*
X14767356Y-9108644D01*
X14696644Y-9108644D01*
X14696644Y-9179356D01*
X14767356Y-9179356D01*
X14767356Y-10672356D02*
X14767356Y-10601644D01*
X14696644Y-10601644D01*
X14696644Y-10672356D01*
X14767356Y-10672356D01*
X15021356Y-9179356D02*
X15021356Y-9108644D01*
X14950644Y-9108644D01*
X14950644Y-9179356D01*
X15021356Y-9179356D01*
X15021356Y-10672356D02*
X15021356Y-10601644D01*
X14950644Y-10601644D01*
X14950644Y-10672356D01*
X15021356Y-10672356D01*
X15021356Y-12002356D02*
X15021356Y-11931644D01*
X14950644Y-11931644D01*
X14950644Y-12002356D01*
X15021356Y-12002356D01*
X15021356Y-12452356D02*
X15021356Y-12381644D01*
X14950644Y-12381644D01*
X14950644Y-12452356D01*
X15021356Y-12452356D01*
X15275356Y-9179356D02*
X15275356Y-9108644D01*
X15204644Y-9108644D01*
X15204644Y-9179356D01*
X15275356Y-9179356D01*
X15275356Y-10672356D02*
X15275356Y-10601644D01*
X15204644Y-10601644D01*
X15204644Y-10672356D01*
X15275356Y-10672356D01*
X15275356Y-11211356D02*
X15275356Y-11140644D01*
X15204644Y-11140644D01*
X15204644Y-11211356D01*
X15275356Y-11211356D01*
X15357356Y-12002356D02*
X15357356Y-11931644D01*
X15286644Y-11931644D01*
X15286644Y-12002356D01*
X15357356Y-12002356D01*
X15357356Y-12452356D02*
X15357356Y-12381644D01*
X15286644Y-12381644D01*
X15286644Y-12452356D01*
X15357356Y-12452356D01*
X15529356Y-9179356D02*
X15529356Y-9108644D01*
X15458644Y-9108644D01*
X15458644Y-9179356D01*
X15529356Y-9179356D01*
X15529356Y-10672356D02*
X15529356Y-10601644D01*
X15458644Y-10601644D01*
X15458644Y-10672356D01*
X15529356Y-10672356D01*
X15783356Y-9179356D02*
X15783356Y-9108644D01*
X15712644Y-9108644D01*
X15712644Y-9179356D01*
X15783356Y-9179356D01*
X15783356Y-10672356D02*
X15783356Y-10601644D01*
X15712644Y-10601644D01*
X15712644Y-10672356D01*
X15783356Y-10672356D01*
X16037356Y-9179356D02*
X16037356Y-9108644D01*
X15966644Y-9108644D01*
X15966644Y-9179356D01*
X16037356Y-9179356D01*
X16037356Y-10672356D02*
X16037356Y-10601644D01*
X15966644Y-10601644D01*
X15966644Y-10672356D01*
X16037356Y-10672356D01*
X16037356Y-12002356D02*
X16037356Y-11931644D01*
X15966644Y-11931644D01*
X15966644Y-12002356D01*
X16037356Y-12002356D01*
X16037356Y-12452356D02*
X16037356Y-12381644D01*
X15966644Y-12381644D01*
X15966644Y-12452356D01*
X16037356Y-12452356D01*
X16037356Y-13253356D02*
X16037356Y-13182644D01*
X15966644Y-13182644D01*
X15966644Y-13253356D01*
X16037356Y-13253356D01*
X16037356Y-14005356D02*
X16037356Y-13934644D01*
X15966644Y-13934644D01*
X15966644Y-14005356D01*
X16037356Y-14005356D01*
X16291356Y-9179356D02*
X16291356Y-9108644D01*
X16220644Y-9108644D01*
X16220644Y-9179356D01*
X16291356Y-9179356D01*
X16291356Y-10672356D02*
X16291356Y-10601644D01*
X16220644Y-10601644D01*
X16220644Y-10672356D01*
X16291356Y-10672356D01*
X16459356Y-12227356D02*
X16459356Y-12156644D01*
X16388644Y-12156644D01*
X16388644Y-12227356D01*
X16459356Y-12227356D01*
X16459356Y-12677356D02*
X16459356Y-12606644D01*
X16388644Y-12606644D01*
X16388644Y-12677356D01*
X16459356Y-12677356D01*
X16545356Y-9179356D02*
X16545356Y-9108644D01*
X16474644Y-9108644D01*
X16474644Y-9179356D01*
X16545356Y-9179356D01*
X16545356Y-10672356D02*
X16545356Y-10601644D01*
X16474644Y-10601644D01*
X16474644Y-10672356D01*
X16545356Y-10672356D01*
X16545356Y-11719356D02*
X16545356Y-11648644D01*
X16474644Y-11648644D01*
X16474644Y-11719356D01*
X16545356Y-11719356D01*
X16799356Y-9179356D02*
X16799356Y-9108644D01*
X16728644Y-9108644D01*
X16728644Y-9179356D01*
X16799356Y-9179356D01*
X16799356Y-10672356D02*
X16799356Y-10601644D01*
X16728644Y-10601644D01*
X16728644Y-10672356D01*
X16799356Y-10672356D01*
X16799356Y-11211356D02*
X16799356Y-11140644D01*
X16728644Y-11140644D01*
X16728644Y-11211356D01*
X16799356Y-11211356D01*
X17053356Y-9179356D02*
X17053356Y-9108644D01*
X16982644Y-9108644D01*
X16982644Y-9179356D01*
X17053356Y-9179356D01*
X17053356Y-10672356D02*
X17053356Y-10601644D01*
X16982644Y-10601644D01*
X16982644Y-10672356D01*
X17053356Y-10672356D01*
X17139356Y-12227356D02*
X17139356Y-12156644D01*
X17068644Y-12156644D01*
X17068644Y-12227356D01*
X17139356Y-12227356D01*
X17139356Y-12677356D02*
X17139356Y-12606644D01*
X17068644Y-12606644D01*
X17068644Y-12677356D01*
X17139356Y-12677356D01*
X17307356Y-9179356D02*
X17307356Y-9108644D01*
X17236644Y-9108644D01*
X17236644Y-9179356D01*
X17307356Y-9179356D01*
X17307356Y-10672356D02*
X17307356Y-10601644D01*
X17236644Y-10601644D01*
X17236644Y-10672356D01*
X17307356Y-10672356D01*
X17519356Y-13253356D02*
X17519356Y-13182644D01*
X17448644Y-13182644D01*
X17448644Y-13253356D01*
X17519356Y-13253356D01*
X17519356Y-14005356D02*
X17519356Y-13934644D01*
X17448644Y-13934644D01*
X17448644Y-14005356D01*
X17519356Y-14005356D01*
X17561356Y-9179356D02*
X17561356Y-9108644D01*
X17490644Y-9108644D01*
X17490644Y-9179356D01*
X17561356Y-9179356D01*
X17561356Y-10672356D02*
X17561356Y-10601644D01*
X17490644Y-10601644D01*
X17490644Y-10672356D01*
X17561356Y-10672356D01*
X17773356Y-13253356D02*
X17773356Y-13182644D01*
X17702644Y-13182644D01*
X17702644Y-13253356D01*
X17773356Y-13253356D01*
X17773356Y-14005356D02*
X17773356Y-13934644D01*
X17702644Y-13934644D01*
X17702644Y-14005356D01*
X17773356Y-14005356D01*
X17815356Y-9179356D02*
X17815356Y-9108644D01*
X17744644Y-9108644D01*
X17744644Y-9179356D01*
X17815356Y-9179356D01*
X17815356Y-10672356D02*
X17815356Y-10601644D01*
X17744644Y-10601644D01*
X17744644Y-10672356D01*
X17815356Y-10672356D01*
X18027356Y-13253356D02*
X18027356Y-13182644D01*
X17956644Y-13182644D01*
X17956644Y-13253356D01*
X18027356Y-13253356D01*
X18027356Y-14005356D02*
X18027356Y-13934644D01*
X17956644Y-13934644D01*
X17956644Y-14005356D01*
X18027356Y-14005356D01*
X18069356Y-9179356D02*
X18069356Y-9108644D01*
X17998644Y-9108644D01*
X17998644Y-9179356D01*
X18069356Y-9179356D01*
X18069356Y-10672356D02*
X18069356Y-10601644D01*
X17998644Y-10601644D01*
X17998644Y-10672356D01*
X18069356Y-10672356D01*
X18323356Y-9179356D02*
X18323356Y-9108644D01*
X18252644Y-9108644D01*
X18252644Y-9179356D01*
X18323356Y-9179356D01*
X18323356Y-10672356D02*
X18323356Y-10601644D01*
X18252644Y-10601644D01*
X18252644Y-10672356D01*
X18323356Y-10672356D01*
X18352356Y-11633356D02*
X18352356Y-11562644D01*
X18281644Y-11562644D01*
X18281644Y-11633356D01*
X18352356Y-11633356D01*
X18352356Y-12313356D02*
X18352356Y-12242644D01*
X18281644Y-12242644D01*
X18281644Y-12313356D01*
X18352356Y-12313356D01*
X18427356Y-13253356D02*
X18427356Y-13182644D01*
X18356644Y-13182644D01*
X18356644Y-13253356D01*
X18427356Y-13253356D01*
X18532000Y-13168000D02*
X18252000Y-13168000D01*
X18252000Y-13268000D02*
G75*
G02*
X18252000Y-13168000I0J50000D01*
G01*
X18252000Y-13268000D02*
X18532000Y-13268000D01*
X18532000Y-13268000D02*
G75*
G03*
X18532000Y-13168000I0J50000D01*
G01*
X18427356Y-14005356D02*
X18427356Y-13934644D01*
X18356644Y-13934644D01*
X18356644Y-14005356D01*
X18427356Y-14005356D01*
X18532000Y-13920000D02*
X18252000Y-13920000D01*
X18252000Y-14020000D02*
G75*
G02*
X18252000Y-13920000I0J50000D01*
G01*
X18252000Y-14020000D02*
X18532000Y-14020000D01*
X18532000Y-14020000D02*
G75*
G03*
X18532000Y-13920000I0J50000D01*
G01*
X18577356Y-9179356D02*
X18577356Y-9108644D01*
X18506644Y-9108644D01*
X18506644Y-9179356D01*
X18577356Y-9179356D01*
X18577356Y-10672356D02*
X18577356Y-10601644D01*
X18506644Y-10601644D01*
X18506644Y-10672356D01*
X18577356Y-10672356D01*
X18802356Y-11633356D02*
X18802356Y-11562644D01*
X18731644Y-11562644D01*
X18731644Y-11633356D01*
X18802356Y-11633356D01*
X18802356Y-12313356D02*
X18802356Y-12242644D01*
X18731644Y-12242644D01*
X18731644Y-12313356D01*
X18802356Y-12313356D01*
X18831356Y-13253356D02*
X18831356Y-13182644D01*
X18760644Y-13182644D01*
X18760644Y-13253356D01*
X18831356Y-13253356D01*
X18831356Y-14005356D02*
X18831356Y-13934644D01*
X18760644Y-13934644D01*
X18760644Y-14005356D01*
X18831356Y-14005356D01*
X19085356Y-13253356D02*
X19085356Y-13182644D01*
X19014644Y-13182644D01*
X19014644Y-13253356D01*
X19085356Y-13253356D01*
X19085356Y-14005356D02*
X19085356Y-13934644D01*
X19014644Y-13934644D01*
X19014644Y-14005356D01*
X19085356Y-14005356D01*
X19339356Y-13253356D02*
X19339356Y-13182644D01*
X19268644Y-13182644D01*
X19268644Y-13253356D01*
X19339356Y-13253356D01*
X19339356Y-14005356D02*
X19339356Y-13934644D01*
X19268644Y-13934644D01*
X19268644Y-14005356D01*
X19339356Y-14005356D01*
D13*
X12698000Y-6442500D02*
X12748500Y-6392000D01*
X12698000Y-6341500D01*
X12647500Y-6392000D01*
X12698000Y-6442500D01*
X13208000Y-6562500D02*
X13258500Y-6512000D01*
X13208000Y-6461500D01*
X13157500Y-6512000D01*
X13208000Y-6562500D01*
D14*
X11604000Y-6778000D02*
X11764000Y-6938000D01*
X11764000Y-6778000D02*
X11604000Y-6938000D01*
X11764000Y-6858000D02*
G75*
G02*
X11604000Y-6858000I-80000J0D01*
G01*
X11604000Y-6858000D02*
G75*
G02*
X11764000Y-6858000I80000J0D01*
G01*
X11904000Y-7248000D02*
X12064000Y-7408000D01*
X12064000Y-7248000D02*
X11904000Y-7408000D01*
X12064000Y-7328000D02*
G75*
G02*
X11904000Y-7328000I-80000J0D01*
G01*
X11904000Y-7328000D02*
G75*
G02*
X12064000Y-7328000I80000J0D01*
G01*
X12204000Y-6778000D02*
X12364000Y-6938000D01*
X12364000Y-6778000D02*
X12204000Y-6938000D01*
X12364000Y-6858000D02*
G75*
G02*
X12204000Y-6858000I-80000J0D01*
G01*
X12204000Y-6858000D02*
G75*
G02*
X12364000Y-6858000I80000J0D01*
G01*
D11*
X10164277Y-14791984D02*
X10164277Y-14591984D01*
X10164277Y-14591984D02*
X10211896Y-14591984D01*
X10211896Y-14591984D02*
X10240467Y-14601508D01*
X10240467Y-14601508D02*
X10259515Y-14620555D01*
X10259515Y-14620555D02*
X10269039Y-14639603D01*
X10269039Y-14639603D02*
X10278563Y-14677698D01*
X10278563Y-14677698D02*
X10278563Y-14706269D01*
X10278563Y-14706269D02*
X10269039Y-14744365D01*
X10269039Y-14744365D02*
X10259515Y-14763412D01*
X10259515Y-14763412D02*
X10240467Y-14782460D01*
X10240467Y-14782460D02*
X10211896Y-14791984D01*
X10211896Y-14791984D02*
X10164277Y-14791984D01*
X10364277Y-14791984D02*
X10364277Y-14658650D01*
X10364277Y-14696746D02*
X10373801Y-14677698D01*
X10373801Y-14677698D02*
X10383324Y-14668174D01*
X10383324Y-14668174D02*
X10402372Y-14658650D01*
X10402372Y-14658650D02*
X10421420Y-14658650D01*
X10488086Y-14791984D02*
X10488086Y-14658650D01*
X10488086Y-14591984D02*
X10478563Y-14601508D01*
X10478563Y-14601508D02*
X10488086Y-14611031D01*
X10488086Y-14611031D02*
X10497610Y-14601508D01*
X10497610Y-14601508D02*
X10488086Y-14591984D01*
X10488086Y-14591984D02*
X10488086Y-14611031D01*
X10611896Y-14791984D02*
X10592848Y-14782460D01*
X10592848Y-14782460D02*
X10583324Y-14763412D01*
X10583324Y-14763412D02*
X10583324Y-14591984D01*
X10716658Y-14791984D02*
X10697610Y-14782460D01*
X10697610Y-14782460D02*
X10688086Y-14763412D01*
X10688086Y-14763412D02*
X10688086Y-14591984D01*
X10945229Y-14791984D02*
X10945229Y-14591984D01*
X10945229Y-14591984D02*
X11011896Y-14734841D01*
X11011896Y-14734841D02*
X11078563Y-14591984D01*
X11078563Y-14591984D02*
X11078563Y-14791984D01*
X11259515Y-14791984D02*
X11259515Y-14687222D01*
X11259515Y-14687222D02*
X11249991Y-14668174D01*
X11249991Y-14668174D02*
X11230943Y-14658650D01*
X11230943Y-14658650D02*
X11192848Y-14658650D01*
X11192848Y-14658650D02*
X11173801Y-14668174D01*
X11259515Y-14782460D02*
X11240467Y-14791984D01*
X11240467Y-14791984D02*
X11192848Y-14791984D01*
X11192848Y-14791984D02*
X11173801Y-14782460D01*
X11173801Y-14782460D02*
X11164277Y-14763412D01*
X11164277Y-14763412D02*
X11164277Y-14744365D01*
X11164277Y-14744365D02*
X11173801Y-14725317D01*
X11173801Y-14725317D02*
X11192848Y-14715793D01*
X11192848Y-14715793D02*
X11240467Y-14715793D01*
X11240467Y-14715793D02*
X11259515Y-14706269D01*
X11354753Y-14658650D02*
X11354753Y-14858650D01*
X11354753Y-14668174D02*
X11373801Y-14658650D01*
X11373801Y-14658650D02*
X11411896Y-14658650D01*
X11411896Y-14658650D02*
X11430943Y-14668174D01*
X11430943Y-14668174D02*
X11440467Y-14677698D01*
X11440467Y-14677698D02*
X11449991Y-14696746D01*
X11449991Y-14696746D02*
X11449991Y-14753888D01*
X11449991Y-14753888D02*
X11440467Y-14772936D01*
X11440467Y-14772936D02*
X11430943Y-14782460D01*
X11430943Y-14782460D02*
X11411896Y-14791984D01*
X11411896Y-14791984D02*
X11373801Y-14791984D01*
X11373801Y-14791984D02*
X11354753Y-14782460D01*
X11535705Y-14772936D02*
X11545229Y-14782460D01*
X11545229Y-14782460D02*
X11535705Y-14791984D01*
X11535705Y-14791984D02*
X11526182Y-14782460D01*
X11526182Y-14782460D02*
X11535705Y-14772936D01*
X11535705Y-14772936D02*
X11535705Y-14791984D01*
X11535705Y-14668174D02*
X11545229Y-14677698D01*
X11545229Y-14677698D02*
X11535705Y-14687222D01*
X11535705Y-14687222D02*
X11526182Y-14677698D01*
X11526182Y-14677698D02*
X11535705Y-14668174D01*
X11535705Y-14668174D02*
X11535705Y-14687222D01*
D12*
X9823500Y-15080500D02*
X9903500Y-15160500D01*
X9903500Y-15080500D02*
X9823500Y-15160500D01*
D11*
X10202372Y-15011984D02*
X10221420Y-15011984D01*
X10221420Y-15011984D02*
X10240467Y-15021508D01*
X10240467Y-15021508D02*
X10249991Y-15031031D01*
X10249991Y-15031031D02*
X10259515Y-15050079D01*
X10259515Y-15050079D02*
X10269039Y-15088174D01*
X10269039Y-15088174D02*
X10269039Y-15135793D01*
X10269039Y-15135793D02*
X10259515Y-15173888D01*
X10259515Y-15173888D02*
X10249991Y-15192936D01*
X10249991Y-15192936D02*
X10240467Y-15202460D01*
X10240467Y-15202460D02*
X10221420Y-15211984D01*
X10221420Y-15211984D02*
X10202372Y-15211984D01*
X10202372Y-15211984D02*
X10183324Y-15202460D01*
X10183324Y-15202460D02*
X10173801Y-15192936D01*
X10173801Y-15192936D02*
X10164277Y-15173888D01*
X10164277Y-15173888D02*
X10154753Y-15135793D01*
X10154753Y-15135793D02*
X10154753Y-15088174D01*
X10154753Y-15088174D02*
X10164277Y-15050079D01*
X10164277Y-15050079D02*
X10173801Y-15031031D01*
X10173801Y-15031031D02*
X10183324Y-15021508D01*
X10183324Y-15021508D02*
X10202372Y-15011984D01*
X10354753Y-15192936D02*
X10364277Y-15202460D01*
X10364277Y-15202460D02*
X10354753Y-15211984D01*
X10354753Y-15211984D02*
X10345229Y-15202460D01*
X10345229Y-15202460D02*
X10354753Y-15192936D01*
X10354753Y-15192936D02*
X10354753Y-15211984D01*
X10478563Y-15097698D02*
X10459515Y-15088174D01*
X10459515Y-15088174D02*
X10449991Y-15078650D01*
X10449991Y-15078650D02*
X10440467Y-15059603D01*
X10440467Y-15059603D02*
X10440467Y-15050079D01*
X10440467Y-15050079D02*
X10449991Y-15031031D01*
X10449991Y-15031031D02*
X10459515Y-15021508D01*
X10459515Y-15021508D02*
X10478563Y-15011984D01*
X10478563Y-15011984D02*
X10516658Y-15011984D01*
X10516658Y-15011984D02*
X10535705Y-15021508D01*
X10535705Y-15021508D02*
X10545229Y-15031031D01*
X10545229Y-15031031D02*
X10554753Y-15050079D01*
X10554753Y-15050079D02*
X10554753Y-15059603D01*
X10554753Y-15059603D02*
X10545229Y-15078650D01*
X10545229Y-15078650D02*
X10535705Y-15088174D01*
X10535705Y-15088174D02*
X10516658Y-15097698D01*
X10516658Y-15097698D02*
X10478563Y-15097698D01*
X10478563Y-15097698D02*
X10459515Y-15107222D01*
X10459515Y-15107222D02*
X10449991Y-15116746D01*
X10449991Y-15116746D02*
X10440467Y-15135793D01*
X10440467Y-15135793D02*
X10440467Y-15173888D01*
X10440467Y-15173888D02*
X10449991Y-15192936D01*
X10449991Y-15192936D02*
X10459515Y-15202460D01*
X10459515Y-15202460D02*
X10478563Y-15211984D01*
X10478563Y-15211984D02*
X10516658Y-15211984D01*
X10516658Y-15211984D02*
X10535705Y-15202460D01*
X10535705Y-15202460D02*
X10545229Y-15192936D01*
X10545229Y-15192936D02*
X10554753Y-15173888D01*
X10554753Y-15173888D02*
X10554753Y-15135793D01*
X10554753Y-15135793D02*
X10545229Y-15116746D01*
X10545229Y-15116746D02*
X10535705Y-15107222D01*
X10535705Y-15107222D02*
X10516658Y-15097698D01*
X10678563Y-15011984D02*
X10697610Y-15011984D01*
X10697610Y-15011984D02*
X10716658Y-15021508D01*
X10716658Y-15021508D02*
X10726182Y-15031031D01*
X10726182Y-15031031D02*
X10735705Y-15050079D01*
X10735705Y-15050079D02*
X10745229Y-15088174D01*
X10745229Y-15088174D02*
X10745229Y-15135793D01*
X10745229Y-15135793D02*
X10735705Y-15173888D01*
X10735705Y-15173888D02*
X10726182Y-15192936D01*
X10726182Y-15192936D02*
X10716658Y-15202460D01*
X10716658Y-15202460D02*
X10697610Y-15211984D01*
X10697610Y-15211984D02*
X10678563Y-15211984D01*
X10678563Y-15211984D02*
X10659515Y-15202460D01*
X10659515Y-15202460D02*
X10649991Y-15192936D01*
X10649991Y-15192936D02*
X10640467Y-15173888D01*
X10640467Y-15173888D02*
X10630944Y-15135793D01*
X10630944Y-15135793D02*
X10630944Y-15088174D01*
X10630944Y-15088174D02*
X10640467Y-15050079D01*
X10640467Y-15050079D02*
X10649991Y-15031031D01*
X10649991Y-15031031D02*
X10659515Y-15021508D01*
X10659515Y-15021508D02*
X10678563Y-15011984D01*
X10869039Y-15011984D02*
X10888086Y-15011984D01*
X10888086Y-15011984D02*
X10907134Y-15021508D01*
X10907134Y-15021508D02*
X10916658Y-15031031D01*
X10916658Y-15031031D02*
X10926182Y-15050079D01*
X10926182Y-15050079D02*
X10935705Y-15088174D01*
X10935705Y-15088174D02*
X10935705Y-15135793D01*
X10935705Y-15135793D02*
X10926182Y-15173888D01*
X10926182Y-15173888D02*
X10916658Y-15192936D01*
X10916658Y-15192936D02*
X10907134Y-15202460D01*
X10907134Y-15202460D02*
X10888086Y-15211984D01*
X10888086Y-15211984D02*
X10869039Y-15211984D01*
X10869039Y-15211984D02*
X10849991Y-15202460D01*
X10849991Y-15202460D02*
X10840467Y-15192936D01*
X10840467Y-15192936D02*
X10830944Y-15173888D01*
X10830944Y-15173888D02*
X10821420Y-15135793D01*
X10821420Y-15135793D02*
X10821420Y-15088174D01*
X10821420Y-15088174D02*
X10830944Y-15050079D01*
X10830944Y-15050079D02*
X10840467Y-15031031D01*
X10840467Y-15031031D02*
X10849991Y-15021508D01*
X10849991Y-15021508D02*
X10869039Y-15011984D01*
X11021420Y-15211984D02*
X11021420Y-15078650D01*
X11021420Y-15097698D02*
X11030944Y-15088174D01*
X11030944Y-15088174D02*
X11049991Y-15078650D01*
X11049991Y-15078650D02*
X11078563Y-15078650D01*
X11078563Y-15078650D02*
X11097610Y-15088174D01*
X11097610Y-15088174D02*
X11107134Y-15107222D01*
X11107134Y-15107222D02*
X11107134Y-15211984D01*
X11107134Y-15107222D02*
X11116658Y-15088174D01*
X11116658Y-15088174D02*
X11135705Y-15078650D01*
X11135705Y-15078650D02*
X11164277Y-15078650D01*
X11164277Y-15078650D02*
X11183325Y-15088174D01*
X11183325Y-15088174D02*
X11192848Y-15107222D01*
X11192848Y-15107222D02*
X11192848Y-15211984D01*
X11288086Y-15211984D02*
X11288086Y-15078650D01*
X11288086Y-15097698D02*
X11297610Y-15088174D01*
X11297610Y-15088174D02*
X11316658Y-15078650D01*
X11316658Y-15078650D02*
X11345229Y-15078650D01*
X11345229Y-15078650D02*
X11364277Y-15088174D01*
X11364277Y-15088174D02*
X11373801Y-15107222D01*
X11373801Y-15107222D02*
X11373801Y-15211984D01*
X11373801Y-15107222D02*
X11383324Y-15088174D01*
X11383324Y-15088174D02*
X11402372Y-15078650D01*
X11402372Y-15078650D02*
X11430943Y-15078650D01*
X11430943Y-15078650D02*
X11449991Y-15088174D01*
X11449991Y-15088174D02*
X11459515Y-15107222D01*
X11459515Y-15107222D02*
X11459515Y-15211984D01*
X11849991Y-15002460D02*
X11678563Y-15259603D01*
X12107134Y-15011984D02*
X12126182Y-15011984D01*
X12126182Y-15011984D02*
X12145229Y-15021508D01*
X12145229Y-15021508D02*
X12154753Y-15031031D01*
X12154753Y-15031031D02*
X12164277Y-15050079D01*
X12164277Y-15050079D02*
X12173801Y-15088174D01*
X12173801Y-15088174D02*
X12173801Y-15135793D01*
X12173801Y-15135793D02*
X12164277Y-15173888D01*
X12164277Y-15173888D02*
X12154753Y-15192936D01*
X12154753Y-15192936D02*
X12145229Y-15202460D01*
X12145229Y-15202460D02*
X12126182Y-15211984D01*
X12126182Y-15211984D02*
X12107134Y-15211984D01*
X12107134Y-15211984D02*
X12088086Y-15202460D01*
X12088086Y-15202460D02*
X12078563Y-15192936D01*
X12078563Y-15192936D02*
X12069039Y-15173888D01*
X12069039Y-15173888D02*
X12059515Y-15135793D01*
X12059515Y-15135793D02*
X12059515Y-15088174D01*
X12059515Y-15088174D02*
X12069039Y-15050079D01*
X12069039Y-15050079D02*
X12078563Y-15031031D01*
X12078563Y-15031031D02*
X12088086Y-15021508D01*
X12088086Y-15021508D02*
X12107134Y-15011984D01*
X12259515Y-15192936D02*
X12269039Y-15202460D01*
X12269039Y-15202460D02*
X12259515Y-15211984D01*
X12259515Y-15211984D02*
X12249991Y-15202460D01*
X12249991Y-15202460D02*
X12259515Y-15192936D01*
X12259515Y-15192936D02*
X12259515Y-15211984D01*
X12392848Y-15011984D02*
X12411896Y-15011984D01*
X12411896Y-15011984D02*
X12430944Y-15021508D01*
X12430944Y-15021508D02*
X12440467Y-15031031D01*
X12440467Y-15031031D02*
X12449991Y-15050079D01*
X12449991Y-15050079D02*
X12459515Y-15088174D01*
X12459515Y-15088174D02*
X12459515Y-15135793D01*
X12459515Y-15135793D02*
X12449991Y-15173888D01*
X12449991Y-15173888D02*
X12440467Y-15192936D01*
X12440467Y-15192936D02*
X12430944Y-15202460D01*
X12430944Y-15202460D02*
X12411896Y-15211984D01*
X12411896Y-15211984D02*
X12392848Y-15211984D01*
X12392848Y-15211984D02*
X12373801Y-15202460D01*
X12373801Y-15202460D02*
X12364277Y-15192936D01*
X12364277Y-15192936D02*
X12354753Y-15173888D01*
X12354753Y-15173888D02*
X12345229Y-15135793D01*
X12345229Y-15135793D02*
X12345229Y-15088174D01*
X12345229Y-15088174D02*
X12354753Y-15050079D01*
X12354753Y-15050079D02*
X12364277Y-15031031D01*
X12364277Y-15031031D02*
X12373801Y-15021508D01*
X12373801Y-15021508D02*
X12392848Y-15011984D01*
X12526182Y-15011984D02*
X12649991Y-15011984D01*
X12649991Y-15011984D02*
X12583325Y-15088174D01*
X12583325Y-15088174D02*
X12611896Y-15088174D01*
X12611896Y-15088174D02*
X12630944Y-15097698D01*
X12630944Y-15097698D02*
X12640467Y-15107222D01*
X12640467Y-15107222D02*
X12649991Y-15126269D01*
X12649991Y-15126269D02*
X12649991Y-15173888D01*
X12649991Y-15173888D02*
X12640467Y-15192936D01*
X12640467Y-15192936D02*
X12630944Y-15202460D01*
X12630944Y-15202460D02*
X12611896Y-15211984D01*
X12611896Y-15211984D02*
X12554753Y-15211984D01*
X12554753Y-15211984D02*
X12535706Y-15202460D01*
X12535706Y-15202460D02*
X12526182Y-15192936D01*
X12840467Y-15211984D02*
X12726182Y-15211984D01*
X12783325Y-15211984D02*
X12783325Y-15011984D01*
X12783325Y-15011984D02*
X12764277Y-15040555D01*
X12764277Y-15040555D02*
X12745229Y-15059603D01*
X12745229Y-15059603D02*
X12726182Y-15069127D01*
X13021420Y-15011984D02*
X12926182Y-15011984D01*
X12926182Y-15011984D02*
X12916658Y-15107222D01*
X12916658Y-15107222D02*
X12926182Y-15097698D01*
X12926182Y-15097698D02*
X12945229Y-15088174D01*
X12945229Y-15088174D02*
X12992848Y-15088174D01*
X12992848Y-15088174D02*
X13011896Y-15097698D01*
X13011896Y-15097698D02*
X13021420Y-15107222D01*
X13021420Y-15107222D02*
X13030944Y-15126269D01*
X13030944Y-15126269D02*
X13030944Y-15173888D01*
X13030944Y-15173888D02*
X13021420Y-15192936D01*
X13021420Y-15192936D02*
X13011896Y-15202460D01*
X13011896Y-15202460D02*
X12992848Y-15211984D01*
X12992848Y-15211984D02*
X12945229Y-15211984D01*
X12945229Y-15211984D02*
X12926182Y-15202460D01*
X12926182Y-15202460D02*
X12916658Y-15192936D01*
X13107134Y-15011984D02*
X13107134Y-15050079D01*
X13183325Y-15011984D02*
X13183325Y-15050079D01*
X13478563Y-15288174D02*
X13469039Y-15278650D01*
X13469039Y-15278650D02*
X13449991Y-15250079D01*
X13449991Y-15250079D02*
X13440468Y-15231031D01*
X13440468Y-15231031D02*
X13430944Y-15202460D01*
X13430944Y-15202460D02*
X13421420Y-15154841D01*
X13421420Y-15154841D02*
X13421420Y-15116746D01*
X13421420Y-15116746D02*
X13430944Y-15069127D01*
X13430944Y-15069127D02*
X13440468Y-15040555D01*
X13440468Y-15040555D02*
X13449991Y-15021508D01*
X13449991Y-15021508D02*
X13469039Y-14992936D01*
X13469039Y-14992936D02*
X13478563Y-14983412D01*
X13535706Y-15011984D02*
X13659515Y-15011984D01*
X13659515Y-15011984D02*
X13592848Y-15088174D01*
X13592848Y-15088174D02*
X13621420Y-15088174D01*
X13621420Y-15088174D02*
X13640468Y-15097698D01*
X13640468Y-15097698D02*
X13649991Y-15107222D01*
X13649991Y-15107222D02*
X13659515Y-15126269D01*
X13659515Y-15126269D02*
X13659515Y-15173888D01*
X13659515Y-15173888D02*
X13649991Y-15192936D01*
X13649991Y-15192936D02*
X13640468Y-15202460D01*
X13640468Y-15202460D02*
X13621420Y-15211984D01*
X13621420Y-15211984D02*
X13564277Y-15211984D01*
X13564277Y-15211984D02*
X13545229Y-15202460D01*
X13545229Y-15202460D02*
X13535706Y-15192936D01*
X13773801Y-15097698D02*
X13754753Y-15088174D01*
X13754753Y-15088174D02*
X13745229Y-15078650D01*
X13745229Y-15078650D02*
X13735706Y-15059603D01*
X13735706Y-15059603D02*
X13735706Y-15050079D01*
X13735706Y-15050079D02*
X13745229Y-15031031D01*
X13745229Y-15031031D02*
X13754753Y-15021508D01*
X13754753Y-15021508D02*
X13773801Y-15011984D01*
X13773801Y-15011984D02*
X13811896Y-15011984D01*
X13811896Y-15011984D02*
X13830944Y-15021508D01*
X13830944Y-15021508D02*
X13840468Y-15031031D01*
X13840468Y-15031031D02*
X13849991Y-15050079D01*
X13849991Y-15050079D02*
X13849991Y-15059603D01*
X13849991Y-15059603D02*
X13840468Y-15078650D01*
X13840468Y-15078650D02*
X13830944Y-15088174D01*
X13830944Y-15088174D02*
X13811896Y-15097698D01*
X13811896Y-15097698D02*
X13773801Y-15097698D01*
X13773801Y-15097698D02*
X13754753Y-15107222D01*
X13754753Y-15107222D02*
X13745229Y-15116746D01*
X13745229Y-15116746D02*
X13735706Y-15135793D01*
X13735706Y-15135793D02*
X13735706Y-15173888D01*
X13735706Y-15173888D02*
X13745229Y-15192936D01*
X13745229Y-15192936D02*
X13754753Y-15202460D01*
X13754753Y-15202460D02*
X13773801Y-15211984D01*
X13773801Y-15211984D02*
X13811896Y-15211984D01*
X13811896Y-15211984D02*
X13830944Y-15202460D01*
X13830944Y-15202460D02*
X13840468Y-15192936D01*
X13840468Y-15192936D02*
X13849991Y-15173888D01*
X13849991Y-15173888D02*
X13849991Y-15135793D01*
X13849991Y-15135793D02*
X13840468Y-15116746D01*
X13840468Y-15116746D02*
X13830944Y-15107222D01*
X13830944Y-15107222D02*
X13811896Y-15097698D01*
X14088087Y-15211984D02*
X14088087Y-15011984D01*
X14173801Y-15211984D02*
X14173801Y-15107222D01*
X14173801Y-15107222D02*
X14164277Y-15088174D01*
X14164277Y-15088174D02*
X14145230Y-15078650D01*
X14145230Y-15078650D02*
X14116658Y-15078650D01*
X14116658Y-15078650D02*
X14097610Y-15088174D01*
X14097610Y-15088174D02*
X14088087Y-15097698D01*
X14297610Y-15211984D02*
X14278563Y-15202460D01*
X14278563Y-15202460D02*
X14269039Y-15192936D01*
X14269039Y-15192936D02*
X14259515Y-15173888D01*
X14259515Y-15173888D02*
X14259515Y-15116746D01*
X14259515Y-15116746D02*
X14269039Y-15097698D01*
X14269039Y-15097698D02*
X14278563Y-15088174D01*
X14278563Y-15088174D02*
X14297610Y-15078650D01*
X14297610Y-15078650D02*
X14326182Y-15078650D01*
X14326182Y-15078650D02*
X14345230Y-15088174D01*
X14345230Y-15088174D02*
X14354753Y-15097698D01*
X14354753Y-15097698D02*
X14364277Y-15116746D01*
X14364277Y-15116746D02*
X14364277Y-15173888D01*
X14364277Y-15173888D02*
X14354753Y-15192936D01*
X14354753Y-15192936D02*
X14345230Y-15202460D01*
X14345230Y-15202460D02*
X14326182Y-15211984D01*
X14326182Y-15211984D02*
X14297610Y-15211984D01*
X14478563Y-15211984D02*
X14459515Y-15202460D01*
X14459515Y-15202460D02*
X14449991Y-15183412D01*
X14449991Y-15183412D02*
X14449991Y-15011984D01*
X14630944Y-15202460D02*
X14611896Y-15211984D01*
X14611896Y-15211984D02*
X14573801Y-15211984D01*
X14573801Y-15211984D02*
X14554753Y-15202460D01*
X14554753Y-15202460D02*
X14545230Y-15183412D01*
X14545230Y-15183412D02*
X14545230Y-15107222D01*
X14545230Y-15107222D02*
X14554753Y-15088174D01*
X14554753Y-15088174D02*
X14573801Y-15078650D01*
X14573801Y-15078650D02*
X14611896Y-15078650D01*
X14611896Y-15078650D02*
X14630944Y-15088174D01*
X14630944Y-15088174D02*
X14640468Y-15107222D01*
X14640468Y-15107222D02*
X14640468Y-15126269D01*
X14640468Y-15126269D02*
X14545230Y-15145317D01*
X14716658Y-15202460D02*
X14735706Y-15211984D01*
X14735706Y-15211984D02*
X14773801Y-15211984D01*
X14773801Y-15211984D02*
X14792849Y-15202460D01*
X14792849Y-15202460D02*
X14802372Y-15183412D01*
X14802372Y-15183412D02*
X14802372Y-15173888D01*
X14802372Y-15173888D02*
X14792849Y-15154841D01*
X14792849Y-15154841D02*
X14773801Y-15145317D01*
X14773801Y-15145317D02*
X14745230Y-15145317D01*
X14745230Y-15145317D02*
X14726182Y-15135793D01*
X14726182Y-15135793D02*
X14716658Y-15116746D01*
X14716658Y-15116746D02*
X14716658Y-15107222D01*
X14716658Y-15107222D02*
X14726182Y-15088174D01*
X14726182Y-15088174D02*
X14745230Y-15078650D01*
X14745230Y-15078650D02*
X14773801Y-15078650D01*
X14773801Y-15078650D02*
X14792849Y-15088174D01*
X14869039Y-15288174D02*
X14878563Y-15278650D01*
X14878563Y-15278650D02*
X14897611Y-15250079D01*
X14897611Y-15250079D02*
X14907134Y-15231031D01*
X14907134Y-15231031D02*
X14916658Y-15202460D01*
X14916658Y-15202460D02*
X14926182Y-15154841D01*
X14926182Y-15154841D02*
X14926182Y-15116746D01*
X14926182Y-15116746D02*
X14916658Y-15069127D01*
X14916658Y-15069127D02*
X14907134Y-15040555D01*
X14907134Y-15040555D02*
X14897611Y-15021508D01*
X14897611Y-15021508D02*
X14878563Y-14992936D01*
X14878563Y-14992936D02*
X14869039Y-14983412D01*
D12*
X9903500Y-15384500D02*
G75*
G02*
X9813500Y-15384500I-45000J0D01*
G01*
X9813500Y-15384500D02*
G75*
G02*
X9903500Y-15384500I45000J0D01*
G01*
D11*
X10202372Y-15275984D02*
X10221420Y-15275984D01*
X10221420Y-15275984D02*
X10240467Y-15285508D01*
X10240467Y-15285508D02*
X10249991Y-15295031D01*
X10249991Y-15295031D02*
X10259515Y-15314079D01*
X10259515Y-15314079D02*
X10269039Y-15352174D01*
X10269039Y-15352174D02*
X10269039Y-15399793D01*
X10269039Y-15399793D02*
X10259515Y-15437888D01*
X10259515Y-15437888D02*
X10249991Y-15456936D01*
X10249991Y-15456936D02*
X10240467Y-15466460D01*
X10240467Y-15466460D02*
X10221420Y-15475984D01*
X10221420Y-15475984D02*
X10202372Y-15475984D01*
X10202372Y-15475984D02*
X10183324Y-15466460D01*
X10183324Y-15466460D02*
X10173801Y-15456936D01*
X10173801Y-15456936D02*
X10164277Y-15437888D01*
X10164277Y-15437888D02*
X10154753Y-15399793D01*
X10154753Y-15399793D02*
X10154753Y-15352174D01*
X10154753Y-15352174D02*
X10164277Y-15314079D01*
X10164277Y-15314079D02*
X10173801Y-15295031D01*
X10173801Y-15295031D02*
X10183324Y-15285508D01*
X10183324Y-15285508D02*
X10202372Y-15275984D01*
X10354753Y-15456936D02*
X10364277Y-15466460D01*
X10364277Y-15466460D02*
X10354753Y-15475984D01*
X10354753Y-15475984D02*
X10345229Y-15466460D01*
X10345229Y-15466460D02*
X10354753Y-15456936D01*
X10354753Y-15456936D02*
X10354753Y-15475984D01*
X10459515Y-15475984D02*
X10497610Y-15475984D01*
X10497610Y-15475984D02*
X10516658Y-15466460D01*
X10516658Y-15466460D02*
X10526182Y-15456936D01*
X10526182Y-15456936D02*
X10545229Y-15428365D01*
X10545229Y-15428365D02*
X10554753Y-15390269D01*
X10554753Y-15390269D02*
X10554753Y-15314079D01*
X10554753Y-15314079D02*
X10545229Y-15295031D01*
X10545229Y-15295031D02*
X10535705Y-15285508D01*
X10535705Y-15285508D02*
X10516658Y-15275984D01*
X10516658Y-15275984D02*
X10478563Y-15275984D01*
X10478563Y-15275984D02*
X10459515Y-15285508D01*
X10459515Y-15285508D02*
X10449991Y-15295031D01*
X10449991Y-15295031D02*
X10440467Y-15314079D01*
X10440467Y-15314079D02*
X10440467Y-15361698D01*
X10440467Y-15361698D02*
X10449991Y-15380746D01*
X10449991Y-15380746D02*
X10459515Y-15390269D01*
X10459515Y-15390269D02*
X10478563Y-15399793D01*
X10478563Y-15399793D02*
X10516658Y-15399793D01*
X10516658Y-15399793D02*
X10535705Y-15390269D01*
X10535705Y-15390269D02*
X10545229Y-15380746D01*
X10545229Y-15380746D02*
X10554753Y-15361698D01*
X10678563Y-15275984D02*
X10697610Y-15275984D01*
X10697610Y-15275984D02*
X10716658Y-15285508D01*
X10716658Y-15285508D02*
X10726182Y-15295031D01*
X10726182Y-15295031D02*
X10735705Y-15314079D01*
X10735705Y-15314079D02*
X10745229Y-15352174D01*
X10745229Y-15352174D02*
X10745229Y-15399793D01*
X10745229Y-15399793D02*
X10735705Y-15437888D01*
X10735705Y-15437888D02*
X10726182Y-15456936D01*
X10726182Y-15456936D02*
X10716658Y-15466460D01*
X10716658Y-15466460D02*
X10697610Y-15475984D01*
X10697610Y-15475984D02*
X10678563Y-15475984D01*
X10678563Y-15475984D02*
X10659515Y-15466460D01*
X10659515Y-15466460D02*
X10649991Y-15456936D01*
X10649991Y-15456936D02*
X10640467Y-15437888D01*
X10640467Y-15437888D02*
X10630944Y-15399793D01*
X10630944Y-15399793D02*
X10630944Y-15352174D01*
X10630944Y-15352174D02*
X10640467Y-15314079D01*
X10640467Y-15314079D02*
X10649991Y-15295031D01*
X10649991Y-15295031D02*
X10659515Y-15285508D01*
X10659515Y-15285508D02*
X10678563Y-15275984D01*
X10869039Y-15275984D02*
X10888086Y-15275984D01*
X10888086Y-15275984D02*
X10907134Y-15285508D01*
X10907134Y-15285508D02*
X10916658Y-15295031D01*
X10916658Y-15295031D02*
X10926182Y-15314079D01*
X10926182Y-15314079D02*
X10935705Y-15352174D01*
X10935705Y-15352174D02*
X10935705Y-15399793D01*
X10935705Y-15399793D02*
X10926182Y-15437888D01*
X10926182Y-15437888D02*
X10916658Y-15456936D01*
X10916658Y-15456936D02*
X10907134Y-15466460D01*
X10907134Y-15466460D02*
X10888086Y-15475984D01*
X10888086Y-15475984D02*
X10869039Y-15475984D01*
X10869039Y-15475984D02*
X10849991Y-15466460D01*
X10849991Y-15466460D02*
X10840467Y-15456936D01*
X10840467Y-15456936D02*
X10830944Y-15437888D01*
X10830944Y-15437888D02*
X10821420Y-15399793D01*
X10821420Y-15399793D02*
X10821420Y-15352174D01*
X10821420Y-15352174D02*
X10830944Y-15314079D01*
X10830944Y-15314079D02*
X10840467Y-15295031D01*
X10840467Y-15295031D02*
X10849991Y-15285508D01*
X10849991Y-15285508D02*
X10869039Y-15275984D01*
X11021420Y-15475984D02*
X11021420Y-15342650D01*
X11021420Y-15361698D02*
X11030944Y-15352174D01*
X11030944Y-15352174D02*
X11049991Y-15342650D01*
X11049991Y-15342650D02*
X11078563Y-15342650D01*
X11078563Y-15342650D02*
X11097610Y-15352174D01*
X11097610Y-15352174D02*
X11107134Y-15371222D01*
X11107134Y-15371222D02*
X11107134Y-15475984D01*
X11107134Y-15371222D02*
X11116658Y-15352174D01*
X11116658Y-15352174D02*
X11135705Y-15342650D01*
X11135705Y-15342650D02*
X11164277Y-15342650D01*
X11164277Y-15342650D02*
X11183325Y-15352174D01*
X11183325Y-15352174D02*
X11192848Y-15371222D01*
X11192848Y-15371222D02*
X11192848Y-15475984D01*
X11288086Y-15475984D02*
X11288086Y-15342650D01*
X11288086Y-15361698D02*
X11297610Y-15352174D01*
X11297610Y-15352174D02*
X11316658Y-15342650D01*
X11316658Y-15342650D02*
X11345229Y-15342650D01*
X11345229Y-15342650D02*
X11364277Y-15352174D01*
X11364277Y-15352174D02*
X11373801Y-15371222D01*
X11373801Y-15371222D02*
X11373801Y-15475984D01*
X11373801Y-15371222D02*
X11383324Y-15352174D01*
X11383324Y-15352174D02*
X11402372Y-15342650D01*
X11402372Y-15342650D02*
X11430943Y-15342650D01*
X11430943Y-15342650D02*
X11449991Y-15352174D01*
X11449991Y-15352174D02*
X11459515Y-15371222D01*
X11459515Y-15371222D02*
X11459515Y-15475984D01*
X11849991Y-15266460D02*
X11678563Y-15523603D01*
X12107134Y-15275984D02*
X12126182Y-15275984D01*
X12126182Y-15275984D02*
X12145229Y-15285508D01*
X12145229Y-15285508D02*
X12154753Y-15295031D01*
X12154753Y-15295031D02*
X12164277Y-15314079D01*
X12164277Y-15314079D02*
X12173801Y-15352174D01*
X12173801Y-15352174D02*
X12173801Y-15399793D01*
X12173801Y-15399793D02*
X12164277Y-15437888D01*
X12164277Y-15437888D02*
X12154753Y-15456936D01*
X12154753Y-15456936D02*
X12145229Y-15466460D01*
X12145229Y-15466460D02*
X12126182Y-15475984D01*
X12126182Y-15475984D02*
X12107134Y-15475984D01*
X12107134Y-15475984D02*
X12088086Y-15466460D01*
X12088086Y-15466460D02*
X12078563Y-15456936D01*
X12078563Y-15456936D02*
X12069039Y-15437888D01*
X12069039Y-15437888D02*
X12059515Y-15399793D01*
X12059515Y-15399793D02*
X12059515Y-15352174D01*
X12059515Y-15352174D02*
X12069039Y-15314079D01*
X12069039Y-15314079D02*
X12078563Y-15295031D01*
X12078563Y-15295031D02*
X12088086Y-15285508D01*
X12088086Y-15285508D02*
X12107134Y-15275984D01*
X12259515Y-15456936D02*
X12269039Y-15466460D01*
X12269039Y-15466460D02*
X12259515Y-15475984D01*
X12259515Y-15475984D02*
X12249991Y-15466460D01*
X12249991Y-15466460D02*
X12259515Y-15456936D01*
X12259515Y-15456936D02*
X12259515Y-15475984D01*
X12392848Y-15275984D02*
X12411896Y-15275984D01*
X12411896Y-15275984D02*
X12430944Y-15285508D01*
X12430944Y-15285508D02*
X12440467Y-15295031D01*
X12440467Y-15295031D02*
X12449991Y-15314079D01*
X12449991Y-15314079D02*
X12459515Y-15352174D01*
X12459515Y-15352174D02*
X12459515Y-15399793D01*
X12459515Y-15399793D02*
X12449991Y-15437888D01*
X12449991Y-15437888D02*
X12440467Y-15456936D01*
X12440467Y-15456936D02*
X12430944Y-15466460D01*
X12430944Y-15466460D02*
X12411896Y-15475984D01*
X12411896Y-15475984D02*
X12392848Y-15475984D01*
X12392848Y-15475984D02*
X12373801Y-15466460D01*
X12373801Y-15466460D02*
X12364277Y-15456936D01*
X12364277Y-15456936D02*
X12354753Y-15437888D01*
X12354753Y-15437888D02*
X12345229Y-15399793D01*
X12345229Y-15399793D02*
X12345229Y-15352174D01*
X12345229Y-15352174D02*
X12354753Y-15314079D01*
X12354753Y-15314079D02*
X12364277Y-15295031D01*
X12364277Y-15295031D02*
X12373801Y-15285508D01*
X12373801Y-15285508D02*
X12392848Y-15275984D01*
X12526182Y-15275984D02*
X12649991Y-15275984D01*
X12649991Y-15275984D02*
X12583325Y-15352174D01*
X12583325Y-15352174D02*
X12611896Y-15352174D01*
X12611896Y-15352174D02*
X12630944Y-15361698D01*
X12630944Y-15361698D02*
X12640467Y-15371222D01*
X12640467Y-15371222D02*
X12649991Y-15390269D01*
X12649991Y-15390269D02*
X12649991Y-15437888D01*
X12649991Y-15437888D02*
X12640467Y-15456936D01*
X12640467Y-15456936D02*
X12630944Y-15466460D01*
X12630944Y-15466460D02*
X12611896Y-15475984D01*
X12611896Y-15475984D02*
X12554753Y-15475984D01*
X12554753Y-15475984D02*
X12535706Y-15466460D01*
X12535706Y-15466460D02*
X12526182Y-15456936D01*
X12830944Y-15275984D02*
X12735706Y-15275984D01*
X12735706Y-15275984D02*
X12726182Y-15371222D01*
X12726182Y-15371222D02*
X12735706Y-15361698D01*
X12735706Y-15361698D02*
X12754753Y-15352174D01*
X12754753Y-15352174D02*
X12802372Y-15352174D01*
X12802372Y-15352174D02*
X12821420Y-15361698D01*
X12821420Y-15361698D02*
X12830944Y-15371222D01*
X12830944Y-15371222D02*
X12840467Y-15390269D01*
X12840467Y-15390269D02*
X12840467Y-15437888D01*
X12840467Y-15437888D02*
X12830944Y-15456936D01*
X12830944Y-15456936D02*
X12821420Y-15466460D01*
X12821420Y-15466460D02*
X12802372Y-15475984D01*
X12802372Y-15475984D02*
X12754753Y-15475984D01*
X12754753Y-15475984D02*
X12735706Y-15466460D01*
X12735706Y-15466460D02*
X12726182Y-15456936D01*
X13011896Y-15342650D02*
X13011896Y-15475984D01*
X12964277Y-15266460D02*
X12916658Y-15409317D01*
X12916658Y-15409317D02*
X13040467Y-15409317D01*
X13107134Y-15275984D02*
X13107134Y-15314079D01*
X13183325Y-15275984D02*
X13183325Y-15314079D01*
X13478563Y-15552174D02*
X13469039Y-15542650D01*
X13469039Y-15542650D02*
X13449991Y-15514079D01*
X13449991Y-15514079D02*
X13440468Y-15495031D01*
X13440468Y-15495031D02*
X13430944Y-15466460D01*
X13430944Y-15466460D02*
X13421420Y-15418841D01*
X13421420Y-15418841D02*
X13421420Y-15380746D01*
X13421420Y-15380746D02*
X13430944Y-15333127D01*
X13430944Y-15333127D02*
X13440468Y-15304555D01*
X13440468Y-15304555D02*
X13449991Y-15285508D01*
X13449991Y-15285508D02*
X13469039Y-15256936D01*
X13469039Y-15256936D02*
X13478563Y-15247412D01*
X13545229Y-15295031D02*
X13554753Y-15285508D01*
X13554753Y-15285508D02*
X13573801Y-15275984D01*
X13573801Y-15275984D02*
X13621420Y-15275984D01*
X13621420Y-15275984D02*
X13640468Y-15285508D01*
X13640468Y-15285508D02*
X13649991Y-15295031D01*
X13649991Y-15295031D02*
X13659515Y-15314079D01*
X13659515Y-15314079D02*
X13659515Y-15333127D01*
X13659515Y-15333127D02*
X13649991Y-15361698D01*
X13649991Y-15361698D02*
X13535706Y-15475984D01*
X13535706Y-15475984D02*
X13659515Y-15475984D01*
X13897610Y-15475984D02*
X13897610Y-15275984D01*
X13983325Y-15475984D02*
X13983325Y-15371222D01*
X13983325Y-15371222D02*
X13973801Y-15352174D01*
X13973801Y-15352174D02*
X13954753Y-15342650D01*
X13954753Y-15342650D02*
X13926182Y-15342650D01*
X13926182Y-15342650D02*
X13907134Y-15352174D01*
X13907134Y-15352174D02*
X13897610Y-15361698D01*
X14107134Y-15475984D02*
X14088087Y-15466460D01*
X14088087Y-15466460D02*
X14078563Y-15456936D01*
X14078563Y-15456936D02*
X14069039Y-15437888D01*
X14069039Y-15437888D02*
X14069039Y-15380746D01*
X14069039Y-15380746D02*
X14078563Y-15361698D01*
X14078563Y-15361698D02*
X14088087Y-15352174D01*
X14088087Y-15352174D02*
X14107134Y-15342650D01*
X14107134Y-15342650D02*
X14135706Y-15342650D01*
X14135706Y-15342650D02*
X14154753Y-15352174D01*
X14154753Y-15352174D02*
X14164277Y-15361698D01*
X14164277Y-15361698D02*
X14173801Y-15380746D01*
X14173801Y-15380746D02*
X14173801Y-15437888D01*
X14173801Y-15437888D02*
X14164277Y-15456936D01*
X14164277Y-15456936D02*
X14154753Y-15466460D01*
X14154753Y-15466460D02*
X14135706Y-15475984D01*
X14135706Y-15475984D02*
X14107134Y-15475984D01*
X14288087Y-15475984D02*
X14269039Y-15466460D01*
X14269039Y-15466460D02*
X14259515Y-15447412D01*
X14259515Y-15447412D02*
X14259515Y-15275984D01*
X14440468Y-15466460D02*
X14421420Y-15475984D01*
X14421420Y-15475984D02*
X14383325Y-15475984D01*
X14383325Y-15475984D02*
X14364277Y-15466460D01*
X14364277Y-15466460D02*
X14354753Y-15447412D01*
X14354753Y-15447412D02*
X14354753Y-15371222D01*
X14354753Y-15371222D02*
X14364277Y-15352174D01*
X14364277Y-15352174D02*
X14383325Y-15342650D01*
X14383325Y-15342650D02*
X14421420Y-15342650D01*
X14421420Y-15342650D02*
X14440468Y-15352174D01*
X14440468Y-15352174D02*
X14449991Y-15371222D01*
X14449991Y-15371222D02*
X14449991Y-15390269D01*
X14449991Y-15390269D02*
X14354753Y-15409317D01*
X14526182Y-15466460D02*
X14545230Y-15475984D01*
X14545230Y-15475984D02*
X14583325Y-15475984D01*
X14583325Y-15475984D02*
X14602372Y-15466460D01*
X14602372Y-15466460D02*
X14611896Y-15447412D01*
X14611896Y-15447412D02*
X14611896Y-15437888D01*
X14611896Y-15437888D02*
X14602372Y-15418841D01*
X14602372Y-15418841D02*
X14583325Y-15409317D01*
X14583325Y-15409317D02*
X14554753Y-15409317D01*
X14554753Y-15409317D02*
X14535706Y-15399793D01*
X14535706Y-15399793D02*
X14526182Y-15380746D01*
X14526182Y-15380746D02*
X14526182Y-15371222D01*
X14526182Y-15371222D02*
X14535706Y-15352174D01*
X14535706Y-15352174D02*
X14554753Y-15342650D01*
X14554753Y-15342650D02*
X14583325Y-15342650D01*
X14583325Y-15342650D02*
X14602372Y-15352174D01*
X14678563Y-15552174D02*
X14688087Y-15542650D01*
X14688087Y-15542650D02*
X14707134Y-15514079D01*
X14707134Y-15514079D02*
X14716658Y-15495031D01*
X14716658Y-15495031D02*
X14726182Y-15466460D01*
X14726182Y-15466460D02*
X14735706Y-15418841D01*
X14735706Y-15418841D02*
X14735706Y-15380746D01*
X14735706Y-15380746D02*
X14726182Y-15333127D01*
X14726182Y-15333127D02*
X14716658Y-15304555D01*
X14716658Y-15304555D02*
X14707134Y-15285508D01*
X14707134Y-15285508D02*
X14688087Y-15256936D01*
X14688087Y-15256936D02*
X14678563Y-15247412D01*
D12*
X9853970Y-15598970D02*
X9853970Y-15698030D01*
X9804440Y-15648500D02*
X9903500Y-15648500D01*
D11*
X10202372Y-15539984D02*
X10221420Y-15539984D01*
X10221420Y-15539984D02*
X10240467Y-15549508D01*
X10240467Y-15549508D02*
X10249991Y-15559031D01*
X10249991Y-15559031D02*
X10259515Y-15578079D01*
X10259515Y-15578079D02*
X10269039Y-15616174D01*
X10269039Y-15616174D02*
X10269039Y-15663793D01*
X10269039Y-15663793D02*
X10259515Y-15701888D01*
X10259515Y-15701888D02*
X10249991Y-15720936D01*
X10249991Y-15720936D02*
X10240467Y-15730460D01*
X10240467Y-15730460D02*
X10221420Y-15739984D01*
X10221420Y-15739984D02*
X10202372Y-15739984D01*
X10202372Y-15739984D02*
X10183324Y-15730460D01*
X10183324Y-15730460D02*
X10173801Y-15720936D01*
X10173801Y-15720936D02*
X10164277Y-15701888D01*
X10164277Y-15701888D02*
X10154753Y-15663793D01*
X10154753Y-15663793D02*
X10154753Y-15616174D01*
X10154753Y-15616174D02*
X10164277Y-15578079D01*
X10164277Y-15578079D02*
X10173801Y-15559031D01*
X10173801Y-15559031D02*
X10183324Y-15549508D01*
X10183324Y-15549508D02*
X10202372Y-15539984D01*
X10354753Y-15720936D02*
X10364277Y-15730460D01*
X10364277Y-15730460D02*
X10354753Y-15739984D01*
X10354753Y-15739984D02*
X10345229Y-15730460D01*
X10345229Y-15730460D02*
X10354753Y-15720936D01*
X10354753Y-15720936D02*
X10354753Y-15739984D01*
X10459515Y-15739984D02*
X10497610Y-15739984D01*
X10497610Y-15739984D02*
X10516658Y-15730460D01*
X10516658Y-15730460D02*
X10526182Y-15720936D01*
X10526182Y-15720936D02*
X10545229Y-15692365D01*
X10545229Y-15692365D02*
X10554753Y-15654269D01*
X10554753Y-15654269D02*
X10554753Y-15578079D01*
X10554753Y-15578079D02*
X10545229Y-15559031D01*
X10545229Y-15559031D02*
X10535705Y-15549508D01*
X10535705Y-15549508D02*
X10516658Y-15539984D01*
X10516658Y-15539984D02*
X10478563Y-15539984D01*
X10478563Y-15539984D02*
X10459515Y-15549508D01*
X10459515Y-15549508D02*
X10449991Y-15559031D01*
X10449991Y-15559031D02*
X10440467Y-15578079D01*
X10440467Y-15578079D02*
X10440467Y-15625698D01*
X10440467Y-15625698D02*
X10449991Y-15644746D01*
X10449991Y-15644746D02*
X10459515Y-15654269D01*
X10459515Y-15654269D02*
X10478563Y-15663793D01*
X10478563Y-15663793D02*
X10516658Y-15663793D01*
X10516658Y-15663793D02*
X10535705Y-15654269D01*
X10535705Y-15654269D02*
X10545229Y-15644746D01*
X10545229Y-15644746D02*
X10554753Y-15625698D01*
X10649991Y-15739984D02*
X10688086Y-15739984D01*
X10688086Y-15739984D02*
X10707134Y-15730460D01*
X10707134Y-15730460D02*
X10716658Y-15720936D01*
X10716658Y-15720936D02*
X10735705Y-15692365D01*
X10735705Y-15692365D02*
X10745229Y-15654269D01*
X10745229Y-15654269D02*
X10745229Y-15578079D01*
X10745229Y-15578079D02*
X10735705Y-15559031D01*
X10735705Y-15559031D02*
X10726182Y-15549508D01*
X10726182Y-15549508D02*
X10707134Y-15539984D01*
X10707134Y-15539984D02*
X10669039Y-15539984D01*
X10669039Y-15539984D02*
X10649991Y-15549508D01*
X10649991Y-15549508D02*
X10640467Y-15559031D01*
X10640467Y-15559031D02*
X10630944Y-15578079D01*
X10630944Y-15578079D02*
X10630944Y-15625698D01*
X10630944Y-15625698D02*
X10640467Y-15644746D01*
X10640467Y-15644746D02*
X10649991Y-15654269D01*
X10649991Y-15654269D02*
X10669039Y-15663793D01*
X10669039Y-15663793D02*
X10707134Y-15663793D01*
X10707134Y-15663793D02*
X10726182Y-15654269D01*
X10726182Y-15654269D02*
X10735705Y-15644746D01*
X10735705Y-15644746D02*
X10745229Y-15625698D01*
X10935705Y-15739984D02*
X10821420Y-15739984D01*
X10878563Y-15739984D02*
X10878563Y-15539984D01*
X10878563Y-15539984D02*
X10859515Y-15568555D01*
X10859515Y-15568555D02*
X10840467Y-15587603D01*
X10840467Y-15587603D02*
X10821420Y-15597127D01*
X11021420Y-15739984D02*
X11021420Y-15606650D01*
X11021420Y-15625698D02*
X11030944Y-15616174D01*
X11030944Y-15616174D02*
X11049991Y-15606650D01*
X11049991Y-15606650D02*
X11078563Y-15606650D01*
X11078563Y-15606650D02*
X11097610Y-15616174D01*
X11097610Y-15616174D02*
X11107134Y-15635222D01*
X11107134Y-15635222D02*
X11107134Y-15739984D01*
X11107134Y-15635222D02*
X11116658Y-15616174D01*
X11116658Y-15616174D02*
X11135705Y-15606650D01*
X11135705Y-15606650D02*
X11164277Y-15606650D01*
X11164277Y-15606650D02*
X11183325Y-15616174D01*
X11183325Y-15616174D02*
X11192848Y-15635222D01*
X11192848Y-15635222D02*
X11192848Y-15739984D01*
X11288086Y-15739984D02*
X11288086Y-15606650D01*
X11288086Y-15625698D02*
X11297610Y-15616174D01*
X11297610Y-15616174D02*
X11316658Y-15606650D01*
X11316658Y-15606650D02*
X11345229Y-15606650D01*
X11345229Y-15606650D02*
X11364277Y-15616174D01*
X11364277Y-15616174D02*
X11373801Y-15635222D01*
X11373801Y-15635222D02*
X11373801Y-15739984D01*
X11373801Y-15635222D02*
X11383324Y-15616174D01*
X11383324Y-15616174D02*
X11402372Y-15606650D01*
X11402372Y-15606650D02*
X11430943Y-15606650D01*
X11430943Y-15606650D02*
X11449991Y-15616174D01*
X11449991Y-15616174D02*
X11459515Y-15635222D01*
X11459515Y-15635222D02*
X11459515Y-15739984D01*
X11849991Y-15530460D02*
X11678563Y-15787603D01*
X12107134Y-15539984D02*
X12126182Y-15539984D01*
X12126182Y-15539984D02*
X12145229Y-15549508D01*
X12145229Y-15549508D02*
X12154753Y-15559031D01*
X12154753Y-15559031D02*
X12164277Y-15578079D01*
X12164277Y-15578079D02*
X12173801Y-15616174D01*
X12173801Y-15616174D02*
X12173801Y-15663793D01*
X12173801Y-15663793D02*
X12164277Y-15701888D01*
X12164277Y-15701888D02*
X12154753Y-15720936D01*
X12154753Y-15720936D02*
X12145229Y-15730460D01*
X12145229Y-15730460D02*
X12126182Y-15739984D01*
X12126182Y-15739984D02*
X12107134Y-15739984D01*
X12107134Y-15739984D02*
X12088086Y-15730460D01*
X12088086Y-15730460D02*
X12078563Y-15720936D01*
X12078563Y-15720936D02*
X12069039Y-15701888D01*
X12069039Y-15701888D02*
X12059515Y-15663793D01*
X12059515Y-15663793D02*
X12059515Y-15616174D01*
X12059515Y-15616174D02*
X12069039Y-15578079D01*
X12069039Y-15578079D02*
X12078563Y-15559031D01*
X12078563Y-15559031D02*
X12088086Y-15549508D01*
X12088086Y-15549508D02*
X12107134Y-15539984D01*
X12259515Y-15720936D02*
X12269039Y-15730460D01*
X12269039Y-15730460D02*
X12259515Y-15739984D01*
X12259515Y-15739984D02*
X12249991Y-15730460D01*
X12249991Y-15730460D02*
X12259515Y-15720936D01*
X12259515Y-15720936D02*
X12259515Y-15739984D01*
X12392848Y-15539984D02*
X12411896Y-15539984D01*
X12411896Y-15539984D02*
X12430944Y-15549508D01*
X12430944Y-15549508D02*
X12440467Y-15559031D01*
X12440467Y-15559031D02*
X12449991Y-15578079D01*
X12449991Y-15578079D02*
X12459515Y-15616174D01*
X12459515Y-15616174D02*
X12459515Y-15663793D01*
X12459515Y-15663793D02*
X12449991Y-15701888D01*
X12449991Y-15701888D02*
X12440467Y-15720936D01*
X12440467Y-15720936D02*
X12430944Y-15730460D01*
X12430944Y-15730460D02*
X12411896Y-15739984D01*
X12411896Y-15739984D02*
X12392848Y-15739984D01*
X12392848Y-15739984D02*
X12373801Y-15730460D01*
X12373801Y-15730460D02*
X12364277Y-15720936D01*
X12364277Y-15720936D02*
X12354753Y-15701888D01*
X12354753Y-15701888D02*
X12345229Y-15663793D01*
X12345229Y-15663793D02*
X12345229Y-15616174D01*
X12345229Y-15616174D02*
X12354753Y-15578079D01*
X12354753Y-15578079D02*
X12364277Y-15559031D01*
X12364277Y-15559031D02*
X12373801Y-15549508D01*
X12373801Y-15549508D02*
X12392848Y-15539984D01*
X12526182Y-15539984D02*
X12649991Y-15539984D01*
X12649991Y-15539984D02*
X12583325Y-15616174D01*
X12583325Y-15616174D02*
X12611896Y-15616174D01*
X12611896Y-15616174D02*
X12630944Y-15625698D01*
X12630944Y-15625698D02*
X12640467Y-15635222D01*
X12640467Y-15635222D02*
X12649991Y-15654269D01*
X12649991Y-15654269D02*
X12649991Y-15701888D01*
X12649991Y-15701888D02*
X12640467Y-15720936D01*
X12640467Y-15720936D02*
X12630944Y-15730460D01*
X12630944Y-15730460D02*
X12611896Y-15739984D01*
X12611896Y-15739984D02*
X12554753Y-15739984D01*
X12554753Y-15739984D02*
X12535706Y-15730460D01*
X12535706Y-15730460D02*
X12526182Y-15720936D01*
X12745229Y-15739984D02*
X12783325Y-15739984D01*
X12783325Y-15739984D02*
X12802372Y-15730460D01*
X12802372Y-15730460D02*
X12811896Y-15720936D01*
X12811896Y-15720936D02*
X12830944Y-15692365D01*
X12830944Y-15692365D02*
X12840467Y-15654269D01*
X12840467Y-15654269D02*
X12840467Y-15578079D01*
X12840467Y-15578079D02*
X12830944Y-15559031D01*
X12830944Y-15559031D02*
X12821420Y-15549508D01*
X12821420Y-15549508D02*
X12802372Y-15539984D01*
X12802372Y-15539984D02*
X12764277Y-15539984D01*
X12764277Y-15539984D02*
X12745229Y-15549508D01*
X12745229Y-15549508D02*
X12735706Y-15559031D01*
X12735706Y-15559031D02*
X12726182Y-15578079D01*
X12726182Y-15578079D02*
X12726182Y-15625698D01*
X12726182Y-15625698D02*
X12735706Y-15644746D01*
X12735706Y-15644746D02*
X12745229Y-15654269D01*
X12745229Y-15654269D02*
X12764277Y-15663793D01*
X12764277Y-15663793D02*
X12802372Y-15663793D01*
X12802372Y-15663793D02*
X12821420Y-15654269D01*
X12821420Y-15654269D02*
X12830944Y-15644746D01*
X12830944Y-15644746D02*
X12840467Y-15625698D01*
X12964277Y-15539984D02*
X12983325Y-15539984D01*
X12983325Y-15539984D02*
X13002372Y-15549508D01*
X13002372Y-15549508D02*
X13011896Y-15559031D01*
X13011896Y-15559031D02*
X13021420Y-15578079D01*
X13021420Y-15578079D02*
X13030944Y-15616174D01*
X13030944Y-15616174D02*
X13030944Y-15663793D01*
X13030944Y-15663793D02*
X13021420Y-15701888D01*
X13021420Y-15701888D02*
X13011896Y-15720936D01*
X13011896Y-15720936D02*
X13002372Y-15730460D01*
X13002372Y-15730460D02*
X12983325Y-15739984D01*
X12983325Y-15739984D02*
X12964277Y-15739984D01*
X12964277Y-15739984D02*
X12945229Y-15730460D01*
X12945229Y-15730460D02*
X12935706Y-15720936D01*
X12935706Y-15720936D02*
X12926182Y-15701888D01*
X12926182Y-15701888D02*
X12916658Y-15663793D01*
X12916658Y-15663793D02*
X12916658Y-15616174D01*
X12916658Y-15616174D02*
X12926182Y-15578079D01*
X12926182Y-15578079D02*
X12935706Y-15559031D01*
X12935706Y-15559031D02*
X12945229Y-15549508D01*
X12945229Y-15549508D02*
X12964277Y-15539984D01*
X13107134Y-15539984D02*
X13107134Y-15578079D01*
X13183325Y-15539984D02*
X13183325Y-15578079D01*
X13478563Y-15816174D02*
X13469039Y-15806650D01*
X13469039Y-15806650D02*
X13449991Y-15778079D01*
X13449991Y-15778079D02*
X13440468Y-15759031D01*
X13440468Y-15759031D02*
X13430944Y-15730460D01*
X13430944Y-15730460D02*
X13421420Y-15682841D01*
X13421420Y-15682841D02*
X13421420Y-15644746D01*
X13421420Y-15644746D02*
X13430944Y-15597127D01*
X13430944Y-15597127D02*
X13440468Y-15568555D01*
X13440468Y-15568555D02*
X13449991Y-15549508D01*
X13449991Y-15549508D02*
X13469039Y-15520936D01*
X13469039Y-15520936D02*
X13478563Y-15511412D01*
X13640468Y-15606650D02*
X13640468Y-15739984D01*
X13592848Y-15530460D02*
X13545229Y-15673317D01*
X13545229Y-15673317D02*
X13669039Y-15673317D01*
X13897610Y-15739984D02*
X13897610Y-15539984D01*
X13983325Y-15739984D02*
X13983325Y-15635222D01*
X13983325Y-15635222D02*
X13973801Y-15616174D01*
X13973801Y-15616174D02*
X13954753Y-15606650D01*
X13954753Y-15606650D02*
X13926182Y-15606650D01*
X13926182Y-15606650D02*
X13907134Y-15616174D01*
X13907134Y-15616174D02*
X13897610Y-15625698D01*
X14107134Y-15739984D02*
X14088087Y-15730460D01*
X14088087Y-15730460D02*
X14078563Y-15720936D01*
X14078563Y-15720936D02*
X14069039Y-15701888D01*
X14069039Y-15701888D02*
X14069039Y-15644746D01*
X14069039Y-15644746D02*
X14078563Y-15625698D01*
X14078563Y-15625698D02*
X14088087Y-15616174D01*
X14088087Y-15616174D02*
X14107134Y-15606650D01*
X14107134Y-15606650D02*
X14135706Y-15606650D01*
X14135706Y-15606650D02*
X14154753Y-15616174D01*
X14154753Y-15616174D02*
X14164277Y-15625698D01*
X14164277Y-15625698D02*
X14173801Y-15644746D01*
X14173801Y-15644746D02*
X14173801Y-15701888D01*
X14173801Y-15701888D02*
X14164277Y-15720936D01*
X14164277Y-15720936D02*
X14154753Y-15730460D01*
X14154753Y-15730460D02*
X14135706Y-15739984D01*
X14135706Y-15739984D02*
X14107134Y-15739984D01*
X14288087Y-15739984D02*
X14269039Y-15730460D01*
X14269039Y-15730460D02*
X14259515Y-15711412D01*
X14259515Y-15711412D02*
X14259515Y-15539984D01*
X14440468Y-15730460D02*
X14421420Y-15739984D01*
X14421420Y-15739984D02*
X14383325Y-15739984D01*
X14383325Y-15739984D02*
X14364277Y-15730460D01*
X14364277Y-15730460D02*
X14354753Y-15711412D01*
X14354753Y-15711412D02*
X14354753Y-15635222D01*
X14354753Y-15635222D02*
X14364277Y-15616174D01*
X14364277Y-15616174D02*
X14383325Y-15606650D01*
X14383325Y-15606650D02*
X14421420Y-15606650D01*
X14421420Y-15606650D02*
X14440468Y-15616174D01*
X14440468Y-15616174D02*
X14449991Y-15635222D01*
X14449991Y-15635222D02*
X14449991Y-15654269D01*
X14449991Y-15654269D02*
X14354753Y-15673317D01*
X14526182Y-15730460D02*
X14545230Y-15739984D01*
X14545230Y-15739984D02*
X14583325Y-15739984D01*
X14583325Y-15739984D02*
X14602372Y-15730460D01*
X14602372Y-15730460D02*
X14611896Y-15711412D01*
X14611896Y-15711412D02*
X14611896Y-15701888D01*
X14611896Y-15701888D02*
X14602372Y-15682841D01*
X14602372Y-15682841D02*
X14583325Y-15673317D01*
X14583325Y-15673317D02*
X14554753Y-15673317D01*
X14554753Y-15673317D02*
X14535706Y-15663793D01*
X14535706Y-15663793D02*
X14526182Y-15644746D01*
X14526182Y-15644746D02*
X14526182Y-15635222D01*
X14526182Y-15635222D02*
X14535706Y-15616174D01*
X14535706Y-15616174D02*
X14554753Y-15606650D01*
X14554753Y-15606650D02*
X14583325Y-15606650D01*
X14583325Y-15606650D02*
X14602372Y-15616174D01*
X14678563Y-15816174D02*
X14688087Y-15806650D01*
X14688087Y-15806650D02*
X14707134Y-15778079D01*
X14707134Y-15778079D02*
X14716658Y-15759031D01*
X14716658Y-15759031D02*
X14726182Y-15730460D01*
X14726182Y-15730460D02*
X14735706Y-15682841D01*
X14735706Y-15682841D02*
X14735706Y-15644746D01*
X14735706Y-15644746D02*
X14726182Y-15597127D01*
X14726182Y-15597127D02*
X14716658Y-15568555D01*
X14716658Y-15568555D02*
X14707134Y-15549508D01*
X14707134Y-15549508D02*
X14688087Y-15520936D01*
X14688087Y-15520936D02*
X14678563Y-15511412D01*
D12*
X9888856Y-15947856D02*
X9888856Y-15877144D01*
X9818144Y-15877144D01*
X9818144Y-15947856D01*
X9888856Y-15947856D01*
D11*
X10269039Y-16003984D02*
X10154753Y-16003984D01*
X10211896Y-16003984D02*
X10211896Y-15803984D01*
X10211896Y-15803984D02*
X10192848Y-15832555D01*
X10192848Y-15832555D02*
X10173801Y-15851603D01*
X10173801Y-15851603D02*
X10154753Y-15861127D01*
X10354753Y-15984936D02*
X10364277Y-15994460D01*
X10364277Y-15994460D02*
X10354753Y-16003984D01*
X10354753Y-16003984D02*
X10345229Y-15994460D01*
X10345229Y-15994460D02*
X10354753Y-15984936D01*
X10354753Y-15984936D02*
X10354753Y-16003984D01*
X10488086Y-15803984D02*
X10507134Y-15803984D01*
X10507134Y-15803984D02*
X10526182Y-15813508D01*
X10526182Y-15813508D02*
X10535705Y-15823031D01*
X10535705Y-15823031D02*
X10545229Y-15842079D01*
X10545229Y-15842079D02*
X10554753Y-15880174D01*
X10554753Y-15880174D02*
X10554753Y-15927793D01*
X10554753Y-15927793D02*
X10545229Y-15965888D01*
X10545229Y-15965888D02*
X10535705Y-15984936D01*
X10535705Y-15984936D02*
X10526182Y-15994460D01*
X10526182Y-15994460D02*
X10507134Y-16003984D01*
X10507134Y-16003984D02*
X10488086Y-16003984D01*
X10488086Y-16003984D02*
X10469039Y-15994460D01*
X10469039Y-15994460D02*
X10459515Y-15984936D01*
X10459515Y-15984936D02*
X10449991Y-15965888D01*
X10449991Y-15965888D02*
X10440467Y-15927793D01*
X10440467Y-15927793D02*
X10440467Y-15880174D01*
X10440467Y-15880174D02*
X10449991Y-15842079D01*
X10449991Y-15842079D02*
X10459515Y-15823031D01*
X10459515Y-15823031D02*
X10469039Y-15813508D01*
X10469039Y-15813508D02*
X10488086Y-15803984D01*
X10678563Y-15803984D02*
X10697610Y-15803984D01*
X10697610Y-15803984D02*
X10716658Y-15813508D01*
X10716658Y-15813508D02*
X10726182Y-15823031D01*
X10726182Y-15823031D02*
X10735705Y-15842079D01*
X10735705Y-15842079D02*
X10745229Y-15880174D01*
X10745229Y-15880174D02*
X10745229Y-15927793D01*
X10745229Y-15927793D02*
X10735705Y-15965888D01*
X10735705Y-15965888D02*
X10726182Y-15984936D01*
X10726182Y-15984936D02*
X10716658Y-15994460D01*
X10716658Y-15994460D02*
X10697610Y-16003984D01*
X10697610Y-16003984D02*
X10678563Y-16003984D01*
X10678563Y-16003984D02*
X10659515Y-15994460D01*
X10659515Y-15994460D02*
X10649991Y-15984936D01*
X10649991Y-15984936D02*
X10640467Y-15965888D01*
X10640467Y-15965888D02*
X10630944Y-15927793D01*
X10630944Y-15927793D02*
X10630944Y-15880174D01*
X10630944Y-15880174D02*
X10640467Y-15842079D01*
X10640467Y-15842079D02*
X10649991Y-15823031D01*
X10649991Y-15823031D02*
X10659515Y-15813508D01*
X10659515Y-15813508D02*
X10678563Y-15803984D01*
X10869039Y-15803984D02*
X10888086Y-15803984D01*
X10888086Y-15803984D02*
X10907134Y-15813508D01*
X10907134Y-15813508D02*
X10916658Y-15823031D01*
X10916658Y-15823031D02*
X10926182Y-15842079D01*
X10926182Y-15842079D02*
X10935705Y-15880174D01*
X10935705Y-15880174D02*
X10935705Y-15927793D01*
X10935705Y-15927793D02*
X10926182Y-15965888D01*
X10926182Y-15965888D02*
X10916658Y-15984936D01*
X10916658Y-15984936D02*
X10907134Y-15994460D01*
X10907134Y-15994460D02*
X10888086Y-16003984D01*
X10888086Y-16003984D02*
X10869039Y-16003984D01*
X10869039Y-16003984D02*
X10849991Y-15994460D01*
X10849991Y-15994460D02*
X10840467Y-15984936D01*
X10840467Y-15984936D02*
X10830944Y-15965888D01*
X10830944Y-15965888D02*
X10821420Y-15927793D01*
X10821420Y-15927793D02*
X10821420Y-15880174D01*
X10821420Y-15880174D02*
X10830944Y-15842079D01*
X10830944Y-15842079D02*
X10840467Y-15823031D01*
X10840467Y-15823031D02*
X10849991Y-15813508D01*
X10849991Y-15813508D02*
X10869039Y-15803984D01*
X11021420Y-16003984D02*
X11021420Y-15870650D01*
X11021420Y-15889698D02*
X11030944Y-15880174D01*
X11030944Y-15880174D02*
X11049991Y-15870650D01*
X11049991Y-15870650D02*
X11078563Y-15870650D01*
X11078563Y-15870650D02*
X11097610Y-15880174D01*
X11097610Y-15880174D02*
X11107134Y-15899222D01*
X11107134Y-15899222D02*
X11107134Y-16003984D01*
X11107134Y-15899222D02*
X11116658Y-15880174D01*
X11116658Y-15880174D02*
X11135705Y-15870650D01*
X11135705Y-15870650D02*
X11164277Y-15870650D01*
X11164277Y-15870650D02*
X11183325Y-15880174D01*
X11183325Y-15880174D02*
X11192848Y-15899222D01*
X11192848Y-15899222D02*
X11192848Y-16003984D01*
X11288086Y-16003984D02*
X11288086Y-15870650D01*
X11288086Y-15889698D02*
X11297610Y-15880174D01*
X11297610Y-15880174D02*
X11316658Y-15870650D01*
X11316658Y-15870650D02*
X11345229Y-15870650D01*
X11345229Y-15870650D02*
X11364277Y-15880174D01*
X11364277Y-15880174D02*
X11373801Y-15899222D01*
X11373801Y-15899222D02*
X11373801Y-16003984D01*
X11373801Y-15899222D02*
X11383324Y-15880174D01*
X11383324Y-15880174D02*
X11402372Y-15870650D01*
X11402372Y-15870650D02*
X11430943Y-15870650D01*
X11430943Y-15870650D02*
X11449991Y-15880174D01*
X11449991Y-15880174D02*
X11459515Y-15899222D01*
X11459515Y-15899222D02*
X11459515Y-16003984D01*
X11849991Y-15794460D02*
X11678563Y-16051603D01*
X12107134Y-15803984D02*
X12126182Y-15803984D01*
X12126182Y-15803984D02*
X12145229Y-15813508D01*
X12145229Y-15813508D02*
X12154753Y-15823031D01*
X12154753Y-15823031D02*
X12164277Y-15842079D01*
X12164277Y-15842079D02*
X12173801Y-15880174D01*
X12173801Y-15880174D02*
X12173801Y-15927793D01*
X12173801Y-15927793D02*
X12164277Y-15965888D01*
X12164277Y-15965888D02*
X12154753Y-15984936D01*
X12154753Y-15984936D02*
X12145229Y-15994460D01*
X12145229Y-15994460D02*
X12126182Y-16003984D01*
X12126182Y-16003984D02*
X12107134Y-16003984D01*
X12107134Y-16003984D02*
X12088086Y-15994460D01*
X12088086Y-15994460D02*
X12078563Y-15984936D01*
X12078563Y-15984936D02*
X12069039Y-15965888D01*
X12069039Y-15965888D02*
X12059515Y-15927793D01*
X12059515Y-15927793D02*
X12059515Y-15880174D01*
X12059515Y-15880174D02*
X12069039Y-15842079D01*
X12069039Y-15842079D02*
X12078563Y-15823031D01*
X12078563Y-15823031D02*
X12088086Y-15813508D01*
X12088086Y-15813508D02*
X12107134Y-15803984D01*
X12259515Y-15984936D02*
X12269039Y-15994460D01*
X12269039Y-15994460D02*
X12259515Y-16003984D01*
X12259515Y-16003984D02*
X12249991Y-15994460D01*
X12249991Y-15994460D02*
X12259515Y-15984936D01*
X12259515Y-15984936D02*
X12259515Y-16003984D01*
X12392848Y-15803984D02*
X12411896Y-15803984D01*
X12411896Y-15803984D02*
X12430944Y-15813508D01*
X12430944Y-15813508D02*
X12440467Y-15823031D01*
X12440467Y-15823031D02*
X12449991Y-15842079D01*
X12449991Y-15842079D02*
X12459515Y-15880174D01*
X12459515Y-15880174D02*
X12459515Y-15927793D01*
X12459515Y-15927793D02*
X12449991Y-15965888D01*
X12449991Y-15965888D02*
X12440467Y-15984936D01*
X12440467Y-15984936D02*
X12430944Y-15994460D01*
X12430944Y-15994460D02*
X12411896Y-16003984D01*
X12411896Y-16003984D02*
X12392848Y-16003984D01*
X12392848Y-16003984D02*
X12373801Y-15994460D01*
X12373801Y-15994460D02*
X12364277Y-15984936D01*
X12364277Y-15984936D02*
X12354753Y-15965888D01*
X12354753Y-15965888D02*
X12345229Y-15927793D01*
X12345229Y-15927793D02*
X12345229Y-15880174D01*
X12345229Y-15880174D02*
X12354753Y-15842079D01*
X12354753Y-15842079D02*
X12364277Y-15823031D01*
X12364277Y-15823031D02*
X12373801Y-15813508D01*
X12373801Y-15813508D02*
X12392848Y-15803984D01*
X12526182Y-15803984D02*
X12649991Y-15803984D01*
X12649991Y-15803984D02*
X12583325Y-15880174D01*
X12583325Y-15880174D02*
X12611896Y-15880174D01*
X12611896Y-15880174D02*
X12630944Y-15889698D01*
X12630944Y-15889698D02*
X12640467Y-15899222D01*
X12640467Y-15899222D02*
X12649991Y-15918269D01*
X12649991Y-15918269D02*
X12649991Y-15965888D01*
X12649991Y-15965888D02*
X12640467Y-15984936D01*
X12640467Y-15984936D02*
X12630944Y-15994460D01*
X12630944Y-15994460D02*
X12611896Y-16003984D01*
X12611896Y-16003984D02*
X12554753Y-16003984D01*
X12554753Y-16003984D02*
X12535706Y-15994460D01*
X12535706Y-15994460D02*
X12526182Y-15984936D01*
X12745229Y-16003984D02*
X12783325Y-16003984D01*
X12783325Y-16003984D02*
X12802372Y-15994460D01*
X12802372Y-15994460D02*
X12811896Y-15984936D01*
X12811896Y-15984936D02*
X12830944Y-15956365D01*
X12830944Y-15956365D02*
X12840467Y-15918269D01*
X12840467Y-15918269D02*
X12840467Y-15842079D01*
X12840467Y-15842079D02*
X12830944Y-15823031D01*
X12830944Y-15823031D02*
X12821420Y-15813508D01*
X12821420Y-15813508D02*
X12802372Y-15803984D01*
X12802372Y-15803984D02*
X12764277Y-15803984D01*
X12764277Y-15803984D02*
X12745229Y-15813508D01*
X12745229Y-15813508D02*
X12735706Y-15823031D01*
X12735706Y-15823031D02*
X12726182Y-15842079D01*
X12726182Y-15842079D02*
X12726182Y-15889698D01*
X12726182Y-15889698D02*
X12735706Y-15908746D01*
X12735706Y-15908746D02*
X12745229Y-15918269D01*
X12745229Y-15918269D02*
X12764277Y-15927793D01*
X12764277Y-15927793D02*
X12802372Y-15927793D01*
X12802372Y-15927793D02*
X12821420Y-15918269D01*
X12821420Y-15918269D02*
X12830944Y-15908746D01*
X12830944Y-15908746D02*
X12840467Y-15889698D01*
X13011896Y-15870650D02*
X13011896Y-16003984D01*
X12964277Y-15794460D02*
X12916658Y-15937317D01*
X12916658Y-15937317D02*
X13040467Y-15937317D01*
X13107134Y-15803984D02*
X13107134Y-15842079D01*
X13183325Y-15803984D02*
X13183325Y-15842079D01*
X13478563Y-16080174D02*
X13469039Y-16070650D01*
X13469039Y-16070650D02*
X13449991Y-16042079D01*
X13449991Y-16042079D02*
X13440468Y-16023031D01*
X13440468Y-16023031D02*
X13430944Y-15994460D01*
X13430944Y-15994460D02*
X13421420Y-15946841D01*
X13421420Y-15946841D02*
X13421420Y-15908746D01*
X13421420Y-15908746D02*
X13430944Y-15861127D01*
X13430944Y-15861127D02*
X13440468Y-15832555D01*
X13440468Y-15832555D02*
X13449991Y-15813508D01*
X13449991Y-15813508D02*
X13469039Y-15784936D01*
X13469039Y-15784936D02*
X13478563Y-15775412D01*
X13659515Y-16003984D02*
X13545229Y-16003984D01*
X13602372Y-16003984D02*
X13602372Y-15803984D01*
X13602372Y-15803984D02*
X13583325Y-15832555D01*
X13583325Y-15832555D02*
X13564277Y-15851603D01*
X13564277Y-15851603D02*
X13545229Y-15861127D01*
X13783325Y-15803984D02*
X13802372Y-15803984D01*
X13802372Y-15803984D02*
X13821420Y-15813508D01*
X13821420Y-15813508D02*
X13830944Y-15823031D01*
X13830944Y-15823031D02*
X13840468Y-15842079D01*
X13840468Y-15842079D02*
X13849991Y-15880174D01*
X13849991Y-15880174D02*
X13849991Y-15927793D01*
X13849991Y-15927793D02*
X13840468Y-15965888D01*
X13840468Y-15965888D02*
X13830944Y-15984936D01*
X13830944Y-15984936D02*
X13821420Y-15994460D01*
X13821420Y-15994460D02*
X13802372Y-16003984D01*
X13802372Y-16003984D02*
X13783325Y-16003984D01*
X13783325Y-16003984D02*
X13764277Y-15994460D01*
X13764277Y-15994460D02*
X13754753Y-15984936D01*
X13754753Y-15984936D02*
X13745229Y-15965888D01*
X13745229Y-15965888D02*
X13735706Y-15927793D01*
X13735706Y-15927793D02*
X13735706Y-15880174D01*
X13735706Y-15880174D02*
X13745229Y-15842079D01*
X13745229Y-15842079D02*
X13754753Y-15823031D01*
X13754753Y-15823031D02*
X13764277Y-15813508D01*
X13764277Y-15813508D02*
X13783325Y-15803984D01*
X13926182Y-15823031D02*
X13935706Y-15813508D01*
X13935706Y-15813508D02*
X13954753Y-15803984D01*
X13954753Y-15803984D02*
X14002372Y-15803984D01*
X14002372Y-15803984D02*
X14021420Y-15813508D01*
X14021420Y-15813508D02*
X14030944Y-15823031D01*
X14030944Y-15823031D02*
X14040468Y-15842079D01*
X14040468Y-15842079D02*
X14040468Y-15861127D01*
X14040468Y-15861127D02*
X14030944Y-15889698D01*
X14030944Y-15889698D02*
X13916658Y-16003984D01*
X13916658Y-16003984D02*
X14040468Y-16003984D01*
X14278563Y-16003984D02*
X14278563Y-15803984D01*
X14364277Y-16003984D02*
X14364277Y-15899222D01*
X14364277Y-15899222D02*
X14354753Y-15880174D01*
X14354753Y-15880174D02*
X14335706Y-15870650D01*
X14335706Y-15870650D02*
X14307134Y-15870650D01*
X14307134Y-15870650D02*
X14288087Y-15880174D01*
X14288087Y-15880174D02*
X14278563Y-15889698D01*
X14488087Y-16003984D02*
X14469039Y-15994460D01*
X14469039Y-15994460D02*
X14459515Y-15984936D01*
X14459515Y-15984936D02*
X14449991Y-15965888D01*
X14449991Y-15965888D02*
X14449991Y-15908746D01*
X14449991Y-15908746D02*
X14459515Y-15889698D01*
X14459515Y-15889698D02*
X14469039Y-15880174D01*
X14469039Y-15880174D02*
X14488087Y-15870650D01*
X14488087Y-15870650D02*
X14516658Y-15870650D01*
X14516658Y-15870650D02*
X14535706Y-15880174D01*
X14535706Y-15880174D02*
X14545230Y-15889698D01*
X14545230Y-15889698D02*
X14554753Y-15908746D01*
X14554753Y-15908746D02*
X14554753Y-15965888D01*
X14554753Y-15965888D02*
X14545230Y-15984936D01*
X14545230Y-15984936D02*
X14535706Y-15994460D01*
X14535706Y-15994460D02*
X14516658Y-16003984D01*
X14516658Y-16003984D02*
X14488087Y-16003984D01*
X14669039Y-16003984D02*
X14649991Y-15994460D01*
X14649991Y-15994460D02*
X14640468Y-15975412D01*
X14640468Y-15975412D02*
X14640468Y-15803984D01*
X14821420Y-15994460D02*
X14802372Y-16003984D01*
X14802372Y-16003984D02*
X14764277Y-16003984D01*
X14764277Y-16003984D02*
X14745230Y-15994460D01*
X14745230Y-15994460D02*
X14735706Y-15975412D01*
X14735706Y-15975412D02*
X14735706Y-15899222D01*
X14735706Y-15899222D02*
X14745230Y-15880174D01*
X14745230Y-15880174D02*
X14764277Y-15870650D01*
X14764277Y-15870650D02*
X14802372Y-15870650D01*
X14802372Y-15870650D02*
X14821420Y-15880174D01*
X14821420Y-15880174D02*
X14830944Y-15899222D01*
X14830944Y-15899222D02*
X14830944Y-15918269D01*
X14830944Y-15918269D02*
X14735706Y-15937317D01*
X14907134Y-15994460D02*
X14926182Y-16003984D01*
X14926182Y-16003984D02*
X14964277Y-16003984D01*
X14964277Y-16003984D02*
X14983325Y-15994460D01*
X14983325Y-15994460D02*
X14992849Y-15975412D01*
X14992849Y-15975412D02*
X14992849Y-15965888D01*
X14992849Y-15965888D02*
X14983325Y-15946841D01*
X14983325Y-15946841D02*
X14964277Y-15937317D01*
X14964277Y-15937317D02*
X14935706Y-15937317D01*
X14935706Y-15937317D02*
X14916658Y-15927793D01*
X14916658Y-15927793D02*
X14907134Y-15908746D01*
X14907134Y-15908746D02*
X14907134Y-15899222D01*
X14907134Y-15899222D02*
X14916658Y-15880174D01*
X14916658Y-15880174D02*
X14935706Y-15870650D01*
X14935706Y-15870650D02*
X14964277Y-15870650D01*
X14964277Y-15870650D02*
X14983325Y-15880174D01*
X15230944Y-15927793D02*
X15383325Y-15927793D01*
X15307134Y-16003984D02*
X15307134Y-15851603D01*
X15621420Y-15823031D02*
X15630944Y-15813508D01*
X15630944Y-15813508D02*
X15649992Y-15803984D01*
X15649992Y-15803984D02*
X15697611Y-15803984D01*
X15697611Y-15803984D02*
X15716658Y-15813508D01*
X15716658Y-15813508D02*
X15726182Y-15823031D01*
X15726182Y-15823031D02*
X15735706Y-15842079D01*
X15735706Y-15842079D02*
X15735706Y-15861127D01*
X15735706Y-15861127D02*
X15726182Y-15889698D01*
X15726182Y-15889698D02*
X15611896Y-16003984D01*
X15611896Y-16003984D02*
X15735706Y-16003984D01*
X15964277Y-15994460D02*
X15983325Y-16003984D01*
X15983325Y-16003984D02*
X16021420Y-16003984D01*
X16021420Y-16003984D02*
X16040468Y-15994460D01*
X16040468Y-15994460D02*
X16049992Y-15975412D01*
X16049992Y-15975412D02*
X16049992Y-15965888D01*
X16049992Y-15965888D02*
X16040468Y-15946841D01*
X16040468Y-15946841D02*
X16021420Y-15937317D01*
X16021420Y-15937317D02*
X15992849Y-15937317D01*
X15992849Y-15937317D02*
X15973801Y-15927793D01*
X15973801Y-15927793D02*
X15964277Y-15908746D01*
X15964277Y-15908746D02*
X15964277Y-15899222D01*
X15964277Y-15899222D02*
X15973801Y-15880174D01*
X15973801Y-15880174D02*
X15992849Y-15870650D01*
X15992849Y-15870650D02*
X16021420Y-15870650D01*
X16021420Y-15870650D02*
X16040468Y-15880174D01*
X16164277Y-16003984D02*
X16145230Y-15994460D01*
X16145230Y-15994460D02*
X16135706Y-15975412D01*
X16135706Y-15975412D02*
X16135706Y-15803984D01*
X16269039Y-16003984D02*
X16249992Y-15994460D01*
X16249992Y-15994460D02*
X16240468Y-15984936D01*
X16240468Y-15984936D02*
X16230944Y-15965888D01*
X16230944Y-15965888D02*
X16230944Y-15908746D01*
X16230944Y-15908746D02*
X16240468Y-15889698D01*
X16240468Y-15889698D02*
X16249992Y-15880174D01*
X16249992Y-15880174D02*
X16269039Y-15870650D01*
X16269039Y-15870650D02*
X16297611Y-15870650D01*
X16297611Y-15870650D02*
X16316658Y-15880174D01*
X16316658Y-15880174D02*
X16326182Y-15889698D01*
X16326182Y-15889698D02*
X16335706Y-15908746D01*
X16335706Y-15908746D02*
X16335706Y-15965888D01*
X16335706Y-15965888D02*
X16326182Y-15984936D01*
X16326182Y-15984936D02*
X16316658Y-15994460D01*
X16316658Y-15994460D02*
X16297611Y-16003984D01*
X16297611Y-16003984D02*
X16269039Y-16003984D01*
X16392849Y-15870650D02*
X16469039Y-15870650D01*
X16421420Y-15803984D02*
X16421420Y-15975412D01*
X16421420Y-15975412D02*
X16430944Y-15994460D01*
X16430944Y-15994460D02*
X16449992Y-16003984D01*
X16449992Y-16003984D02*
X16469039Y-16003984D01*
X16526182Y-15994460D02*
X16545230Y-16003984D01*
X16545230Y-16003984D02*
X16583325Y-16003984D01*
X16583325Y-16003984D02*
X16602373Y-15994460D01*
X16602373Y-15994460D02*
X16611896Y-15975412D01*
X16611896Y-15975412D02*
X16611896Y-15965888D01*
X16611896Y-15965888D02*
X16602373Y-15946841D01*
X16602373Y-15946841D02*
X16583325Y-15937317D01*
X16583325Y-15937317D02*
X16554754Y-15937317D01*
X16554754Y-15937317D02*
X16535706Y-15927793D01*
X16535706Y-15927793D02*
X16526182Y-15908746D01*
X16526182Y-15908746D02*
X16526182Y-15899222D01*
X16526182Y-15899222D02*
X16535706Y-15880174D01*
X16535706Y-15880174D02*
X16554754Y-15870650D01*
X16554754Y-15870650D02*
X16583325Y-15870650D01*
X16583325Y-15870650D02*
X16602373Y-15880174D01*
X16678563Y-16080174D02*
X16688087Y-16070650D01*
X16688087Y-16070650D02*
X16707135Y-16042079D01*
X16707135Y-16042079D02*
X16716658Y-16023031D01*
X16716658Y-16023031D02*
X16726182Y-15994460D01*
X16726182Y-15994460D02*
X16735706Y-15946841D01*
X16735706Y-15946841D02*
X16735706Y-15908746D01*
X16735706Y-15908746D02*
X16726182Y-15861127D01*
X16726182Y-15861127D02*
X16716658Y-15832555D01*
X16716658Y-15832555D02*
X16707135Y-15813508D01*
X16707135Y-15813508D02*
X16688087Y-15784936D01*
X16688087Y-15784936D02*
X16678563Y-15775412D01*
D13*
X9853000Y-16227000D02*
X9903500Y-16176500D01*
X9853000Y-16126000D01*
X9802500Y-16176500D01*
X9853000Y-16227000D01*
D11*
X10269039Y-16267984D02*
X10154753Y-16267984D01*
X10211896Y-16267984D02*
X10211896Y-16067984D01*
X10211896Y-16067984D02*
X10192848Y-16096555D01*
X10192848Y-16096555D02*
X10173801Y-16115603D01*
X10173801Y-16115603D02*
X10154753Y-16125127D01*
X10354753Y-16248936D02*
X10364277Y-16258460D01*
X10364277Y-16258460D02*
X10354753Y-16267984D01*
X10354753Y-16267984D02*
X10345229Y-16258460D01*
X10345229Y-16258460D02*
X10354753Y-16248936D01*
X10354753Y-16248936D02*
X10354753Y-16267984D01*
X10488086Y-16067984D02*
X10507134Y-16067984D01*
X10507134Y-16067984D02*
X10526182Y-16077508D01*
X10526182Y-16077508D02*
X10535705Y-16087031D01*
X10535705Y-16087031D02*
X10545229Y-16106079D01*
X10545229Y-16106079D02*
X10554753Y-16144174D01*
X10554753Y-16144174D02*
X10554753Y-16191793D01*
X10554753Y-16191793D02*
X10545229Y-16229888D01*
X10545229Y-16229888D02*
X10535705Y-16248936D01*
X10535705Y-16248936D02*
X10526182Y-16258460D01*
X10526182Y-16258460D02*
X10507134Y-16267984D01*
X10507134Y-16267984D02*
X10488086Y-16267984D01*
X10488086Y-16267984D02*
X10469039Y-16258460D01*
X10469039Y-16258460D02*
X10459515Y-16248936D01*
X10459515Y-16248936D02*
X10449991Y-16229888D01*
X10449991Y-16229888D02*
X10440467Y-16191793D01*
X10440467Y-16191793D02*
X10440467Y-16144174D01*
X10440467Y-16144174D02*
X10449991Y-16106079D01*
X10449991Y-16106079D02*
X10459515Y-16087031D01*
X10459515Y-16087031D02*
X10469039Y-16077508D01*
X10469039Y-16077508D02*
X10488086Y-16067984D01*
X10745229Y-16267984D02*
X10630944Y-16267984D01*
X10688086Y-16267984D02*
X10688086Y-16067984D01*
X10688086Y-16067984D02*
X10669039Y-16096555D01*
X10669039Y-16096555D02*
X10649991Y-16115603D01*
X10649991Y-16115603D02*
X10630944Y-16125127D01*
X10869039Y-16067984D02*
X10888086Y-16067984D01*
X10888086Y-16067984D02*
X10907134Y-16077508D01*
X10907134Y-16077508D02*
X10916658Y-16087031D01*
X10916658Y-16087031D02*
X10926182Y-16106079D01*
X10926182Y-16106079D02*
X10935705Y-16144174D01*
X10935705Y-16144174D02*
X10935705Y-16191793D01*
X10935705Y-16191793D02*
X10926182Y-16229888D01*
X10926182Y-16229888D02*
X10916658Y-16248936D01*
X10916658Y-16248936D02*
X10907134Y-16258460D01*
X10907134Y-16258460D02*
X10888086Y-16267984D01*
X10888086Y-16267984D02*
X10869039Y-16267984D01*
X10869039Y-16267984D02*
X10849991Y-16258460D01*
X10849991Y-16258460D02*
X10840467Y-16248936D01*
X10840467Y-16248936D02*
X10830944Y-16229888D01*
X10830944Y-16229888D02*
X10821420Y-16191793D01*
X10821420Y-16191793D02*
X10821420Y-16144174D01*
X10821420Y-16144174D02*
X10830944Y-16106079D01*
X10830944Y-16106079D02*
X10840467Y-16087031D01*
X10840467Y-16087031D02*
X10849991Y-16077508D01*
X10849991Y-16077508D02*
X10869039Y-16067984D01*
X11021420Y-16267984D02*
X11021420Y-16134650D01*
X11021420Y-16153698D02*
X11030944Y-16144174D01*
X11030944Y-16144174D02*
X11049991Y-16134650D01*
X11049991Y-16134650D02*
X11078563Y-16134650D01*
X11078563Y-16134650D02*
X11097610Y-16144174D01*
X11097610Y-16144174D02*
X11107134Y-16163222D01*
X11107134Y-16163222D02*
X11107134Y-16267984D01*
X11107134Y-16163222D02*
X11116658Y-16144174D01*
X11116658Y-16144174D02*
X11135705Y-16134650D01*
X11135705Y-16134650D02*
X11164277Y-16134650D01*
X11164277Y-16134650D02*
X11183325Y-16144174D01*
X11183325Y-16144174D02*
X11192848Y-16163222D01*
X11192848Y-16163222D02*
X11192848Y-16267984D01*
X11288086Y-16267984D02*
X11288086Y-16134650D01*
X11288086Y-16153698D02*
X11297610Y-16144174D01*
X11297610Y-16144174D02*
X11316658Y-16134650D01*
X11316658Y-16134650D02*
X11345229Y-16134650D01*
X11345229Y-16134650D02*
X11364277Y-16144174D01*
X11364277Y-16144174D02*
X11373801Y-16163222D01*
X11373801Y-16163222D02*
X11373801Y-16267984D01*
X11373801Y-16163222D02*
X11383324Y-16144174D01*
X11383324Y-16144174D02*
X11402372Y-16134650D01*
X11402372Y-16134650D02*
X11430943Y-16134650D01*
X11430943Y-16134650D02*
X11449991Y-16144174D01*
X11449991Y-16144174D02*
X11459515Y-16163222D01*
X11459515Y-16163222D02*
X11459515Y-16267984D01*
X11849991Y-16058460D02*
X11678563Y-16315603D01*
X12107134Y-16067984D02*
X12126182Y-16067984D01*
X12126182Y-16067984D02*
X12145229Y-16077508D01*
X12145229Y-16077508D02*
X12154753Y-16087031D01*
X12154753Y-16087031D02*
X12164277Y-16106079D01*
X12164277Y-16106079D02*
X12173801Y-16144174D01*
X12173801Y-16144174D02*
X12173801Y-16191793D01*
X12173801Y-16191793D02*
X12164277Y-16229888D01*
X12164277Y-16229888D02*
X12154753Y-16248936D01*
X12154753Y-16248936D02*
X12145229Y-16258460D01*
X12145229Y-16258460D02*
X12126182Y-16267984D01*
X12126182Y-16267984D02*
X12107134Y-16267984D01*
X12107134Y-16267984D02*
X12088086Y-16258460D01*
X12088086Y-16258460D02*
X12078563Y-16248936D01*
X12078563Y-16248936D02*
X12069039Y-16229888D01*
X12069039Y-16229888D02*
X12059515Y-16191793D01*
X12059515Y-16191793D02*
X12059515Y-16144174D01*
X12059515Y-16144174D02*
X12069039Y-16106079D01*
X12069039Y-16106079D02*
X12078563Y-16087031D01*
X12078563Y-16087031D02*
X12088086Y-16077508D01*
X12088086Y-16077508D02*
X12107134Y-16067984D01*
X12259515Y-16248936D02*
X12269039Y-16258460D01*
X12269039Y-16258460D02*
X12259515Y-16267984D01*
X12259515Y-16267984D02*
X12249991Y-16258460D01*
X12249991Y-16258460D02*
X12259515Y-16248936D01*
X12259515Y-16248936D02*
X12259515Y-16267984D01*
X12392848Y-16067984D02*
X12411896Y-16067984D01*
X12411896Y-16067984D02*
X12430944Y-16077508D01*
X12430944Y-16077508D02*
X12440467Y-16087031D01*
X12440467Y-16087031D02*
X12449991Y-16106079D01*
X12449991Y-16106079D02*
X12459515Y-16144174D01*
X12459515Y-16144174D02*
X12459515Y-16191793D01*
X12459515Y-16191793D02*
X12449991Y-16229888D01*
X12449991Y-16229888D02*
X12440467Y-16248936D01*
X12440467Y-16248936D02*
X12430944Y-16258460D01*
X12430944Y-16258460D02*
X12411896Y-16267984D01*
X12411896Y-16267984D02*
X12392848Y-16267984D01*
X12392848Y-16267984D02*
X12373801Y-16258460D01*
X12373801Y-16258460D02*
X12364277Y-16248936D01*
X12364277Y-16248936D02*
X12354753Y-16229888D01*
X12354753Y-16229888D02*
X12345229Y-16191793D01*
X12345229Y-16191793D02*
X12345229Y-16144174D01*
X12345229Y-16144174D02*
X12354753Y-16106079D01*
X12354753Y-16106079D02*
X12364277Y-16087031D01*
X12364277Y-16087031D02*
X12373801Y-16077508D01*
X12373801Y-16077508D02*
X12392848Y-16067984D01*
X12526182Y-16067984D02*
X12649991Y-16067984D01*
X12649991Y-16067984D02*
X12583325Y-16144174D01*
X12583325Y-16144174D02*
X12611896Y-16144174D01*
X12611896Y-16144174D02*
X12630944Y-16153698D01*
X12630944Y-16153698D02*
X12640467Y-16163222D01*
X12640467Y-16163222D02*
X12649991Y-16182269D01*
X12649991Y-16182269D02*
X12649991Y-16229888D01*
X12649991Y-16229888D02*
X12640467Y-16248936D01*
X12640467Y-16248936D02*
X12630944Y-16258460D01*
X12630944Y-16258460D02*
X12611896Y-16267984D01*
X12611896Y-16267984D02*
X12554753Y-16267984D01*
X12554753Y-16267984D02*
X12535706Y-16258460D01*
X12535706Y-16258460D02*
X12526182Y-16248936D01*
X12745229Y-16267984D02*
X12783325Y-16267984D01*
X12783325Y-16267984D02*
X12802372Y-16258460D01*
X12802372Y-16258460D02*
X12811896Y-16248936D01*
X12811896Y-16248936D02*
X12830944Y-16220365D01*
X12830944Y-16220365D02*
X12840467Y-16182269D01*
X12840467Y-16182269D02*
X12840467Y-16106079D01*
X12840467Y-16106079D02*
X12830944Y-16087031D01*
X12830944Y-16087031D02*
X12821420Y-16077508D01*
X12821420Y-16077508D02*
X12802372Y-16067984D01*
X12802372Y-16067984D02*
X12764277Y-16067984D01*
X12764277Y-16067984D02*
X12745229Y-16077508D01*
X12745229Y-16077508D02*
X12735706Y-16087031D01*
X12735706Y-16087031D02*
X12726182Y-16106079D01*
X12726182Y-16106079D02*
X12726182Y-16153698D01*
X12726182Y-16153698D02*
X12735706Y-16172746D01*
X12735706Y-16172746D02*
X12745229Y-16182269D01*
X12745229Y-16182269D02*
X12764277Y-16191793D01*
X12764277Y-16191793D02*
X12802372Y-16191793D01*
X12802372Y-16191793D02*
X12821420Y-16182269D01*
X12821420Y-16182269D02*
X12830944Y-16172746D01*
X12830944Y-16172746D02*
X12840467Y-16153698D01*
X12954753Y-16153698D02*
X12935706Y-16144174D01*
X12935706Y-16144174D02*
X12926182Y-16134650D01*
X12926182Y-16134650D02*
X12916658Y-16115603D01*
X12916658Y-16115603D02*
X12916658Y-16106079D01*
X12916658Y-16106079D02*
X12926182Y-16087031D01*
X12926182Y-16087031D02*
X12935706Y-16077508D01*
X12935706Y-16077508D02*
X12954753Y-16067984D01*
X12954753Y-16067984D02*
X12992848Y-16067984D01*
X12992848Y-16067984D02*
X13011896Y-16077508D01*
X13011896Y-16077508D02*
X13021420Y-16087031D01*
X13021420Y-16087031D02*
X13030944Y-16106079D01*
X13030944Y-16106079D02*
X13030944Y-16115603D01*
X13030944Y-16115603D02*
X13021420Y-16134650D01*
X13021420Y-16134650D02*
X13011896Y-16144174D01*
X13011896Y-16144174D02*
X12992848Y-16153698D01*
X12992848Y-16153698D02*
X12954753Y-16153698D01*
X12954753Y-16153698D02*
X12935706Y-16163222D01*
X12935706Y-16163222D02*
X12926182Y-16172746D01*
X12926182Y-16172746D02*
X12916658Y-16191793D01*
X12916658Y-16191793D02*
X12916658Y-16229888D01*
X12916658Y-16229888D02*
X12926182Y-16248936D01*
X12926182Y-16248936D02*
X12935706Y-16258460D01*
X12935706Y-16258460D02*
X12954753Y-16267984D01*
X12954753Y-16267984D02*
X12992848Y-16267984D01*
X12992848Y-16267984D02*
X13011896Y-16258460D01*
X13011896Y-16258460D02*
X13021420Y-16248936D01*
X13021420Y-16248936D02*
X13030944Y-16229888D01*
X13030944Y-16229888D02*
X13030944Y-16191793D01*
X13030944Y-16191793D02*
X13021420Y-16172746D01*
X13021420Y-16172746D02*
X13011896Y-16163222D01*
X13011896Y-16163222D02*
X12992848Y-16153698D01*
X13107134Y-16067984D02*
X13107134Y-16106079D01*
X13183325Y-16067984D02*
X13183325Y-16106079D01*
X13478563Y-16344174D02*
X13469039Y-16334650D01*
X13469039Y-16334650D02*
X13449991Y-16306079D01*
X13449991Y-16306079D02*
X13440468Y-16287031D01*
X13440468Y-16287031D02*
X13430944Y-16258460D01*
X13430944Y-16258460D02*
X13421420Y-16210841D01*
X13421420Y-16210841D02*
X13421420Y-16172746D01*
X13421420Y-16172746D02*
X13430944Y-16125127D01*
X13430944Y-16125127D02*
X13440468Y-16096555D01*
X13440468Y-16096555D02*
X13449991Y-16077508D01*
X13449991Y-16077508D02*
X13469039Y-16048936D01*
X13469039Y-16048936D02*
X13478563Y-16039412D01*
X13545229Y-16087031D02*
X13554753Y-16077508D01*
X13554753Y-16077508D02*
X13573801Y-16067984D01*
X13573801Y-16067984D02*
X13621420Y-16067984D01*
X13621420Y-16067984D02*
X13640468Y-16077508D01*
X13640468Y-16077508D02*
X13649991Y-16087031D01*
X13649991Y-16087031D02*
X13659515Y-16106079D01*
X13659515Y-16106079D02*
X13659515Y-16125127D01*
X13659515Y-16125127D02*
X13649991Y-16153698D01*
X13649991Y-16153698D02*
X13535706Y-16267984D01*
X13535706Y-16267984D02*
X13659515Y-16267984D01*
X13897610Y-16267984D02*
X13897610Y-16067984D01*
X13983325Y-16267984D02*
X13983325Y-16163222D01*
X13983325Y-16163222D02*
X13973801Y-16144174D01*
X13973801Y-16144174D02*
X13954753Y-16134650D01*
X13954753Y-16134650D02*
X13926182Y-16134650D01*
X13926182Y-16134650D02*
X13907134Y-16144174D01*
X13907134Y-16144174D02*
X13897610Y-16153698D01*
X14107134Y-16267984D02*
X14088087Y-16258460D01*
X14088087Y-16258460D02*
X14078563Y-16248936D01*
X14078563Y-16248936D02*
X14069039Y-16229888D01*
X14069039Y-16229888D02*
X14069039Y-16172746D01*
X14069039Y-16172746D02*
X14078563Y-16153698D01*
X14078563Y-16153698D02*
X14088087Y-16144174D01*
X14088087Y-16144174D02*
X14107134Y-16134650D01*
X14107134Y-16134650D02*
X14135706Y-16134650D01*
X14135706Y-16134650D02*
X14154753Y-16144174D01*
X14154753Y-16144174D02*
X14164277Y-16153698D01*
X14164277Y-16153698D02*
X14173801Y-16172746D01*
X14173801Y-16172746D02*
X14173801Y-16229888D01*
X14173801Y-16229888D02*
X14164277Y-16248936D01*
X14164277Y-16248936D02*
X14154753Y-16258460D01*
X14154753Y-16258460D02*
X14135706Y-16267984D01*
X14135706Y-16267984D02*
X14107134Y-16267984D01*
X14288087Y-16267984D02*
X14269039Y-16258460D01*
X14269039Y-16258460D02*
X14259515Y-16239412D01*
X14259515Y-16239412D02*
X14259515Y-16067984D01*
X14440468Y-16258460D02*
X14421420Y-16267984D01*
X14421420Y-16267984D02*
X14383325Y-16267984D01*
X14383325Y-16267984D02*
X14364277Y-16258460D01*
X14364277Y-16258460D02*
X14354753Y-16239412D01*
X14354753Y-16239412D02*
X14354753Y-16163222D01*
X14354753Y-16163222D02*
X14364277Y-16144174D01*
X14364277Y-16144174D02*
X14383325Y-16134650D01*
X14383325Y-16134650D02*
X14421420Y-16134650D01*
X14421420Y-16134650D02*
X14440468Y-16144174D01*
X14440468Y-16144174D02*
X14449991Y-16163222D01*
X14449991Y-16163222D02*
X14449991Y-16182269D01*
X14449991Y-16182269D02*
X14354753Y-16201317D01*
X14526182Y-16258460D02*
X14545230Y-16267984D01*
X14545230Y-16267984D02*
X14583325Y-16267984D01*
X14583325Y-16267984D02*
X14602372Y-16258460D01*
X14602372Y-16258460D02*
X14611896Y-16239412D01*
X14611896Y-16239412D02*
X14611896Y-16229888D01*
X14611896Y-16229888D02*
X14602372Y-16210841D01*
X14602372Y-16210841D02*
X14583325Y-16201317D01*
X14583325Y-16201317D02*
X14554753Y-16201317D01*
X14554753Y-16201317D02*
X14535706Y-16191793D01*
X14535706Y-16191793D02*
X14526182Y-16172746D01*
X14526182Y-16172746D02*
X14526182Y-16163222D01*
X14526182Y-16163222D02*
X14535706Y-16144174D01*
X14535706Y-16144174D02*
X14554753Y-16134650D01*
X14554753Y-16134650D02*
X14583325Y-16134650D01*
X14583325Y-16134650D02*
X14602372Y-16144174D01*
X14678563Y-16344174D02*
X14688087Y-16334650D01*
X14688087Y-16334650D02*
X14707134Y-16306079D01*
X14707134Y-16306079D02*
X14716658Y-16287031D01*
X14716658Y-16287031D02*
X14726182Y-16258460D01*
X14726182Y-16258460D02*
X14735706Y-16210841D01*
X14735706Y-16210841D02*
X14735706Y-16172746D01*
X14735706Y-16172746D02*
X14726182Y-16125127D01*
X14726182Y-16125127D02*
X14716658Y-16096555D01*
X14716658Y-16096555D02*
X14707134Y-16077508D01*
X14707134Y-16077508D02*
X14688087Y-16048936D01*
X14688087Y-16048936D02*
X14678563Y-16039412D01*
D14*
X9743500Y-16360500D02*
X9903500Y-16520500D01*
X9903500Y-16360500D02*
X9743500Y-16520500D01*
X9903500Y-16440500D02*
G75*
G02*
X9743500Y-16440500I-80000J0D01*
G01*
X9743500Y-16440500D02*
G75*
G02*
X9903500Y-16440500I80000J0D01*
G01*
D11*
X10269039Y-16531984D02*
X10154753Y-16531984D01*
X10211896Y-16531984D02*
X10211896Y-16331984D01*
X10211896Y-16331984D02*
X10192848Y-16360555D01*
X10192848Y-16360555D02*
X10173801Y-16379603D01*
X10173801Y-16379603D02*
X10154753Y-16389127D01*
X10354753Y-16512936D02*
X10364277Y-16522460D01*
X10364277Y-16522460D02*
X10354753Y-16531984D01*
X10354753Y-16531984D02*
X10345229Y-16522460D01*
X10345229Y-16522460D02*
X10354753Y-16512936D01*
X10354753Y-16512936D02*
X10354753Y-16531984D01*
X10535705Y-16331984D02*
X10497610Y-16331984D01*
X10497610Y-16331984D02*
X10478563Y-16341508D01*
X10478563Y-16341508D02*
X10469039Y-16351031D01*
X10469039Y-16351031D02*
X10449991Y-16379603D01*
X10449991Y-16379603D02*
X10440467Y-16417698D01*
X10440467Y-16417698D02*
X10440467Y-16493888D01*
X10440467Y-16493888D02*
X10449991Y-16512936D01*
X10449991Y-16512936D02*
X10459515Y-16522460D01*
X10459515Y-16522460D02*
X10478563Y-16531984D01*
X10478563Y-16531984D02*
X10516658Y-16531984D01*
X10516658Y-16531984D02*
X10535705Y-16522460D01*
X10535705Y-16522460D02*
X10545229Y-16512936D01*
X10545229Y-16512936D02*
X10554753Y-16493888D01*
X10554753Y-16493888D02*
X10554753Y-16446269D01*
X10554753Y-16446269D02*
X10545229Y-16427222D01*
X10545229Y-16427222D02*
X10535705Y-16417698D01*
X10535705Y-16417698D02*
X10516658Y-16408174D01*
X10516658Y-16408174D02*
X10478563Y-16408174D01*
X10478563Y-16408174D02*
X10459515Y-16417698D01*
X10459515Y-16417698D02*
X10449991Y-16427222D01*
X10449991Y-16427222D02*
X10440467Y-16446269D01*
X10678563Y-16331984D02*
X10697610Y-16331984D01*
X10697610Y-16331984D02*
X10716658Y-16341508D01*
X10716658Y-16341508D02*
X10726182Y-16351031D01*
X10726182Y-16351031D02*
X10735705Y-16370079D01*
X10735705Y-16370079D02*
X10745229Y-16408174D01*
X10745229Y-16408174D02*
X10745229Y-16455793D01*
X10745229Y-16455793D02*
X10735705Y-16493888D01*
X10735705Y-16493888D02*
X10726182Y-16512936D01*
X10726182Y-16512936D02*
X10716658Y-16522460D01*
X10716658Y-16522460D02*
X10697610Y-16531984D01*
X10697610Y-16531984D02*
X10678563Y-16531984D01*
X10678563Y-16531984D02*
X10659515Y-16522460D01*
X10659515Y-16522460D02*
X10649991Y-16512936D01*
X10649991Y-16512936D02*
X10640467Y-16493888D01*
X10640467Y-16493888D02*
X10630944Y-16455793D01*
X10630944Y-16455793D02*
X10630944Y-16408174D01*
X10630944Y-16408174D02*
X10640467Y-16370079D01*
X10640467Y-16370079D02*
X10649991Y-16351031D01*
X10649991Y-16351031D02*
X10659515Y-16341508D01*
X10659515Y-16341508D02*
X10678563Y-16331984D01*
X10869039Y-16331984D02*
X10888086Y-16331984D01*
X10888086Y-16331984D02*
X10907134Y-16341508D01*
X10907134Y-16341508D02*
X10916658Y-16351031D01*
X10916658Y-16351031D02*
X10926182Y-16370079D01*
X10926182Y-16370079D02*
X10935705Y-16408174D01*
X10935705Y-16408174D02*
X10935705Y-16455793D01*
X10935705Y-16455793D02*
X10926182Y-16493888D01*
X10926182Y-16493888D02*
X10916658Y-16512936D01*
X10916658Y-16512936D02*
X10907134Y-16522460D01*
X10907134Y-16522460D02*
X10888086Y-16531984D01*
X10888086Y-16531984D02*
X10869039Y-16531984D01*
X10869039Y-16531984D02*
X10849991Y-16522460D01*
X10849991Y-16522460D02*
X10840467Y-16512936D01*
X10840467Y-16512936D02*
X10830944Y-16493888D01*
X10830944Y-16493888D02*
X10821420Y-16455793D01*
X10821420Y-16455793D02*
X10821420Y-16408174D01*
X10821420Y-16408174D02*
X10830944Y-16370079D01*
X10830944Y-16370079D02*
X10840467Y-16351031D01*
X10840467Y-16351031D02*
X10849991Y-16341508D01*
X10849991Y-16341508D02*
X10869039Y-16331984D01*
X11021420Y-16531984D02*
X11021420Y-16398650D01*
X11021420Y-16417698D02*
X11030944Y-16408174D01*
X11030944Y-16408174D02*
X11049991Y-16398650D01*
X11049991Y-16398650D02*
X11078563Y-16398650D01*
X11078563Y-16398650D02*
X11097610Y-16408174D01*
X11097610Y-16408174D02*
X11107134Y-16427222D01*
X11107134Y-16427222D02*
X11107134Y-16531984D01*
X11107134Y-16427222D02*
X11116658Y-16408174D01*
X11116658Y-16408174D02*
X11135705Y-16398650D01*
X11135705Y-16398650D02*
X11164277Y-16398650D01*
X11164277Y-16398650D02*
X11183325Y-16408174D01*
X11183325Y-16408174D02*
X11192848Y-16427222D01*
X11192848Y-16427222D02*
X11192848Y-16531984D01*
X11288086Y-16531984D02*
X11288086Y-16398650D01*
X11288086Y-16417698D02*
X11297610Y-16408174D01*
X11297610Y-16408174D02*
X11316658Y-16398650D01*
X11316658Y-16398650D02*
X11345229Y-16398650D01*
X11345229Y-16398650D02*
X11364277Y-16408174D01*
X11364277Y-16408174D02*
X11373801Y-16427222D01*
X11373801Y-16427222D02*
X11373801Y-16531984D01*
X11373801Y-16427222D02*
X11383324Y-16408174D01*
X11383324Y-16408174D02*
X11402372Y-16398650D01*
X11402372Y-16398650D02*
X11430943Y-16398650D01*
X11430943Y-16398650D02*
X11449991Y-16408174D01*
X11449991Y-16408174D02*
X11459515Y-16427222D01*
X11459515Y-16427222D02*
X11459515Y-16531984D01*
X11849991Y-16322460D02*
X11678563Y-16579603D01*
X12107134Y-16331984D02*
X12126182Y-16331984D01*
X12126182Y-16331984D02*
X12145229Y-16341508D01*
X12145229Y-16341508D02*
X12154753Y-16351031D01*
X12154753Y-16351031D02*
X12164277Y-16370079D01*
X12164277Y-16370079D02*
X12173801Y-16408174D01*
X12173801Y-16408174D02*
X12173801Y-16455793D01*
X12173801Y-16455793D02*
X12164277Y-16493888D01*
X12164277Y-16493888D02*
X12154753Y-16512936D01*
X12154753Y-16512936D02*
X12145229Y-16522460D01*
X12145229Y-16522460D02*
X12126182Y-16531984D01*
X12126182Y-16531984D02*
X12107134Y-16531984D01*
X12107134Y-16531984D02*
X12088086Y-16522460D01*
X12088086Y-16522460D02*
X12078563Y-16512936D01*
X12078563Y-16512936D02*
X12069039Y-16493888D01*
X12069039Y-16493888D02*
X12059515Y-16455793D01*
X12059515Y-16455793D02*
X12059515Y-16408174D01*
X12059515Y-16408174D02*
X12069039Y-16370079D01*
X12069039Y-16370079D02*
X12078563Y-16351031D01*
X12078563Y-16351031D02*
X12088086Y-16341508D01*
X12088086Y-16341508D02*
X12107134Y-16331984D01*
X12259515Y-16512936D02*
X12269039Y-16522460D01*
X12269039Y-16522460D02*
X12259515Y-16531984D01*
X12259515Y-16531984D02*
X12249991Y-16522460D01*
X12249991Y-16522460D02*
X12259515Y-16512936D01*
X12259515Y-16512936D02*
X12259515Y-16531984D01*
X12392848Y-16331984D02*
X12411896Y-16331984D01*
X12411896Y-16331984D02*
X12430944Y-16341508D01*
X12430944Y-16341508D02*
X12440467Y-16351031D01*
X12440467Y-16351031D02*
X12449991Y-16370079D01*
X12449991Y-16370079D02*
X12459515Y-16408174D01*
X12459515Y-16408174D02*
X12459515Y-16455793D01*
X12459515Y-16455793D02*
X12449991Y-16493888D01*
X12449991Y-16493888D02*
X12440467Y-16512936D01*
X12440467Y-16512936D02*
X12430944Y-16522460D01*
X12430944Y-16522460D02*
X12411896Y-16531984D01*
X12411896Y-16531984D02*
X12392848Y-16531984D01*
X12392848Y-16531984D02*
X12373801Y-16522460D01*
X12373801Y-16522460D02*
X12364277Y-16512936D01*
X12364277Y-16512936D02*
X12354753Y-16493888D01*
X12354753Y-16493888D02*
X12345229Y-16455793D01*
X12345229Y-16455793D02*
X12345229Y-16408174D01*
X12345229Y-16408174D02*
X12354753Y-16370079D01*
X12354753Y-16370079D02*
X12364277Y-16351031D01*
X12364277Y-16351031D02*
X12373801Y-16341508D01*
X12373801Y-16341508D02*
X12392848Y-16331984D01*
X12630944Y-16331984D02*
X12592848Y-16331984D01*
X12592848Y-16331984D02*
X12573801Y-16341508D01*
X12573801Y-16341508D02*
X12564277Y-16351031D01*
X12564277Y-16351031D02*
X12545229Y-16379603D01*
X12545229Y-16379603D02*
X12535706Y-16417698D01*
X12535706Y-16417698D02*
X12535706Y-16493888D01*
X12535706Y-16493888D02*
X12545229Y-16512936D01*
X12545229Y-16512936D02*
X12554753Y-16522460D01*
X12554753Y-16522460D02*
X12573801Y-16531984D01*
X12573801Y-16531984D02*
X12611896Y-16531984D01*
X12611896Y-16531984D02*
X12630944Y-16522460D01*
X12630944Y-16522460D02*
X12640467Y-16512936D01*
X12640467Y-16512936D02*
X12649991Y-16493888D01*
X12649991Y-16493888D02*
X12649991Y-16446269D01*
X12649991Y-16446269D02*
X12640467Y-16427222D01*
X12640467Y-16427222D02*
X12630944Y-16417698D01*
X12630944Y-16417698D02*
X12611896Y-16408174D01*
X12611896Y-16408174D02*
X12573801Y-16408174D01*
X12573801Y-16408174D02*
X12554753Y-16417698D01*
X12554753Y-16417698D02*
X12545229Y-16427222D01*
X12545229Y-16427222D02*
X12535706Y-16446269D01*
X12716658Y-16331984D02*
X12840467Y-16331984D01*
X12840467Y-16331984D02*
X12773801Y-16408174D01*
X12773801Y-16408174D02*
X12802372Y-16408174D01*
X12802372Y-16408174D02*
X12821420Y-16417698D01*
X12821420Y-16417698D02*
X12830944Y-16427222D01*
X12830944Y-16427222D02*
X12840467Y-16446269D01*
X12840467Y-16446269D02*
X12840467Y-16493888D01*
X12840467Y-16493888D02*
X12830944Y-16512936D01*
X12830944Y-16512936D02*
X12821420Y-16522460D01*
X12821420Y-16522460D02*
X12802372Y-16531984D01*
X12802372Y-16531984D02*
X12745229Y-16531984D01*
X12745229Y-16531984D02*
X12726182Y-16522460D01*
X12726182Y-16522460D02*
X12716658Y-16512936D01*
X12964277Y-16331984D02*
X12983325Y-16331984D01*
X12983325Y-16331984D02*
X13002372Y-16341508D01*
X13002372Y-16341508D02*
X13011896Y-16351031D01*
X13011896Y-16351031D02*
X13021420Y-16370079D01*
X13021420Y-16370079D02*
X13030944Y-16408174D01*
X13030944Y-16408174D02*
X13030944Y-16455793D01*
X13030944Y-16455793D02*
X13021420Y-16493888D01*
X13021420Y-16493888D02*
X13011896Y-16512936D01*
X13011896Y-16512936D02*
X13002372Y-16522460D01*
X13002372Y-16522460D02*
X12983325Y-16531984D01*
X12983325Y-16531984D02*
X12964277Y-16531984D01*
X12964277Y-16531984D02*
X12945229Y-16522460D01*
X12945229Y-16522460D02*
X12935706Y-16512936D01*
X12935706Y-16512936D02*
X12926182Y-16493888D01*
X12926182Y-16493888D02*
X12916658Y-16455793D01*
X12916658Y-16455793D02*
X12916658Y-16408174D01*
X12916658Y-16408174D02*
X12926182Y-16370079D01*
X12926182Y-16370079D02*
X12935706Y-16351031D01*
X12935706Y-16351031D02*
X12945229Y-16341508D01*
X12945229Y-16341508D02*
X12964277Y-16331984D01*
X13107134Y-16331984D02*
X13107134Y-16370079D01*
X13183325Y-16331984D02*
X13183325Y-16370079D01*
X13478563Y-16608174D02*
X13469039Y-16598650D01*
X13469039Y-16598650D02*
X13449991Y-16570079D01*
X13449991Y-16570079D02*
X13440468Y-16551031D01*
X13440468Y-16551031D02*
X13430944Y-16522460D01*
X13430944Y-16522460D02*
X13421420Y-16474841D01*
X13421420Y-16474841D02*
X13421420Y-16436746D01*
X13421420Y-16436746D02*
X13430944Y-16389127D01*
X13430944Y-16389127D02*
X13440468Y-16360555D01*
X13440468Y-16360555D02*
X13449991Y-16341508D01*
X13449991Y-16341508D02*
X13469039Y-16312936D01*
X13469039Y-16312936D02*
X13478563Y-16303412D01*
X13535706Y-16331984D02*
X13659515Y-16331984D01*
X13659515Y-16331984D02*
X13592848Y-16408174D01*
X13592848Y-16408174D02*
X13621420Y-16408174D01*
X13621420Y-16408174D02*
X13640468Y-16417698D01*
X13640468Y-16417698D02*
X13649991Y-16427222D01*
X13649991Y-16427222D02*
X13659515Y-16446269D01*
X13659515Y-16446269D02*
X13659515Y-16493888D01*
X13659515Y-16493888D02*
X13649991Y-16512936D01*
X13649991Y-16512936D02*
X13640468Y-16522460D01*
X13640468Y-16522460D02*
X13621420Y-16531984D01*
X13621420Y-16531984D02*
X13564277Y-16531984D01*
X13564277Y-16531984D02*
X13545229Y-16522460D01*
X13545229Y-16522460D02*
X13535706Y-16512936D01*
X13897610Y-16531984D02*
X13897610Y-16331984D01*
X13983325Y-16531984D02*
X13983325Y-16427222D01*
X13983325Y-16427222D02*
X13973801Y-16408174D01*
X13973801Y-16408174D02*
X13954753Y-16398650D01*
X13954753Y-16398650D02*
X13926182Y-16398650D01*
X13926182Y-16398650D02*
X13907134Y-16408174D01*
X13907134Y-16408174D02*
X13897610Y-16417698D01*
X14107134Y-16531984D02*
X14088087Y-16522460D01*
X14088087Y-16522460D02*
X14078563Y-16512936D01*
X14078563Y-16512936D02*
X14069039Y-16493888D01*
X14069039Y-16493888D02*
X14069039Y-16436746D01*
X14069039Y-16436746D02*
X14078563Y-16417698D01*
X14078563Y-16417698D02*
X14088087Y-16408174D01*
X14088087Y-16408174D02*
X14107134Y-16398650D01*
X14107134Y-16398650D02*
X14135706Y-16398650D01*
X14135706Y-16398650D02*
X14154753Y-16408174D01*
X14154753Y-16408174D02*
X14164277Y-16417698D01*
X14164277Y-16417698D02*
X14173801Y-16436746D01*
X14173801Y-16436746D02*
X14173801Y-16493888D01*
X14173801Y-16493888D02*
X14164277Y-16512936D01*
X14164277Y-16512936D02*
X14154753Y-16522460D01*
X14154753Y-16522460D02*
X14135706Y-16531984D01*
X14135706Y-16531984D02*
X14107134Y-16531984D01*
X14288087Y-16531984D02*
X14269039Y-16522460D01*
X14269039Y-16522460D02*
X14259515Y-16503412D01*
X14259515Y-16503412D02*
X14259515Y-16331984D01*
X14440468Y-16522460D02*
X14421420Y-16531984D01*
X14421420Y-16531984D02*
X14383325Y-16531984D01*
X14383325Y-16531984D02*
X14364277Y-16522460D01*
X14364277Y-16522460D02*
X14354753Y-16503412D01*
X14354753Y-16503412D02*
X14354753Y-16427222D01*
X14354753Y-16427222D02*
X14364277Y-16408174D01*
X14364277Y-16408174D02*
X14383325Y-16398650D01*
X14383325Y-16398650D02*
X14421420Y-16398650D01*
X14421420Y-16398650D02*
X14440468Y-16408174D01*
X14440468Y-16408174D02*
X14449991Y-16427222D01*
X14449991Y-16427222D02*
X14449991Y-16446269D01*
X14449991Y-16446269D02*
X14354753Y-16465317D01*
X14526182Y-16522460D02*
X14545230Y-16531984D01*
X14545230Y-16531984D02*
X14583325Y-16531984D01*
X14583325Y-16531984D02*
X14602372Y-16522460D01*
X14602372Y-16522460D02*
X14611896Y-16503412D01*
X14611896Y-16503412D02*
X14611896Y-16493888D01*
X14611896Y-16493888D02*
X14602372Y-16474841D01*
X14602372Y-16474841D02*
X14583325Y-16465317D01*
X14583325Y-16465317D02*
X14554753Y-16465317D01*
X14554753Y-16465317D02*
X14535706Y-16455793D01*
X14535706Y-16455793D02*
X14526182Y-16436746D01*
X14526182Y-16436746D02*
X14526182Y-16427222D01*
X14526182Y-16427222D02*
X14535706Y-16408174D01*
X14535706Y-16408174D02*
X14554753Y-16398650D01*
X14554753Y-16398650D02*
X14583325Y-16398650D01*
X14583325Y-16398650D02*
X14602372Y-16408174D01*
X14678563Y-16608174D02*
X14688087Y-16598650D01*
X14688087Y-16598650D02*
X14707134Y-16570079D01*
X14707134Y-16570079D02*
X14716658Y-16551031D01*
X14716658Y-16551031D02*
X14726182Y-16522460D01*
X14726182Y-16522460D02*
X14735706Y-16474841D01*
X14735706Y-16474841D02*
X14735706Y-16436746D01*
X14735706Y-16436746D02*
X14726182Y-16389127D01*
X14726182Y-16389127D02*
X14716658Y-16360555D01*
X14716658Y-16360555D02*
X14707134Y-16341508D01*
X14707134Y-16341508D02*
X14688087Y-16312936D01*
X14688087Y-16312936D02*
X14678563Y-16303412D01*
M02*
