%TF.GenerationSoftware,KiCad,Pcbnew,9.0.4*%
%TF.CreationDate,2025-11-08T13:29:43-07:00*%
%TF.ProjectId,egr304-subsystem schematic design-sb,65677233-3034-42d7-9375-627379737465,rev?*%
%TF.SameCoordinates,Original*%
%TF.FileFunction,Plated,1,2,PTH,Mixed*%
%TF.FilePolarity,Positive*%
%FSLAX46Y46*%
G04 Gerber Fmt 4.6, Leading zero omitted, Abs format (unit mm)*
G04 Created by KiCad (PCBNEW 9.0.4) date 2025-11-08 13:29:43*
%MOMM*%
%LPD*%
G01*
G04 APERTURE LIST*
%TA.AperFunction,ComponentDrill*%
%ADD10C,0.800000*%
%TD*%
%TA.AperFunction,ComponentDrill*%
%ADD11C,0.900000*%
%TD*%
%TA.AperFunction,ComponentDrill*%
%ADD12C,1.000000*%
%TD*%
G04 aperture for slot hole*
%TA.AperFunction,ComponentDrill*%
%ADD13C,1.000000*%
%TD*%
%TA.AperFunction,ComponentDrill*%
%ADD14C,1.010000*%
%TD*%
%TA.AperFunction,ComponentDrill*%
%ADD15C,1.600000*%
%TD*%
G04 APERTURE END LIST*
D10*
%TO.C,R10*%
X127000000Y-119380000D03*
X127000000Y-132080000D03*
%TO.C,C3*%
X127080000Y-71120000D03*
X132080000Y-71120000D03*
%TO.C,R9*%
X134620000Y-119380000D03*
X134620000Y-132080000D03*
%TO.C,C4*%
X137160000Y-71200000D03*
X137160000Y-76200000D03*
%TO.C,R8*%
X139700000Y-119380000D03*
X139700000Y-132080000D03*
%TO.C,R14*%
X144780000Y-68580000D03*
X144780000Y-81280000D03*
%TO.C,C1*%
X152400000Y-71120000D03*
X152400000Y-76120000D03*
%TO.C,C5*%
X165180000Y-132080000D03*
%TO.C,C6*%
X165180000Y-139700000D03*
%TO.C,C5*%
X170180000Y-132080000D03*
%TO.C,C6*%
X170180000Y-139700000D03*
%TO.C,R2*%
X175260000Y-110490000D03*
X175260000Y-123190000D03*
%TO.C,R11*%
X190500000Y-99060000D03*
X190500000Y-111760000D03*
D11*
%TO.C,D1*%
X182880000Y-111760000D03*
X185420000Y-111760000D03*
D12*
%TO.C,curiosityNano(pic18f57q43)-SB1*%
X116840000Y-91440000D03*
X116840000Y-106370000D03*
X119380000Y-91440000D03*
X119380000Y-106370000D03*
X121920000Y-91440000D03*
X121920000Y-106370000D03*
X124460000Y-91440000D03*
X124460000Y-106370000D03*
%TO.C,J16*%
X127000000Y-58420000D03*
%TO.C,J15*%
X127000000Y-78740000D03*
%TO.C,curiosityNano(pic18f57q43)-SB1*%
X127000000Y-91440000D03*
X127000000Y-106370000D03*
X129540000Y-91440000D03*
X129540000Y-106370000D03*
%TO.C,J21*%
X132080000Y-86360000D03*
%TO.C,curiosityNano(pic18f57q43)-SB1*%
X132080000Y-91440000D03*
X132080000Y-106370000D03*
%TO.C,J19*%
X132080000Y-111760000D03*
%TO.C,curiosityNano(pic18f57q43)-SB1*%
X134620000Y-91440000D03*
X134620000Y-106370000D03*
%TO.C,U2*%
X137160000Y-60960000D03*
X137160000Y-63500000D03*
X137160000Y-66040000D03*
%TO.C,J22*%
X137160000Y-86360000D03*
%TO.C,curiosityNano(pic18f57q43)-SB1*%
X137160000Y-91440000D03*
X137160000Y-106370000D03*
%TO.C,J18*%
X137160000Y-111760000D03*
%TO.C,J6*%
X139500000Y-81280000D03*
%TO.C,curiosityNano(pic18f57q43)-SB1*%
X139700000Y-91440000D03*
X139700000Y-106370000D03*
%TO.C,J20*%
X142240000Y-86360000D03*
%TO.C,curiosityNano(pic18f57q43)-SB1*%
X142240000Y-91440000D03*
X142240000Y-106370000D03*
%TO.C,J23*%
X142240000Y-111760000D03*
%TO.C,SW3*%
X143060000Y-119670000D03*
X143060000Y-124170000D03*
%TO.C,J1*%
X144780000Y-63500000D03*
%TO.C,curiosityNano(pic18f57q43)-SB1*%
X144780000Y-91440000D03*
X144780000Y-106370000D03*
X147320000Y-91440000D03*
X147320000Y-106370000D03*
X149860000Y-91440000D03*
X149860000Y-106370000D03*
%TO.C,SW3*%
X149860000Y-119670000D03*
X149860000Y-124170000D03*
%TO.C,curiosityNano(pic18f57q43)-SB1*%
X152400000Y-91440000D03*
X152400000Y-106370000D03*
%TO.C,J12*%
X152400000Y-111760000D03*
%TO.C,SW2*%
X153220000Y-119670000D03*
X153220000Y-124170000D03*
%TO.C,curiosityNano(pic18f57q43)-SB1*%
X154940000Y-91440000D03*
X154940000Y-106370000D03*
X157480000Y-91440000D03*
X157480000Y-106370000D03*
X160020000Y-91440000D03*
X160020000Y-106370000D03*
%TO.C,SW2*%
X160020000Y-119670000D03*
X160020000Y-124170000D03*
%TO.C,M1*%
X160020000Y-132180000D03*
X160020000Y-139700000D03*
%TO.C,J11*%
X162560000Y-60960000D03*
X162560000Y-63500000D03*
X162560000Y-66040000D03*
X162560000Y-68580000D03*
X162560000Y-71120000D03*
X162560000Y-73660000D03*
X162560000Y-76200000D03*
X162560000Y-78740000D03*
%TO.C,curiosityNano(pic18f57q43)-SB1*%
X162560000Y-91440000D03*
X162560000Y-106370000D03*
%TO.C,SW4*%
X164240000Y-121920000D03*
X164240000Y-126420000D03*
%TO.C,curiosityNano(pic18f57q43)-SB1*%
X165100000Y-91440000D03*
X165100000Y-106370000D03*
%TO.C,J13*%
X165100000Y-116840000D03*
%TO.C,curiosityNano(pic18f57q43)-SB1*%
X167640000Y-91440000D03*
X167640000Y-106370000D03*
%TO.C,J14*%
X167640000Y-111760000D03*
%TO.C,J4*%
X170180000Y-60960000D03*
X170180000Y-63500000D03*
X170180000Y-66040000D03*
X170180000Y-68580000D03*
X170180000Y-71120000D03*
X170180000Y-73660000D03*
X170180000Y-76200000D03*
X170180000Y-78740000D03*
%TO.C,curiosityNano(pic18f57q43)-SB1*%
X170180000Y-91440000D03*
X170180000Y-106370000D03*
%TO.C,SW4*%
X171040000Y-121920000D03*
X171040000Y-126420000D03*
%TO.C,curiosityNano(pic18f57q43)-SB1*%
X172720000Y-91440000D03*
X172720000Y-106370000D03*
%TO.C,U1*%
X174840000Y-132180000D03*
X174840000Y-139700000D03*
%TO.C,curiosityNano(pic18f57q43)-SB1*%
X175260000Y-91440000D03*
X175260000Y-106370000D03*
%TO.C,U1*%
X177380000Y-132180000D03*
X177380000Y-139700000D03*
%TO.C,J10*%
X177800000Y-60960000D03*
X177800000Y-63500000D03*
X177800000Y-66040000D03*
X177800000Y-68580000D03*
X177800000Y-71120000D03*
X177800000Y-73660000D03*
X177800000Y-76200000D03*
X177800000Y-78740000D03*
%TO.C,curiosityNano(pic18f57q43)-SB1*%
X177800000Y-91440000D03*
X177800000Y-106370000D03*
%TO.C,U1*%
X179920000Y-132180000D03*
X179920000Y-139700000D03*
%TO.C,curiosityNano(pic18f57q43)-SB1*%
X180340000Y-91440000D03*
X180340000Y-106370000D03*
X182880000Y-91440000D03*
X182880000Y-106370000D03*
%TO.C,SW5*%
X183170000Y-115980000D03*
X183170000Y-122780000D03*
D13*
%TO.C,U1*%
X182520000Y-132180000D02*
X185320000Y-132180000D01*
X182520000Y-139700000D02*
X185320000Y-139700000D01*
D12*
%TO.C,curiosityNano(pic18f57q43)-SB1*%
X185420000Y-91440000D03*
X185420000Y-106370000D03*
%TO.C,SW5*%
X187670000Y-115980000D03*
X187670000Y-122780000D03*
%TO.C,U1*%
X187960000Y-132180000D03*
X187960000Y-139700000D03*
X190500000Y-132180000D03*
X190500000Y-139700000D03*
X193040000Y-132180000D03*
X193040000Y-139700000D03*
D14*
%TO.C,F1*%
X126980000Y-63920000D03*
X132080000Y-65120000D03*
D15*
%TO.C,J2*%
X116840000Y-68580000D03*
X119840000Y-73280000D03*
X122840000Y-68580000D03*
M02*
