<?xml version="1.0" standalone="no"?>
 <!DOCTYPE svg PUBLIC "-//W3C//DTD SVG 1.1//EN" 
 "http://www.w3.org/Graphics/SVG/1.1/DTD/svg11.dtd"> 
<svg
  xmlns:svg="http://www.w3.org/2000/svg"
  xmlns="http://www.w3.org/2000/svg"
  xmlns:xlink="http://www.w3.org/1999/xlink"
  version="1.1"
  width="297.0022mm" height="210.0072mm" viewBox="0.0000 0.0000 297.0022 210.0072">
<title>SVG Image created as egr304-subsystem schematic design-sb-B_Silkscreen.svg date 2025/11/12 17:59:15 </title>
  <desc>Image generated by PCBNEW </desc>
<g style="fill:#000000; fill-opacity:1.0000;stroke:#000000; stroke-opacity:1.0000;
stroke-linecap:round; stroke-linejoin:round;"
 transform="translate(0 0) scale(1 1)">
</g>
<g style="fill:none; 
stroke:#000000; stroke-width:0.1500; stroke-opacity:1; 
stroke-linecap:round; stroke-linejoin:round;">
<g transform="rotate(-90.000000 195.4400 135.9400)">
<text x="195.4400" y="136.4400"
transform="scale(-1 1) translate(-390.880000 0)"
textLength="2.2500" font-size="1.3333" lengthAdjust="spacingAndGlyphs"
text-anchor="middle" opacity="0" stroke-opacity="0">U1</text>
</g>
<g class="stroked-text"><desc>U1</desc>
<path d="M194.8948 135.1781
L195.7043 135.1781
" />
<path d="M195.7043 135.1781
L195.7996 135.2257
" />
<path d="M195.7996 135.2257
L195.8472 135.2733
" />
<path d="M195.8472 135.2733
L195.8948 135.3686
" />
<path d="M195.8948 135.3686
L195.8948 135.5590
" />
<path d="M195.8948 135.5590
L195.8472 135.6543
" />
<path d="M195.8472 135.6543
L195.7996 135.7019
" />
<path d="M195.7996 135.7019
L195.7043 135.7495
" />
<path d="M195.7043 135.7495
L194.8948 135.7495
" />
<path d="M195.8948 136.7495
L195.8948 136.1781
" />
<path d="M195.8948 136.4638
L194.8948 136.4638
" />
<path d="M194.8948 136.4638
L195.0377 136.3686
" />
<path d="M195.0377 136.3686
L195.1329 136.2733
" />
<path d="M195.1329 136.2733
L195.1805 136.1781
" />
</g></g>
<g style="fill:none; 
stroke:#000000; stroke-width:0.1200; stroke-opacity:1; 
stroke-linecap:round; stroke-linejoin:round;">
<path d="M158.6200 130.7800
L161.4200 130.7800
" />
<path d="M158.6200 134.2200
L158.6200 130.7800
" />
<path d="M158.6200 137.6600
L158.9800 137.6600
" />
<path d="M158.6200 141.1000
L158.6200 137.6600
" />
<path d="M158.9800 134.2200
L158.6200 134.2200
" />
<path d="M158.9800 137.6600
L158.9800 134.2200
" />
<path d="M161.4200 130.7800
L161.4200 141.1000
" />
<path d="M161.4200 141.1000
L158.6200 141.1000
" />
<path d="M173.4200 130.7800
L194.4400 130.7800
" />
<path d="M173.4200 141.1000
L173.4200 130.7800
" />
<path d="M194.0800 134.2200
L194.0800 137.6600
" />
<path d="M194.0800 137.6600
L194.4400 137.6600
" />
<path d="M194.4400 130.7800
L194.4400 134.2200
" />
<path d="M194.4400 134.2200
L194.0800 134.2200
" />
<path d="M194.4400 137.6600
L194.4400 141.1000
" />
<path d="M194.4400 141.1000
L173.4200 141.1000
" />
<path style="fill:none; 
stroke:#000000; stroke-width:0.0500; stroke-opacity:1; 
stroke-linecap:round; stroke-linejoin:round;fill:none"
d="M 99.0600,53.3400
198.1200,53.3400
198.1200,144.7800
99.0600,144.7800
Z" /> 
</g> 
</svg>
