<?xml version="1.0" standalone="no"?>
 <!DOCTYPE svg PUBLIC "-//W3C//DTD SVG 1.1//EN" 
 "http://www.w3.org/Graphics/SVG/1.1/DTD/svg11.dtd"> 
<svg
  xmlns:svg="http://www.w3.org/2000/svg"
  xmlns="http://www.w3.org/2000/svg"
  xmlns:xlink="http://www.w3.org/1999/xlink"
  version="1.1"
  width="297.0022mm" height="210.0072mm" viewBox="0.0000 0.0000 297.0022 210.0072">
<title>SVG Image created as egr304-subsystem schematic design-sb-F_Silkscreen.svg date 2025/11/08 13:29:46 </title>
  <desc>Image generated by PCBNEW </desc>
<g style="fill:#000000; fill-opacity:1.0000;stroke:#000000; stroke-opacity:1.0000;
stroke-linecap:round; stroke-linejoin:round;"
 transform="translate(0 0) scale(1 1)">
</g>
<g style="fill:none; 
stroke:#000000; stroke-width:0.1500; stroke-opacity:1; 
stroke-linecap:round; stroke-linejoin:round;">
<text x="147.3200" y="64.0000"
textLength="1.9643" font-size="1.3333" lengthAdjust="spacingAndGlyphs"
text-anchor="middle" opacity="0" stroke-opacity="0">J1</text>
<g class="stroked-text"><desc>J1</desc>
<path d="M146.9867 62.9548
L146.9867 63.6691
" />
<path d="M146.9867 63.6691
L146.9390 63.8120
" />
<path d="M146.9390 63.8120
L146.8438 63.9072
" />
<path d="M146.8438 63.9072
L146.7010 63.9548
" />
<path d="M146.7010 63.9548
L146.6057 63.9548
" />
<path d="M147.9867 63.9548
L147.4152 63.9548
" />
<path d="M147.7010 63.9548
L147.7010 62.9548
" />
<path d="M147.7010 62.9548
L147.6057 63.0977
" />
<path d="M147.6057 63.0977
L147.5105 63.1929
" />
<path d="M147.5105 63.1929
L147.4152 63.2405
" />
</g><g transform="rotate(-90.000000 139.7000 63.5000)">
<text x="139.7000" y="64.0000"
textLength="2.2500" font-size="1.3333" lengthAdjust="spacingAndGlyphs"
text-anchor="middle" opacity="0" stroke-opacity="0">U2</text>
</g>
<g class="stroked-text"><desc>U2</desc>
<path d="M139.1548 64.2619
L139.9643 64.2619
" />
<path d="M139.9643 64.2619
L140.0596 64.2143
" />
<path d="M140.0596 64.2143
L140.1072 64.1667
" />
<path d="M140.1072 64.1667
L140.1548 64.0714
" />
<path d="M140.1548 64.0714
L140.1548 63.8810
" />
<path d="M140.1548 63.8810
L140.1072 63.7857
" />
<path d="M140.1072 63.7857
L140.0596 63.7381
" />
<path d="M140.0596 63.7381
L139.9643 63.6905
" />
<path d="M139.9643 63.6905
L139.1548 63.6905
" />
<path d="M139.2501 63.2619
L139.2024 63.2143
" />
<path d="M139.2024 63.2143
L139.1548 63.1190
" />
<path d="M139.1548 63.1190
L139.1548 62.8810
" />
<path d="M139.1548 62.8810
L139.2024 62.7857
" />
<path d="M139.2024 62.7857
L139.2501 62.7381
" />
<path d="M139.2501 62.7381
L139.3453 62.6905
" />
<path d="M139.3453 62.6905
L139.4405 62.6905
" />
<path d="M139.4405 62.6905
L139.5834 62.7381
" />
<path d="M139.5834 62.7381
L140.1548 63.3095
" />
<path d="M140.1548 63.3095
L140.1548 62.6905
" />
</g><text x="142.2400" y="84.0900"
textLength="2.9167" font-size="1.3333" lengthAdjust="spacingAndGlyphs"
text-anchor="middle" opacity="0" stroke-opacity="0">J20</text>
<g class="stroked-text"><desc>J20</desc>
<path d="M141.4305 83.0448
L141.4305 83.7591
" />
<path d="M141.4305 83.7591
L141.3829 83.9020
" />
<path d="M141.3829 83.9020
L141.2876 83.9972
" />
<path d="M141.2876 83.9972
L141.1448 84.0448
" />
<path d="M141.1448 84.0448
L141.0495 84.0448
" />
<path d="M141.8590 83.1401
L141.9067 83.0924
" />
<path d="M141.9067 83.0924
L142.0019 83.0448
" />
<path d="M142.0019 83.0448
L142.2400 83.0448
" />
<path d="M142.2400 83.0448
L142.3352 83.0924
" />
<path d="M142.3352 83.0924
L142.3829 83.1401
" />
<path d="M142.3829 83.1401
L142.4305 83.2353
" />
<path d="M142.4305 83.2353
L142.4305 83.3305
" />
<path d="M142.4305 83.3305
L142.3829 83.4734
" />
<path d="M142.3829 83.4734
L141.8114 84.0448
" />
<path d="M141.8114 84.0448
L142.4305 84.0448
" />
<path d="M143.0495 83.0448
L143.1448 83.0448
" />
<path d="M143.1448 83.0448
L143.2400 83.0924
" />
<path d="M143.2400 83.0924
L143.2876 83.1401
" />
<path d="M143.2876 83.1401
L143.3352 83.2353
" />
<path d="M143.3352 83.2353
L143.3829 83.4258
" />
<path d="M143.3829 83.4258
L143.3829 83.6639
" />
<path d="M143.3829 83.6639
L143.3352 83.8543
" />
<path d="M143.3352 83.8543
L143.2876 83.9496
" />
<path d="M143.2876 83.9496
L143.2400 83.9972
" />
<path d="M143.2400 83.9972
L143.1448 84.0448
" />
<path d="M143.1448 84.0448
L143.0495 84.0448
" />
<path d="M143.0495 84.0448
L142.9543 83.9972
" />
<path d="M142.9543 83.9972
L142.9067 83.9496
" />
<path d="M142.9067 83.9496
L142.8590 83.8543
" />
<path d="M142.8590 83.8543
L142.8114 83.6639
" />
<path d="M142.8114 83.6639
L142.8114 83.4258
" />
<path d="M142.8114 83.4258
L142.8590 83.2353
" />
<path d="M142.8590 83.2353
L142.9067 83.1401
" />
<path d="M142.9067 83.1401
L142.9543 83.0924
" />
<path d="M142.9543 83.0924
L143.0495 83.0448
" />
</g><text x="156.6200" y="117.3400"
textLength="3.2976" font-size="1.3333" lengthAdjust="spacingAndGlyphs"
text-anchor="middle" opacity="0" stroke-opacity="0">SW2</text>
<g class="stroked-text"><desc>SW2</desc>
<path d="M155.2867 117.2472
L155.4295 117.2948
" />
<path d="M155.4295 117.2948
L155.6676 117.2948
" />
<path d="M155.6676 117.2948
L155.7629 117.2472
" />
<path d="M155.7629 117.2472
L155.8105 117.1996
" />
<path d="M155.8105 117.1996
L155.8581 117.1043
" />
<path d="M155.8581 117.1043
L155.8581 117.0091
" />
<path d="M155.8581 117.0091
L155.8105 116.9139
" />
<path d="M155.8105 116.9139
L155.7629 116.8662
" />
<path d="M155.7629 116.8662
L155.6676 116.8186
" />
<path d="M155.6676 116.8186
L155.4771 116.7710
" />
<path d="M155.4771 116.7710
L155.3819 116.7234
" />
<path d="M155.3819 116.7234
L155.3343 116.6758
" />
<path d="M155.3343 116.6758
L155.2867 116.5805
" />
<path d="M155.2867 116.5805
L155.2867 116.4853
" />
<path d="M155.2867 116.4853
L155.3343 116.3901
" />
<path d="M155.3343 116.3901
L155.3819 116.3424
" />
<path d="M155.3819 116.3424
L155.4771 116.2948
" />
<path d="M155.4771 116.2948
L155.7152 116.2948
" />
<path d="M155.7152 116.2948
L155.8581 116.3424
" />
<path d="M156.1914 116.2948
L156.4295 117.2948
" />
<path d="M156.4295 117.2948
L156.6200 116.5805
" />
<path d="M156.6200 116.5805
L156.8105 117.2948
" />
<path d="M156.8105 117.2948
L157.0486 116.2948
" />
<path d="M157.3819 116.3901
L157.4295 116.3424
" />
<path d="M157.4295 116.3424
L157.5248 116.2948
" />
<path d="M157.5248 116.2948
L157.7629 116.2948
" />
<path d="M157.7629 116.2948
L157.8581 116.3424
" />
<path d="M157.8581 116.3424
L157.9057 116.3901
" />
<path d="M157.9057 116.3901
L157.9533 116.4853
" />
<path d="M157.9533 116.4853
L157.9533 116.5805
" />
<path d="M157.9533 116.5805
L157.9057 116.7234
" />
<path d="M157.9057 116.7234
L157.3343 117.2948
" />
<path d="M157.3343 117.2948
L157.9533 117.2948
" />
</g><g transform="rotate(-90.000000 172.7200 66.0400)">
<text x="172.7200" y="66.5400"
textLength="1.9643" font-size="1.3333" lengthAdjust="spacingAndGlyphs"
text-anchor="middle" opacity="0" stroke-opacity="0">J4</text>
</g>
<g class="stroked-text"><desc>J4</desc>
<path d="M172.1748 66.3733
L172.8891 66.3733
" />
<path d="M172.8891 66.3733
L173.0320 66.4210
" />
<path d="M173.0320 66.4210
L173.1272 66.5162
" />
<path d="M173.1272 66.5162
L173.1748 66.6590
" />
<path d="M173.1748 66.6590
L173.1748 66.7543
" />
<path d="M172.5082 65.4686
L173.1748 65.4686
" />
<path d="M172.1272 65.7067
L172.8415 65.9448
" />
<path d="M172.8415 65.9448
L172.8415 65.3257
" />
</g><g transform="rotate(-90.000000 127.0000 125.7300)">
<text x="127.0000" y="126.2300"
textLength="3.1548" font-size="1.3333" lengthAdjust="spacingAndGlyphs"
text-anchor="middle" opacity="0" stroke-opacity="0">R10</text>
</g>
<g class="stroked-text"><desc>R10</desc>
<path d="M127.4548 126.3729
L126.9786 126.7062
" />
<path d="M127.4548 126.9443
L126.4548 126.9443
" />
<path d="M126.4548 126.9443
L126.4548 126.5633
" />
<path d="M126.4548 126.5633
L126.5024 126.4681
" />
<path d="M126.5024 126.4681
L126.5501 126.4205
" />
<path d="M126.5501 126.4205
L126.6453 126.3729
" />
<path d="M126.6453 126.3729
L126.7882 126.3729
" />
<path d="M126.7882 126.3729
L126.8834 126.4205
" />
<path d="M126.8834 126.4205
L126.9310 126.4681
" />
<path d="M126.9310 126.4681
L126.9786 126.5633
" />
<path d="M126.9786 126.5633
L126.9786 126.9443
" />
<path d="M127.4548 125.4205
L127.4548 125.9919
" />
<path d="M127.4548 125.7062
L126.4548 125.7062
" />
<path d="M126.4548 125.7062
L126.5977 125.8014
" />
<path d="M126.5977 125.8014
L126.6929 125.8967
" />
<path d="M126.6929 125.8967
L126.7405 125.9919
" />
<path d="M126.4548 124.8014
L126.4548 124.7062
" />
<path d="M126.4548 124.7062
L126.5024 124.6110
" />
<path d="M126.5024 124.6110
L126.5501 124.5633
" />
<path d="M126.5501 124.5633
L126.6453 124.5157
" />
<path d="M126.6453 124.5157
L126.8358 124.4681
" />
<path d="M126.8358 124.4681
L127.0739 124.4681
" />
<path d="M127.0739 124.4681
L127.2643 124.5157
" />
<path d="M127.2643 124.5157
L127.3596 124.5633
" />
<path d="M127.3596 124.5633
L127.4072 124.6110
" />
<path d="M127.4072 124.6110
L127.4548 124.7062
" />
<path d="M127.4548 124.7062
L127.4548 124.8014
" />
<path d="M127.4548 124.8014
L127.4072 124.8967
" />
<path d="M127.4072 124.8967
L127.3596 124.9443
" />
<path d="M127.3596 124.9443
L127.2643 124.9919
" />
<path d="M127.2643 124.9919
L127.0739 125.0395
" />
<path d="M127.0739 125.0395
L126.8358 125.0395
" />
<path d="M126.8358 125.0395
L126.6453 124.9919
" />
<path d="M126.6453 124.9919
L126.5501 124.9443
" />
<path d="M126.5501 124.9443
L126.5024 124.8967
" />
<path d="M126.5024 124.8967
L126.4548 124.8014
" />
</g><g transform="rotate(-90.000000 139.7000 127.0000)">
<text x="139.7000" y="127.5000"
textLength="2.2024" font-size="1.3333" lengthAdjust="spacingAndGlyphs"
text-anchor="middle" opacity="0" stroke-opacity="0">R8</text>
</g>
<g class="stroked-text"><desc>R8</desc>
<path d="M140.1548 127.1667
L139.6786 127.5000
" />
<path d="M140.1548 127.7381
L139.1548 127.7381
" />
<path d="M139.1548 127.7381
L139.1548 127.3571
" />
<path d="M139.1548 127.3571
L139.2024 127.2619
" />
<path d="M139.2024 127.2619
L139.2501 127.2143
" />
<path d="M139.2501 127.2143
L139.3453 127.1667
" />
<path d="M139.3453 127.1667
L139.4882 127.1667
" />
<path d="M139.4882 127.1667
L139.5834 127.2143
" />
<path d="M139.5834 127.2143
L139.6310 127.2619
" />
<path d="M139.6310 127.2619
L139.6786 127.3571
" />
<path d="M139.6786 127.3571
L139.6786 127.7381
" />
<path d="M139.5834 126.5952
L139.5358 126.6905
" />
<path d="M139.5358 126.6905
L139.4882 126.7381
" />
<path d="M139.4882 126.7381
L139.3929 126.7857
" />
<path d="M139.3929 126.7857
L139.3453 126.7857
" />
<path d="M139.3453 126.7857
L139.2501 126.7381
" />
<path d="M139.2501 126.7381
L139.2024 126.6905
" />
<path d="M139.2024 126.6905
L139.1548 126.5952
" />
<path d="M139.1548 126.5952
L139.1548 126.4048
" />
<path d="M139.1548 126.4048
L139.2024 126.3095
" />
<path d="M139.2024 126.3095
L139.2501 126.2619
" />
<path d="M139.2501 126.2619
L139.3453 126.2143
" />
<path d="M139.3453 126.2143
L139.3929 126.2143
" />
<path d="M139.3929 126.2143
L139.4882 126.2619
" />
<path d="M139.4882 126.2619
L139.5358 126.3095
" />
<path d="M139.5358 126.3095
L139.5834 126.4048
" />
<path d="M139.5834 126.4048
L139.5834 126.5952
" />
<path d="M139.5834 126.5952
L139.6310 126.6905
" />
<path d="M139.6310 126.6905
L139.6786 126.7381
" />
<path d="M139.6786 126.7381
L139.7739 126.7857
" />
<path d="M139.7739 126.7857
L139.9643 126.7857
" />
<path d="M139.9643 126.7857
L140.0596 126.7381
" />
<path d="M140.0596 126.7381
L140.1072 126.6905
" />
<path d="M140.1072 126.6905
L140.1548 126.5952
" />
<path d="M140.1548 126.5952
L140.1548 126.4048
" />
<path d="M140.1548 126.4048
L140.1072 126.3095
" />
<path d="M140.1072 126.3095
L140.0596 126.2619
" />
<path d="M140.0596 126.2619
L139.9643 126.2143
" />
<path d="M139.9643 126.2143
L139.7739 126.2143
" />
<path d="M139.7739 126.2143
L139.6786 126.2619
" />
<path d="M139.6786 126.2619
L139.6310 126.3095
" />
<path d="M139.6310 126.3095
L139.5834 126.4048
" />
</g><text x="129.5300" y="62.5200"
textLength="2.0595" font-size="1.3333" lengthAdjust="spacingAndGlyphs"
text-anchor="middle" opacity="0" stroke-opacity="0">F1</text>
<g class="stroked-text"><desc>F1</desc>
<path d="M129.1967 61.9510
L128.8633 61.9510
" />
<path d="M128.8633 62.4748
L128.8633 61.4748
" />
<path d="M128.8633 61.4748
L129.3395 61.4748
" />
<path d="M130.2443 62.4748
L129.6729 62.4748
" />
<path d="M129.9586 62.4748
L129.9586 61.4748
" />
<path d="M129.9586 61.4748
L129.8633 61.6177
" />
<path d="M129.8633 61.6177
L129.7681 61.7129
" />
<path d="M129.7681 61.7129
L129.6729 61.7605
" />
</g><g transform="rotate(-90.000000 155.2500 73.6200)">
<text x="155.2500" y="74.1200"
textLength="2.2024" font-size="1.3333" lengthAdjust="spacingAndGlyphs"
text-anchor="middle" opacity="0" stroke-opacity="0">C1</text>
</g>
<g class="stroked-text"><desc>C1</desc>
<path d="M155.6096 73.7867
L155.6572 73.8343
" />
<path d="M155.6572 73.8343
L155.7048 73.9771
" />
<path d="M155.7048 73.9771
L155.7048 74.0724
" />
<path d="M155.7048 74.0724
L155.6572 74.2152
" />
<path d="M155.6572 74.2152
L155.5620 74.3105
" />
<path d="M155.5620 74.3105
L155.4667 74.3581
" />
<path d="M155.4667 74.3581
L155.2762 74.4057
" />
<path d="M155.2762 74.4057
L155.1334 74.4057
" />
<path d="M155.1334 74.4057
L154.9429 74.3581
" />
<path d="M154.9429 74.3581
L154.8477 74.3105
" />
<path d="M154.8477 74.3105
L154.7524 74.2152
" />
<path d="M154.7524 74.2152
L154.7048 74.0724
" />
<path d="M154.7048 74.0724
L154.7048 73.9771
" />
<path d="M154.7048 73.9771
L154.7524 73.8343
" />
<path d="M154.7524 73.8343
L154.8001 73.7867
" />
<path d="M155.7048 72.8343
L155.7048 73.4057
" />
<path d="M155.7048 73.1200
L154.7048 73.1200
" />
<path d="M154.7048 73.1200
L154.8477 73.2152
" />
<path d="M154.8477 73.2152
L154.9429 73.3105
" />
<path d="M154.9429 73.3105
L154.9905 73.4057
" />
</g><text x="142.2400" y="114.8000"
textLength="2.9167" font-size="1.3333" lengthAdjust="spacingAndGlyphs"
text-anchor="middle" opacity="0" stroke-opacity="0">J23</text>
<g class="stroked-text"><desc>J23</desc>
<path d="M141.4305 113.7548
L141.4305 114.4691
" />
<path d="M141.4305 114.4691
L141.3829 114.6120
" />
<path d="M141.3829 114.6120
L141.2876 114.7072
" />
<path d="M141.2876 114.7072
L141.1448 114.7548
" />
<path d="M141.1448 114.7548
L141.0495 114.7548
" />
<path d="M141.8590 113.8501
L141.9067 113.8024
" />
<path d="M141.9067 113.8024
L142.0019 113.7548
" />
<path d="M142.0019 113.7548
L142.2400 113.7548
" />
<path d="M142.2400 113.7548
L142.3352 113.8024
" />
<path d="M142.3352 113.8024
L142.3829 113.8501
" />
<path d="M142.3829 113.8501
L142.4305 113.9453
" />
<path d="M142.4305 113.9453
L142.4305 114.0405
" />
<path d="M142.4305 114.0405
L142.3829 114.1834
" />
<path d="M142.3829 114.1834
L141.8114 114.7548
" />
<path d="M141.8114 114.7548
L142.4305 114.7548
" />
<path d="M142.7638 113.7548
L143.3829 113.7548
" />
<path d="M143.3829 113.7548
L143.0495 114.1358
" />
<path d="M143.0495 114.1358
L143.1924 114.1358
" />
<path d="M143.1924 114.1358
L143.2876 114.1834
" />
<path d="M143.2876 114.1834
L143.3352 114.2310
" />
<path d="M143.3352 114.2310
L143.3829 114.3262
" />
<path d="M143.3829 114.3262
L143.3829 114.5643
" />
<path d="M143.3829 114.5643
L143.3352 114.6596
" />
<path d="M143.3352 114.6596
L143.2876 114.7072
" />
<path d="M143.2876 114.7072
L143.1924 114.7548
" />
<path d="M143.1924 114.7548
L142.9067 114.7548
" />
<path d="M142.9067 114.7548
L142.8114 114.7072
" />
<path d="M142.8114 114.7072
L142.7638 114.6596
" />
</g><text x="167.6800" y="135.4300"
textLength="2.2024" font-size="1.3333" lengthAdjust="spacingAndGlyphs"
text-anchor="middle" opacity="0" stroke-opacity="0">C5</text>
<g class="stroked-text"><desc>C5</desc>
<path d="M167.5133 135.2896
L167.4657 135.3372
" />
<path d="M167.4657 135.3372
L167.3229 135.3848
" />
<path d="M167.3229 135.3848
L167.2276 135.3848
" />
<path d="M167.2276 135.3848
L167.0848 135.3372
" />
<path d="M167.0848 135.3372
L166.9895 135.2420
" />
<path d="M166.9895 135.2420
L166.9419 135.1467
" />
<path d="M166.9419 135.1467
L166.8943 134.9562
" />
<path d="M166.8943 134.9562
L166.8943 134.8134
" />
<path d="M166.8943 134.8134
L166.9419 134.6229
" />
<path d="M166.9419 134.6229
L166.9895 134.5277
" />
<path d="M166.9895 134.5277
L167.0848 134.4324
" />
<path d="M167.0848 134.4324
L167.2276 134.3848
" />
<path d="M167.2276 134.3848
L167.3229 134.3848
" />
<path d="M167.3229 134.3848
L167.4657 134.4324
" />
<path d="M167.4657 134.4324
L167.5133 134.4801
" />
<path d="M168.4181 134.3848
L167.9419 134.3848
" />
<path d="M167.9419 134.3848
L167.8943 134.8610
" />
<path d="M167.8943 134.8610
L167.9419 134.8134
" />
<path d="M167.9419 134.8134
L168.0371 134.7658
" />
<path d="M168.0371 134.7658
L168.2752 134.7658
" />
<path d="M168.2752 134.7658
L168.3705 134.8134
" />
<path d="M168.3705 134.8134
L168.4181 134.8610
" />
<path d="M168.4181 134.8610
L168.4657 134.9562
" />
<path d="M168.4657 134.9562
L168.4657 135.1943
" />
<path d="M168.4657 135.1943
L168.4181 135.2896
" />
<path d="M168.4181 135.2896
L168.3705 135.3372
" />
<path d="M168.3705 135.3372
L168.2752 135.3848
" />
<path d="M168.2752 135.3848
L168.0371 135.3848
" />
<path d="M168.0371 135.3848
L167.9419 135.3372
" />
<path d="M167.9419 135.3372
L167.8943 135.2896
" />
</g><g transform="rotate(-90.000000 137.1600 73.7000)">
<text x="137.1600" y="74.2000"
textLength="2.2024" font-size="1.3333" lengthAdjust="spacingAndGlyphs"
text-anchor="middle" opacity="0" stroke-opacity="0">C4</text>
</g>
<g class="stroked-text"><desc>C4</desc>
<path d="M137.5196 73.8667
L137.5672 73.9143
" />
<path d="M137.5672 73.9143
L137.6148 74.0571
" />
<path d="M137.6148 74.0571
L137.6148 74.1524
" />
<path d="M137.6148 74.1524
L137.5672 74.2952
" />
<path d="M137.5672 74.2952
L137.4720 74.3905
" />
<path d="M137.4720 74.3905
L137.3767 74.4381
" />
<path d="M137.3767 74.4381
L137.1862 74.4857
" />
<path d="M137.1862 74.4857
L137.0434 74.4857
" />
<path d="M137.0434 74.4857
L136.8529 74.4381
" />
<path d="M136.8529 74.4381
L136.7577 74.3905
" />
<path d="M136.7577 74.3905
L136.6624 74.2952
" />
<path d="M136.6624 74.2952
L136.6148 74.1524
" />
<path d="M136.6148 74.1524
L136.6148 74.0571
" />
<path d="M136.6148 74.0571
L136.6624 73.9143
" />
<path d="M136.6624 73.9143
L136.7101 73.8667
" />
<path d="M136.9482 73.0095
L137.6148 73.0095
" />
<path d="M136.5672 73.2476
L137.2815 73.4857
" />
<path d="M137.2815 73.4857
L137.2815 72.8667
" />
</g><text x="180.3400" y="114.8000"
textLength="2.2024" font-size="1.3333" lengthAdjust="spacingAndGlyphs"
text-anchor="middle" opacity="0" stroke-opacity="0">D1</text>
<g class="stroked-text"><desc>D1</desc>
<path d="M179.6019 114.7548
L179.6019 113.7548
" />
<path d="M179.6019 113.7548
L179.8400 113.7548
" />
<path d="M179.8400 113.7548
L179.9829 113.8024
" />
<path d="M179.9829 113.8024
L180.0781 113.8977
" />
<path d="M180.0781 113.8977
L180.1257 113.9929
" />
<path d="M180.1257 113.9929
L180.1733 114.1834
" />
<path d="M180.1733 114.1834
L180.1733 114.3262
" />
<path d="M180.1733 114.3262
L180.1257 114.5167
" />
<path d="M180.1257 114.5167
L180.0781 114.6120
" />
<path d="M180.0781 114.6120
L179.9829 114.7072
" />
<path d="M179.9829 114.7072
L179.8400 114.7548
" />
<path d="M179.8400 114.7548
L179.6019 114.7548
" />
<path d="M181.1257 114.7548
L180.5543 114.7548
" />
<path d="M180.8400 114.7548
L180.8400 113.7548
" />
<path d="M180.8400 113.7548
L180.7448 113.8977
" />
<path d="M180.7448 113.8977
L180.6495 113.9929
" />
<path d="M180.6495 113.9929
L180.5543 114.0405
" />
</g><g transform="rotate(-90.000000 165.1000 66.0400)">
<text x="165.1000" y="66.5400"
textLength="2.9167" font-size="1.3333" lengthAdjust="spacingAndGlyphs"
text-anchor="middle" opacity="0" stroke-opacity="0">J11</text>
</g>
<g class="stroked-text"><desc>J11</desc>
<path d="M164.5548 66.8495
L165.2691 66.8495
" />
<path d="M165.2691 66.8495
L165.4120 66.8971
" />
<path d="M165.4120 66.8971
L165.5072 66.9924
" />
<path d="M165.5072 66.9924
L165.5548 67.1352
" />
<path d="M165.5548 67.1352
L165.5548 67.2305
" />
<path d="M165.5548 65.8495
L165.5548 66.4210
" />
<path d="M165.5548 66.1352
L164.5548 66.1352
" />
<path d="M164.5548 66.1352
L164.6977 66.2305
" />
<path d="M164.6977 66.2305
L164.7929 66.3257
" />
<path d="M164.7929 66.3257
L164.8405 66.4210
" />
<path d="M165.5548 64.8971
L165.5548 65.4686
" />
<path d="M165.5548 65.1829
L164.5548 65.1829
" />
<path d="M164.5548 65.1829
L164.6977 65.2781
" />
<path d="M164.6977 65.2781
L164.7929 65.3733
" />
<path d="M164.7929 65.3733
L164.8405 65.4686
" />
</g><text x="132.0800" y="114.8000"
textLength="2.9167" font-size="1.3333" lengthAdjust="spacingAndGlyphs"
text-anchor="middle" opacity="0" stroke-opacity="0">J19</text>
<g class="stroked-text"><desc>J19</desc>
<path d="M131.2705 113.7548
L131.2705 114.4691
" />
<path d="M131.2705 114.4691
L131.2229 114.6120
" />
<path d="M131.2229 114.6120
L131.1276 114.7072
" />
<path d="M131.1276 114.7072
L130.9848 114.7548
" />
<path d="M130.9848 114.7548
L130.8895 114.7548
" />
<path d="M132.2705 114.7548
L131.6990 114.7548
" />
<path d="M131.9848 114.7548
L131.9848 113.7548
" />
<path d="M131.9848 113.7548
L131.8895 113.8977
" />
<path d="M131.8895 113.8977
L131.7943 113.9929
" />
<path d="M131.7943 113.9929
L131.6990 114.0405
" />
<path d="M132.7467 114.7548
L132.9371 114.7548
" />
<path d="M132.9371 114.7548
L133.0324 114.7072
" />
<path d="M133.0324 114.7072
L133.0800 114.6596
" />
<path d="M133.0800 114.6596
L133.1752 114.5167
" />
<path d="M133.1752 114.5167
L133.2229 114.3262
" />
<path d="M133.2229 114.3262
L133.2229 113.9453
" />
<path d="M133.2229 113.9453
L133.1752 113.8501
" />
<path d="M133.1752 113.8501
L133.1276 113.8024
" />
<path d="M133.1276 113.8024
L133.0324 113.7548
" />
<path d="M133.0324 113.7548
L132.8419 113.7548
" />
<path d="M132.8419 113.7548
L132.7467 113.8024
" />
<path d="M132.7467 113.8024
L132.6990 113.8501
" />
<path d="M132.6990 113.8501
L132.6514 113.9453
" />
<path d="M132.6514 113.9453
L132.6514 114.1834
" />
<path d="M132.6514 114.1834
L132.6990 114.2786
" />
<path d="M132.6990 114.2786
L132.7467 114.3262
" />
<path d="M132.7467 114.3262
L132.8419 114.3739
" />
<path d="M132.8419 114.3739
L133.0324 114.3739
" />
<path d="M133.0324 114.3739
L133.1276 114.3262
" />
<path d="M133.1276 114.3262
L133.1752 114.2786
" />
<path d="M133.1752 114.2786
L133.2229 114.1834
" />
</g><text x="139.5000" y="79.0100"
textLength="1.9643" font-size="1.3333" lengthAdjust="spacingAndGlyphs"
text-anchor="middle" opacity="0" stroke-opacity="0">J6</text>
<g class="stroked-text"><desc>J6</desc>
<path d="M139.1667 77.9648
L139.1667 78.6791
" />
<path d="M139.1667 78.6791
L139.1190 78.8220
" />
<path d="M139.1190 78.8220
L139.0238 78.9172
" />
<path d="M139.0238 78.9172
L138.8810 78.9648
" />
<path d="M138.8810 78.9648
L138.7857 78.9648
" />
<path d="M140.0714 77.9648
L139.8810 77.9648
" />
<path d="M139.8810 77.9648
L139.7857 78.0124
" />
<path d="M139.7857 78.0124
L139.7381 78.0601
" />
<path d="M139.7381 78.0601
L139.6429 78.2029
" />
<path d="M139.6429 78.2029
L139.5952 78.3934
" />
<path d="M139.5952 78.3934
L139.5952 78.7743
" />
<path d="M139.5952 78.7743
L139.6429 78.8696
" />
<path d="M139.6429 78.8696
L139.6905 78.9172
" />
<path d="M139.6905 78.9172
L139.7857 78.9648
" />
<path d="M139.7857 78.9648
L139.9762 78.9648
" />
<path d="M139.9762 78.9648
L140.0714 78.9172
" />
<path d="M140.0714 78.9172
L140.1190 78.8696
" />
<path d="M140.1190 78.8696
L140.1667 78.7743
" />
<path d="M140.1667 78.7743
L140.1667 78.5362
" />
<path d="M140.1667 78.5362
L140.1190 78.4410
" />
<path d="M140.1190 78.4410
L140.0714 78.3934
" />
<path d="M140.0714 78.3934
L139.9762 78.3458
" />
<path d="M139.9762 78.3458
L139.7857 78.3458
" />
<path d="M139.7857 78.3458
L139.6905 78.3934
" />
<path d="M139.6905 78.3934
L139.6429 78.4410
" />
<path d="M139.6429 78.4410
L139.5952 78.5362
" />
</g><g transform="rotate(-90.000000 144.7800 74.9300)">
<text x="144.7800" y="75.4300"
textLength="3.1548" font-size="1.3333" lengthAdjust="spacingAndGlyphs"
text-anchor="middle" opacity="0" stroke-opacity="0">R14</text>
</g>
<g class="stroked-text"><desc>R14</desc>
<path d="M145.2348 75.5729
L144.7586 75.9062
" />
<path d="M145.2348 76.1443
L144.2348 76.1443
" />
<path d="M144.2348 76.1443
L144.2348 75.7633
" />
<path d="M144.2348 75.7633
L144.2824 75.6681
" />
<path d="M144.2824 75.6681
L144.3301 75.6205
" />
<path d="M144.3301 75.6205
L144.4253 75.5729
" />
<path d="M144.4253 75.5729
L144.5682 75.5729
" />
<path d="M144.5682 75.5729
L144.6634 75.6205
" />
<path d="M144.6634 75.6205
L144.7110 75.6681
" />
<path d="M144.7110 75.6681
L144.7586 75.7633
" />
<path d="M144.7586 75.7633
L144.7586 76.1443
" />
<path d="M145.2348 74.6205
L145.2348 75.1919
" />
<path d="M145.2348 74.9062
L144.2348 74.9062
" />
<path d="M144.2348 74.9062
L144.3777 75.0014
" />
<path d="M144.3777 75.0014
L144.4729 75.0967
" />
<path d="M144.4729 75.0967
L144.5205 75.1919
" />
<path d="M144.5682 73.7633
L145.2348 73.7633
" />
<path d="M144.1872 74.0014
L144.9015 74.2395
" />
<path d="M144.9015 74.2395
L144.9015 73.6205
" />
</g><text x="121.9200" y="79.2400"
textLength="2.9167" font-size="1.3333" lengthAdjust="spacingAndGlyphs"
text-anchor="middle" opacity="0" stroke-opacity="0">J15</text>
<g class="stroked-text"><desc>J15</desc>
<path d="M121.1105 78.1948
L121.1105 78.9091
" />
<path d="M121.1105 78.9091
L121.0629 79.0520
" />
<path d="M121.0629 79.0520
L120.9676 79.1472
" />
<path d="M120.9676 79.1472
L120.8248 79.1948
" />
<path d="M120.8248 79.1948
L120.7295 79.1948
" />
<path d="M122.1105 79.1948
L121.5390 79.1948
" />
<path d="M121.8248 79.1948
L121.8248 78.1948
" />
<path d="M121.8248 78.1948
L121.7295 78.3377
" />
<path d="M121.7295 78.3377
L121.6343 78.4329
" />
<path d="M121.6343 78.4329
L121.5390 78.4805
" />
<path d="M123.0152 78.1948
L122.5390 78.1948
" />
<path d="M122.5390 78.1948
L122.4914 78.6710
" />
<path d="M122.4914 78.6710
L122.5390 78.6234
" />
<path d="M122.5390 78.6234
L122.6343 78.5758
" />
<path d="M122.6343 78.5758
L122.8724 78.5758
" />
<path d="M122.8724 78.5758
L122.9676 78.6234
" />
<path d="M122.9676 78.6234
L123.0152 78.6710
" />
<path d="M123.0152 78.6710
L123.0629 78.7662
" />
<path d="M123.0629 78.7662
L123.0629 79.0043
" />
<path d="M123.0629 79.0043
L123.0152 79.0996
" />
<path d="M123.0152 79.0996
L122.9676 79.1472
" />
<path d="M122.9676 79.1472
L122.8724 79.1948
" />
<path d="M122.8724 79.1948
L122.6343 79.1948
" />
<path d="M122.6343 79.1948
L122.5390 79.1472
" />
<path d="M122.5390 79.1472
L122.4914 79.0996
" />
</g><g transform="rotate(-90.000000 190.0700 119.3800)">
<text x="190.0700" y="119.8800"
textLength="3.2976" font-size="1.3333" lengthAdjust="spacingAndGlyphs"
text-anchor="middle" opacity="0" stroke-opacity="0">SW5</text>
</g>
<g class="stroked-text"><desc>SW5</desc>
<path d="M190.4772 120.7133
L190.5248 120.5705
" />
<path d="M190.5248 120.5705
L190.5248 120.3324
" />
<path d="M190.5248 120.3324
L190.4772 120.2371
" />
<path d="M190.4772 120.2371
L190.4296 120.1895
" />
<path d="M190.4296 120.1895
L190.3343 120.1419
" />
<path d="M190.3343 120.1419
L190.2391 120.1419
" />
<path d="M190.2391 120.1419
L190.1439 120.1895
" />
<path d="M190.1439 120.1895
L190.0962 120.2371
" />
<path d="M190.0962 120.2371
L190.0486 120.3324
" />
<path d="M190.0486 120.3324
L190.0010 120.5229
" />
<path d="M190.0010 120.5229
L189.9534 120.6181
" />
<path d="M189.9534 120.6181
L189.9058 120.6657
" />
<path d="M189.9058 120.6657
L189.8105 120.7133
" />
<path d="M189.8105 120.7133
L189.7153 120.7133
" />
<path d="M189.7153 120.7133
L189.6201 120.6657
" />
<path d="M189.6201 120.6657
L189.5724 120.6181
" />
<path d="M189.5724 120.6181
L189.5248 120.5229
" />
<path d="M189.5248 120.5229
L189.5248 120.2848
" />
<path d="M189.5248 120.2848
L189.5724 120.1419
" />
<path d="M189.5248 119.8086
L190.5248 119.5705
" />
<path d="M190.5248 119.5705
L189.8105 119.3800
" />
<path d="M189.8105 119.3800
L190.5248 119.1895
" />
<path d="M190.5248 119.1895
L189.5248 118.9514
" />
<path d="M189.5248 118.0943
L189.5248 118.5705
" />
<path d="M189.5248 118.5705
L190.0010 118.6181
" />
<path d="M190.0010 118.6181
L189.9534 118.5705
" />
<path d="M189.9534 118.5705
L189.9058 118.4752
" />
<path d="M189.9058 118.4752
L189.9058 118.2371
" />
<path d="M189.9058 118.2371
L189.9534 118.1419
" />
<path d="M189.9534 118.1419
L190.0010 118.0943
" />
<path d="M190.0010 118.0943
L190.0962 118.0467
" />
<path d="M190.0962 118.0467
L190.3343 118.0467
" />
<path d="M190.3343 118.0467
L190.4296 118.0943
" />
<path d="M190.4296 118.0943
L190.4772 118.1419
" />
<path d="M190.4772 118.1419
L190.5248 118.2371
" />
<path d="M190.5248 118.2371
L190.5248 118.4752
" />
<path d="M190.5248 118.4752
L190.4772 118.5705
" />
<path d="M190.4772 118.5705
L190.4296 118.6181
" />
</g><text x="168.9700" y="114.8000"
textLength="2.9167" font-size="1.3333" lengthAdjust="spacingAndGlyphs"
text-anchor="middle" opacity="0" stroke-opacity="0">J14</text>
<g class="stroked-text"><desc>J14</desc>
<path d="M168.1605 113.7548
L168.1605 114.4691
" />
<path d="M168.1605 114.4691
L168.1129 114.6120
" />
<path d="M168.1129 114.6120
L168.0176 114.7072
" />
<path d="M168.0176 114.7072
L167.8748 114.7548
" />
<path d="M167.8748 114.7548
L167.7795 114.7548
" />
<path d="M169.1605 114.7548
L168.5890 114.7548
" />
<path d="M168.8748 114.7548
L168.8748 113.7548
" />
<path d="M168.8748 113.7548
L168.7795 113.8977
" />
<path d="M168.7795 113.8977
L168.6843 113.9929
" />
<path d="M168.6843 113.9929
L168.5890 114.0405
" />
<path d="M170.0176 114.0882
L170.0176 114.7548
" />
<path d="M169.7795 113.7072
L169.5414 114.4215
" />
<path d="M169.5414 114.4215
L170.1605 114.4215
" />
</g><text x="167.6800" y="143.0500"
textLength="2.2024" font-size="1.3333" lengthAdjust="spacingAndGlyphs"
text-anchor="middle" opacity="0" stroke-opacity="0">C6</text>
<g class="stroked-text"><desc>C6</desc>
<path d="M167.5133 142.9096
L167.4657 142.9572
" />
<path d="M167.4657 142.9572
L167.3229 143.0048
" />
<path d="M167.3229 143.0048
L167.2276 143.0048
" />
<path d="M167.2276 143.0048
L167.0848 142.9572
" />
<path d="M167.0848 142.9572
L166.9895 142.8620
" />
<path d="M166.9895 142.8620
L166.9419 142.7667
" />
<path d="M166.9419 142.7667
L166.8943 142.5762
" />
<path d="M166.8943 142.5762
L166.8943 142.4334
" />
<path d="M166.8943 142.4334
L166.9419 142.2429
" />
<path d="M166.9419 142.2429
L166.9895 142.1477
" />
<path d="M166.9895 142.1477
L167.0848 142.0524
" />
<path d="M167.0848 142.0524
L167.2276 142.0048
" />
<path d="M167.2276 142.0048
L167.3229 142.0048
" />
<path d="M167.3229 142.0048
L167.4657 142.0524
" />
<path d="M167.4657 142.0524
L167.5133 142.1001
" />
<path d="M168.3705 142.0048
L168.1800 142.0048
" />
<path d="M168.1800 142.0048
L168.0848 142.0524
" />
<path d="M168.0848 142.0524
L168.0371 142.1001
" />
<path d="M168.0371 142.1001
L167.9419 142.2429
" />
<path d="M167.9419 142.2429
L167.8943 142.4334
" />
<path d="M167.8943 142.4334
L167.8943 142.8143
" />
<path d="M167.8943 142.8143
L167.9419 142.9096
" />
<path d="M167.9419 142.9096
L167.9895 142.9572
" />
<path d="M167.9895 142.9572
L168.0848 143.0048
" />
<path d="M168.0848 143.0048
L168.2752 143.0048
" />
<path d="M168.2752 143.0048
L168.3705 142.9572
" />
<path d="M168.3705 142.9572
L168.4181 142.9096
" />
<path d="M168.4181 142.9096
L168.4657 142.8143
" />
<path d="M168.4657 142.8143
L168.4657 142.5762
" />
<path d="M168.4657 142.5762
L168.4181 142.4810
" />
<path d="M168.4181 142.4810
L168.3705 142.4334
" />
<path d="M168.3705 142.4334
L168.2752 142.3858
" />
<path d="M168.2752 142.3858
L168.0848 142.3858
" />
<path d="M168.0848 142.3858
L167.9895 142.4334
" />
<path d="M167.9895 142.4334
L167.9419 142.4810
" />
<path d="M167.9419 142.4810
L167.8943 142.5762
" />
</g><text x="132.0800" y="58.9200"
textLength="2.9167" font-size="1.3333" lengthAdjust="spacingAndGlyphs"
text-anchor="middle" opacity="0" stroke-opacity="0">J16</text>
<g class="stroked-text"><desc>J16</desc>
<path d="M131.2705 57.8748
L131.2705 58.5891
" />
<path d="M131.2705 58.5891
L131.2229 58.7320
" />
<path d="M131.2229 58.7320
L131.1276 58.8272
" />
<path d="M131.1276 58.8272
L130.9848 58.8748
" />
<path d="M130.9848 58.8748
L130.8895 58.8748
" />
<path d="M132.2705 58.8748
L131.6990 58.8748
" />
<path d="M131.9848 58.8748
L131.9848 57.8748
" />
<path d="M131.9848 57.8748
L131.8895 58.0177
" />
<path d="M131.8895 58.0177
L131.7943 58.1129
" />
<path d="M131.7943 58.1129
L131.6990 58.1605
" />
<path d="M133.1276 57.8748
L132.9371 57.8748
" />
<path d="M132.9371 57.8748
L132.8419 57.9224
" />
<path d="M132.8419 57.9224
L132.7943 57.9701
" />
<path d="M132.7943 57.9701
L132.6990 58.1129
" />
<path d="M132.6990 58.1129
L132.6514 58.3034
" />
<path d="M132.6514 58.3034
L132.6514 58.6843
" />
<path d="M132.6514 58.6843
L132.6990 58.7796
" />
<path d="M132.6990 58.7796
L132.7467 58.8272
" />
<path d="M132.7467 58.8272
L132.8419 58.8748
" />
<path d="M132.8419 58.8748
L133.0324 58.8748
" />
<path d="M133.0324 58.8748
L133.1276 58.8272
" />
<path d="M133.1276 58.8272
L133.1752 58.7796
" />
<path d="M133.1752 58.7796
L133.2229 58.6843
" />
<path d="M133.2229 58.6843
L133.2229 58.4462
" />
<path d="M133.2229 58.4462
L133.1752 58.3510
" />
<path d="M133.1752 58.3510
L133.1276 58.3034
" />
<path d="M133.1276 58.3034
L133.0324 58.2558
" />
<path d="M133.0324 58.2558
L132.8419 58.2558
" />
<path d="M132.8419 58.2558
L132.7467 58.3034
" />
<path d="M132.7467 58.3034
L132.6990 58.3510
" />
<path d="M132.6990 58.3510
L132.6514 58.4462
" />
</g><g transform="rotate(-90.000000 177.9800 116.8400)">
<text x="177.9800" y="117.3400"
textLength="2.2024" font-size="1.3333" lengthAdjust="spacingAndGlyphs"
text-anchor="middle" opacity="0" stroke-opacity="0">R2</text>
</g>
<g class="stroked-text"><desc>R2</desc>
<path d="M178.4348 117.0067
L177.9586 117.3400
" />
<path d="M178.4348 117.5781
L177.4348 117.5781
" />
<path d="M177.4348 117.5781
L177.4348 117.1971
" />
<path d="M177.4348 117.1971
L177.4824 117.1019
" />
<path d="M177.4824 117.1019
L177.5301 117.0543
" />
<path d="M177.5301 117.0543
L177.6253 117.0067
" />
<path d="M177.6253 117.0067
L177.7682 117.0067
" />
<path d="M177.7682 117.0067
L177.8634 117.0543
" />
<path d="M177.8634 117.0543
L177.9110 117.1019
" />
<path d="M177.9110 117.1019
L177.9586 117.1971
" />
<path d="M177.9586 117.1971
L177.9586 117.5781
" />
<path d="M177.5301 116.6257
L177.4824 116.5781
" />
<path d="M177.4824 116.5781
L177.4348 116.4829
" />
<path d="M177.4348 116.4829
L177.4348 116.2448
" />
<path d="M177.4348 116.2448
L177.4824 116.1495
" />
<path d="M177.4824 116.1495
L177.5301 116.1019
" />
<path d="M177.5301 116.1019
L177.6253 116.0543
" />
<path d="M177.6253 116.0543
L177.7205 116.0543
" />
<path d="M177.7205 116.0543
L177.8634 116.1019
" />
<path d="M177.8634 116.1019
L178.4348 116.6733
" />
<path d="M178.4348 116.6733
L178.4348 116.0543
" />
</g><text x="175.2600" y="127.5000"
textLength="3.2976" font-size="1.3333" lengthAdjust="spacingAndGlyphs"
text-anchor="middle" opacity="0" stroke-opacity="0">SW4</text>
<g class="stroked-text"><desc>SW4</desc>
<path d="M173.9267 127.4072
L174.0695 127.4548
" />
<path d="M174.0695 127.4548
L174.3076 127.4548
" />
<path d="M174.3076 127.4548
L174.4029 127.4072
" />
<path d="M174.4029 127.4072
L174.4505 127.3596
" />
<path d="M174.4505 127.3596
L174.4981 127.2643
" />
<path d="M174.4981 127.2643
L174.4981 127.1691
" />
<path d="M174.4981 127.1691
L174.4505 127.0739
" />
<path d="M174.4505 127.0739
L174.4029 127.0262
" />
<path d="M174.4029 127.0262
L174.3076 126.9786
" />
<path d="M174.3076 126.9786
L174.1171 126.9310
" />
<path d="M174.1171 126.9310
L174.0219 126.8834
" />
<path d="M174.0219 126.8834
L173.9743 126.8358
" />
<path d="M173.9743 126.8358
L173.9267 126.7405
" />
<path d="M173.9267 126.7405
L173.9267 126.6453
" />
<path d="M173.9267 126.6453
L173.9743 126.5501
" />
<path d="M173.9743 126.5501
L174.0219 126.5024
" />
<path d="M174.0219 126.5024
L174.1171 126.4548
" />
<path d="M174.1171 126.4548
L174.3552 126.4548
" />
<path d="M174.3552 126.4548
L174.4981 126.5024
" />
<path d="M174.8314 126.4548
L175.0695 127.4548
" />
<path d="M175.0695 127.4548
L175.2600 126.7405
" />
<path d="M175.2600 126.7405
L175.4505 127.4548
" />
<path d="M175.4505 127.4548
L175.6886 126.4548
" />
<path d="M176.4981 126.7882
L176.4981 127.4548
" />
<path d="M176.2600 126.4072
L176.0219 127.1215
" />
<path d="M176.0219 127.1215
L176.6410 127.1215
" />
</g><text x="137.1600" y="114.8000"
textLength="2.9167" font-size="1.3333" lengthAdjust="spacingAndGlyphs"
text-anchor="middle" opacity="0" stroke-opacity="0">J18</text>
<g class="stroked-text"><desc>J18</desc>
<path d="M136.3505 113.7548
L136.3505 114.4691
" />
<path d="M136.3505 114.4691
L136.3029 114.6120
" />
<path d="M136.3029 114.6120
L136.2076 114.7072
" />
<path d="M136.2076 114.7072
L136.0648 114.7548
" />
<path d="M136.0648 114.7548
L135.9695 114.7548
" />
<path d="M137.3505 114.7548
L136.7790 114.7548
" />
<path d="M137.0648 114.7548
L137.0648 113.7548
" />
<path d="M137.0648 113.7548
L136.9695 113.8977
" />
<path d="M136.9695 113.8977
L136.8743 113.9929
" />
<path d="M136.8743 113.9929
L136.7790 114.0405
" />
<path d="M137.9219 114.1834
L137.8267 114.1358
" />
<path d="M137.8267 114.1358
L137.7790 114.0882
" />
<path d="M137.7790 114.0882
L137.7314 113.9929
" />
<path d="M137.7314 113.9929
L137.7314 113.9453
" />
<path d="M137.7314 113.9453
L137.7790 113.8501
" />
<path d="M137.7790 113.8501
L137.8267 113.8024
" />
<path d="M137.8267 113.8024
L137.9219 113.7548
" />
<path d="M137.9219 113.7548
L138.1124 113.7548
" />
<path d="M138.1124 113.7548
L138.2076 113.8024
" />
<path d="M138.2076 113.8024
L138.2552 113.8501
" />
<path d="M138.2552 113.8501
L138.3029 113.9453
" />
<path d="M138.3029 113.9453
L138.3029 113.9929
" />
<path d="M138.3029 113.9929
L138.2552 114.0882
" />
<path d="M138.2552 114.0882
L138.2076 114.1358
" />
<path d="M138.2076 114.1358
L138.1124 114.1834
" />
<path d="M138.1124 114.1834
L137.9219 114.1834
" />
<path d="M137.9219 114.1834
L137.8267 114.2310
" />
<path d="M137.8267 114.2310
L137.7790 114.2786
" />
<path d="M137.7790 114.2786
L137.7314 114.3739
" />
<path d="M137.7314 114.3739
L137.7314 114.5643
" />
<path d="M137.7314 114.5643
L137.7790 114.6596
" />
<path d="M137.7790 114.6596
L137.8267 114.7072
" />
<path d="M137.8267 114.7072
L137.9219 114.7548
" />
<path d="M137.9219 114.7548
L138.1124 114.7548
" />
<path d="M138.1124 114.7548
L138.2076 114.7072
" />
<path d="M138.2076 114.7072
L138.2552 114.6596
" />
<path d="M138.2552 114.6596
L138.3029 114.5643
" />
<path d="M138.3029 114.5643
L138.3029 114.3739
" />
<path d="M138.3029 114.3739
L138.2552 114.2786
" />
<path d="M138.2552 114.2786
L138.2076 114.2310
" />
<path d="M138.2076 114.2310
L138.1124 114.1834
" />
</g><text x="132.0800" y="84.0900"
textLength="2.9167" font-size="1.3333" lengthAdjust="spacingAndGlyphs"
text-anchor="middle" opacity="0" stroke-opacity="0">J21</text>
<g class="stroked-text"><desc>J21</desc>
<path d="M131.2705 83.0448
L131.2705 83.7591
" />
<path d="M131.2705 83.7591
L131.2229 83.9020
" />
<path d="M131.2229 83.9020
L131.1276 83.9972
" />
<path d="M131.1276 83.9972
L130.9848 84.0448
" />
<path d="M130.9848 84.0448
L130.8895 84.0448
" />
<path d="M131.6990 83.1401
L131.7467 83.0924
" />
<path d="M131.7467 83.0924
L131.8419 83.0448
" />
<path d="M131.8419 83.0448
L132.0800 83.0448
" />
<path d="M132.0800 83.0448
L132.1752 83.0924
" />
<path d="M132.1752 83.0924
L132.2229 83.1401
" />
<path d="M132.2229 83.1401
L132.2705 83.2353
" />
<path d="M132.2705 83.2353
L132.2705 83.3305
" />
<path d="M132.2705 83.3305
L132.2229 83.4734
" />
<path d="M132.2229 83.4734
L131.6514 84.0448
" />
<path d="M131.6514 84.0448
L132.2705 84.0448
" />
<path d="M133.2229 84.0448
L132.6514 84.0448
" />
<path d="M132.9371 84.0448
L132.9371 83.0448
" />
<path d="M132.9371 83.0448
L132.8419 83.1877
" />
<path d="M132.8419 83.1877
L132.7467 83.2829
" />
<path d="M132.7467 83.2829
L132.6514 83.3305
" />
</g><g transform="rotate(-90.000000 187.9600 104.1400)">
<text x="187.9600" y="104.6400"
textLength="3.1548" font-size="1.3333" lengthAdjust="spacingAndGlyphs"
text-anchor="middle" opacity="0" stroke-opacity="0">R11</text>
</g>
<g class="stroked-text"><desc>R11</desc>
<path d="M188.4148 104.7829
L187.9386 105.1162
" />
<path d="M188.4148 105.3543
L187.4148 105.3543
" />
<path d="M187.4148 105.3543
L187.4148 104.9733
" />
<path d="M187.4148 104.9733
L187.4624 104.8781
" />
<path d="M187.4624 104.8781
L187.5101 104.8305
" />
<path d="M187.5101 104.8305
L187.6053 104.7829
" />
<path d="M187.6053 104.7829
L187.7482 104.7829
" />
<path d="M187.7482 104.7829
L187.8434 104.8305
" />
<path d="M187.8434 104.8305
L187.8910 104.8781
" />
<path d="M187.8910 104.8781
L187.9386 104.9733
" />
<path d="M187.9386 104.9733
L187.9386 105.3543
" />
<path d="M188.4148 103.8305
L188.4148 104.4019
" />
<path d="M188.4148 104.1162
L187.4148 104.1162
" />
<path d="M187.4148 104.1162
L187.5577 104.2114
" />
<path d="M187.5577 104.2114
L187.6529 104.3067
" />
<path d="M187.6529 104.3067
L187.7005 104.4019
" />
<path d="M188.4148 102.8781
L188.4148 103.4495
" />
<path d="M188.4148 103.1638
L187.4148 103.1638
" />
<path d="M187.4148 103.1638
L187.5577 103.2590
" />
<path d="M187.5577 103.2590
L187.6529 103.3543
" />
<path d="M187.6529 103.3543
L187.7005 103.4495
" />
</g><text x="129.5400" y="99.5600"
textLength="25.2976" font-size="1.3333" lengthAdjust="spacingAndGlyphs"
text-anchor="middle" opacity="0" stroke-opacity="0">curiosityNano(pic18f57q43)-SB1</text>
<g class="stroked-text"><desc>curiosityNano(pic18f57q43)-SB1</desc>
<path d="M117.6829 99.4672
L117.5876 99.5148
" />
<path d="M117.5876 99.5148
L117.3971 99.5148
" />
<path d="M117.3971 99.5148
L117.3019 99.4672
" />
<path d="M117.3019 99.4672
L117.2543 99.4196
" />
<path d="M117.2543 99.4196
L117.2067 99.3243
" />
<path d="M117.2067 99.3243
L117.2067 99.0386
" />
<path d="M117.2067 99.0386
L117.2543 98.9434
" />
<path d="M117.2543 98.9434
L117.3019 98.8958
" />
<path d="M117.3019 98.8958
L117.3971 98.8482
" />
<path d="M117.3971 98.8482
L117.5876 98.8482
" />
<path d="M117.5876 98.8482
L117.6829 98.8958
" />
<path d="M118.5400 98.8482
L118.5400 99.5148
" />
<path d="M118.1114 98.8482
L118.1114 99.3720
" />
<path d="M118.1114 99.3720
L118.1590 99.4672
" />
<path d="M118.1590 99.4672
L118.2543 99.5148
" />
<path d="M118.2543 99.5148
L118.3971 99.5148
" />
<path d="M118.3971 99.5148
L118.4924 99.4672
" />
<path d="M118.4924 99.4672
L118.5400 99.4196
" />
<path d="M119.0162 99.5148
L119.0162 98.8482
" />
<path d="M119.0162 99.0386
L119.0638 98.9434
" />
<path d="M119.0638 98.9434
L119.1114 98.8958
" />
<path d="M119.1114 98.8958
L119.2067 98.8482
" />
<path d="M119.2067 98.8482
L119.3019 98.8482
" />
<path d="M119.6352 99.5148
L119.6352 98.8482
" />
<path d="M119.6352 98.5148
L119.5876 98.5624
" />
<path d="M119.5876 98.5624
L119.6352 98.6101
" />
<path d="M119.6352 98.6101
L119.6829 98.5624
" />
<path d="M119.6829 98.5624
L119.6352 98.5148
" />
<path d="M119.6352 98.5148
L119.6352 98.6101
" />
<path d="M120.2543 99.5148
L120.1590 99.4672
" />
<path d="M120.1590 99.4672
L120.1114 99.4196
" />
<path d="M120.1114 99.4196
L120.0638 99.3243
" />
<path d="M120.0638 99.3243
L120.0638 99.0386
" />
<path d="M120.0638 99.0386
L120.1114 98.9434
" />
<path d="M120.1114 98.9434
L120.1590 98.8958
" />
<path d="M120.1590 98.8958
L120.2543 98.8482
" />
<path d="M120.2543 98.8482
L120.3971 98.8482
" />
<path d="M120.3971 98.8482
L120.4924 98.8958
" />
<path d="M120.4924 98.8958
L120.5400 98.9434
" />
<path d="M120.5400 98.9434
L120.5876 99.0386
" />
<path d="M120.5876 99.0386
L120.5876 99.3243
" />
<path d="M120.5876 99.3243
L120.5400 99.4196
" />
<path d="M120.5400 99.4196
L120.4924 99.4672
" />
<path d="M120.4924 99.4672
L120.3971 99.5148
" />
<path d="M120.3971 99.5148
L120.2543 99.5148
" />
<path d="M120.9686 99.4672
L121.0638 99.5148
" />
<path d="M121.0638 99.5148
L121.2543 99.5148
" />
<path d="M121.2543 99.5148
L121.3495 99.4672
" />
<path d="M121.3495 99.4672
L121.3971 99.3720
" />
<path d="M121.3971 99.3720
L121.3971 99.3243
" />
<path d="M121.3971 99.3243
L121.3495 99.2291
" />
<path d="M121.3495 99.2291
L121.2543 99.1815
" />
<path d="M121.2543 99.1815
L121.1114 99.1815
" />
<path d="M121.1114 99.1815
L121.0162 99.1339
" />
<path d="M121.0162 99.1339
L120.9686 99.0386
" />
<path d="M120.9686 99.0386
L120.9686 98.9910
" />
<path d="M120.9686 98.9910
L121.0162 98.8958
" />
<path d="M121.0162 98.8958
L121.1114 98.8482
" />
<path d="M121.1114 98.8482
L121.2543 98.8482
" />
<path d="M121.2543 98.8482
L121.3495 98.8958
" />
<path d="M121.8257 99.5148
L121.8257 98.8482
" />
<path d="M121.8257 98.5148
L121.7781 98.5624
" />
<path d="M121.7781 98.5624
L121.8257 98.6101
" />
<path d="M121.8257 98.6101
L121.8733 98.5624
" />
<path d="M121.8733 98.5624
L121.8257 98.5148
" />
<path d="M121.8257 98.5148
L121.8257 98.6101
" />
<path d="M122.1590 98.8482
L122.5400 98.8482
" />
<path d="M122.3019 98.5148
L122.3019 99.3720
" />
<path d="M122.3019 99.3720
L122.3495 99.4672
" />
<path d="M122.3495 99.4672
L122.4448 99.5148
" />
<path d="M122.4448 99.5148
L122.5400 99.5148
" />
<path d="M122.7781 98.8482
L123.0162 99.5148
" />
<path d="M123.2543 98.8482
L123.0162 99.5148
" />
<path d="M123.0162 99.5148
L122.9210 99.7529
" />
<path d="M122.9210 99.7529
L122.8733 99.8005
" />
<path d="M122.8733 99.8005
L122.7781 99.8482
" />
<path d="M123.6352 99.5148
L123.6352 98.5148
" />
<path d="M123.6352 98.5148
L124.2067 99.5148
" />
<path d="M124.2067 99.5148
L124.2067 98.5148
" />
<path d="M125.1114 99.5148
L125.1114 98.9910
" />
<path d="M125.1114 98.9910
L125.0638 98.8958
" />
<path d="M125.0638 98.8958
L124.9686 98.8482
" />
<path d="M124.9686 98.8482
L124.7781 98.8482
" />
<path d="M124.7781 98.8482
L124.6829 98.8958
" />
<path d="M125.1114 99.4672
L125.0162 99.5148
" />
<path d="M125.0162 99.5148
L124.7781 99.5148
" />
<path d="M124.7781 99.5148
L124.6829 99.4672
" />
<path d="M124.6829 99.4672
L124.6352 99.3720
" />
<path d="M124.6352 99.3720
L124.6352 99.2767
" />
<path d="M124.6352 99.2767
L124.6829 99.1815
" />
<path d="M124.6829 99.1815
L124.7781 99.1339
" />
<path d="M124.7781 99.1339
L125.0162 99.1339
" />
<path d="M125.0162 99.1339
L125.1114 99.0862
" />
<path d="M125.5876 98.8482
L125.5876 99.5148
" />
<path d="M125.5876 98.9434
L125.6352 98.8958
" />
<path d="M125.6352 98.8958
L125.7305 98.8482
" />
<path d="M125.7305 98.8482
L125.8733 98.8482
" />
<path d="M125.8733 98.8482
L125.9686 98.8958
" />
<path d="M125.9686 98.8958
L126.0162 98.9910
" />
<path d="M126.0162 98.9910
L126.0162 99.5148
" />
<path d="M126.6352 99.5148
L126.5400 99.4672
" />
<path d="M126.5400 99.4672
L126.4924 99.4196
" />
<path d="M126.4924 99.4196
L126.4448 99.3243
" />
<path d="M126.4448 99.3243
L126.4448 99.0386
" />
<path d="M126.4448 99.0386
L126.4924 98.9434
" />
<path d="M126.4924 98.9434
L126.5400 98.8958
" />
<path d="M126.5400 98.8958
L126.6352 98.8482
" />
<path d="M126.6352 98.8482
L126.7781 98.8482
" />
<path d="M126.7781 98.8482
L126.8733 98.8958
" />
<path d="M126.8733 98.8958
L126.9210 98.9434
" />
<path d="M126.9210 98.9434
L126.9686 99.0386
" />
<path d="M126.9686 99.0386
L126.9686 99.3243
" />
<path d="M126.9686 99.3243
L126.9210 99.4196
" />
<path d="M126.9210 99.4196
L126.8733 99.4672
" />
<path d="M126.8733 99.4672
L126.7781 99.5148
" />
<path d="M126.7781 99.5148
L126.6352 99.5148
" />
<path d="M127.6829 99.8958
L127.6352 99.8482
" />
<path d="M127.6352 99.8482
L127.5400 99.7053
" />
<path d="M127.5400 99.7053
L127.4924 99.6101
" />
<path d="M127.4924 99.6101
L127.4448 99.4672
" />
<path d="M127.4448 99.4672
L127.3971 99.2291
" />
<path d="M127.3971 99.2291
L127.3971 99.0386
" />
<path d="M127.3971 99.0386
L127.4448 98.8005
" />
<path d="M127.4448 98.8005
L127.4924 98.6577
" />
<path d="M127.4924 98.6577
L127.5400 98.5624
" />
<path d="M127.5400 98.5624
L127.6352 98.4196
" />
<path d="M127.6352 98.4196
L127.6829 98.3720
" />
<path d="M128.0638 98.8482
L128.0638 99.8482
" />
<path d="M128.0638 98.8958
L128.1590 98.8482
" />
<path d="M128.1590 98.8482
L128.3495 98.8482
" />
<path d="M128.3495 98.8482
L128.4448 98.8958
" />
<path d="M128.4448 98.8958
L128.4924 98.9434
" />
<path d="M128.4924 98.9434
L128.5400 99.0386
" />
<path d="M128.5400 99.0386
L128.5400 99.3243
" />
<path d="M128.5400 99.3243
L128.4924 99.4196
" />
<path d="M128.4924 99.4196
L128.4448 99.4672
" />
<path d="M128.4448 99.4672
L128.3495 99.5148
" />
<path d="M128.3495 99.5148
L128.1590 99.5148
" />
<path d="M128.1590 99.5148
L128.0638 99.4672
" />
<path d="M128.9686 99.5148
L128.9686 98.8482
" />
<path d="M128.9686 98.5148
L128.9210 98.5624
" />
<path d="M128.9210 98.5624
L128.9686 98.6101
" />
<path d="M128.9686 98.6101
L129.0162 98.5624
" />
<path d="M129.0162 98.5624
L128.9686 98.5148
" />
<path d="M128.9686 98.5148
L128.9686 98.6101
" />
<path d="M129.8733 99.4672
L129.7781 99.5148
" />
<path d="M129.7781 99.5148
L129.5876 99.5148
" />
<path d="M129.5876 99.5148
L129.4924 99.4672
" />
<path d="M129.4924 99.4672
L129.4448 99.4196
" />
<path d="M129.4448 99.4196
L129.3971 99.3243
" />
<path d="M129.3971 99.3243
L129.3971 99.0386
" />
<path d="M129.3971 99.0386
L129.4448 98.9434
" />
<path d="M129.4448 98.9434
L129.4924 98.8958
" />
<path d="M129.4924 98.8958
L129.5876 98.8482
" />
<path d="M129.5876 98.8482
L129.7781 98.8482
" />
<path d="M129.7781 98.8482
L129.8733 98.8958
" />
<path d="M130.8257 99.5148
L130.2543 99.5148
" />
<path d="M130.5400 99.5148
L130.5400 98.5148
" />
<path d="M130.5400 98.5148
L130.4448 98.6577
" />
<path d="M130.4448 98.6577
L130.3495 98.7529
" />
<path d="M130.3495 98.7529
L130.2543 98.8005
" />
<path d="M131.3971 98.9434
L131.3019 98.8958
" />
<path d="M131.3019 98.8958
L131.2543 98.8482
" />
<path d="M131.2543 98.8482
L131.2067 98.7529
" />
<path d="M131.2067 98.7529
L131.2067 98.7053
" />
<path d="M131.2067 98.7053
L131.2543 98.6101
" />
<path d="M131.2543 98.6101
L131.3019 98.5624
" />
<path d="M131.3019 98.5624
L131.3971 98.5148
" />
<path d="M131.3971 98.5148
L131.5876 98.5148
" />
<path d="M131.5876 98.5148
L131.6829 98.5624
" />
<path d="M131.6829 98.5624
L131.7305 98.6101
" />
<path d="M131.7305 98.6101
L131.7781 98.7053
" />
<path d="M131.7781 98.7053
L131.7781 98.7529
" />
<path d="M131.7781 98.7529
L131.7305 98.8482
" />
<path d="M131.7305 98.8482
L131.6829 98.8958
" />
<path d="M131.6829 98.8958
L131.5876 98.9434
" />
<path d="M131.5876 98.9434
L131.3971 98.9434
" />
<path d="M131.3971 98.9434
L131.3019 98.9910
" />
<path d="M131.3019 98.9910
L131.2543 99.0386
" />
<path d="M131.2543 99.0386
L131.2067 99.1339
" />
<path d="M131.2067 99.1339
L131.2067 99.3243
" />
<path d="M131.2067 99.3243
L131.2543 99.4196
" />
<path d="M131.2543 99.4196
L131.3019 99.4672
" />
<path d="M131.3019 99.4672
L131.3971 99.5148
" />
<path d="M131.3971 99.5148
L131.5876 99.5148
" />
<path d="M131.5876 99.5148
L131.6829 99.4672
" />
<path d="M131.6829 99.4672
L131.7305 99.4196
" />
<path d="M131.7305 99.4196
L131.7781 99.3243
" />
<path d="M131.7781 99.3243
L131.7781 99.1339
" />
<path d="M131.7781 99.1339
L131.7305 99.0386
" />
<path d="M131.7305 99.0386
L131.6829 98.9910
" />
<path d="M131.6829 98.9910
L131.5876 98.9434
" />
<path d="M132.0638 98.8482
L132.4448 98.8482
" />
<path d="M132.2067 99.5148
L132.2067 98.6577
" />
<path d="M132.2067 98.6577
L132.2543 98.5624
" />
<path d="M132.2543 98.5624
L132.3495 98.5148
" />
<path d="M132.3495 98.5148
L132.4448 98.5148
" />
<path d="M133.2543 98.5148
L132.7781 98.5148
" />
<path d="M132.7781 98.5148
L132.7305 98.9910
" />
<path d="M132.7305 98.9910
L132.7781 98.9434
" />
<path d="M132.7781 98.9434
L132.8733 98.8958
" />
<path d="M132.8733 98.8958
L133.1114 98.8958
" />
<path d="M133.1114 98.8958
L133.2067 98.9434
" />
<path d="M133.2067 98.9434
L133.2543 98.9910
" />
<path d="M133.2543 98.9910
L133.3019 99.0862
" />
<path d="M133.3019 99.0862
L133.3019 99.3243
" />
<path d="M133.3019 99.3243
L133.2543 99.4196
" />
<path d="M133.2543 99.4196
L133.2067 99.4672
" />
<path d="M133.2067 99.4672
L133.1114 99.5148
" />
<path d="M133.1114 99.5148
L132.8733 99.5148
" />
<path d="M132.8733 99.5148
L132.7781 99.4672
" />
<path d="M132.7781 99.4672
L132.7305 99.4196
" />
<path d="M133.6352 98.5148
L134.3019 98.5148
" />
<path d="M134.3019 98.5148
L133.8733 99.5148
" />
<path d="M135.1114 98.8482
L135.1114 99.8482
" />
<path d="M135.1114 99.4672
L135.0162 99.5148
" />
<path d="M135.0162 99.5148
L134.8257 99.5148
" />
<path d="M134.8257 99.5148
L134.7305 99.4672
" />
<path d="M134.7305 99.4672
L134.6829 99.4196
" />
<path d="M134.6829 99.4196
L134.6352 99.3243
" />
<path d="M134.6352 99.3243
L134.6352 99.0386
" />
<path d="M134.6352 99.0386
L134.6829 98.9434
" />
<path d="M134.6829 98.9434
L134.7305 98.8958
" />
<path d="M134.7305 98.8958
L134.8257 98.8482
" />
<path d="M134.8257 98.8482
L135.0162 98.8482
" />
<path d="M135.0162 98.8482
L135.1114 98.8958
" />
<path d="M136.0162 98.8482
L136.0162 99.5148
" />
<path d="M135.7781 98.4672
L135.5400 99.1815
" />
<path d="M135.5400 99.1815
L136.1590 99.1815
" />
<path d="M136.4448 98.5148
L137.0638 98.5148
" />
<path d="M137.0638 98.5148
L136.7305 98.8958
" />
<path d="M136.7305 98.8958
L136.8733 98.8958
" />
<path d="M136.8733 98.8958
L136.9686 98.9434
" />
<path d="M136.9686 98.9434
L137.0162 98.9910
" />
<path d="M137.0162 98.9910
L137.0638 99.0862
" />
<path d="M137.0638 99.0862
L137.0638 99.3243
" />
<path d="M137.0638 99.3243
L137.0162 99.4196
" />
<path d="M137.0162 99.4196
L136.9686 99.4672
" />
<path d="M136.9686 99.4672
L136.8733 99.5148
" />
<path d="M136.8733 99.5148
L136.5876 99.5148
" />
<path d="M136.5876 99.5148
L136.4924 99.4672
" />
<path d="M136.4924 99.4672
L136.4448 99.4196
" />
<path d="M137.3971 99.8958
L137.4448 99.8482
" />
<path d="M137.4448 99.8482
L137.5400 99.7053
" />
<path d="M137.5400 99.7053
L137.5876 99.6101
" />
<path d="M137.5876 99.6101
L137.6352 99.4672
" />
<path d="M137.6352 99.4672
L137.6829 99.2291
" />
<path d="M137.6829 99.2291
L137.6829 99.0386
" />
<path d="M137.6829 99.0386
L137.6352 98.8005
" />
<path d="M137.6352 98.8005
L137.5876 98.6577
" />
<path d="M137.5876 98.6577
L137.5400 98.5624
" />
<path d="M137.5400 98.5624
L137.4448 98.4196
" />
<path d="M137.4448 98.4196
L137.3971 98.3720
" />
<path d="M138.1590 99.1339
L138.9210 99.1339
" />
<path d="M139.3495 99.4672
L139.4924 99.5148
" />
<path d="M139.4924 99.5148
L139.7305 99.5148
" />
<path d="M139.7305 99.5148
L139.8257 99.4672
" />
<path d="M139.8257 99.4672
L139.8733 99.4196
" />
<path d="M139.8733 99.4196
L139.9210 99.3243
" />
<path d="M139.9210 99.3243
L139.9210 99.2291
" />
<path d="M139.9210 99.2291
L139.8733 99.1339
" />
<path d="M139.8733 99.1339
L139.8257 99.0862
" />
<path d="M139.8257 99.0862
L139.7305 99.0386
" />
<path d="M139.7305 99.0386
L139.5400 98.9910
" />
<path d="M139.5400 98.9910
L139.4448 98.9434
" />
<path d="M139.4448 98.9434
L139.3971 98.8958
" />
<path d="M139.3971 98.8958
L139.3495 98.8005
" />
<path d="M139.3495 98.8005
L139.3495 98.7053
" />
<path d="M139.3495 98.7053
L139.3971 98.6101
" />
<path d="M139.3971 98.6101
L139.4448 98.5624
" />
<path d="M139.4448 98.5624
L139.5400 98.5148
" />
<path d="M139.5400 98.5148
L139.7781 98.5148
" />
<path d="M139.7781 98.5148
L139.9210 98.5624
" />
<path d="M140.6829 98.9910
L140.8257 99.0386
" />
<path d="M140.8257 99.0386
L140.8733 99.0862
" />
<path d="M140.8733 99.0862
L140.9210 99.1815
" />
<path d="M140.9210 99.1815
L140.9210 99.3243
" />
<path d="M140.9210 99.3243
L140.8733 99.4196
" />
<path d="M140.8733 99.4196
L140.8257 99.4672
" />
<path d="M140.8257 99.4672
L140.7305 99.5148
" />
<path d="M140.7305 99.5148
L140.3495 99.5148
" />
<path d="M140.3495 99.5148
L140.3495 98.5148
" />
<path d="M140.3495 98.5148
L140.6829 98.5148
" />
<path d="M140.6829 98.5148
L140.7781 98.5624
" />
<path d="M140.7781 98.5624
L140.8257 98.6101
" />
<path d="M140.8257 98.6101
L140.8733 98.7053
" />
<path d="M140.8733 98.7053
L140.8733 98.8005
" />
<path d="M140.8733 98.8005
L140.8257 98.8958
" />
<path d="M140.8257 98.8958
L140.7781 98.9434
" />
<path d="M140.7781 98.9434
L140.6829 98.9910
" />
<path d="M140.6829 98.9910
L140.3495 98.9910
" />
<path d="M141.8733 99.5148
L141.3019 99.5148
" />
<path d="M141.5876 99.5148
L141.5876 98.5148
" />
<path d="M141.5876 98.5148
L141.4924 98.6577
" />
<path d="M141.4924 98.6577
L141.3971 98.7529
" />
<path d="M141.3971 98.7529
L141.3019 98.8005
" />
</g><g transform="rotate(-90.000000 175.2600 66.0400)">
<text x="175.2600" y="66.5400"
textLength="2.9167" font-size="1.3333" lengthAdjust="spacingAndGlyphs"
text-anchor="middle" opacity="0" stroke-opacity="0">J10</text>
</g>
<g class="stroked-text"><desc>J10</desc>
<path d="M174.7148 66.8495
L175.4291 66.8495
" />
<path d="M175.4291 66.8495
L175.5720 66.8971
" />
<path d="M175.5720 66.8971
L175.6672 66.9924
" />
<path d="M175.6672 66.9924
L175.7148 67.1352
" />
<path d="M175.7148 67.1352
L175.7148 67.2305
" />
<path d="M175.7148 65.8495
L175.7148 66.4210
" />
<path d="M175.7148 66.1352
L174.7148 66.1352
" />
<path d="M174.7148 66.1352
L174.8577 66.2305
" />
<path d="M174.8577 66.2305
L174.9529 66.3257
" />
<path d="M174.9529 66.3257
L175.0005 66.4210
" />
<path d="M174.7148 65.2305
L174.7148 65.1352
" />
<path d="M174.7148 65.1352
L174.7624 65.0400
" />
<path d="M174.7624 65.0400
L174.8101 64.9924
" />
<path d="M174.8101 64.9924
L174.9053 64.9448
" />
<path d="M174.9053 64.9448
L175.0958 64.8971
" />
<path d="M175.0958 64.8971
L175.3339 64.8971
" />
<path d="M175.3339 64.8971
L175.5243 64.9448
" />
<path d="M175.5243 64.9448
L175.6196 64.9924
" />
<path d="M175.6196 64.9924
L175.6672 65.0400
" />
<path d="M175.6672 65.0400
L175.7148 65.1352
" />
<path d="M175.7148 65.1352
L175.7148 65.2305
" />
<path d="M175.7148 65.2305
L175.6672 65.3257
" />
<path d="M175.6672 65.3257
L175.6196 65.3733
" />
<path d="M175.6196 65.3733
L175.5243 65.4210
" />
<path d="M175.5243 65.4210
L175.3339 65.4686
" />
<path d="M175.3339 65.4686
L175.0958 65.4686
" />
<path d="M175.0958 65.4686
L174.9053 65.4210
" />
<path d="M174.9053 65.4210
L174.8101 65.3733
" />
<path d="M174.8101 65.3733
L174.7624 65.3257
" />
<path d="M174.7624 65.3257
L174.7148 65.2305
" />
</g><text x="137.1600" y="84.0900"
textLength="2.9167" font-size="1.3333" lengthAdjust="spacingAndGlyphs"
text-anchor="middle" opacity="0" stroke-opacity="0">J22</text>
<g class="stroked-text"><desc>J22</desc>
<path d="M136.3505 83.0448
L136.3505 83.7591
" />
<path d="M136.3505 83.7591
L136.3029 83.9020
" />
<path d="M136.3029 83.9020
L136.2076 83.9972
" />
<path d="M136.2076 83.9972
L136.0648 84.0448
" />
<path d="M136.0648 84.0448
L135.9695 84.0448
" />
<path d="M136.7790 83.1401
L136.8267 83.0924
" />
<path d="M136.8267 83.0924
L136.9219 83.0448
" />
<path d="M136.9219 83.0448
L137.1600 83.0448
" />
<path d="M137.1600 83.0448
L137.2552 83.0924
" />
<path d="M137.2552 83.0924
L137.3029 83.1401
" />
<path d="M137.3029 83.1401
L137.3505 83.2353
" />
<path d="M137.3505 83.2353
L137.3505 83.3305
" />
<path d="M137.3505 83.3305
L137.3029 83.4734
" />
<path d="M137.3029 83.4734
L136.7314 84.0448
" />
<path d="M136.7314 84.0448
L137.3505 84.0448
" />
<path d="M137.7314 83.1401
L137.7790 83.0924
" />
<path d="M137.7790 83.0924
L137.8743 83.0448
" />
<path d="M137.8743 83.0448
L138.1124 83.0448
" />
<path d="M138.1124 83.0448
L138.2076 83.0924
" />
<path d="M138.2076 83.0924
L138.2552 83.1401
" />
<path d="M138.2552 83.1401
L138.3029 83.2353
" />
<path d="M138.3029 83.2353
L138.3029 83.3305
" />
<path d="M138.3029 83.3305
L138.2552 83.4734
" />
<path d="M138.2552 83.4734
L137.6838 84.0448
" />
<path d="M137.6838 84.0448
L138.3029 84.0448
" />
</g><text x="114.3900" y="74.8300"
textLength="1.9643" font-size="1.3333" lengthAdjust="spacingAndGlyphs"
text-anchor="middle" opacity="0" stroke-opacity="0">J2</text>
<g class="stroked-text"><desc>J2</desc>
<path d="M114.0567 73.7848
L114.0567 74.4991
" />
<path d="M114.0567 74.4991
L114.0090 74.6420
" />
<path d="M114.0090 74.6420
L113.9138 74.7372
" />
<path d="M113.9138 74.7372
L113.7710 74.7848
" />
<path d="M113.7710 74.7848
L113.6757 74.7848
" />
<path d="M114.4852 73.8801
L114.5329 73.8324
" />
<path d="M114.5329 73.8324
L114.6281 73.7848
" />
<path d="M114.6281 73.7848
L114.8662 73.7848
" />
<path d="M114.8662 73.7848
L114.9614 73.8324
" />
<path d="M114.9614 73.8324
L115.0090 73.8801
" />
<path d="M115.0090 73.8801
L115.0567 73.9753
" />
<path d="M115.0567 73.9753
L115.0567 74.0705
" />
<path d="M115.0567 74.0705
L115.0090 74.2134
" />
<path d="M115.0090 74.2134
L114.4376 74.7848
" />
<path d="M114.4376 74.7848
L115.0567 74.7848
" />
</g><text x="146.4600" y="117.3400"
textLength="3.2976" font-size="1.3333" lengthAdjust="spacingAndGlyphs"
text-anchor="middle" opacity="0" stroke-opacity="0">SW3</text>
<g class="stroked-text"><desc>SW3</desc>
<path d="M145.1267 117.2472
L145.2695 117.2948
" />
<path d="M145.2695 117.2948
L145.5076 117.2948
" />
<path d="M145.5076 117.2948
L145.6029 117.2472
" />
<path d="M145.6029 117.2472
L145.6505 117.1996
" />
<path d="M145.6505 117.1996
L145.6981 117.1043
" />
<path d="M145.6981 117.1043
L145.6981 117.0091
" />
<path d="M145.6981 117.0091
L145.6505 116.9139
" />
<path d="M145.6505 116.9139
L145.6029 116.8662
" />
<path d="M145.6029 116.8662
L145.5076 116.8186
" />
<path d="M145.5076 116.8186
L145.3171 116.7710
" />
<path d="M145.3171 116.7710
L145.2219 116.7234
" />
<path d="M145.2219 116.7234
L145.1743 116.6758
" />
<path d="M145.1743 116.6758
L145.1267 116.5805
" />
<path d="M145.1267 116.5805
L145.1267 116.4853
" />
<path d="M145.1267 116.4853
L145.1743 116.3901
" />
<path d="M145.1743 116.3901
L145.2219 116.3424
" />
<path d="M145.2219 116.3424
L145.3171 116.2948
" />
<path d="M145.3171 116.2948
L145.5552 116.2948
" />
<path d="M145.5552 116.2948
L145.6981 116.3424
" />
<path d="M146.0314 116.2948
L146.2695 117.2948
" />
<path d="M146.2695 117.2948
L146.4600 116.5805
" />
<path d="M146.4600 116.5805
L146.6505 117.2948
" />
<path d="M146.6505 117.2948
L146.8886 116.2948
" />
<path d="M147.1743 116.2948
L147.7933 116.2948
" />
<path d="M147.7933 116.2948
L147.4600 116.6758
" />
<path d="M147.4600 116.6758
L147.6029 116.6758
" />
<path d="M147.6029 116.6758
L147.6981 116.7234
" />
<path d="M147.6981 116.7234
L147.7457 116.7710
" />
<path d="M147.7457 116.7710
L147.7933 116.8662
" />
<path d="M147.7933 116.8662
L147.7933 117.1043
" />
<path d="M147.7933 117.1043
L147.7457 117.1996
" />
<path d="M147.7457 117.1996
L147.6981 117.2472
" />
<path d="M147.6981 117.2472
L147.6029 117.2948
" />
<path d="M147.6029 117.2948
L147.3171 117.2948
" />
<path d="M147.3171 117.2948
L147.2219 117.2472
" />
<path d="M147.2219 117.2472
L147.1743 117.1996
" />
</g><text x="129.5800" y="71.6200"
textLength="2.2024" font-size="1.3333" lengthAdjust="spacingAndGlyphs"
text-anchor="middle" opacity="0" stroke-opacity="0">C3</text>
<g class="stroked-text"><desc>C3</desc>
<path d="M129.4133 71.4796
L129.3657 71.5272
" />
<path d="M129.3657 71.5272
L129.2229 71.5748
" />
<path d="M129.2229 71.5748
L129.1276 71.5748
" />
<path d="M129.1276 71.5748
L128.9848 71.5272
" />
<path d="M128.9848 71.5272
L128.8895 71.4320
" />
<path d="M128.8895 71.4320
L128.8419 71.3367
" />
<path d="M128.8419 71.3367
L128.7943 71.1462
" />
<path d="M128.7943 71.1462
L128.7943 71.0034
" />
<path d="M128.7943 71.0034
L128.8419 70.8129
" />
<path d="M128.8419 70.8129
L128.8895 70.7177
" />
<path d="M128.8895 70.7177
L128.9848 70.6224
" />
<path d="M128.9848 70.6224
L129.1276 70.5748
" />
<path d="M129.1276 70.5748
L129.2229 70.5748
" />
<path d="M129.2229 70.5748
L129.3657 70.6224
" />
<path d="M129.3657 70.6224
L129.4133 70.6701
" />
<path d="M129.7467 70.5748
L130.3657 70.5748
" />
<path d="M130.3657 70.5748
L130.0324 70.9558
" />
<path d="M130.0324 70.9558
L130.1752 70.9558
" />
<path d="M130.1752 70.9558
L130.2705 71.0034
" />
<path d="M130.2705 71.0034
L130.3181 71.0510
" />
<path d="M130.3181 71.0510
L130.3657 71.1462
" />
<path d="M130.3657 71.1462
L130.3657 71.3843
" />
<path d="M130.3657 71.3843
L130.3181 71.4796
" />
<path d="M130.3181 71.4796
L130.2705 71.5272
" />
<path d="M130.2705 71.5272
L130.1752 71.5748
" />
<path d="M130.1752 71.5748
L129.8895 71.5748
" />
<path d="M129.8895 71.5748
L129.7943 71.5272
" />
<path d="M129.7943 71.5272
L129.7467 71.4796
" />
</g><text x="165.1000" y="114.5700"
textLength="2.9167" font-size="1.3333" lengthAdjust="spacingAndGlyphs"
text-anchor="middle" opacity="0" stroke-opacity="0">J13</text>
<g class="stroked-text"><desc>J13</desc>
<path d="M164.2905 113.5248
L164.2905 114.2391
" />
<path d="M164.2905 114.2391
L164.2429 114.3820
" />
<path d="M164.2429 114.3820
L164.1476 114.4772
" />
<path d="M164.1476 114.4772
L164.0048 114.5248
" />
<path d="M164.0048 114.5248
L163.9095 114.5248
" />
<path d="M165.2905 114.5248
L164.7190 114.5248
" />
<path d="M165.0048 114.5248
L165.0048 113.5248
" />
<path d="M165.0048 113.5248
L164.9095 113.6677
" />
<path d="M164.9095 113.6677
L164.8143 113.7629
" />
<path d="M164.8143 113.7629
L164.7190 113.8105
" />
<path d="M165.6238 113.5248
L166.2429 113.5248
" />
<path d="M166.2429 113.5248
L165.9095 113.9058
" />
<path d="M165.9095 113.9058
L166.0524 113.9058
" />
<path d="M166.0524 113.9058
L166.1476 113.9534
" />
<path d="M166.1476 113.9534
L166.1952 114.0010
" />
<path d="M166.1952 114.0010
L166.2429 114.0962
" />
<path d="M166.2429 114.0962
L166.2429 114.3343
" />
<path d="M166.2429 114.3343
L166.1952 114.4296
" />
<path d="M166.1952 114.4296
L166.1476 114.4772
" />
<path d="M166.1476 114.4772
L166.0524 114.5248
" />
<path d="M166.0524 114.5248
L165.7667 114.5248
" />
<path d="M165.7667 114.5248
L165.6714 114.4772
" />
<path d="M165.6714 114.4772
L165.6238 114.4296
" />
</g><text x="149.8600" y="112.2600"
textLength="2.9167" font-size="1.3333" lengthAdjust="spacingAndGlyphs"
text-anchor="middle" opacity="0" stroke-opacity="0">J12</text>
<g class="stroked-text"><desc>J12</desc>
<path d="M149.0505 111.2148
L149.0505 111.9291
" />
<path d="M149.0505 111.9291
L149.0029 112.0720
" />
<path d="M149.0029 112.0720
L148.9076 112.1672
" />
<path d="M148.9076 112.1672
L148.7648 112.2148
" />
<path d="M148.7648 112.2148
L148.6695 112.2148
" />
<path d="M150.0505 112.2148
L149.4790 112.2148
" />
<path d="M149.7648 112.2148
L149.7648 111.2148
" />
<path d="M149.7648 111.2148
L149.6695 111.3577
" />
<path d="M149.6695 111.3577
L149.5743 111.4529
" />
<path d="M149.5743 111.4529
L149.4790 111.5005
" />
<path d="M150.4314 111.3101
L150.4790 111.2624
" />
<path d="M150.4790 111.2624
L150.5743 111.2148
" />
<path d="M150.5743 111.2148
L150.8124 111.2148
" />
<path d="M150.8124 111.2148
L150.9076 111.2624
" />
<path d="M150.9076 111.2624
L150.9552 111.3101
" />
<path d="M150.9552 111.3101
L151.0029 111.4053
" />
<path d="M151.0029 111.4053
L151.0029 111.5005
" />
<path d="M151.0029 111.5005
L150.9552 111.6434
" />
<path d="M150.9552 111.6434
L150.3838 112.2148
" />
<path d="M150.3838 112.2148
L151.0029 112.2148
" />
</g><g transform="rotate(-90.000000 134.6200 125.7300)">
<text x="134.6200" y="126.2300"
textLength="2.2024" font-size="1.3333" lengthAdjust="spacingAndGlyphs"
text-anchor="middle" opacity="0" stroke-opacity="0">R9</text>
</g>
<g class="stroked-text"><desc>R9</desc>
<path d="M135.0748 125.8967
L134.5986 126.2300
" />
<path d="M135.0748 126.4681
L134.0748 126.4681
" />
<path d="M134.0748 126.4681
L134.0748 126.0871
" />
<path d="M134.0748 126.0871
L134.1224 125.9919
" />
<path d="M134.1224 125.9919
L134.1701 125.9443
" />
<path d="M134.1701 125.9443
L134.2653 125.8967
" />
<path d="M134.2653 125.8967
L134.4082 125.8967
" />
<path d="M134.4082 125.8967
L134.5034 125.9443
" />
<path d="M134.5034 125.9443
L134.5510 125.9919
" />
<path d="M134.5510 125.9919
L134.5986 126.0871
" />
<path d="M134.5986 126.0871
L134.5986 126.4681
" />
<path d="M135.0748 125.4205
L135.0748 125.2300
" />
<path d="M135.0748 125.2300
L135.0272 125.1348
" />
<path d="M135.0272 125.1348
L134.9796 125.0871
" />
<path d="M134.9796 125.0871
L134.8367 124.9919
" />
<path d="M134.8367 124.9919
L134.6462 124.9443
" />
<path d="M134.6462 124.9443
L134.2653 124.9443
" />
<path d="M134.2653 124.9443
L134.1701 124.9919
" />
<path d="M134.1701 124.9919
L134.1224 125.0395
" />
<path d="M134.1224 125.0395
L134.0748 125.1348
" />
<path d="M134.0748 125.1348
L134.0748 125.3252
" />
<path d="M134.0748 125.3252
L134.1224 125.4205
" />
<path d="M134.1224 125.4205
L134.1701 125.4681
" />
<path d="M134.1701 125.4681
L134.2653 125.5157
" />
<path d="M134.2653 125.5157
L134.5034 125.5157
" />
<path d="M134.5034 125.5157
L134.5986 125.4681
" />
<path d="M134.5986 125.4681
L134.6462 125.4205
" />
<path d="M134.6462 125.4205
L134.6939 125.3252
" />
<path d="M134.6939 125.3252
L134.6939 125.1348
" />
<path d="M134.6939 125.1348
L134.6462 125.0395
" />
<path d="M134.6462 125.0395
L134.5986 124.9919
" />
<path d="M134.5986 124.9919
L134.5034 124.9443
" />
</g></g>
<g style="fill:none; 
stroke:#000000; stroke-width:0.1200; stroke-opacity:1; 
stroke-linecap:round; stroke-linejoin:round;">
<path d="M143.4500 62.2900
L143.4500 62.1700
" />
<path d="M143.4500 64.8300
L143.4500 63.5000
" />
<path d="M144.7800 64.8300
L143.4500 64.8300
" />
<path d="M146.1100 62.1700
L143.4500 62.1700
" />
<path d="M146.1100 62.2900
L146.1100 62.1700
" />
<path d="M135.7600 59.5600
L138.5600 59.5600
" />
<path d="M135.7600 67.4400
L135.7600 59.5600
" />
<path d="M138.5600 59.5600
L138.5600 67.4400
" />
<path d="M138.5600 62.2300
L135.7600 62.2300
" />
<path d="M138.5600 67.4400
L135.7600 67.4400
" />
<path d="M140.9100 87.5700
L140.9100 87.6900
" />
<path d="M140.9100 87.6900
L143.5700 87.6900
" />
<path d="M142.2400 85.0300
L143.5700 85.0300
" />
<path d="M143.5700 85.0300
L143.5700 86.3600
" />
<path d="M143.5700 87.5700
L143.5700 87.6900
" />
<path d="M151.8200 118.2700
L151.8200 125.5700
" />
<path d="M151.8200 125.5700
L155.0200 125.5700
" />
<path d="M155.0200 125.2100
L158.2200 125.2100
" />
<path d="M155.0200 125.5700
L155.0200 125.2100
" />
<path d="M158.2200 125.2100
L158.2200 125.5700
" />
<path d="M158.2200 125.5700
L161.4200 125.5700
" />
<path d="M161.4200 118.2700
L151.8200 118.2700
" />
<path d="M161.4200 125.5700
L161.4200 118.2700
" />
<path d="M168.8500 62.2300
L168.8500 80.0700
" />
<path d="M168.8500 62.2300
L171.5100 62.2300
" />
<path d="M168.8500 80.0700
L171.5100 80.0700
" />
<path d="M170.1800 59.6300
L171.5100 59.6300
" />
<path d="M171.5100 59.6300
L171.5100 60.9600
" />
<path d="M171.5100 62.2300
L171.5100 80.0700
" />
<path d="M127.0000 120.4200
L127.0000 121.1100
" />
<path d="M127.0000 131.0400
L127.0000 130.3500
" />
<path style="fill:none; 
stroke:#000000; stroke-width:0.1200; stroke-opacity:1; 
stroke-linecap:round; stroke-linejoin:round;fill:none"
d="M 125.2800,130.3500
128.7200,130.3500
128.7200,121.1100
125.2800,121.1100
Z" /> 
<path d="M139.7000 120.4200
L139.7000 121.1100
" />
<path d="M139.7000 131.0400
L139.7000 130.3500
" />
<path style="fill:none; 
stroke:#000000; stroke-width:0.1200; stroke-opacity:1; 
stroke-linecap:round; stroke-linejoin:round;fill:none"
d="M 137.9800,130.3500
141.4200,130.3500
141.4200,121.1100
137.9800,121.1100
Z" /> 
<path d="M125.8800 62.9200
L126.1420 62.9200
" />
<path d="M125.8800 63.2180
L125.8800 62.9200
" />
<path d="M125.8800 66.1200
L125.8800 64.6220
" />
<path d="M127.8180 62.9200
L133.1800 62.9200
" />
<path d="M131.2420 66.1200
L125.8800 66.1200
" />
<path d="M133.1800 62.9200
L133.1800 64.4180
" />
<path d="M133.1800 65.8220
L133.1800 66.1200
" />
<path d="M133.1800 66.1200
L132.9180 66.1200
" />
<path d="M150.6800 70.9500
L151.3740 70.9500
" />
<path d="M150.6800 76.2900
L150.6800 70.9500
" />
<path d="M151.3740 76.2900
L150.6800 76.2900
" />
<path d="M153.4260 70.9500
L154.1200 70.9500
" />
<path d="M154.1200 70.9500
L154.1200 76.2900
" />
<path d="M154.1200 76.2900
L153.4260 76.2900
" />
<path d="M140.9100 112.9700
L140.9100 113.0900
" />
<path d="M140.9100 113.0900
L143.5700 113.0900
" />
<path d="M142.2400 110.4300
L143.5700 110.4300
" />
<path d="M143.5700 110.4300
L143.5700 111.7600
" />
<path d="M143.5700 112.9700
L143.5700 113.0900
" />
<path d="M165.0100 130.3600
L170.3500 130.3600
" />
<path d="M165.0100 131.0540
L165.0100 130.3600
" />
<path d="M165.0100 133.8000
L165.0100 133.1060
" />
<path d="M170.3500 130.3600
L170.3500 131.0540
" />
<path d="M170.3500 133.1060
L170.3500 133.8000
" />
<path d="M170.3500 133.8000
L165.0100 133.8000
" />
<path d="M135.4400 71.0300
L136.1340 71.0300
" />
<path d="M135.4400 76.3700
L135.4400 71.0300
" />
<path d="M136.1340 76.3700
L135.4400 76.3700
" />
<path d="M138.1860 71.0300
L138.8800 71.0300
" />
<path d="M138.8800 71.0300
L138.8800 76.3700
" />
<path d="M138.8800 76.3700
L138.1860 76.3700
" />
<path d="M181.6900 110.4500
L186.6100 110.4500
" />
<path d="M181.6900 113.0700
L181.6900 110.4500
" />
<path d="M181.8100 110.4500
L181.8100 110.6800
" />
<path d="M181.8100 112.8400
L181.8100 113.0700
" />
<path d="M181.9300 110.4500
L181.9300 110.6800
" />
<path d="M181.9300 112.8400
L181.9300 113.0700
" />
<path d="M186.6100 110.4500
L186.6100 113.0700
" />
<path d="M186.6100 113.0700
L181.6900 113.0700
" />
<path d="M161.2300 62.2300
L161.2300 80.0700
" />
<path d="M161.2300 62.2300
L163.8900 62.2300
" />
<path d="M161.2300 80.0700
L163.8900 80.0700
" />
<path d="M162.5600 59.6300
L163.8900 59.6300
" />
<path d="M163.8900 59.6300
L163.8900 60.9600
" />
<path d="M163.8900 62.2300
L163.8900 80.0700
" />
<path d="M130.7500 112.9700
L130.7500 113.0900
" />
<path d="M130.7500 113.0900
L133.4100 113.0900
" />
<path d="M132.0800 110.4300
L133.4100 110.4300
" />
<path d="M133.4100 110.4300
L133.4100 111.7600
" />
<path d="M133.4100 112.9700
L133.4100 113.0900
" />
<path d="M138.1700 82.4900
L138.1700 82.6100
" />
<path d="M138.1700 82.6100
L140.8300 82.6100
" />
<path d="M139.5000 79.9500
L140.8300 79.9500
" />
<path d="M140.8300 79.9500
L140.8300 81.2800
" />
<path d="M140.8300 82.4900
L140.8300 82.6100
" />
<path d="M144.7800 69.6200
L144.7800 70.3100
" />
<path d="M144.7800 80.2400
L144.7800 79.5500
" />
<path style="fill:none; 
stroke:#000000; stroke-width:0.1200; stroke-opacity:1; 
stroke-linecap:round; stroke-linejoin:round;fill:none"
d="M 146.5000,70.3100
143.0600,70.3100
143.0600,79.5500
146.5000,79.5500
Z" /> 
<path d="M125.6700 79.9500
L125.6700 80.0700
" />
<path d="M125.6700 80.0700
L128.3300 80.0700
" />
<path d="M127.0000 77.4100
L128.3300 77.4100
" />
<path d="M128.3300 77.4100
L128.3300 78.7400
" />
<path d="M128.3300 79.9500
L128.3300 80.0700
" />
<path d="M181.7700 124.1800
L189.0700 124.1800
" />
<path d="M181.7700 114.5800
L181.7700 124.1800
" />
<path d="M188.7100 117.7800
L189.0700 117.7800
" />
<path d="M188.7100 120.9800
L188.7100 117.7800
" />
<path d="M189.0700 124.1800
L189.0700 120.9800
" />
<path d="M189.0700 114.5800
L181.7700 114.5800
" />
<path d="M189.0700 117.7800
L189.0700 114.5800
" />
<path d="M189.0700 120.9800
L188.7100 120.9800
" />
<path d="M166.3100 112.9700
L166.3100 113.0900
" />
<path d="M166.3100 113.0900
L168.9700 113.0900
" />
<path d="M167.6400 110.4300
L168.9700 110.4300
" />
<path d="M168.9700 110.4300
L168.9700 111.7600
" />
<path d="M168.9700 112.9700
L168.9700 113.0900
" />
<path d="M165.0100 137.9800
L170.3500 137.9800
" />
<path d="M165.0100 138.6740
L165.0100 137.9800
" />
<path d="M165.0100 141.4200
L165.0100 140.7260
" />
<path d="M170.3500 137.9800
L170.3500 138.6740
" />
<path d="M170.3500 140.7260
L170.3500 141.4200
" />
<path d="M170.3500 141.4200
L165.0100 141.4200
" />
<path d="M125.6700 59.6300
L125.6700 59.7500
" />
<path d="M125.6700 59.7500
L128.3300 59.7500
" />
<path d="M127.0000 57.0900
L128.3300 57.0900
" />
<path d="M128.3300 57.0900
L128.3300 58.4200
" />
<path d="M128.3300 59.6300
L128.3300 59.7500
" />
<path d="M175.2600 111.5300
L175.2600 112.2200
" />
<path d="M175.2600 122.1500
L175.2600 121.4600
" />
<path style="fill:none; 
stroke:#000000; stroke-width:0.1200; stroke-opacity:1; 
stroke-linecap:round; stroke-linejoin:round;fill:none"
d="M 176.9800,112.2200
173.5400,112.2200
173.5400,121.4600
176.9800,121.4600
Z" /> 
<path d="M162.8400 120.5200
L162.8400 127.8200
" />
<path d="M162.8400 127.8200
L166.0400 127.8200
" />
<path d="M166.0400 127.4600
L169.2400 127.4600
" />
<path d="M166.0400 127.8200
L166.0400 127.4600
" />
<path d="M169.2400 127.4600
L169.2400 127.8200
" />
<path d="M169.2400 127.8200
L172.4400 127.8200
" />
<path d="M172.4400 120.5200
L162.8400 120.5200
" />
<path d="M172.4400 127.8200
L172.4400 120.5200
" />
<path d="M135.8300 112.9700
L135.8300 113.0900
" />
<path d="M135.8300 113.0900
L138.4900 113.0900
" />
<path d="M137.1600 110.4300
L138.4900 110.4300
" />
<path d="M138.4900 110.4300
L138.4900 111.7600
" />
<path d="M138.4900 112.9700
L138.4900 113.0900
" />
<path d="M130.7500 87.5700
L130.7500 87.6900
" />
<path d="M130.7500 87.6900
L133.4100 87.6900
" />
<path d="M132.0800 85.0300
L133.4100 85.0300
" />
<path d="M133.4100 85.0300
L133.4100 86.3600
" />
<path d="M133.4100 87.5700
L133.4100 87.6900
" />
<path d="M190.5000 100.1000
L190.5000 100.7900
" />
<path d="M190.5000 110.7200
L190.5000 110.0300
" />
<path style="fill:none; 
stroke:#000000; stroke-width:0.1200; stroke-opacity:1; 
stroke-linecap:round; stroke-linejoin:round;fill:none"
d="M 188.7800,110.0300
192.2200,110.0300
192.2200,100.7900
188.7800,100.7900
Z" /> 
<path d="M115.4400 89.4400
L115.4400 95.7500
" />
<path d="M115.4400 95.7500
L115.8000 95.7500
" />
<path d="M115.4400 102.0600
L115.4400 108.3700
" />
<path d="M115.4400 108.3700
L186.8200 108.3700
" />
<path d="M115.8000 95.7500
L115.8000 102.0600
" />
<path d="M115.8000 102.0600
L115.4400 102.0600
" />
<path d="M186.8200 89.4400
L115.4400 89.4400
" />
<path d="M186.8200 108.3700
L186.8200 89.4400
" />
<path d="M176.4700 62.2300
L176.4700 80.0700
" />
<path d="M176.4700 62.2300
L179.1300 62.2300
" />
<path d="M176.4700 80.0700
L179.1300 80.0700
" />
<path d="M177.8000 59.6300
L179.1300 59.6300
" />
<path d="M179.1300 59.6300
L179.1300 60.9600
" />
<path d="M179.1300 62.2300
L179.1300 80.0700
" />
<path d="M135.8300 87.5700
L135.8300 87.6900
" />
<path d="M135.8300 87.6900
L138.4900 87.6900
" />
<path d="M137.1600 85.0300
L138.4900 85.0300
" />
<path d="M138.4900 85.0300
L138.4900 86.3600
" />
<path d="M138.4900 87.5700
L138.4900 87.6900
" />
<path d="M109.0400 63.9800
L123.6400 63.9800
" />
<path d="M109.0400 73.1800
L109.0400 63.9800
" />
<path d="M118.0400 73.1800
L109.0400 73.1800
" />
<path d="M122.1400 63.7400
L123.8800 63.7400
" />
<path d="M123.6400 63.9800
L123.6400 66.7800
" />
<path d="M123.6400 70.3800
L123.6400 73.1800
" />
<path d="M123.6400 73.1800
L121.6400 73.1800
" />
<path d="M123.8800 63.7400
L123.8800 65.4800
" />
<path d="M141.6600 118.2700
L141.6600 125.5700
" />
<path d="M141.6600 125.5700
L144.8600 125.5700
" />
<path d="M144.8600 125.2100
L148.0600 125.2100
" />
<path d="M144.8600 125.5700
L144.8600 125.2100
" />
<path d="M148.0600 125.2100
L148.0600 125.5700
" />
<path d="M148.0600 125.5700
L151.2600 125.5700
" />
<path d="M151.2600 118.2700
L141.6600 118.2700
" />
<path d="M151.2600 125.5700
L151.2600 118.2700
" />
<path d="M126.9100 69.4000
L132.2500 69.4000
" />
<path d="M126.9100 70.0940
L126.9100 69.4000
" />
<path d="M126.9100 72.8400
L126.9100 72.1460
" />
<path d="M132.2500 69.4000
L132.2500 70.0940
" />
<path d="M132.2500 72.1460
L132.2500 72.8400
" />
<path d="M132.2500 72.8400
L126.9100 72.8400
" />
<path d="M163.7700 118.0500
L163.7700 118.1700
" />
<path d="M163.7700 118.1700
L166.4300 118.1700
" />
<path d="M165.1000 115.5100
L166.4300 115.5100
" />
<path d="M166.4300 115.5100
L166.4300 116.8400
" />
<path d="M166.4300 118.0500
L166.4300 118.1700
" />
<path d="M151.0700 112.9700
L151.0700 113.0900
" />
<path d="M151.0700 113.0900
L153.7300 113.0900
" />
<path d="M152.4000 110.4300
L153.7300 110.4300
" />
<path d="M153.7300 110.4300
L153.7300 111.7600
" />
<path d="M153.7300 112.9700
L153.7300 113.0900
" />
<path d="M134.6200 120.4200
L134.6200 121.1100
" />
<path d="M134.6200 131.0400
L134.6200 130.3500
" />
<path style="fill:none; 
stroke:#000000; stroke-width:0.1200; stroke-opacity:1; 
stroke-linecap:round; stroke-linejoin:round;fill:none"
d="M 132.9000,130.3500
136.3400,130.3500
136.3400,121.1100
132.9000,121.1100
Z" /> 
<path style="fill:none; 
stroke:#000000; stroke-width:0.0500; stroke-opacity:1; 
stroke-linecap:round; stroke-linejoin:round;fill:none"
d="M 99.0600,50.8000
198.1200,50.8000
198.1200,144.7800
99.0600,144.7800
Z" /> 
</g> 
</svg>
